%TF.GenerationSoftware,KiCad,Pcbnew,(6.0.2)*%
%TF.CreationDate,2022-07-06T09:04:23-05:00*%
%TF.ProjectId,WiFiModem,57694669-4d6f-4646-956d-2e6b69636164,rev?*%
%TF.SameCoordinates,Original*%
%TF.FileFunction,Copper,L2,Bot*%
%TF.FilePolarity,Positive*%
%FSLAX46Y46*%
G04 Gerber Fmt 4.6, Leading zero omitted, Abs format (unit mm)*
G04 Created by KiCad (PCBNEW (6.0.2)) date 2022-07-06 09:04:23*
%MOMM*%
%LPD*%
G01*
G04 APERTURE LIST*
G04 Aperture macros list*
%AMRoundRect*
0 Rectangle with rounded corners*
0 $1 Rounding radius*
0 $2 $3 $4 $5 $6 $7 $8 $9 X,Y pos of 4 corners*
0 Add a 4 corners polygon primitive as box body*
4,1,4,$2,$3,$4,$5,$6,$7,$8,$9,$2,$3,0*
0 Add four circle primitives for the rounded corners*
1,1,$1+$1,$2,$3*
1,1,$1+$1,$4,$5*
1,1,$1+$1,$6,$7*
1,1,$1+$1,$8,$9*
0 Add four rect primitives between the rounded corners*
20,1,$1+$1,$2,$3,$4,$5,0*
20,1,$1+$1,$4,$5,$6,$7,0*
20,1,$1+$1,$6,$7,$8,$9,0*
20,1,$1+$1,$8,$9,$2,$3,0*%
G04 Aperture macros list end*
%TA.AperFunction,ComponentPad*%
%ADD10C,1.600000*%
%TD*%
%TA.AperFunction,ComponentPad*%
%ADD11O,1.600000X1.600000*%
%TD*%
%TA.AperFunction,ComponentPad*%
%ADD12R,1.700000X1.700000*%
%TD*%
%TA.AperFunction,ComponentPad*%
%ADD13O,1.700000X1.700000*%
%TD*%
%TA.AperFunction,ComponentPad*%
%ADD14C,4.000000*%
%TD*%
%TA.AperFunction,ComponentPad*%
%ADD15R,1.600000X1.600000*%
%TD*%
%TA.AperFunction,ComponentPad*%
%ADD16R,1.905000X2.000000*%
%TD*%
%TA.AperFunction,ComponentPad*%
%ADD17O,1.905000X2.000000*%
%TD*%
%TA.AperFunction,ComponentPad*%
%ADD18C,2.000000*%
%TD*%
%TA.AperFunction,ComponentPad*%
%ADD19R,3.500000X3.500000*%
%TD*%
%TA.AperFunction,ComponentPad*%
%ADD20RoundRect,0.750000X0.750000X1.000000X-0.750000X1.000000X-0.750000X-1.000000X0.750000X-1.000000X0*%
%TD*%
%TA.AperFunction,ComponentPad*%
%ADD21RoundRect,0.875000X0.875000X0.875000X-0.875000X0.875000X-0.875000X-0.875000X0.875000X-0.875000X0*%
%TD*%
%TA.AperFunction,ViaPad*%
%ADD22C,0.800000*%
%TD*%
%TA.AperFunction,Conductor*%
%ADD23C,0.350000*%
%TD*%
G04 APERTURE END LIST*
D10*
%TO.P,R9,1*%
%TO.N,Net-(U1-Pad4)*%
X88900000Y-81280000D03*
D11*
%TO.P,R9,2*%
%TO.N,+3V3*%
X88900000Y-88900000D03*
%TD*%
D12*
%TO.P,JP8,1,A*%
%TO.N,Net-(U1-Pad4)*%
X87630000Y-76713000D03*
D13*
%TO.P,JP8,2,B*%
%TO.N,GND*%
X87630000Y-74173000D03*
%TD*%
D12*
%TO.P,JP3,1,A*%
%TO.N,RTS*%
X122050000Y-116840000D03*
D13*
%TO.P,JP3,2,C*%
%TO.N,RTSB*%
X122050000Y-114300000D03*
%TO.P,JP3,3,B*%
%TO.N,CTS*%
X122050000Y-111760000D03*
%TD*%
D12*
%TO.P,JP2,1,A*%
%TO.N,TXD*%
X135950000Y-116730000D03*
D13*
%TO.P,JP2,2,C*%
%TO.N,TXDB*%
X135950000Y-114190000D03*
%TO.P,JP2,3,B*%
%TO.N,RXD*%
X135950000Y-111650000D03*
%TD*%
D14*
%TO.P,J1,0*%
%TO.N,N/C*%
X153970000Y-97345000D03*
X153970000Y-122345000D03*
D15*
%TO.P,J1,1,1*%
%TO.N,DCD*%
X153670000Y-104305000D03*
D10*
%TO.P,J1,2,2*%
%TO.N,TXD*%
X153670000Y-107075000D03*
%TO.P,J1,3,3*%
%TO.N,RXD*%
X153670000Y-109845000D03*
%TO.P,J1,4,4*%
%TO.N,DTR*%
X153670000Y-112615000D03*
%TO.P,J1,5,5*%
%TO.N,GND*%
X153670000Y-115385000D03*
%TO.P,J1,6,6*%
%TO.N,DSR*%
X156510000Y-105690000D03*
%TO.P,J1,7,7*%
%TO.N,CTS*%
X156510000Y-108460000D03*
%TO.P,J1,8,8*%
%TO.N,RTS*%
X156510000Y-111230000D03*
%TO.P,J1,9,9*%
%TO.N,RI*%
X156510000Y-114000000D03*
%TD*%
D15*
%TO.P,U3,1,C1+*%
%TO.N,Net-(C7-Pad1)*%
X100340000Y-96002000D03*
D11*
%TO.P,U3,2,VS+*%
%TO.N,Net-(C2-Pad2)*%
X100340000Y-98542000D03*
%TO.P,U3,3,C1-*%
%TO.N,Net-(C7-Pad2)*%
X100340000Y-101082000D03*
%TO.P,U3,4,C2+*%
%TO.N,Net-(C4-Pad1)*%
X100340000Y-103622000D03*
%TO.P,U3,5,C2-*%
%TO.N,Net-(C4-Pad2)*%
X100340000Y-106162000D03*
%TO.P,U3,6,VS-*%
%TO.N,Net-(C3-Pad2)*%
X100340000Y-108702000D03*
%TO.P,U3,7,T2OUT*%
%TO.N,CTSB*%
X100340000Y-111242000D03*
%TO.P,U3,8,R2IN*%
%TO.N,RTSB*%
X100340000Y-113782000D03*
%TO.P,U3,9,R2OUT*%
%TO.N,Net-(R1-Pad1)*%
X107960000Y-113782000D03*
%TO.P,U3,10,T2IN*%
%TO.N,Net-(JP7-Pad3)*%
X107960000Y-111242000D03*
%TO.P,U3,11,T1IN*%
%TO.N,Net-(JP5-Pad1)*%
X107960000Y-108702000D03*
%TO.P,U3,12,R1OUT*%
%TO.N,Net-(R3-Pad1)*%
X107960000Y-106162000D03*
%TO.P,U3,13,R1IN*%
%TO.N,TXDB*%
X107960000Y-103622000D03*
%TO.P,U3,14,T1OUT*%
%TO.N,RXDB*%
X107960000Y-101082000D03*
%TO.P,U3,15,GND*%
%TO.N,GND*%
X107960000Y-98542000D03*
%TO.P,U3,16,VCC*%
%TO.N,+5V*%
X107960000Y-96002000D03*
%TD*%
D16*
%TO.P,U2,1,VI*%
%TO.N,Net-(C1-Pad1)*%
X143002000Y-90764000D03*
D17*
%TO.P,U2,2,GND*%
%TO.N,GND*%
X145542000Y-90764000D03*
%TO.P,U2,3,VO*%
%TO.N,+5V*%
X148082000Y-90764000D03*
%TD*%
D10*
%TO.P,C3,2*%
%TO.N,Net-(C3-Pad2)*%
X93864887Y-117460000D03*
D15*
%TO.P,C3,1*%
%TO.N,GND*%
X91864887Y-117460000D03*
%TD*%
%TO.P,C2,1*%
%TO.N,+5V*%
X92964000Y-98612888D03*
D10*
%TO.P,C2,2*%
%TO.N,Net-(C2-Pad2)*%
X92964000Y-100612888D03*
%TD*%
D15*
%TO.P,C1,1*%
%TO.N,Net-(C1-Pad1)*%
X153416000Y-73914000D03*
D10*
%TO.P,C1,2*%
%TO.N,GND*%
X155416000Y-73914000D03*
%TD*%
D18*
%TO.P,SW1,1,1*%
%TO.N,GND*%
X128270000Y-74068800D03*
X128270000Y-80568800D03*
%TO.P,SW1,2,2*%
%TO.N,Net-(R6-Pad2)*%
X123770000Y-74068800D03*
X123770000Y-80568800D03*
%TD*%
D10*
%TO.P,R6,1*%
%TO.N,+3V3*%
X91186000Y-78740000D03*
D11*
%TO.P,R6,2*%
%TO.N,Net-(R6-Pad2)*%
X91186000Y-71120000D03*
%TD*%
D10*
%TO.P,R8,1*%
%TO.N,+3V3*%
X119430800Y-84480400D03*
D11*
%TO.P,R8,2*%
%TO.N,Net-(R8-Pad2)*%
X119430800Y-76860400D03*
%TD*%
D10*
%TO.P,R7,1*%
%TO.N,Net-(JP7-Pad1)*%
X116078000Y-84455000D03*
D11*
%TO.P,R7,2*%
%TO.N,GND*%
X116078000Y-76835000D03*
%TD*%
D12*
%TO.P,JP1,1,A*%
%TO.N,RXD*%
X131560000Y-116860000D03*
D13*
%TO.P,JP1,2,C*%
%TO.N,RXDB*%
X131560000Y-114320000D03*
%TO.P,JP1,3,B*%
%TO.N,TXD*%
X131560000Y-111780000D03*
%TD*%
D10*
%TO.P,R3,1*%
%TO.N,Net-(R3-Pad1)*%
X111900000Y-109740000D03*
D11*
%TO.P,R3,2*%
%TO.N,Net-(JP6-Pad1)*%
X111900000Y-102120000D03*
%TD*%
D14*
%TO.P,J2,0*%
%TO.N,N/C*%
X81130000Y-75620000D03*
X81130000Y-122720000D03*
D15*
%TO.P,J2,1,1*%
%TO.N,unconnected-(J2-Pad1)*%
X82550000Y-82550000D03*
D10*
%TO.P,J2,2,2*%
%TO.N,TXD*%
X82550000Y-85320000D03*
%TO.P,J2,3,3*%
%TO.N,RXD*%
X82550000Y-88090000D03*
%TO.P,J2,4,4*%
%TO.N,RTS*%
X82550000Y-90860000D03*
%TO.P,J2,5,5*%
%TO.N,CTS*%
X82550000Y-93630000D03*
%TO.P,J2,6,6*%
%TO.N,DSR*%
X82550000Y-96400000D03*
%TO.P,J2,7,7*%
%TO.N,GND*%
X82550000Y-99170000D03*
%TO.P,J2,8,8*%
%TO.N,unconnected-(J2-Pad8)*%
X82550000Y-101940000D03*
%TO.P,J2,9,9*%
%TO.N,unconnected-(J2-Pad9)*%
X82550000Y-104710000D03*
%TO.P,J2,10,10*%
%TO.N,unconnected-(J2-Pad10)*%
X82550000Y-107480000D03*
%TO.P,J2,11,11*%
%TO.N,unconnected-(J2-Pad11)*%
X82550000Y-110250000D03*
%TO.P,J2,12,12*%
%TO.N,unconnected-(J2-Pad12)*%
X82550000Y-113020000D03*
%TO.P,J2,13,13*%
%TO.N,unconnected-(J2-Pad13)*%
X82550000Y-115790000D03*
%TO.P,J2,14,P14*%
%TO.N,unconnected-(J2-Pad14)*%
X79710000Y-83935000D03*
%TO.P,J2,15,P15*%
%TO.N,unconnected-(J2-Pad15)*%
X79710000Y-86705000D03*
%TO.P,J2,16,P16*%
%TO.N,unconnected-(J2-Pad16)*%
X79710000Y-89475000D03*
%TO.P,J2,17,P17*%
%TO.N,unconnected-(J2-Pad17)*%
X79710000Y-92245000D03*
%TO.P,J2,18,P18*%
%TO.N,unconnected-(J2-Pad18)*%
X79710000Y-95015000D03*
%TO.P,J2,19,P19*%
%TO.N,unconnected-(J2-Pad19)*%
X79710000Y-97785000D03*
%TO.P,J2,20,P20*%
%TO.N,DTR*%
X79710000Y-100555000D03*
%TO.P,J2,21,P21*%
%TO.N,unconnected-(J2-Pad21)*%
X79710000Y-103325000D03*
%TO.P,J2,22,P22*%
%TO.N,RI*%
X79710000Y-106095000D03*
%TO.P,J2,23,P23*%
%TO.N,unconnected-(J2-Pad23)*%
X79710000Y-108865000D03*
%TO.P,J2,24,P24*%
%TO.N,unconnected-(J2-Pad24)*%
X79710000Y-111635000D03*
%TO.P,J2,25,P25*%
%TO.N,unconnected-(J2-Pad25)*%
X79710000Y-114405000D03*
%TD*%
%TO.P,C9,2*%
%TO.N,+3V3*%
X94662000Y-91694000D03*
%TO.P,C9,1*%
%TO.N,GND*%
X89662000Y-91694000D03*
%TD*%
D12*
%TO.P,JP6,1,A*%
%TO.N,Net-(JP6-Pad1)*%
X124300000Y-101740000D03*
D13*
%TO.P,JP6,2,C*%
%TO.N,Net-(JP6-Pad2)*%
X124300000Y-99200000D03*
%TO.P,JP6,3,B*%
%TO.N,Net-(J4-Pad2)*%
X124300000Y-96660000D03*
%TD*%
D12*
%TO.P,J4,1,Pin_1*%
%TO.N,GND*%
X124445000Y-90678000D03*
D13*
%TO.P,J4,2,Pin_2*%
%TO.N,Net-(J4-Pad2)*%
X121905000Y-90678000D03*
%TO.P,J4,3,Pin_3*%
%TO.N,Net-(J4-Pad3)*%
X119365000Y-90678000D03*
%TD*%
D15*
%TO.P,C6,1*%
%TO.N,+5V*%
X112903000Y-96072888D03*
D10*
%TO.P,C6,2*%
%TO.N,GND*%
X112903000Y-98072888D03*
%TD*%
%TO.P,R4,1*%
%TO.N,Net-(JP6-Pad1)*%
X115062000Y-102108000D03*
D11*
%TO.P,R4,2*%
%TO.N,GND*%
X115062000Y-109728000D03*
%TD*%
D18*
%TO.P,SW2,1,1*%
%TO.N,Net-(R8-Pad2)*%
X131912800Y-80516800D03*
X131912800Y-74016800D03*
%TO.P,SW2,2,2*%
%TO.N,GND*%
X136412800Y-80516800D03*
X136412800Y-74016800D03*
%TD*%
D15*
%TO.P,C5,1*%
%TO.N,+5V*%
X142060000Y-95384888D03*
D10*
%TO.P,C5,2*%
%TO.N,GND*%
X142060000Y-97384888D03*
%TD*%
D12*
%TO.P,JP4,1,A*%
%TO.N,CTS*%
X126740000Y-116860000D03*
D13*
%TO.P,JP4,2,C*%
%TO.N,CTSB*%
X126740000Y-114320000D03*
%TO.P,JP4,3,B*%
%TO.N,RTS*%
X126740000Y-111780000D03*
%TD*%
D15*
%TO.P,C7,1*%
%TO.N,Net-(C7-Pad1)*%
X91948000Y-105664000D03*
D10*
%TO.P,C7,2*%
%TO.N,Net-(C7-Pad2)*%
X93948000Y-105664000D03*
%TD*%
D16*
%TO.P,U4,1,GND*%
%TO.N,GND*%
X135990000Y-85830000D03*
D17*
%TO.P,U4,2,VO*%
%TO.N,+3V3*%
X133450000Y-85830000D03*
%TO.P,U4,3,VI*%
%TO.N,+5V*%
X130910000Y-85830000D03*
%TD*%
D15*
%TO.P,C8,1*%
%TO.N,+3V3*%
X142200000Y-102830000D03*
D10*
%TO.P,C8,2*%
%TO.N,GND*%
X142200000Y-104830000D03*
%TD*%
D19*
%TO.P,J3,1*%
%TO.N,Net-(C1-Pad1)*%
X153670000Y-83820000D03*
D20*
%TO.P,J3,2*%
%TO.N,GND*%
X159670000Y-83820000D03*
D21*
%TO.P,J3,3*%
%TO.N,unconnected-(J3-Pad3)*%
X156670000Y-79120000D03*
%TD*%
D10*
%TO.P,R1,1*%
%TO.N,Net-(R1-Pad1)*%
X104590000Y-91750000D03*
D11*
%TO.P,R1,2*%
%TO.N,Net-(R1-Pad2)*%
X96970000Y-91750000D03*
%TD*%
D15*
%TO.P,C4,1*%
%TO.N,Net-(C4-Pad1)*%
X91948000Y-111506000D03*
D10*
%TO.P,C4,2*%
%TO.N,Net-(C4-Pad2)*%
X93948000Y-111506000D03*
%TD*%
D12*
%TO.P,JP7,1,A*%
%TO.N,Net-(JP7-Pad1)*%
X114145000Y-91660000D03*
D13*
%TO.P,JP7,2,C*%
%TO.N,Net-(JP7-Pad2)*%
X111605000Y-91660000D03*
%TO.P,JP7,3,B*%
%TO.N,Net-(JP7-Pad3)*%
X109065000Y-91660000D03*
%TD*%
D11*
%TO.P,R5,2*%
%TO.N,Net-(R5-Pad2)*%
X92202000Y-81280000D03*
D10*
%TO.P,R5,1*%
%TO.N,+3V3*%
X92202000Y-88900000D03*
%TD*%
%TO.P,R2,1*%
%TO.N,Net-(R1-Pad2)*%
X96774000Y-94996000D03*
D11*
%TO.P,R2,2*%
%TO.N,GND*%
X89154000Y-94996000D03*
%TD*%
D12*
%TO.P,JP5,1,A*%
%TO.N,Net-(JP5-Pad1)*%
X119507000Y-101752400D03*
D13*
%TO.P,JP5,2,C*%
%TO.N,Net-(JP5-Pad2)*%
X119507000Y-99212400D03*
%TO.P,JP5,3,B*%
%TO.N,Net-(J4-Pad3)*%
X119507000Y-96672400D03*
%TD*%
D22*
%TO.N,+5V*%
X104060000Y-95750000D03*
X117150000Y-104590000D03*
%TO.N,+3V3*%
X100736400Y-84124800D03*
X123960000Y-83850000D03*
%TO.N,TXD*%
X137464800Y-120015000D03*
%TO.N,RXD*%
X133680200Y-124460000D03*
%TO.N,DSR*%
X87884000Y-97536000D03*
%TO.N,CTS*%
X127711200Y-120980200D03*
%TO.N,RTS*%
X122809000Y-122199400D03*
%TO.N,Net-(JP5-Pad2)*%
X108712000Y-75184000D03*
%TO.N,Net-(JP6-Pad2)*%
X114300000Y-76708000D03*
%TO.N,Net-(R1-Pad1)*%
X103276400Y-113233200D03*
%TO.N,Net-(R1-Pad2)*%
X98962945Y-84802945D03*
%TO.N,Net-(JP7-Pad2)*%
X113940000Y-85100000D03*
%TO.N,Net-(R6-Pad2)*%
X99415600Y-72948800D03*
%TO.N,Net-(JP7-Pad3)*%
X103530400Y-110591600D03*
%TD*%
D23*
%TO.N,+3V3*%
X92202000Y-88900000D02*
X92202000Y-89234000D01*
X92202000Y-88900000D02*
X88900000Y-88900000D01*
X92202000Y-85598000D02*
X92202000Y-88900000D01*
X90424000Y-83820000D02*
X92202000Y-85598000D01*
X90424000Y-80518000D02*
X90424000Y-83820000D01*
X92202000Y-89234000D02*
X94662000Y-91694000D01*
X91186000Y-78740000D02*
X91186000Y-79756000D01*
X91186000Y-79756000D02*
X90424000Y-80518000D01*
%TO.N,Net-(U1-Pad4)*%
X87630000Y-80010000D02*
X88900000Y-81280000D01*
X87630000Y-76713000D02*
X87630000Y-80010000D01*
%TO.N,Net-(R1-Pad2)*%
X96774000Y-91946000D02*
X96970000Y-91750000D01*
X96774000Y-94996000D02*
X96774000Y-91946000D01*
X98962945Y-90775055D02*
X98962945Y-84802945D01*
X97988000Y-91750000D02*
X98962945Y-90775055D01*
X96970000Y-91750000D02*
X97988000Y-91750000D01*
%TO.N,+5V*%
X98560000Y-94870000D02*
X98560000Y-96200000D01*
X96147112Y-98612888D02*
X92964000Y-98612888D01*
X102250000Y-93940000D02*
X99490000Y-93940000D01*
X99490000Y-93940000D02*
X98560000Y-94870000D01*
X104060000Y-95750000D02*
X102250000Y-93940000D01*
X98560000Y-96200000D02*
X96147112Y-98612888D01*
%TO.N,Net-(C2-Pad2)*%
X98054000Y-98542000D02*
X95983112Y-100612888D01*
X100340000Y-98542000D02*
X98054000Y-98542000D01*
X95983112Y-100612888D02*
X92964000Y-100612888D01*
%TO.N,Net-(C7-Pad2)*%
X95758000Y-105664000D02*
X93948000Y-105664000D01*
X100340000Y-101082000D02*
X95758000Y-105664000D01*
%TO.N,Net-(C7-Pad1)*%
X91948000Y-104902000D02*
X91948000Y-105664000D01*
X93218000Y-103632000D02*
X91948000Y-104902000D01*
X99060000Y-99822000D02*
X95250000Y-103632000D01*
X101854000Y-99060000D02*
X101092000Y-99822000D01*
X101854000Y-97282000D02*
X101854000Y-99060000D01*
X101092000Y-99822000D02*
X99060000Y-99822000D01*
X100574000Y-96002000D02*
X101854000Y-97282000D01*
X95250000Y-103632000D02*
X93218000Y-103632000D01*
X100340000Y-96002000D02*
X100574000Y-96002000D01*
%TO.N,Net-(C4-Pad1)*%
X98044000Y-106680000D02*
X98044000Y-105918000D01*
X95504000Y-109220000D02*
X98044000Y-106680000D01*
X93472000Y-109220000D02*
X95504000Y-109220000D01*
X91948000Y-110744000D02*
X93472000Y-109220000D01*
X98044000Y-105918000D02*
X100340000Y-103622000D01*
X91948000Y-111506000D02*
X91948000Y-110744000D01*
%TO.N,Net-(C4-Pad2)*%
X97536000Y-110236000D02*
X96266000Y-111506000D01*
X97536000Y-108966000D02*
X97536000Y-110236000D01*
X96266000Y-111506000D02*
X93948000Y-111506000D01*
X100340000Y-106162000D02*
X97536000Y-108966000D01*
%TO.N,Net-(C3-Pad2)*%
X96470000Y-117460000D02*
X93864887Y-117460000D01*
X98050000Y-110992000D02*
X98050000Y-115880000D01*
X98050000Y-115880000D02*
X96470000Y-117460000D01*
X100340000Y-108702000D02*
X98050000Y-110992000D01*
%TO.N,Net-(R1-Pad2)*%
X96780000Y-91820000D02*
X96900000Y-91820000D01*
%TO.N,Net-(C1-Pad1)*%
X153924000Y-83566000D02*
X153924000Y-74422000D01*
X153162000Y-84328000D02*
X153670000Y-83820000D01*
X153670000Y-83820000D02*
X153924000Y-83566000D01*
X143002000Y-90764000D02*
X143002000Y-86868000D01*
X143002000Y-86868000D02*
X145542000Y-84328000D01*
X145542000Y-84328000D02*
X153162000Y-84328000D01*
X153924000Y-74422000D02*
X153416000Y-73914000D01*
%TO.N,+5V*%
X130910000Y-85830000D02*
X130910000Y-101170000D01*
X112903000Y-96072888D02*
X108030888Y-96072888D01*
X145730000Y-97970000D02*
X143124888Y-95364888D01*
X108030888Y-96072888D02*
X107960000Y-96002000D01*
X118060000Y-105500000D02*
X117150000Y-104590000D01*
X142210000Y-95364888D02*
X143124888Y-95364888D01*
X145495112Y-95364888D02*
X148590000Y-92270000D01*
X126620000Y-105460000D02*
X126580000Y-105500000D01*
X148590000Y-91272000D02*
X148082000Y-90764000D01*
X143910000Y-107620000D02*
X145730000Y-105800000D01*
X145730000Y-105800000D02*
X145730000Y-97970000D01*
X138970000Y-107620000D02*
X143910000Y-107620000D01*
X130910000Y-101170000D02*
X126620000Y-105460000D01*
X148590000Y-92270000D02*
X148590000Y-91272000D01*
X118060000Y-105500000D02*
X136850000Y-105500000D01*
X136850000Y-105500000D02*
X138970000Y-107620000D01*
X143124888Y-95364888D02*
X145495112Y-95364888D01*
%TO.N,+3V3*%
X100736400Y-84124800D02*
X100736400Y-83667600D01*
X102006400Y-82397600D02*
X118567200Y-82397600D01*
X133450000Y-85830000D02*
X133450000Y-84310000D01*
X133450000Y-97000000D02*
X139280000Y-102830000D01*
X133450000Y-84310000D02*
X132930000Y-83790000D01*
X118567200Y-82397600D02*
X119430800Y-83261200D01*
X133450000Y-85830000D02*
X133450000Y-97000000D01*
X139280000Y-102830000D02*
X142200000Y-102830000D01*
X132930000Y-83790000D02*
X124020000Y-83790000D01*
X124020000Y-83790000D02*
X123960000Y-83850000D01*
X100736400Y-83667600D02*
X102006400Y-82397600D01*
X119430800Y-83261200D02*
X119430800Y-84480400D01*
%TO.N,TXD*%
X89712800Y-119938800D02*
X86868000Y-117094000D01*
X83415000Y-85320000D02*
X82550000Y-85320000D01*
X84455000Y-86360000D02*
X83415000Y-85320000D01*
X145510000Y-114240000D02*
X145510000Y-116860000D01*
X145510000Y-116860000D02*
X142431200Y-119938800D01*
X153670000Y-107075000D02*
X152675000Y-107075000D01*
X86868000Y-117094000D02*
X86868000Y-96520000D01*
X84455000Y-94107000D02*
X84455000Y-86360000D01*
X152675000Y-107075000D02*
X145510000Y-114240000D01*
X133630000Y-115720000D02*
X134640000Y-116730000D01*
X86868000Y-96520000D02*
X84455000Y-94107000D01*
X137464800Y-120015000D02*
X137541000Y-119938800D01*
X134640000Y-116730000D02*
X135950000Y-116730000D01*
X89712800Y-119938800D02*
X142431200Y-119938800D01*
X131560000Y-111780000D02*
X133630000Y-113850000D01*
X133630000Y-113850000D02*
X133630000Y-115720000D01*
%TO.N,RXD*%
X77470000Y-99695000D02*
X77470000Y-89535000D01*
X146942800Y-124917200D02*
X153940000Y-117920000D01*
X133680200Y-124561600D02*
X133680200Y-124460000D01*
X158220000Y-110580000D02*
X157480000Y-109840000D01*
X88087200Y-124917200D02*
X81915000Y-118745000D01*
X158220000Y-114870000D02*
X158220000Y-110580000D01*
X155880000Y-109840000D02*
X155875000Y-109845000D01*
X134035800Y-124917200D02*
X133680200Y-124561600D01*
X75565000Y-114300000D02*
X75565000Y-101600000D01*
X155170000Y-117920000D02*
X158220000Y-114870000D01*
X134035800Y-124917200D02*
X146942800Y-124917200D01*
X153940000Y-117920000D02*
X155170000Y-117920000D01*
X77470000Y-89535000D02*
X78915000Y-88090000D01*
X78915000Y-88090000D02*
X82550000Y-88090000D01*
X75565000Y-101600000D02*
X77470000Y-99695000D01*
X155875000Y-109845000D02*
X153670000Y-109845000D01*
X134035800Y-124917200D02*
X88087200Y-124917200D01*
X157480000Y-109840000D02*
X155880000Y-109840000D01*
X80010000Y-118745000D02*
X75565000Y-114300000D01*
X81915000Y-118745000D02*
X80010000Y-118745000D01*
%TO.N,DTR*%
X88773000Y-123063000D02*
X84455000Y-118745000D01*
X83820000Y-106045000D02*
X81915000Y-106045000D01*
X148683000Y-118017000D02*
X148683000Y-119097000D01*
X78105000Y-104140000D02*
X78105000Y-101600000D01*
X153670000Y-113030000D02*
X148683000Y-118017000D01*
X80645000Y-104775000D02*
X78740000Y-104775000D01*
X84455000Y-118745000D02*
X84455000Y-106680000D01*
X81915000Y-106045000D02*
X80645000Y-104775000D01*
X84455000Y-106680000D02*
X83820000Y-106045000D01*
X79150000Y-100555000D02*
X79710000Y-100555000D01*
X125247400Y-122529600D02*
X124714000Y-123063000D01*
X124714000Y-123063000D02*
X88773000Y-123063000D01*
X78105000Y-101600000D02*
X79150000Y-100555000D01*
X78740000Y-104775000D02*
X78105000Y-104140000D01*
X153670000Y-112615000D02*
X153670000Y-113030000D01*
X148683000Y-119097000D02*
X145250400Y-122529600D01*
X145250400Y-122529600D02*
X125247400Y-122529600D01*
%TO.N,DSR*%
X152490000Y-105690000D02*
X156510000Y-105690000D01*
X90170000Y-119126000D02*
X140970000Y-119126000D01*
X87884000Y-97536000D02*
X87884000Y-116840000D01*
X87884000Y-116840000D02*
X90170000Y-119126000D01*
X140970000Y-119126000D02*
X144018000Y-116078000D01*
X144018000Y-116078000D02*
X144018000Y-114162000D01*
X144018000Y-114162000D02*
X152490000Y-105690000D01*
%TO.N,CTS*%
X128803400Y-120954800D02*
X127736600Y-120954800D01*
X122050000Y-111760000D02*
X122220000Y-111760000D01*
X152970000Y-108460000D02*
X156510000Y-108460000D01*
X146870000Y-114560000D02*
X152970000Y-108460000D01*
X124550000Y-115660000D02*
X125750000Y-116860000D01*
X124550000Y-114090000D02*
X124550000Y-115660000D01*
X129108200Y-120980200D02*
X89230200Y-120980200D01*
X127736600Y-120954800D02*
X127711200Y-120980200D01*
X86106000Y-117856000D02*
X86106000Y-97186000D01*
X89230200Y-120980200D02*
X86106000Y-117856000D01*
X143015200Y-120954800D02*
X146870000Y-117100000D01*
X146870000Y-117100000D02*
X146870000Y-114560000D01*
X86106000Y-97186000D02*
X82550000Y-93630000D01*
X122220000Y-111760000D02*
X124550000Y-114090000D01*
X125750000Y-116860000D02*
X126740000Y-116860000D01*
X128803400Y-120954800D02*
X143015200Y-120954800D01*
%TO.N,RTS*%
X81280000Y-91495000D02*
X81915000Y-90860000D01*
X81915000Y-90860000D02*
X82550000Y-90860000D01*
X85344000Y-99314000D02*
X83820000Y-97790000D01*
X89027000Y-122047000D02*
X85344000Y-118364000D01*
X85344000Y-118364000D02*
X85344000Y-99314000D01*
X81915000Y-97790000D02*
X81280000Y-97155000D01*
X152710000Y-111230000D02*
X156510000Y-111230000D01*
X81280000Y-97155000D02*
X81280000Y-91495000D01*
X122809000Y-122199400D02*
X123215400Y-121793000D01*
X144037000Y-121793000D02*
X147650000Y-118180000D01*
X147650000Y-116290000D02*
X152710000Y-111230000D01*
X147650000Y-118180000D02*
X147650000Y-116290000D01*
X123215400Y-121793000D02*
X144037000Y-121793000D01*
X122961400Y-122047000D02*
X89027000Y-122047000D01*
X83820000Y-97790000D02*
X81915000Y-97790000D01*
%TO.N,RI*%
X82296000Y-117856000D02*
X88290400Y-123850400D01*
X152830000Y-116950000D02*
X154670000Y-116950000D01*
X80264000Y-117856000D02*
X82296000Y-117856000D01*
X79710000Y-106095000D02*
X77578750Y-106095000D01*
X125704600Y-123850400D02*
X126111000Y-123444000D01*
X76835000Y-114427000D02*
X80264000Y-117856000D01*
X155580000Y-116040000D02*
X155580000Y-114930000D01*
X76835000Y-106838750D02*
X76835000Y-114427000D01*
X88290400Y-123850400D02*
X125704600Y-123850400D01*
X146336000Y-123444000D02*
X152830000Y-116950000D01*
X126111000Y-123444000D02*
X146336000Y-123444000D01*
X77578750Y-106095000D02*
X76835000Y-106838750D01*
X155580000Y-114930000D02*
X156510000Y-114000000D01*
X154670000Y-116950000D02*
X155580000Y-116040000D01*
%TO.N,Net-(J4-Pad2)*%
X121905000Y-90678000D02*
X121905000Y-94265000D01*
X121905000Y-94265000D02*
X124300000Y-96660000D01*
%TO.N,Net-(J4-Pad3)*%
X119507000Y-90820000D02*
X119365000Y-90678000D01*
X119507000Y-96672400D02*
X119507000Y-90820000D01*
%TO.N,RXDB*%
X115150000Y-116600000D02*
X106948000Y-116600000D01*
X120340000Y-108400000D02*
X126860000Y-108400000D01*
X119126000Y-109784000D02*
X119126000Y-109614000D01*
X106690000Y-101082000D02*
X107960000Y-101082000D01*
X129130000Y-110670000D02*
X129130000Y-113670000D01*
X119126000Y-109784000D02*
X119126000Y-112624000D01*
X126860000Y-108400000D02*
X129130000Y-110670000D01*
X129130000Y-113670000D02*
X129780000Y-114320000D01*
X104546400Y-103225600D02*
X106690000Y-101082000D01*
X129780000Y-114320000D02*
X131560000Y-114320000D01*
X106948000Y-116600000D02*
X104546400Y-114198400D01*
X119126000Y-112624000D02*
X115150000Y-116600000D01*
X104546400Y-114198400D02*
X104546400Y-103225600D01*
X119126000Y-109614000D02*
X120340000Y-108400000D01*
%TO.N,TXDB*%
X106486800Y-103622000D02*
X107960000Y-103622000D01*
X135950000Y-114190000D02*
X135950000Y-113930000D01*
X119660000Y-107570000D02*
X118260000Y-108970000D01*
X135950000Y-113930000D02*
X137940000Y-111940000D01*
X107467400Y-115697000D02*
X105410000Y-113639600D01*
X118260000Y-112040000D02*
X114603000Y-115697000D01*
X135430000Y-107570000D02*
X119660000Y-107570000D01*
X105410000Y-104698800D02*
X106486800Y-103622000D01*
X114603000Y-115697000D02*
X107467400Y-115697000D01*
X105410000Y-113639600D02*
X105410000Y-104698800D01*
X137940000Y-111940000D02*
X137940000Y-110080000D01*
X137940000Y-110080000D02*
X135430000Y-107570000D01*
X118260000Y-108970000D02*
X118260000Y-112040000D01*
%TO.N,RTSB*%
X120990000Y-114300000D02*
X122050000Y-114300000D01*
X100340000Y-113782000D02*
X104795000Y-118237000D01*
X104795000Y-118237000D02*
X117053000Y-118237000D01*
X117053000Y-118237000D02*
X120990000Y-114300000D01*
%TO.N,CTSB*%
X124530000Y-112110000D02*
X126740000Y-114320000D01*
X101955600Y-113842800D02*
X105482800Y-117370000D01*
X105482800Y-117370000D02*
X115770000Y-117370000D01*
X101955600Y-112857600D02*
X101955600Y-113842800D01*
X120015000Y-110075000D02*
X120740000Y-109350000D01*
X124530000Y-110140000D02*
X124530000Y-112110000D01*
X115770000Y-117370000D02*
X120015000Y-113125000D01*
X100340000Y-111242000D02*
X101955600Y-112857600D01*
X120015000Y-113125000D02*
X120015000Y-110075000D01*
X123740000Y-109350000D02*
X124530000Y-110140000D01*
X120740000Y-109350000D02*
X123740000Y-109350000D01*
%TO.N,Net-(JP5-Pad1)*%
X119507000Y-102006400D02*
X118143400Y-103370000D01*
X111250000Y-103370000D02*
X109720000Y-104900000D01*
X106375200Y-105308400D02*
X106375200Y-107696000D01*
X106375200Y-107696000D02*
X107381200Y-108702000D01*
X119507000Y-101752400D02*
X119507000Y-102006400D01*
X106783600Y-104900000D02*
X106375200Y-105308400D01*
X118143400Y-103370000D02*
X111250000Y-103370000D01*
X109720000Y-104900000D02*
X106783600Y-104900000D01*
X107381200Y-108702000D02*
X107960000Y-108702000D01*
%TO.N,Net-(JP5-Pad2)*%
X108712000Y-75184000D02*
X114046000Y-80518000D01*
X114046000Y-80518000D02*
X118618000Y-80518000D01*
X117094000Y-98044000D02*
X118262400Y-99212400D01*
X121158000Y-85344000D02*
X117094000Y-89408000D01*
X117094000Y-89408000D02*
X117094000Y-98044000D01*
X118262400Y-99212400D02*
X119507000Y-99212400D01*
X121158000Y-83058000D02*
X121158000Y-85344000D01*
X118618000Y-80518000D02*
X121158000Y-83058000D01*
%TO.N,Net-(JP6-Pad1)*%
X116700000Y-100470000D02*
X115062000Y-102108000D01*
X124300000Y-101740000D02*
X123500000Y-101740000D01*
X122230000Y-100470000D02*
X116700000Y-100470000D01*
X111912000Y-102108000D02*
X111900000Y-102120000D01*
X123500000Y-101740000D02*
X122230000Y-100470000D01*
X115062000Y-102108000D02*
X111912000Y-102108000D01*
%TO.N,Net-(JP6-Pad2)*%
X114300000Y-77216000D02*
X114300000Y-76708000D01*
X122410000Y-85100000D02*
X122410000Y-82820000D01*
X127508000Y-90198000D02*
X122410000Y-85100000D01*
X127508000Y-97790000D02*
X127508000Y-90198000D01*
X116664000Y-79580000D02*
X114300000Y-77216000D01*
X126098000Y-99200000D02*
X127508000Y-97790000D01*
X124300000Y-99200000D02*
X126098000Y-99200000D01*
X122410000Y-82820000D02*
X119170000Y-79580000D01*
X119170000Y-79580000D02*
X116664000Y-79580000D01*
%TO.N,Net-(R1-Pad1)*%
X102108000Y-100838000D02*
X102108000Y-111404400D01*
X103073200Y-112369600D02*
X103073200Y-113030000D01*
X105250000Y-97696000D02*
X102108000Y-100838000D01*
X104590000Y-91750000D02*
X105250000Y-92410000D01*
X105250000Y-92410000D02*
X105250000Y-97696000D01*
X103073200Y-113030000D02*
X103276400Y-113233200D01*
X102108000Y-111404400D02*
X103073200Y-112369600D01*
%TO.N,Net-(JP7-Pad1)*%
X114145000Y-90065000D02*
X116078000Y-88132000D01*
X114145000Y-91660000D02*
X114145000Y-90065000D01*
X116078000Y-88132000D02*
X116078000Y-84455000D01*
%TO.N,Net-(R3-Pad1)*%
X107960000Y-106162000D02*
X109616400Y-106162000D01*
X111900000Y-108445600D02*
X111900000Y-109740000D01*
X109616400Y-106162000D02*
X111900000Y-108445600D01*
%TO.N,Net-(JP7-Pad2)*%
X114050000Y-87800000D02*
X114050000Y-85210000D01*
X111605000Y-91660000D02*
X111605000Y-90245000D01*
X111605000Y-90245000D02*
X114050000Y-87800000D01*
X114050000Y-85210000D02*
X113940000Y-85100000D01*
%TO.N,Net-(R6-Pad2)*%
X100584000Y-74168000D02*
X99415600Y-72999600D01*
X115011200Y-73050400D02*
X122751600Y-73050400D01*
X123770000Y-74068800D02*
X122751600Y-73050400D01*
X115011200Y-73050400D02*
X113995200Y-74066400D01*
X113893600Y-74168000D02*
X100584000Y-74168000D01*
X99415600Y-72999600D02*
X99415600Y-72948800D01*
X113995200Y-74066400D02*
X113893600Y-74168000D01*
%TO.N,Net-(JP7-Pad3)*%
X103124000Y-110185200D02*
X103124000Y-103378000D01*
X106130000Y-94610000D02*
X106940000Y-93800000D01*
X106940000Y-93800000D02*
X107680000Y-93800000D01*
X103124000Y-103378000D02*
X106130000Y-100372000D01*
X109065000Y-92415000D02*
X109065000Y-91660000D01*
X106130000Y-100372000D02*
X106130000Y-94610000D01*
X107680000Y-93800000D02*
X109065000Y-92415000D01*
X103530400Y-110591600D02*
X103124000Y-110185200D01*
%TO.N,Net-(R8-Pad2)*%
X128256400Y-76860400D02*
X131912800Y-80516800D01*
X128256400Y-76860400D02*
X129859600Y-76860400D01*
X131912800Y-74807200D02*
X131912800Y-74016800D01*
X119430800Y-76860400D02*
X128256400Y-76860400D01*
X129859600Y-76860400D02*
X131912800Y-74807200D01*
%TD*%
M02*
