M48
; DRILL file {KiCad (6.0.2)} date Wed Jul  6 09:04:24 2022
; FORMAT={-:-/ absolute / inch / decimal}
; #@! TF.CreationDate,2022-07-06T09:04:24-05:00
; #@! TF.GenerationSoftware,Kicad,Pcbnew,(6.0.2)
; #@! TF.FileFunction,Plated,1,2,PTH
FMAT,2
INCH
; #@! TA.AperFunction,Plated,PTH,ViaDrill
T1C0.0157
; #@! TA.AperFunction,Plated,PTH,ComponentDrill
T2C0.0315
; #@! TA.AperFunction,Plated,PTH,ComponentDrill
T3C0.0394
; #@! TA.AperFunction,Plated,PTH,ComponentDrill
T4C0.0433
; #@! TA.AperFunction,Plated,PTH,ComponentDrill
T5C0.1260
%
G90
G05
T1
X3.46Y-3.84
X3.8962Y-3.3387
X3.914Y-2.872
X3.966Y-3.312
X4.066Y-4.458
X4.076Y-4.354
X4.0969Y-3.7697
X4.28Y-2.96
X4.4858Y-3.3504
X4.5Y-3.02
X4.6122Y-4.1177
X4.835Y-4.811
X4.8803Y-3.3012
X5.028Y-4.763
X5.263Y-4.9
X5.412Y-4.725
T2
X3.5Y-3.2
X3.5Y-3.5
X3.51Y-3.74
X3.53Y-3.61
X3.59Y-2.8
X3.59Y-3.1
X3.6167Y-4.6244
X3.62Y-4.16
X3.62Y-4.39
X3.63Y-3.2
X3.63Y-3.5
X3.66Y-3.8824
X3.66Y-3.9611
X3.6955Y-4.6244
X3.6987Y-4.16
X3.6987Y-4.39
X3.7269Y-3.61
X3.81Y-3.74
X3.8177Y-3.6122
X3.9504Y-3.7796
X3.9504Y-3.8796
X3.9504Y-3.9796
X3.9504Y-4.0796
X3.9504Y-4.1796
X3.9504Y-4.2796
X3.9504Y-4.3796
X3.9504Y-4.4796
X4.1177Y-3.6122
X4.2504Y-3.7796
X4.2504Y-3.8796
X4.2504Y-3.9796
X4.2504Y-4.0796
X4.2504Y-4.1796
X4.2504Y-4.2796
X4.2504Y-4.3796
X4.2504Y-4.4796
X4.4055Y-4.0205
X4.4055Y-4.3205
X4.445Y-3.7824
X4.445Y-3.8611
X4.53Y-4.02
X4.53Y-4.32
X4.57Y-3.025
X4.57Y-3.325
X4.702Y-3.026
X4.702Y-3.326
X5.5929Y-3.7553
X5.5929Y-3.8341
X5.5984Y-4.0484
X5.5984Y-4.1272
X6.04Y-2.91
X6.1187Y-2.91
T3
X3.1382Y-3.3045
X3.1382Y-3.4136
X3.1382Y-3.5226
X3.1382Y-3.6317
X3.1382Y-3.7407
X3.1382Y-3.8498
X3.1382Y-3.9589
X3.1382Y-4.0679
X3.1382Y-4.177
X3.1382Y-4.286
X3.1382Y-4.3951
X3.1382Y-4.5041
X3.25Y-3.25
X3.25Y-3.3591
X3.25Y-3.4681
X3.25Y-3.5772
X3.25Y-3.6862
X3.25Y-3.7953
X3.25Y-3.9043
X3.25Y-4.0134
X3.25Y-4.1224
X3.25Y-4.2315
X3.25Y-4.3406
X3.25Y-4.4496
X3.25Y-4.5587
X3.45Y-2.9202
X3.45Y-3.0202
X4.2939Y-3.6087
X4.3939Y-3.6087
X4.4939Y-3.6087
X4.6994Y-3.57
X4.705Y-3.806
X4.705Y-3.906
X4.705Y-4.006
X4.7994Y-3.57
X4.8051Y-4.4
X4.8051Y-4.5
X4.8051Y-4.6
X4.8937Y-3.8055
X4.8937Y-3.9055
X4.8937Y-4.0055
X4.8994Y-3.57
X4.9898Y-4.4008
X4.9898Y-4.5008
X4.9898Y-4.6008
X5.1795Y-4.4008
X5.1795Y-4.5008
X5.1795Y-4.6008
X5.3524Y-4.3957
X5.3524Y-4.4957
X5.3524Y-4.5957
X6.05Y-4.1065
X6.05Y-4.2156
X6.05Y-4.3246
X6.05Y-4.4337
X6.05Y-4.5427
X6.1618Y-4.161
X6.1618Y-4.2701
X6.1618Y-4.3791
X6.1618Y-4.4882
T4
X4.8728Y-2.9161
X4.8728Y-3.172
X5.05Y-2.9161
X5.05Y-3.172
X5.1539Y-3.3791
X5.1934Y-2.914
X5.1934Y-3.17
X5.2539Y-3.3791
X5.3539Y-3.3791
X5.3706Y-2.914
X5.3706Y-3.17
X5.63Y-3.5734
X5.73Y-3.5734
X5.83Y-3.5734
T5
X3.1941Y-2.9772
X3.1941Y-4.8315
X6.0618Y-3.8325
X6.0618Y-4.8167
T3
G00X6.05Y-3.3394
M15
G01X6.05Y-3.2606
M16
G05
G00X6.2075Y-3.115
M15
G01X6.1287Y-3.115
M16
G05
G00X6.2862Y-3.3394
M15
G01X6.2862Y-3.2606
M16
G05
T0
M30
