%TF.GenerationSoftware,KiCad,Pcbnew,(6.0.2)*%
%TF.CreationDate,2022-07-06T09:04:23-05:00*%
%TF.ProjectId,WiFiModem,57694669-4d6f-4646-956d-2e6b69636164,rev?*%
%TF.SameCoordinates,Original*%
%TF.FileFunction,Legend,Top*%
%TF.FilePolarity,Positive*%
%FSLAX46Y46*%
G04 Gerber Fmt 4.6, Leading zero omitted, Abs format (unit mm)*
G04 Created by KiCad (PCBNEW (6.0.2)) date 2022-07-06 09:04:23*
%MOMM*%
%LPD*%
G01*
G04 APERTURE LIST*
%ADD10C,0.150000*%
%ADD11C,0.120000*%
G04 APERTURE END LIST*
D10*
X86018857Y-71810571D02*
X85685523Y-71810571D01*
X85685523Y-72334380D02*
X85685523Y-71334380D01*
X86161714Y-71334380D01*
X87018857Y-72334380D02*
X86542666Y-72334380D01*
X86542666Y-71334380D01*
X87542666Y-71334380D02*
X87733142Y-71334380D01*
X87828380Y-71382000D01*
X87923619Y-71477238D01*
X87971238Y-71667714D01*
X87971238Y-72001047D01*
X87923619Y-72191523D01*
X87828380Y-72286761D01*
X87733142Y-72334380D01*
X87542666Y-72334380D01*
X87447428Y-72286761D01*
X87352190Y-72191523D01*
X87304571Y-72001047D01*
X87304571Y-71667714D01*
X87352190Y-71477238D01*
X87447428Y-71382000D01*
X87542666Y-71334380D01*
X88304571Y-71334380D02*
X88542666Y-72334380D01*
X88733142Y-71620095D01*
X88923619Y-72334380D01*
X89161714Y-71334380D01*
X121532380Y-109632380D02*
X121199047Y-109156190D01*
X120960952Y-109632380D02*
X120960952Y-108632380D01*
X121341904Y-108632380D01*
X121437142Y-108680000D01*
X121484761Y-108727619D01*
X121532380Y-108822857D01*
X121532380Y-108965714D01*
X121484761Y-109060952D01*
X121437142Y-109108571D01*
X121341904Y-109156190D01*
X120960952Y-109156190D01*
X121818095Y-108632380D02*
X122389523Y-108632380D01*
X122103809Y-109632380D02*
X122103809Y-108632380D01*
X122675238Y-109584761D02*
X122818095Y-109632380D01*
X123056190Y-109632380D01*
X123151428Y-109584761D01*
X123199047Y-109537142D01*
X123246666Y-109441904D01*
X123246666Y-109346666D01*
X123199047Y-109251428D01*
X123151428Y-109203809D01*
X123056190Y-109156190D01*
X122865714Y-109108571D01*
X122770476Y-109060952D01*
X122722857Y-109013333D01*
X122675238Y-108918095D01*
X122675238Y-108822857D01*
X122722857Y-108727619D01*
X122770476Y-108680000D01*
X122865714Y-108632380D01*
X123103809Y-108632380D01*
X123246666Y-108680000D01*
X132483809Y-70950000D02*
X132388571Y-70902380D01*
X132245714Y-70902380D01*
X132102857Y-70950000D01*
X132007619Y-71045238D01*
X131960000Y-71140476D01*
X131912380Y-71330952D01*
X131912380Y-71473809D01*
X131960000Y-71664285D01*
X132007619Y-71759523D01*
X132102857Y-71854761D01*
X132245714Y-71902380D01*
X132340952Y-71902380D01*
X132483809Y-71854761D01*
X132531428Y-71807142D01*
X132531428Y-71473809D01*
X132340952Y-71473809D01*
X132960000Y-71902380D02*
X132960000Y-70902380D01*
X133340952Y-70902380D01*
X133436190Y-70950000D01*
X133483809Y-70997619D01*
X133531428Y-71092857D01*
X133531428Y-71235714D01*
X133483809Y-71330952D01*
X133436190Y-71378571D01*
X133340952Y-71426190D01*
X132960000Y-71426190D01*
X133960000Y-71902380D02*
X133960000Y-70902380D01*
X134626666Y-70902380D02*
X134817142Y-70902380D01*
X134912380Y-70950000D01*
X135007619Y-71045238D01*
X135055238Y-71235714D01*
X135055238Y-71569047D01*
X135007619Y-71759523D01*
X134912380Y-71854761D01*
X134817142Y-71902380D01*
X134626666Y-71902380D01*
X134531428Y-71854761D01*
X134436190Y-71759523D01*
X134388571Y-71569047D01*
X134388571Y-71235714D01*
X134436190Y-71045238D01*
X134531428Y-70950000D01*
X134626666Y-70902380D01*
X135674285Y-70902380D02*
X135769523Y-70902380D01*
X135864761Y-70950000D01*
X135912380Y-70997619D01*
X135960000Y-71092857D01*
X136007619Y-71283333D01*
X136007619Y-71521428D01*
X135960000Y-71711904D01*
X135912380Y-71807142D01*
X135864761Y-71854761D01*
X135769523Y-71902380D01*
X135674285Y-71902380D01*
X135579047Y-71854761D01*
X135531428Y-71807142D01*
X135483809Y-71711904D01*
X135436190Y-71521428D01*
X135436190Y-71283333D01*
X135483809Y-71092857D01*
X135531428Y-70997619D01*
X135579047Y-70950000D01*
X135674285Y-70902380D01*
X129433809Y-94772380D02*
X128957619Y-94772380D01*
X128957619Y-93772380D01*
X129767142Y-94772380D02*
X129767142Y-93772380D01*
X130100476Y-94486666D01*
X130433809Y-93772380D01*
X130433809Y-94772380D01*
X131433809Y-94772380D02*
X130862380Y-94772380D01*
X131148095Y-94772380D02*
X131148095Y-93772380D01*
X131052857Y-93915238D01*
X130957619Y-94010476D01*
X130862380Y-94058095D01*
X132386190Y-94772380D02*
X131814761Y-94772380D01*
X132100476Y-94772380D02*
X132100476Y-93772380D01*
X132005238Y-93915238D01*
X131910000Y-94010476D01*
X131814761Y-94058095D01*
X133338571Y-94772380D02*
X132767142Y-94772380D01*
X133052857Y-94772380D02*
X133052857Y-93772380D01*
X132957619Y-93915238D01*
X132862380Y-94010476D01*
X132767142Y-94058095D01*
X133671904Y-93772380D02*
X134338571Y-93772380D01*
X133910000Y-94772380D01*
X134719523Y-94391428D02*
X135481428Y-94391428D01*
X135862380Y-93772380D02*
X136481428Y-93772380D01*
X136148095Y-94153333D01*
X136290952Y-94153333D01*
X136386190Y-94200952D01*
X136433809Y-94248571D01*
X136481428Y-94343809D01*
X136481428Y-94581904D01*
X136433809Y-94677142D01*
X136386190Y-94724761D01*
X136290952Y-94772380D01*
X136005238Y-94772380D01*
X135910000Y-94724761D01*
X135862380Y-94677142D01*
X136910000Y-94677142D02*
X136957619Y-94724761D01*
X136910000Y-94772380D01*
X136862380Y-94724761D01*
X136910000Y-94677142D01*
X136910000Y-94772380D01*
X137290952Y-93772380D02*
X137910000Y-93772380D01*
X137576666Y-94153333D01*
X137719523Y-94153333D01*
X137814761Y-94200952D01*
X137862380Y-94248571D01*
X137910000Y-94343809D01*
X137910000Y-94581904D01*
X137862380Y-94677142D01*
X137814761Y-94724761D01*
X137719523Y-94772380D01*
X137433809Y-94772380D01*
X137338571Y-94724761D01*
X137290952Y-94677142D01*
X118814285Y-94482380D02*
X118814285Y-93482380D01*
X119195238Y-93482380D01*
X119290476Y-93530000D01*
X119338095Y-93577619D01*
X119385714Y-93672857D01*
X119385714Y-93815714D01*
X119338095Y-93910952D01*
X119290476Y-93958571D01*
X119195238Y-94006190D01*
X118814285Y-94006190D01*
X120385714Y-94482380D02*
X120052380Y-94006190D01*
X119814285Y-94482380D02*
X119814285Y-93482380D01*
X120195238Y-93482380D01*
X120290476Y-93530000D01*
X120338095Y-93577619D01*
X120385714Y-93672857D01*
X120385714Y-93815714D01*
X120338095Y-93910952D01*
X120290476Y-93958571D01*
X120195238Y-94006190D01*
X119814285Y-94006190D01*
X121004761Y-93482380D02*
X121195238Y-93482380D01*
X121290476Y-93530000D01*
X121385714Y-93625238D01*
X121433333Y-93815714D01*
X121433333Y-94149047D01*
X121385714Y-94339523D01*
X121290476Y-94434761D01*
X121195238Y-94482380D01*
X121004761Y-94482380D01*
X120909523Y-94434761D01*
X120814285Y-94339523D01*
X120766666Y-94149047D01*
X120766666Y-93815714D01*
X120814285Y-93625238D01*
X120909523Y-93530000D01*
X121004761Y-93482380D01*
X122385714Y-93530000D02*
X122290476Y-93482380D01*
X122147619Y-93482380D01*
X122004761Y-93530000D01*
X121909523Y-93625238D01*
X121861904Y-93720476D01*
X121814285Y-93910952D01*
X121814285Y-94053809D01*
X121861904Y-94244285D01*
X121909523Y-94339523D01*
X122004761Y-94434761D01*
X122147619Y-94482380D01*
X122242857Y-94482380D01*
X122385714Y-94434761D01*
X122433333Y-94387142D01*
X122433333Y-94053809D01*
X122242857Y-94053809D01*
X123433333Y-94482380D02*
X123100000Y-94006190D01*
X122861904Y-94482380D02*
X122861904Y-93482380D01*
X123242857Y-93482380D01*
X123338095Y-93530000D01*
X123385714Y-93577619D01*
X123433333Y-93672857D01*
X123433333Y-93815714D01*
X123385714Y-93910952D01*
X123338095Y-93958571D01*
X123242857Y-94006190D01*
X122861904Y-94006190D01*
X123814285Y-94196666D02*
X124290476Y-94196666D01*
X123719047Y-94482380D02*
X124052380Y-93482380D01*
X124385714Y-94482380D01*
X124719047Y-94482380D02*
X124719047Y-93482380D01*
X125052380Y-94196666D01*
X125385714Y-93482380D01*
X125385714Y-94482380D01*
X131403333Y-109702380D02*
X131070000Y-109226190D01*
X130831904Y-109702380D02*
X130831904Y-108702380D01*
X131212857Y-108702380D01*
X131308095Y-108750000D01*
X131355714Y-108797619D01*
X131403333Y-108892857D01*
X131403333Y-109035714D01*
X131355714Y-109130952D01*
X131308095Y-109178571D01*
X131212857Y-109226190D01*
X130831904Y-109226190D01*
X131736666Y-108702380D02*
X132403333Y-109702380D01*
X132403333Y-108702380D02*
X131736666Y-109702380D01*
X94541428Y-121092380D02*
X94779523Y-122092380D01*
X94970000Y-121378095D01*
X95160476Y-122092380D01*
X95398571Y-121092380D01*
X95779523Y-122092380D02*
X95779523Y-121092380D01*
X96589047Y-121568571D02*
X96255714Y-121568571D01*
X96255714Y-122092380D02*
X96255714Y-121092380D01*
X96731904Y-121092380D01*
X97112857Y-122092380D02*
X97112857Y-121092380D01*
X98350952Y-122092380D02*
X98350952Y-121092380D01*
X98684285Y-121806666D01*
X99017619Y-121092380D01*
X99017619Y-122092380D01*
X99684285Y-121092380D02*
X99874761Y-121092380D01*
X99970000Y-121140000D01*
X100065238Y-121235238D01*
X100112857Y-121425714D01*
X100112857Y-121759047D01*
X100065238Y-121949523D01*
X99970000Y-122044761D01*
X99874761Y-122092380D01*
X99684285Y-122092380D01*
X99589047Y-122044761D01*
X99493809Y-121949523D01*
X99446190Y-121759047D01*
X99446190Y-121425714D01*
X99493809Y-121235238D01*
X99589047Y-121140000D01*
X99684285Y-121092380D01*
X100541428Y-122092380D02*
X100541428Y-121092380D01*
X100779523Y-121092380D01*
X100922380Y-121140000D01*
X101017619Y-121235238D01*
X101065238Y-121330476D01*
X101112857Y-121520952D01*
X101112857Y-121663809D01*
X101065238Y-121854285D01*
X101017619Y-121949523D01*
X100922380Y-122044761D01*
X100779523Y-122092380D01*
X100541428Y-122092380D01*
X101541428Y-121568571D02*
X101874761Y-121568571D01*
X102017619Y-122092380D02*
X101541428Y-122092380D01*
X101541428Y-121092380D01*
X102017619Y-121092380D01*
X102446190Y-122092380D02*
X102446190Y-121092380D01*
X102779523Y-121806666D01*
X103112857Y-121092380D01*
X103112857Y-122092380D01*
X104684285Y-121568571D02*
X104827142Y-121616190D01*
X104874761Y-121663809D01*
X104922380Y-121759047D01*
X104922380Y-121901904D01*
X104874761Y-121997142D01*
X104827142Y-122044761D01*
X104731904Y-122092380D01*
X104350952Y-122092380D01*
X104350952Y-121092380D01*
X104684285Y-121092380D01*
X104779523Y-121140000D01*
X104827142Y-121187619D01*
X104874761Y-121282857D01*
X104874761Y-121378095D01*
X104827142Y-121473333D01*
X104779523Y-121520952D01*
X104684285Y-121568571D01*
X104350952Y-121568571D01*
X105541428Y-121616190D02*
X105541428Y-122092380D01*
X105208095Y-121092380D02*
X105541428Y-121616190D01*
X105874761Y-121092380D01*
X106970000Y-122092380D02*
X106970000Y-121092380D01*
X107208095Y-121092380D01*
X107350952Y-121140000D01*
X107446190Y-121235238D01*
X107493809Y-121330476D01*
X107541428Y-121520952D01*
X107541428Y-121663809D01*
X107493809Y-121854285D01*
X107446190Y-121949523D01*
X107350952Y-122044761D01*
X107208095Y-122092380D01*
X106970000Y-122092380D01*
X107922380Y-121806666D02*
X108398571Y-121806666D01*
X107827142Y-122092380D02*
X108160476Y-121092380D01*
X108493809Y-122092380D01*
X108827142Y-122092380D02*
X108827142Y-121092380D01*
X109398571Y-122092380D01*
X109398571Y-121092380D01*
X109874761Y-122092380D02*
X109874761Y-121092380D01*
X110350952Y-121568571D02*
X110684285Y-121568571D01*
X110827142Y-122092380D02*
X110350952Y-122092380D01*
X110350952Y-121092380D01*
X110827142Y-121092380D01*
X111731904Y-122092380D02*
X111255714Y-122092380D01*
X111255714Y-121092380D01*
X112827142Y-122092380D02*
X112827142Y-121092380D01*
X113160476Y-121806666D01*
X113493809Y-121092380D01*
X113493809Y-122092380D01*
X113922380Y-121806666D02*
X114398571Y-121806666D01*
X113827142Y-122092380D02*
X114160476Y-121092380D01*
X114493809Y-122092380D01*
X115398571Y-122092380D02*
X115065238Y-121616190D01*
X114827142Y-122092380D02*
X114827142Y-121092380D01*
X115208095Y-121092380D01*
X115303333Y-121140000D01*
X115350952Y-121187619D01*
X115398571Y-121282857D01*
X115398571Y-121425714D01*
X115350952Y-121520952D01*
X115303333Y-121568571D01*
X115208095Y-121616190D01*
X114827142Y-121616190D01*
X115827142Y-122092380D02*
X115827142Y-121092380D01*
X116398571Y-122092380D02*
X115970000Y-121520952D01*
X116398571Y-121092380D02*
X115827142Y-121663809D01*
X116779523Y-122044761D02*
X116922380Y-122092380D01*
X117160476Y-122092380D01*
X117255714Y-122044761D01*
X117303333Y-121997142D01*
X117350952Y-121901904D01*
X117350952Y-121806666D01*
X117303333Y-121711428D01*
X117255714Y-121663809D01*
X117160476Y-121616190D01*
X116970000Y-121568571D01*
X116874761Y-121520952D01*
X116827142Y-121473333D01*
X116779523Y-121378095D01*
X116779523Y-121282857D01*
X116827142Y-121187619D01*
X116874761Y-121140000D01*
X116970000Y-121092380D01*
X117208095Y-121092380D01*
X117350952Y-121140000D01*
X102065238Y-122702380D02*
X102398571Y-123702380D01*
X102731904Y-122702380D01*
X103065238Y-123178571D02*
X103398571Y-123178571D01*
X103541428Y-123702380D02*
X103065238Y-123702380D01*
X103065238Y-122702380D01*
X103541428Y-122702380D01*
X104541428Y-123702380D02*
X104208095Y-123226190D01*
X103970000Y-123702380D02*
X103970000Y-122702380D01*
X104350952Y-122702380D01*
X104446190Y-122750000D01*
X104493809Y-122797619D01*
X104541428Y-122892857D01*
X104541428Y-123035714D01*
X104493809Y-123130952D01*
X104446190Y-123178571D01*
X104350952Y-123226190D01*
X103970000Y-123226190D01*
X104922380Y-123654761D02*
X105065238Y-123702380D01*
X105303333Y-123702380D01*
X105398571Y-123654761D01*
X105446190Y-123607142D01*
X105493809Y-123511904D01*
X105493809Y-123416666D01*
X105446190Y-123321428D01*
X105398571Y-123273809D01*
X105303333Y-123226190D01*
X105112857Y-123178571D01*
X105017619Y-123130952D01*
X104970000Y-123083333D01*
X104922380Y-122988095D01*
X104922380Y-122892857D01*
X104970000Y-122797619D01*
X105017619Y-122750000D01*
X105112857Y-122702380D01*
X105350952Y-122702380D01*
X105493809Y-122750000D01*
X105922380Y-123702380D02*
X105922380Y-122702380D01*
X106589047Y-122702380D02*
X106779523Y-122702380D01*
X106874761Y-122750000D01*
X106970000Y-122845238D01*
X107017619Y-123035714D01*
X107017619Y-123369047D01*
X106970000Y-123559523D01*
X106874761Y-123654761D01*
X106779523Y-123702380D01*
X106589047Y-123702380D01*
X106493809Y-123654761D01*
X106398571Y-123559523D01*
X106350952Y-123369047D01*
X106350952Y-123035714D01*
X106398571Y-122845238D01*
X106493809Y-122750000D01*
X106589047Y-122702380D01*
X107446190Y-123702380D02*
X107446190Y-122702380D01*
X108017619Y-123702380D01*
X108017619Y-122702380D01*
X109779523Y-123702380D02*
X109208095Y-123702380D01*
X109493809Y-123702380D02*
X109493809Y-122702380D01*
X109398571Y-122845238D01*
X109303333Y-122940476D01*
X109208095Y-122988095D01*
X101136666Y-125217142D02*
X101089047Y-125264761D01*
X100946190Y-125312380D01*
X100850952Y-125312380D01*
X100708095Y-125264761D01*
X100612857Y-125169523D01*
X100565238Y-125074285D01*
X100517619Y-124883809D01*
X100517619Y-124740952D01*
X100565238Y-124550476D01*
X100612857Y-124455238D01*
X100708095Y-124360000D01*
X100850952Y-124312380D01*
X100946190Y-124312380D01*
X101089047Y-124360000D01*
X101136666Y-124407619D01*
X102136666Y-125217142D02*
X102089047Y-125264761D01*
X101946190Y-125312380D01*
X101850952Y-125312380D01*
X101708095Y-125264761D01*
X101612857Y-125169523D01*
X101565238Y-125074285D01*
X101517619Y-124883809D01*
X101517619Y-124740952D01*
X101565238Y-124550476D01*
X101612857Y-124455238D01*
X101708095Y-124360000D01*
X101850952Y-124312380D01*
X101946190Y-124312380D01*
X102089047Y-124360000D01*
X102136666Y-124407619D01*
X102565238Y-124931428D02*
X103327142Y-124931428D01*
X104136666Y-124788571D02*
X104279523Y-124836190D01*
X104327142Y-124883809D01*
X104374761Y-124979047D01*
X104374761Y-125121904D01*
X104327142Y-125217142D01*
X104279523Y-125264761D01*
X104184285Y-125312380D01*
X103803333Y-125312380D01*
X103803333Y-124312380D01*
X104136666Y-124312380D01*
X104231904Y-124360000D01*
X104279523Y-124407619D01*
X104327142Y-124502857D01*
X104327142Y-124598095D01*
X104279523Y-124693333D01*
X104231904Y-124740952D01*
X104136666Y-124788571D01*
X103803333Y-124788571D01*
X104993809Y-124836190D02*
X104993809Y-125312380D01*
X104660476Y-124312380D02*
X104993809Y-124836190D01*
X105327142Y-124312380D01*
X105660476Y-124931428D02*
X106422380Y-124931428D01*
X106850952Y-125264761D02*
X106993809Y-125312380D01*
X107231904Y-125312380D01*
X107327142Y-125264761D01*
X107374761Y-125217142D01*
X107422380Y-125121904D01*
X107422380Y-125026666D01*
X107374761Y-124931428D01*
X107327142Y-124883809D01*
X107231904Y-124836190D01*
X107041428Y-124788571D01*
X106946190Y-124740952D01*
X106898571Y-124693333D01*
X106850952Y-124598095D01*
X106850952Y-124502857D01*
X106898571Y-124407619D01*
X106946190Y-124360000D01*
X107041428Y-124312380D01*
X107279523Y-124312380D01*
X107422380Y-124360000D01*
X107803333Y-125026666D02*
X108279523Y-125026666D01*
X107708095Y-125312380D02*
X108041428Y-124312380D01*
X108374761Y-125312380D01*
X109898571Y-124645714D02*
X109898571Y-125312380D01*
X109660476Y-124264761D02*
X109422380Y-124979047D01*
X110041428Y-124979047D01*
X110422380Y-125217142D02*
X110470000Y-125264761D01*
X110422380Y-125312380D01*
X110374761Y-125264761D01*
X110422380Y-125217142D01*
X110422380Y-125312380D01*
X111089047Y-124312380D02*
X111184285Y-124312380D01*
X111279523Y-124360000D01*
X111327142Y-124407619D01*
X111374761Y-124502857D01*
X111422380Y-124693333D01*
X111422380Y-124931428D01*
X111374761Y-125121904D01*
X111327142Y-125217142D01*
X111279523Y-125264761D01*
X111184285Y-125312380D01*
X111089047Y-125312380D01*
X110993809Y-125264761D01*
X110946190Y-125217142D01*
X110898571Y-125121904D01*
X110850952Y-124931428D01*
X110850952Y-124693333D01*
X110898571Y-124502857D01*
X110946190Y-124407619D01*
X110993809Y-124360000D01*
X111089047Y-124312380D01*
X104692380Y-107314666D02*
X103692380Y-107314666D01*
X104406666Y-106981333D01*
X103692380Y-106648000D01*
X104692380Y-106648000D01*
X104406666Y-106219428D02*
X104406666Y-105743238D01*
X104692380Y-106314666D02*
X103692380Y-105981333D01*
X104692380Y-105648000D01*
X103692380Y-105409904D02*
X104692380Y-104743238D01*
X103692380Y-104743238D02*
X104692380Y-105409904D01*
X103787619Y-104409904D02*
X103740000Y-104362285D01*
X103692380Y-104267047D01*
X103692380Y-104028952D01*
X103740000Y-103933714D01*
X103787619Y-103886095D01*
X103882857Y-103838476D01*
X103978095Y-103838476D01*
X104120952Y-103886095D01*
X104692380Y-104457523D01*
X104692380Y-103838476D01*
X103692380Y-103505142D02*
X103692380Y-102886095D01*
X104073333Y-103219428D01*
X104073333Y-103076571D01*
X104120952Y-102981333D01*
X104168571Y-102933714D01*
X104263809Y-102886095D01*
X104501904Y-102886095D01*
X104597142Y-102933714D01*
X104644761Y-102981333D01*
X104692380Y-103076571D01*
X104692380Y-103362285D01*
X104644761Y-103457523D01*
X104597142Y-103505142D01*
X103787619Y-102505142D02*
X103740000Y-102457523D01*
X103692380Y-102362285D01*
X103692380Y-102124190D01*
X103740000Y-102028952D01*
X103787619Y-101981333D01*
X103882857Y-101933714D01*
X103978095Y-101933714D01*
X104120952Y-101981333D01*
X104692380Y-102552761D01*
X104692380Y-101933714D01*
X101075714Y-79648571D02*
X101409047Y-79648571D01*
X101551904Y-80172380D02*
X101075714Y-80172380D01*
X101075714Y-79172380D01*
X101551904Y-79172380D01*
X101932857Y-80124761D02*
X102075714Y-80172380D01*
X102313809Y-80172380D01*
X102409047Y-80124761D01*
X102456666Y-80077142D01*
X102504285Y-79981904D01*
X102504285Y-79886666D01*
X102456666Y-79791428D01*
X102409047Y-79743809D01*
X102313809Y-79696190D01*
X102123333Y-79648571D01*
X102028095Y-79600952D01*
X101980476Y-79553333D01*
X101932857Y-79458095D01*
X101932857Y-79362857D01*
X101980476Y-79267619D01*
X102028095Y-79220000D01*
X102123333Y-79172380D01*
X102361428Y-79172380D01*
X102504285Y-79220000D01*
X102932857Y-80172380D02*
X102932857Y-79172380D01*
X103313809Y-79172380D01*
X103409047Y-79220000D01*
X103456666Y-79267619D01*
X103504285Y-79362857D01*
X103504285Y-79505714D01*
X103456666Y-79600952D01*
X103409047Y-79648571D01*
X103313809Y-79696190D01*
X102932857Y-79696190D01*
X103932857Y-79791428D02*
X104694761Y-79791428D01*
X105694761Y-80172380D02*
X105123333Y-80172380D01*
X105409047Y-80172380D02*
X105409047Y-79172380D01*
X105313809Y-79315238D01*
X105218571Y-79410476D01*
X105123333Y-79458095D01*
X106075714Y-79267619D02*
X106123333Y-79220000D01*
X106218571Y-79172380D01*
X106456666Y-79172380D01*
X106551904Y-79220000D01*
X106599523Y-79267619D01*
X106647142Y-79362857D01*
X106647142Y-79458095D01*
X106599523Y-79600952D01*
X106028095Y-80172380D01*
X106647142Y-80172380D01*
X107075714Y-79648571D02*
X107409047Y-79648571D01*
X107551904Y-80172380D02*
X107075714Y-80172380D01*
X107075714Y-79172380D01*
X107551904Y-79172380D01*
X121523333Y-88742380D02*
X121190000Y-88266190D01*
X120951904Y-88742380D02*
X120951904Y-87742380D01*
X121332857Y-87742380D01*
X121428095Y-87790000D01*
X121475714Y-87837619D01*
X121523333Y-87932857D01*
X121523333Y-88075714D01*
X121475714Y-88170952D01*
X121428095Y-88218571D01*
X121332857Y-88266190D01*
X120951904Y-88266190D01*
X121856666Y-87742380D02*
X122523333Y-88742380D01*
X122523333Y-87742380D02*
X121856666Y-88742380D01*
X160088571Y-113233809D02*
X160088571Y-113567142D01*
X160612380Y-113567142D02*
X159612380Y-113567142D01*
X159612380Y-113090952D01*
X160088571Y-112710000D02*
X160088571Y-112376666D01*
X160612380Y-112233809D02*
X160612380Y-112710000D01*
X159612380Y-112710000D01*
X159612380Y-112233809D01*
X160612380Y-111805238D02*
X159612380Y-111805238D01*
X160326666Y-111471904D01*
X159612380Y-111138571D01*
X160612380Y-111138571D01*
X160326666Y-110710000D02*
X160326666Y-110233809D01*
X160612380Y-110805238D02*
X159612380Y-110471904D01*
X160612380Y-110138571D01*
X160612380Y-109329047D02*
X160612380Y-109805238D01*
X159612380Y-109805238D01*
X160088571Y-108995714D02*
X160088571Y-108662380D01*
X160612380Y-108519523D02*
X160612380Y-108995714D01*
X159612380Y-108995714D01*
X159612380Y-108519523D01*
X160612380Y-107329047D02*
X159612380Y-107329047D01*
X159612380Y-107090952D01*
X159660000Y-106948095D01*
X159755238Y-106852857D01*
X159850476Y-106805238D01*
X160040952Y-106757619D01*
X160183809Y-106757619D01*
X160374285Y-106805238D01*
X160469523Y-106852857D01*
X160564761Y-106948095D01*
X160612380Y-107090952D01*
X160612380Y-107329047D01*
X160088571Y-105995714D02*
X160136190Y-105852857D01*
X160183809Y-105805238D01*
X160279047Y-105757619D01*
X160421904Y-105757619D01*
X160517142Y-105805238D01*
X160564761Y-105852857D01*
X160612380Y-105948095D01*
X160612380Y-106329047D01*
X159612380Y-106329047D01*
X159612380Y-105995714D01*
X159660000Y-105900476D01*
X159707619Y-105852857D01*
X159802857Y-105805238D01*
X159898095Y-105805238D01*
X159993333Y-105852857D01*
X160040952Y-105900476D01*
X160088571Y-105995714D01*
X160088571Y-106329047D01*
X160612380Y-105281428D02*
X160612380Y-105090952D01*
X160564761Y-104995714D01*
X160517142Y-104948095D01*
X160374285Y-104852857D01*
X160183809Y-104805238D01*
X159802857Y-104805238D01*
X159707619Y-104852857D01*
X159660000Y-104900476D01*
X159612380Y-104995714D01*
X159612380Y-105186190D01*
X159660000Y-105281428D01*
X159707619Y-105329047D01*
X159802857Y-105376666D01*
X160040952Y-105376666D01*
X160136190Y-105329047D01*
X160183809Y-105281428D01*
X160231428Y-105186190D01*
X160231428Y-104995714D01*
X160183809Y-104900476D01*
X160136190Y-104852857D01*
X160040952Y-104805238D01*
X75147619Y-93467619D02*
X76147619Y-93467619D01*
X75433333Y-93800952D01*
X76147619Y-94134285D01*
X75147619Y-94134285D01*
X75433333Y-94562857D02*
X75433333Y-95039047D01*
X75147619Y-94467619D02*
X76147619Y-94800952D01*
X75147619Y-95134285D01*
X75147619Y-95943809D02*
X75147619Y-95467619D01*
X76147619Y-95467619D01*
X75671428Y-96277142D02*
X75671428Y-96610476D01*
X75147619Y-96753333D02*
X75147619Y-96277142D01*
X76147619Y-96277142D01*
X76147619Y-96753333D01*
X75147619Y-97943809D02*
X76147619Y-97943809D01*
X76147619Y-98181904D01*
X76100000Y-98324761D01*
X76004761Y-98420000D01*
X75909523Y-98467619D01*
X75719047Y-98515238D01*
X75576190Y-98515238D01*
X75385714Y-98467619D01*
X75290476Y-98420000D01*
X75195238Y-98324761D01*
X75147619Y-98181904D01*
X75147619Y-97943809D01*
X75671428Y-99277142D02*
X75623809Y-99420000D01*
X75576190Y-99467619D01*
X75480952Y-99515238D01*
X75338095Y-99515238D01*
X75242857Y-99467619D01*
X75195238Y-99420000D01*
X75147619Y-99324761D01*
X75147619Y-98943809D01*
X76147619Y-98943809D01*
X76147619Y-99277142D01*
X76100000Y-99372380D01*
X76052380Y-99420000D01*
X75957142Y-99467619D01*
X75861904Y-99467619D01*
X75766666Y-99420000D01*
X75719047Y-99372380D01*
X75671428Y-99277142D01*
X75671428Y-98943809D01*
X76052380Y-99896190D02*
X76100000Y-99943809D01*
X76147619Y-100039047D01*
X76147619Y-100277142D01*
X76100000Y-100372380D01*
X76052380Y-100420000D01*
X75957142Y-100467619D01*
X75861904Y-100467619D01*
X75719047Y-100420000D01*
X75147619Y-99848571D01*
X75147619Y-100467619D01*
X76147619Y-101372380D02*
X76147619Y-100896190D01*
X75671428Y-100848571D01*
X75719047Y-100896190D01*
X75766666Y-100991428D01*
X75766666Y-101229523D01*
X75719047Y-101324761D01*
X75671428Y-101372380D01*
X75576190Y-101420000D01*
X75338095Y-101420000D01*
X75242857Y-101372380D01*
X75195238Y-101324761D01*
X75147619Y-101229523D01*
X75147619Y-100991428D01*
X75195238Y-100896190D01*
X75242857Y-100848571D01*
X135098095Y-108632380D02*
X135669523Y-108632380D01*
X135383809Y-109632380D02*
X135383809Y-108632380D01*
X135907619Y-108632380D02*
X136574285Y-109632380D01*
X136574285Y-108632380D02*
X135907619Y-109632380D01*
X124837619Y-71992380D02*
X124504285Y-71516190D01*
X124266190Y-71992380D02*
X124266190Y-70992380D01*
X124647142Y-70992380D01*
X124742380Y-71040000D01*
X124790000Y-71087619D01*
X124837619Y-71182857D01*
X124837619Y-71325714D01*
X124790000Y-71420952D01*
X124742380Y-71468571D01*
X124647142Y-71516190D01*
X124266190Y-71516190D01*
X125266190Y-71468571D02*
X125599523Y-71468571D01*
X125742380Y-71992380D02*
X125266190Y-71992380D01*
X125266190Y-70992380D01*
X125742380Y-70992380D01*
X126123333Y-71944761D02*
X126266190Y-71992380D01*
X126504285Y-71992380D01*
X126599523Y-71944761D01*
X126647142Y-71897142D01*
X126694761Y-71801904D01*
X126694761Y-71706666D01*
X126647142Y-71611428D01*
X126599523Y-71563809D01*
X126504285Y-71516190D01*
X126313809Y-71468571D01*
X126218571Y-71420952D01*
X126170952Y-71373333D01*
X126123333Y-71278095D01*
X126123333Y-71182857D01*
X126170952Y-71087619D01*
X126218571Y-71040000D01*
X126313809Y-70992380D01*
X126551904Y-70992380D01*
X126694761Y-71040000D01*
X127123333Y-71468571D02*
X127456666Y-71468571D01*
X127599523Y-71992380D02*
X127123333Y-71992380D01*
X127123333Y-70992380D01*
X127599523Y-70992380D01*
X127885238Y-70992380D02*
X128456666Y-70992380D01*
X128170952Y-71992380D02*
X128170952Y-70992380D01*
X116190952Y-112182380D02*
X116190952Y-111182380D01*
X116762380Y-112182380D01*
X116762380Y-111182380D01*
X117238571Y-111182380D02*
X117238571Y-111991904D01*
X117286190Y-112087142D01*
X117333809Y-112134761D01*
X117429047Y-112182380D01*
X117619523Y-112182380D01*
X117714761Y-112134761D01*
X117762380Y-112087142D01*
X117810000Y-111991904D01*
X117810000Y-111182380D01*
X118762380Y-112182380D02*
X118286190Y-112182380D01*
X118286190Y-111182380D01*
X119571904Y-112182380D02*
X119095714Y-112182380D01*
X119095714Y-111182380D01*
X123938095Y-87740000D02*
X123842857Y-87692380D01*
X123700000Y-87692380D01*
X123557142Y-87740000D01*
X123461904Y-87835238D01*
X123414285Y-87930476D01*
X123366666Y-88120952D01*
X123366666Y-88263809D01*
X123414285Y-88454285D01*
X123461904Y-88549523D01*
X123557142Y-88644761D01*
X123700000Y-88692380D01*
X123795238Y-88692380D01*
X123938095Y-88644761D01*
X123985714Y-88597142D01*
X123985714Y-88263809D01*
X123795238Y-88263809D01*
X124414285Y-88692380D02*
X124414285Y-87692380D01*
X124985714Y-88692380D01*
X124985714Y-87692380D01*
X125461904Y-88692380D02*
X125461904Y-87692380D01*
X125700000Y-87692380D01*
X125842857Y-87740000D01*
X125938095Y-87835238D01*
X125985714Y-87930476D01*
X126033333Y-88120952D01*
X126033333Y-88263809D01*
X125985714Y-88454285D01*
X125938095Y-88549523D01*
X125842857Y-88644761D01*
X125700000Y-88692380D01*
X125461904Y-88692380D01*
X117142380Y-93455714D02*
X116142380Y-93455714D01*
X116142380Y-93074761D01*
X116190000Y-92979523D01*
X116237619Y-92931904D01*
X116332857Y-92884285D01*
X116475714Y-92884285D01*
X116570952Y-92931904D01*
X116618571Y-92979523D01*
X116666190Y-93074761D01*
X116666190Y-93455714D01*
X117142380Y-91884285D02*
X116666190Y-92217619D01*
X117142380Y-92455714D02*
X116142380Y-92455714D01*
X116142380Y-92074761D01*
X116190000Y-91979523D01*
X116237619Y-91931904D01*
X116332857Y-91884285D01*
X116475714Y-91884285D01*
X116570952Y-91931904D01*
X116618571Y-91979523D01*
X116666190Y-92074761D01*
X116666190Y-92455714D01*
X116142380Y-91265238D02*
X116142380Y-91074761D01*
X116190000Y-90979523D01*
X116285238Y-90884285D01*
X116475714Y-90836666D01*
X116809047Y-90836666D01*
X116999523Y-90884285D01*
X117094761Y-90979523D01*
X117142380Y-91074761D01*
X117142380Y-91265238D01*
X117094761Y-91360476D01*
X116999523Y-91455714D01*
X116809047Y-91503333D01*
X116475714Y-91503333D01*
X116285238Y-91455714D01*
X116190000Y-91360476D01*
X116142380Y-91265238D01*
X116190000Y-89884285D02*
X116142380Y-89979523D01*
X116142380Y-90122380D01*
X116190000Y-90265238D01*
X116285238Y-90360476D01*
X116380476Y-90408095D01*
X116570952Y-90455714D01*
X116713809Y-90455714D01*
X116904285Y-90408095D01*
X116999523Y-90360476D01*
X117094761Y-90265238D01*
X117142380Y-90122380D01*
X117142380Y-90027142D01*
X117094761Y-89884285D01*
X117047142Y-89836666D01*
X116713809Y-89836666D01*
X116713809Y-90027142D01*
X116016666Y-116522380D02*
X116588095Y-116522380D01*
X116302380Y-117522380D02*
X116302380Y-116522380D01*
X116921428Y-117522380D02*
X116921428Y-116522380D01*
X116921428Y-116998571D02*
X117492857Y-116998571D01*
X117492857Y-117522380D02*
X117492857Y-116522380D01*
X118540476Y-117522380D02*
X118207142Y-117046190D01*
X117969047Y-117522380D02*
X117969047Y-116522380D01*
X118350000Y-116522380D01*
X118445238Y-116570000D01*
X118492857Y-116617619D01*
X118540476Y-116712857D01*
X118540476Y-116855714D01*
X118492857Y-116950952D01*
X118445238Y-116998571D01*
X118350000Y-117046190D01*
X117969047Y-117046190D01*
X118969047Y-116522380D02*
X118969047Y-117331904D01*
X119016666Y-117427142D01*
X119064285Y-117474761D01*
X119159523Y-117522380D01*
X119350000Y-117522380D01*
X119445238Y-117474761D01*
X119492857Y-117427142D01*
X119540476Y-117331904D01*
X119540476Y-116522380D01*
X126002380Y-109507142D02*
X125954761Y-109554761D01*
X125811904Y-109602380D01*
X125716666Y-109602380D01*
X125573809Y-109554761D01*
X125478571Y-109459523D01*
X125430952Y-109364285D01*
X125383333Y-109173809D01*
X125383333Y-109030952D01*
X125430952Y-108840476D01*
X125478571Y-108745238D01*
X125573809Y-108650000D01*
X125716666Y-108602380D01*
X125811904Y-108602380D01*
X125954761Y-108650000D01*
X126002380Y-108697619D01*
X126288095Y-108602380D02*
X126859523Y-108602380D01*
X126573809Y-109602380D02*
X126573809Y-108602380D01*
X127145238Y-109554761D02*
X127288095Y-109602380D01*
X127526190Y-109602380D01*
X127621428Y-109554761D01*
X127669047Y-109507142D01*
X127716666Y-109411904D01*
X127716666Y-109316666D01*
X127669047Y-109221428D01*
X127621428Y-109173809D01*
X127526190Y-109126190D01*
X127335714Y-109078571D01*
X127240476Y-109030952D01*
X127192857Y-108983333D01*
X127145238Y-108888095D01*
X127145238Y-108792857D01*
X127192857Y-108697619D01*
X127240476Y-108650000D01*
X127335714Y-108602380D01*
X127573809Y-108602380D01*
X127716666Y-108650000D01*
X119053333Y-106102380D02*
X119053333Y-105102380D01*
X119386666Y-105816666D01*
X119720000Y-105102380D01*
X119720000Y-106102380D01*
X120148571Y-105816666D02*
X120624761Y-105816666D01*
X120053333Y-106102380D02*
X120386666Y-105102380D01*
X120720000Y-106102380D01*
X120958095Y-105102380D02*
X121624761Y-106102380D01*
X121624761Y-105102380D02*
X120958095Y-106102380D01*
X121958095Y-105197619D02*
X122005714Y-105150000D01*
X122100952Y-105102380D01*
X122339047Y-105102380D01*
X122434285Y-105150000D01*
X122481904Y-105197619D01*
X122529523Y-105292857D01*
X122529523Y-105388095D01*
X122481904Y-105530952D01*
X121910476Y-106102380D01*
X122529523Y-106102380D01*
X122862857Y-105102380D02*
X123481904Y-105102380D01*
X123148571Y-105483333D01*
X123291428Y-105483333D01*
X123386666Y-105530952D01*
X123434285Y-105578571D01*
X123481904Y-105673809D01*
X123481904Y-105911904D01*
X123434285Y-106007142D01*
X123386666Y-106054761D01*
X123291428Y-106102380D01*
X123005714Y-106102380D01*
X122910476Y-106054761D01*
X122862857Y-106007142D01*
X123862857Y-105197619D02*
X123910476Y-105150000D01*
X124005714Y-105102380D01*
X124243809Y-105102380D01*
X124339047Y-105150000D01*
X124386666Y-105197619D01*
X124434285Y-105292857D01*
X124434285Y-105388095D01*
X124386666Y-105530952D01*
X123815238Y-106102380D01*
X124434285Y-106102380D01*
X143183333Y-82722380D02*
X142707142Y-82722380D01*
X142707142Y-81722380D01*
X143516666Y-82722380D02*
X143516666Y-81722380D01*
X143850000Y-82436666D01*
X144183333Y-81722380D01*
X144183333Y-82722380D01*
X144564285Y-81722380D02*
X145230952Y-81722380D01*
X144802380Y-82722380D01*
X145754761Y-82150952D02*
X145659523Y-82103333D01*
X145611904Y-82055714D01*
X145564285Y-81960476D01*
X145564285Y-81912857D01*
X145611904Y-81817619D01*
X145659523Y-81770000D01*
X145754761Y-81722380D01*
X145945238Y-81722380D01*
X146040476Y-81770000D01*
X146088095Y-81817619D01*
X146135714Y-81912857D01*
X146135714Y-81960476D01*
X146088095Y-82055714D01*
X146040476Y-82103333D01*
X145945238Y-82150952D01*
X145754761Y-82150952D01*
X145659523Y-82198571D01*
X145611904Y-82246190D01*
X145564285Y-82341428D01*
X145564285Y-82531904D01*
X145611904Y-82627142D01*
X145659523Y-82674761D01*
X145754761Y-82722380D01*
X145945238Y-82722380D01*
X146040476Y-82674761D01*
X146088095Y-82627142D01*
X146135714Y-82531904D01*
X146135714Y-82341428D01*
X146088095Y-82246190D01*
X146040476Y-82198571D01*
X145945238Y-82150952D01*
X146754761Y-81722380D02*
X146850000Y-81722380D01*
X146945238Y-81770000D01*
X146992857Y-81817619D01*
X147040476Y-81912857D01*
X147088095Y-82103333D01*
X147088095Y-82341428D01*
X147040476Y-82531904D01*
X146992857Y-82627142D01*
X146945238Y-82674761D01*
X146850000Y-82722380D01*
X146754761Y-82722380D01*
X146659523Y-82674761D01*
X146611904Y-82627142D01*
X146564285Y-82531904D01*
X146516666Y-82341428D01*
X146516666Y-82103333D01*
X146564285Y-81912857D01*
X146611904Y-81817619D01*
X146659523Y-81770000D01*
X146754761Y-81722380D01*
X147992857Y-81722380D02*
X147516666Y-81722380D01*
X147469047Y-82198571D01*
X147516666Y-82150952D01*
X147611904Y-82103333D01*
X147850000Y-82103333D01*
X147945238Y-82150952D01*
X147992857Y-82198571D01*
X148040476Y-82293809D01*
X148040476Y-82531904D01*
X147992857Y-82627142D01*
X147945238Y-82674761D01*
X147850000Y-82722380D01*
X147611904Y-82722380D01*
X147516666Y-82674761D01*
X147469047Y-82627142D01*
X153638666Y-89071380D02*
X154305333Y-89071380D01*
X153876761Y-90071380D01*
X154686285Y-89690428D02*
X155448190Y-89690428D01*
X156448190Y-90071380D02*
X155876761Y-90071380D01*
X156162476Y-90071380D02*
X156162476Y-89071380D01*
X156067238Y-89214238D01*
X155972000Y-89309476D01*
X155876761Y-89357095D01*
X156829142Y-89166619D02*
X156876761Y-89119000D01*
X156972000Y-89071380D01*
X157210095Y-89071380D01*
X157305333Y-89119000D01*
X157352952Y-89166619D01*
X157400571Y-89261857D01*
X157400571Y-89357095D01*
X157352952Y-89499952D01*
X156781523Y-90071380D01*
X157400571Y-90071380D01*
X157686285Y-89071380D02*
X158019619Y-90071380D01*
X158352952Y-89071380D01*
X158686285Y-90071380D02*
X158686285Y-89071380D01*
X158924380Y-89071380D01*
X159067238Y-89119000D01*
X159162476Y-89214238D01*
X159210095Y-89309476D01*
X159257714Y-89499952D01*
X159257714Y-89642809D01*
X159210095Y-89833285D01*
X159162476Y-89928523D01*
X159067238Y-90023761D01*
X158924380Y-90071380D01*
X158686285Y-90071380D01*
X160257714Y-89976142D02*
X160210095Y-90023761D01*
X160067238Y-90071380D01*
X159972000Y-90071380D01*
X159829142Y-90023761D01*
X159733904Y-89928523D01*
X159686285Y-89833285D01*
X159638666Y-89642809D01*
X159638666Y-89499952D01*
X159686285Y-89309476D01*
X159733904Y-89214238D01*
X159829142Y-89119000D01*
X159972000Y-89071380D01*
X160067238Y-89071380D01*
X160210095Y-89119000D01*
X160257714Y-89166619D01*
X155329142Y-91681380D02*
X155329142Y-90681380D01*
X155710095Y-90681380D01*
X155805333Y-90729000D01*
X155852952Y-90776619D01*
X155900571Y-90871857D01*
X155900571Y-91014714D01*
X155852952Y-91109952D01*
X155805333Y-91157571D01*
X155710095Y-91205190D01*
X155329142Y-91205190D01*
X156329142Y-91681380D02*
X156329142Y-90681380D01*
X156805333Y-91681380D02*
X156805333Y-90681380D01*
X157376761Y-91681380D01*
X157376761Y-90681380D01*
X157852952Y-91300428D02*
X158614857Y-91300428D01*
X158233904Y-91681380D02*
X158233904Y-90919476D01*
X98583714Y-96464380D02*
X98012285Y-96464380D01*
X98298000Y-96464380D02*
X98298000Y-95464380D01*
X98202761Y-95607238D01*
X98107523Y-95702476D01*
X98012285Y-95750095D01*
X118438095Y-87762380D02*
X119009523Y-87762380D01*
X118723809Y-88762380D02*
X118723809Y-87762380D01*
X119247619Y-87762380D02*
X119914285Y-88762380D01*
X119914285Y-87762380D02*
X119247619Y-88762380D01*
X107067142Y-92237619D02*
X107114761Y-92285238D01*
X107162380Y-92428095D01*
X107162380Y-92523333D01*
X107114761Y-92666190D01*
X107019523Y-92761428D01*
X106924285Y-92809047D01*
X106733809Y-92856666D01*
X106590952Y-92856666D01*
X106400476Y-92809047D01*
X106305238Y-92761428D01*
X106210000Y-92666190D01*
X106162380Y-92523333D01*
X106162380Y-92428095D01*
X106210000Y-92285238D01*
X106257619Y-92237619D01*
X106162380Y-91951904D02*
X106162380Y-91380476D01*
X107162380Y-91666190D02*
X106162380Y-91666190D01*
X107114761Y-91094761D02*
X107162380Y-90951904D01*
X107162380Y-90713809D01*
X107114761Y-90618571D01*
X107067142Y-90570952D01*
X106971904Y-90523333D01*
X106876666Y-90523333D01*
X106781428Y-90570952D01*
X106733809Y-90618571D01*
X106686190Y-90713809D01*
X106638571Y-90904285D01*
X106590952Y-90999523D01*
X106543333Y-91047142D01*
X106448095Y-91094761D01*
X106352857Y-91094761D01*
X106257619Y-91047142D01*
X106210000Y-90999523D01*
X106162380Y-90904285D01*
X106162380Y-90666190D01*
X106210000Y-90523333D01*
%TO.C,R9*%
X89262380Y-85146666D02*
X88786190Y-85480000D01*
X89262380Y-85718095D02*
X88262380Y-85718095D01*
X88262380Y-85337142D01*
X88310000Y-85241904D01*
X88357619Y-85194285D01*
X88452857Y-85146666D01*
X88595714Y-85146666D01*
X88690952Y-85194285D01*
X88738571Y-85241904D01*
X88786190Y-85337142D01*
X88786190Y-85718095D01*
X89262380Y-84670476D02*
X89262380Y-84480000D01*
X89214761Y-84384761D01*
X89167142Y-84337142D01*
X89024285Y-84241904D01*
X88833809Y-84194285D01*
X88452857Y-84194285D01*
X88357619Y-84241904D01*
X88310000Y-84289523D01*
X88262380Y-84384761D01*
X88262380Y-84575238D01*
X88310000Y-84670476D01*
X88357619Y-84718095D01*
X88452857Y-84765714D01*
X88690952Y-84765714D01*
X88786190Y-84718095D01*
X88833809Y-84670476D01*
X88881428Y-84575238D01*
X88881428Y-84384761D01*
X88833809Y-84289523D01*
X88786190Y-84241904D01*
X88690952Y-84194285D01*
%TO.C,JP8*%
X86796666Y-78495380D02*
X86796666Y-79209666D01*
X86749047Y-79352523D01*
X86653809Y-79447761D01*
X86510952Y-79495380D01*
X86415714Y-79495380D01*
X87272857Y-79495380D02*
X87272857Y-78495380D01*
X87653809Y-78495380D01*
X87749047Y-78543000D01*
X87796666Y-78590619D01*
X87844285Y-78685857D01*
X87844285Y-78828714D01*
X87796666Y-78923952D01*
X87749047Y-78971571D01*
X87653809Y-79019190D01*
X87272857Y-79019190D01*
X88415714Y-78923952D02*
X88320476Y-78876333D01*
X88272857Y-78828714D01*
X88225238Y-78733476D01*
X88225238Y-78685857D01*
X88272857Y-78590619D01*
X88320476Y-78543000D01*
X88415714Y-78495380D01*
X88606190Y-78495380D01*
X88701428Y-78543000D01*
X88749047Y-78590619D01*
X88796666Y-78685857D01*
X88796666Y-78733476D01*
X88749047Y-78828714D01*
X88701428Y-78876333D01*
X88606190Y-78923952D01*
X88415714Y-78923952D01*
X88320476Y-78971571D01*
X88272857Y-79019190D01*
X88225238Y-79114428D01*
X88225238Y-79304904D01*
X88272857Y-79400142D01*
X88320476Y-79447761D01*
X88415714Y-79495380D01*
X88606190Y-79495380D01*
X88701428Y-79447761D01*
X88749047Y-79400142D01*
X88796666Y-79304904D01*
X88796666Y-79114428D01*
X88749047Y-79019190D01*
X88701428Y-78971571D01*
X88606190Y-78923952D01*
%TO.C,JP3*%
X121216666Y-118622380D02*
X121216666Y-119336666D01*
X121169047Y-119479523D01*
X121073809Y-119574761D01*
X120930952Y-119622380D01*
X120835714Y-119622380D01*
X121692857Y-119622380D02*
X121692857Y-118622380D01*
X122073809Y-118622380D01*
X122169047Y-118670000D01*
X122216666Y-118717619D01*
X122264285Y-118812857D01*
X122264285Y-118955714D01*
X122216666Y-119050952D01*
X122169047Y-119098571D01*
X122073809Y-119146190D01*
X121692857Y-119146190D01*
X122597619Y-118622380D02*
X123216666Y-118622380D01*
X122883333Y-119003333D01*
X123026190Y-119003333D01*
X123121428Y-119050952D01*
X123169047Y-119098571D01*
X123216666Y-119193809D01*
X123216666Y-119431904D01*
X123169047Y-119527142D01*
X123121428Y-119574761D01*
X123026190Y-119622380D01*
X122740476Y-119622380D01*
X122645238Y-119574761D01*
X122597619Y-119527142D01*
%TO.C,JP2*%
X135116666Y-118512380D02*
X135116666Y-119226666D01*
X135069047Y-119369523D01*
X134973809Y-119464761D01*
X134830952Y-119512380D01*
X134735714Y-119512380D01*
X135592857Y-119512380D02*
X135592857Y-118512380D01*
X135973809Y-118512380D01*
X136069047Y-118560000D01*
X136116666Y-118607619D01*
X136164285Y-118702857D01*
X136164285Y-118845714D01*
X136116666Y-118940952D01*
X136069047Y-118988571D01*
X135973809Y-119036190D01*
X135592857Y-119036190D01*
X136545238Y-118607619D02*
X136592857Y-118560000D01*
X136688095Y-118512380D01*
X136926190Y-118512380D01*
X137021428Y-118560000D01*
X137069047Y-118607619D01*
X137116666Y-118702857D01*
X137116666Y-118798095D01*
X137069047Y-118940952D01*
X136497619Y-119512380D01*
X137116666Y-119512380D01*
%TO.C,J1*%
X149422380Y-110178333D02*
X150136666Y-110178333D01*
X150279523Y-110225952D01*
X150374761Y-110321190D01*
X150422380Y-110464047D01*
X150422380Y-110559285D01*
X150422380Y-109178333D02*
X150422380Y-109749761D01*
X150422380Y-109464047D02*
X149422380Y-109464047D01*
X149565238Y-109559285D01*
X149660476Y-109654523D01*
X149708095Y-109749761D01*
%TO.C,U3*%
X103198095Y-115612380D02*
X103198095Y-116421904D01*
X103245714Y-116517142D01*
X103293333Y-116564761D01*
X103388571Y-116612380D01*
X103579047Y-116612380D01*
X103674285Y-116564761D01*
X103721904Y-116517142D01*
X103769523Y-116421904D01*
X103769523Y-115612380D01*
X104150476Y-115612380D02*
X104769523Y-115612380D01*
X104436190Y-115993333D01*
X104579047Y-115993333D01*
X104674285Y-116040952D01*
X104721904Y-116088571D01*
X104769523Y-116183809D01*
X104769523Y-116421904D01*
X104721904Y-116517142D01*
X104674285Y-116564761D01*
X104579047Y-116612380D01*
X104293333Y-116612380D01*
X104198095Y-116564761D01*
X104150476Y-116517142D01*
%TO.C,U2*%
X144780095Y-92416380D02*
X144780095Y-93225904D01*
X144827714Y-93321142D01*
X144875333Y-93368761D01*
X144970571Y-93416380D01*
X145161047Y-93416380D01*
X145256285Y-93368761D01*
X145303904Y-93321142D01*
X145351523Y-93225904D01*
X145351523Y-92416380D01*
X145780095Y-92511619D02*
X145827714Y-92464000D01*
X145922952Y-92416380D01*
X146161047Y-92416380D01*
X146256285Y-92464000D01*
X146303904Y-92511619D01*
X146351523Y-92606857D01*
X146351523Y-92702095D01*
X146303904Y-92844952D01*
X145732476Y-93416380D01*
X146351523Y-93416380D01*
%TO.C,C3*%
X89511142Y-117514666D02*
X89558761Y-117562285D01*
X89606380Y-117705142D01*
X89606380Y-117800380D01*
X89558761Y-117943238D01*
X89463523Y-118038476D01*
X89368285Y-118086095D01*
X89177809Y-118133714D01*
X89034952Y-118133714D01*
X88844476Y-118086095D01*
X88749238Y-118038476D01*
X88654000Y-117943238D01*
X88606380Y-117800380D01*
X88606380Y-117705142D01*
X88654000Y-117562285D01*
X88701619Y-117514666D01*
X88606380Y-117181333D02*
X88606380Y-116562285D01*
X88987333Y-116895619D01*
X88987333Y-116752761D01*
X89034952Y-116657523D01*
X89082571Y-116609904D01*
X89177809Y-116562285D01*
X89415904Y-116562285D01*
X89511142Y-116609904D01*
X89558761Y-116657523D01*
X89606380Y-116752761D01*
X89606380Y-117038476D01*
X89558761Y-117133714D01*
X89511142Y-117181333D01*
%TO.C,C2*%
X89384142Y-99607667D02*
X89431761Y-99655286D01*
X89479380Y-99798143D01*
X89479380Y-99893381D01*
X89431761Y-100036239D01*
X89336523Y-100131477D01*
X89241285Y-100179096D01*
X89050809Y-100226715D01*
X88907952Y-100226715D01*
X88717476Y-100179096D01*
X88622238Y-100131477D01*
X88527000Y-100036239D01*
X88479380Y-99893381D01*
X88479380Y-99798143D01*
X88527000Y-99655286D01*
X88574619Y-99607667D01*
X88574619Y-99226715D02*
X88527000Y-99179096D01*
X88479380Y-99083858D01*
X88479380Y-98845762D01*
X88527000Y-98750524D01*
X88574619Y-98702905D01*
X88669857Y-98655286D01*
X88765095Y-98655286D01*
X88907952Y-98702905D01*
X89479380Y-99274334D01*
X89479380Y-98655286D01*
%TO.C,C1*%
X158599142Y-73826666D02*
X158646761Y-73874285D01*
X158694380Y-74017142D01*
X158694380Y-74112380D01*
X158646761Y-74255238D01*
X158551523Y-74350476D01*
X158456285Y-74398095D01*
X158265809Y-74445714D01*
X158122952Y-74445714D01*
X157932476Y-74398095D01*
X157837238Y-74350476D01*
X157742000Y-74255238D01*
X157694380Y-74112380D01*
X157694380Y-74017142D01*
X157742000Y-73874285D01*
X157789619Y-73826666D01*
X158694380Y-72874285D02*
X158694380Y-73445714D01*
X158694380Y-73160000D02*
X157694380Y-73160000D01*
X157837238Y-73255238D01*
X157932476Y-73350476D01*
X157980095Y-73445714D01*
%TO.C,SW1*%
X126404761Y-78603333D02*
X126452380Y-78460476D01*
X126452380Y-78222380D01*
X126404761Y-78127142D01*
X126357142Y-78079523D01*
X126261904Y-78031904D01*
X126166666Y-78031904D01*
X126071428Y-78079523D01*
X126023809Y-78127142D01*
X125976190Y-78222380D01*
X125928571Y-78412857D01*
X125880952Y-78508095D01*
X125833333Y-78555714D01*
X125738095Y-78603333D01*
X125642857Y-78603333D01*
X125547619Y-78555714D01*
X125500000Y-78508095D01*
X125452380Y-78412857D01*
X125452380Y-78174761D01*
X125500000Y-78031904D01*
X125452380Y-77698571D02*
X126452380Y-77460476D01*
X125738095Y-77270000D01*
X126452380Y-77079523D01*
X125452380Y-76841428D01*
X126452380Y-75936666D02*
X126452380Y-76508095D01*
X126452380Y-76222380D02*
X125452380Y-76222380D01*
X125595238Y-76317619D01*
X125690476Y-76412857D01*
X125738095Y-76508095D01*
%TO.C,R6*%
X91638380Y-75096666D02*
X91162190Y-75430000D01*
X91638380Y-75668095D02*
X90638380Y-75668095D01*
X90638380Y-75287142D01*
X90686000Y-75191904D01*
X90733619Y-75144285D01*
X90828857Y-75096666D01*
X90971714Y-75096666D01*
X91066952Y-75144285D01*
X91114571Y-75191904D01*
X91162190Y-75287142D01*
X91162190Y-75668095D01*
X90638380Y-74239523D02*
X90638380Y-74430000D01*
X90686000Y-74525238D01*
X90733619Y-74572857D01*
X90876476Y-74668095D01*
X91066952Y-74715714D01*
X91447904Y-74715714D01*
X91543142Y-74668095D01*
X91590761Y-74620476D01*
X91638380Y-74525238D01*
X91638380Y-74334761D01*
X91590761Y-74239523D01*
X91543142Y-74191904D01*
X91447904Y-74144285D01*
X91209809Y-74144285D01*
X91114571Y-74191904D01*
X91066952Y-74239523D01*
X91019333Y-74334761D01*
X91019333Y-74525238D01*
X91066952Y-74620476D01*
X91114571Y-74668095D01*
X91209809Y-74715714D01*
%TO.C,R8*%
X119883180Y-80837066D02*
X119406990Y-81170400D01*
X119883180Y-81408495D02*
X118883180Y-81408495D01*
X118883180Y-81027542D01*
X118930800Y-80932304D01*
X118978419Y-80884685D01*
X119073657Y-80837066D01*
X119216514Y-80837066D01*
X119311752Y-80884685D01*
X119359371Y-80932304D01*
X119406990Y-81027542D01*
X119406990Y-81408495D01*
X119311752Y-80265638D02*
X119264133Y-80360876D01*
X119216514Y-80408495D01*
X119121276Y-80456114D01*
X119073657Y-80456114D01*
X118978419Y-80408495D01*
X118930800Y-80360876D01*
X118883180Y-80265638D01*
X118883180Y-80075161D01*
X118930800Y-79979923D01*
X118978419Y-79932304D01*
X119073657Y-79884685D01*
X119121276Y-79884685D01*
X119216514Y-79932304D01*
X119264133Y-79979923D01*
X119311752Y-80075161D01*
X119311752Y-80265638D01*
X119359371Y-80360876D01*
X119406990Y-80408495D01*
X119502228Y-80456114D01*
X119692704Y-80456114D01*
X119787942Y-80408495D01*
X119835561Y-80360876D01*
X119883180Y-80265638D01*
X119883180Y-80075161D01*
X119835561Y-79979923D01*
X119787942Y-79932304D01*
X119692704Y-79884685D01*
X119502228Y-79884685D01*
X119406990Y-79932304D01*
X119359371Y-79979923D01*
X119311752Y-80075161D01*
%TO.C,R7*%
X116530380Y-80811666D02*
X116054190Y-81145000D01*
X116530380Y-81383095D02*
X115530380Y-81383095D01*
X115530380Y-81002142D01*
X115578000Y-80906904D01*
X115625619Y-80859285D01*
X115720857Y-80811666D01*
X115863714Y-80811666D01*
X115958952Y-80859285D01*
X116006571Y-80906904D01*
X116054190Y-81002142D01*
X116054190Y-81383095D01*
X115530380Y-80478333D02*
X115530380Y-79811666D01*
X116530380Y-80240238D01*
%TO.C,JP1*%
X130726666Y-118642380D02*
X130726666Y-119356666D01*
X130679047Y-119499523D01*
X130583809Y-119594761D01*
X130440952Y-119642380D01*
X130345714Y-119642380D01*
X131202857Y-119642380D02*
X131202857Y-118642380D01*
X131583809Y-118642380D01*
X131679047Y-118690000D01*
X131726666Y-118737619D01*
X131774285Y-118832857D01*
X131774285Y-118975714D01*
X131726666Y-119070952D01*
X131679047Y-119118571D01*
X131583809Y-119166190D01*
X131202857Y-119166190D01*
X132726666Y-119642380D02*
X132155238Y-119642380D01*
X132440952Y-119642380D02*
X132440952Y-118642380D01*
X132345714Y-118785238D01*
X132250476Y-118880476D01*
X132155238Y-118928095D01*
%TO.C,R3*%
X112352380Y-106096666D02*
X111876190Y-106430000D01*
X112352380Y-106668095D02*
X111352380Y-106668095D01*
X111352380Y-106287142D01*
X111400000Y-106191904D01*
X111447619Y-106144285D01*
X111542857Y-106096666D01*
X111685714Y-106096666D01*
X111780952Y-106144285D01*
X111828571Y-106191904D01*
X111876190Y-106287142D01*
X111876190Y-106668095D01*
X111352380Y-105763333D02*
X111352380Y-105144285D01*
X111733333Y-105477619D01*
X111733333Y-105334761D01*
X111780952Y-105239523D01*
X111828571Y-105191904D01*
X111923809Y-105144285D01*
X112161904Y-105144285D01*
X112257142Y-105191904D01*
X112304761Y-105239523D01*
X112352380Y-105334761D01*
X112352380Y-105620476D01*
X112304761Y-105715714D01*
X112257142Y-105763333D01*
%TO.C,J2*%
X84802380Y-99503333D02*
X85516666Y-99503333D01*
X85659523Y-99550952D01*
X85754761Y-99646190D01*
X85802380Y-99789047D01*
X85802380Y-99884285D01*
X84897619Y-99074761D02*
X84850000Y-99027142D01*
X84802380Y-98931904D01*
X84802380Y-98693809D01*
X84850000Y-98598571D01*
X84897619Y-98550952D01*
X84992857Y-98503333D01*
X85088095Y-98503333D01*
X85230952Y-98550952D01*
X85802380Y-99122380D01*
X85802380Y-98503333D01*
%TO.C,C9*%
X91995333Y-92101942D02*
X91947714Y-92149561D01*
X91804857Y-92197180D01*
X91709619Y-92197180D01*
X91566761Y-92149561D01*
X91471523Y-92054323D01*
X91423904Y-91959085D01*
X91376285Y-91768609D01*
X91376285Y-91625752D01*
X91423904Y-91435276D01*
X91471523Y-91340038D01*
X91566761Y-91244800D01*
X91709619Y-91197180D01*
X91804857Y-91197180D01*
X91947714Y-91244800D01*
X91995333Y-91292419D01*
X92471523Y-92197180D02*
X92662000Y-92197180D01*
X92757238Y-92149561D01*
X92804857Y-92101942D01*
X92900095Y-91959085D01*
X92947714Y-91768609D01*
X92947714Y-91387657D01*
X92900095Y-91292419D01*
X92852476Y-91244800D01*
X92757238Y-91197180D01*
X92566761Y-91197180D01*
X92471523Y-91244800D01*
X92423904Y-91292419D01*
X92376285Y-91387657D01*
X92376285Y-91625752D01*
X92423904Y-91720990D01*
X92471523Y-91768609D01*
X92566761Y-91816228D01*
X92757238Y-91816228D01*
X92852476Y-91768609D01*
X92900095Y-91720990D01*
X92947714Y-91625752D01*
%TO.C,JP6*%
X123466666Y-103522380D02*
X123466666Y-104236666D01*
X123419047Y-104379523D01*
X123323809Y-104474761D01*
X123180952Y-104522380D01*
X123085714Y-104522380D01*
X123942857Y-104522380D02*
X123942857Y-103522380D01*
X124323809Y-103522380D01*
X124419047Y-103570000D01*
X124466666Y-103617619D01*
X124514285Y-103712857D01*
X124514285Y-103855714D01*
X124466666Y-103950952D01*
X124419047Y-103998571D01*
X124323809Y-104046190D01*
X123942857Y-104046190D01*
X125371428Y-103522380D02*
X125180952Y-103522380D01*
X125085714Y-103570000D01*
X125038095Y-103617619D01*
X124942857Y-103760476D01*
X124895238Y-103950952D01*
X124895238Y-104331904D01*
X124942857Y-104427142D01*
X124990476Y-104474761D01*
X125085714Y-104522380D01*
X125276190Y-104522380D01*
X125371428Y-104474761D01*
X125419047Y-104427142D01*
X125466666Y-104331904D01*
X125466666Y-104093809D01*
X125419047Y-103998571D01*
X125371428Y-103950952D01*
X125276190Y-103903333D01*
X125085714Y-103903333D01*
X124990476Y-103950952D01*
X124942857Y-103998571D01*
X124895238Y-104093809D01*
%TO.C,J4*%
X126227380Y-91011333D02*
X126941666Y-91011333D01*
X127084523Y-91058952D01*
X127179761Y-91154190D01*
X127227380Y-91297047D01*
X127227380Y-91392285D01*
X126560714Y-90106571D02*
X127227380Y-90106571D01*
X126179761Y-90344666D02*
X126894047Y-90582761D01*
X126894047Y-89963714D01*
%TO.C,C6*%
X117010142Y-97239554D02*
X117057761Y-97287173D01*
X117105380Y-97430030D01*
X117105380Y-97525268D01*
X117057761Y-97668126D01*
X116962523Y-97763364D01*
X116867285Y-97810983D01*
X116676809Y-97858602D01*
X116533952Y-97858602D01*
X116343476Y-97810983D01*
X116248238Y-97763364D01*
X116153000Y-97668126D01*
X116105380Y-97525268D01*
X116105380Y-97430030D01*
X116153000Y-97287173D01*
X116200619Y-97239554D01*
X116105380Y-96382411D02*
X116105380Y-96572888D01*
X116153000Y-96668126D01*
X116200619Y-96715745D01*
X116343476Y-96810983D01*
X116533952Y-96858602D01*
X116914904Y-96858602D01*
X117010142Y-96810983D01*
X117057761Y-96763364D01*
X117105380Y-96668126D01*
X117105380Y-96477649D01*
X117057761Y-96382411D01*
X117010142Y-96334792D01*
X116914904Y-96287173D01*
X116676809Y-96287173D01*
X116581571Y-96334792D01*
X116533952Y-96382411D01*
X116486333Y-96477649D01*
X116486333Y-96668126D01*
X116533952Y-96763364D01*
X116581571Y-96810983D01*
X116676809Y-96858602D01*
%TO.C,R4*%
X115514380Y-105957666D02*
X115038190Y-106291000D01*
X115514380Y-106529095D02*
X114514380Y-106529095D01*
X114514380Y-106148142D01*
X114562000Y-106052904D01*
X114609619Y-106005285D01*
X114704857Y-105957666D01*
X114847714Y-105957666D01*
X114942952Y-106005285D01*
X114990571Y-106052904D01*
X115038190Y-106148142D01*
X115038190Y-106529095D01*
X114847714Y-105100523D02*
X115514380Y-105100523D01*
X114466761Y-105338619D02*
X115181047Y-105576714D01*
X115181047Y-104957666D01*
%TO.C,SW2*%
X134544761Y-78583333D02*
X134592380Y-78440476D01*
X134592380Y-78202380D01*
X134544761Y-78107142D01*
X134497142Y-78059523D01*
X134401904Y-78011904D01*
X134306666Y-78011904D01*
X134211428Y-78059523D01*
X134163809Y-78107142D01*
X134116190Y-78202380D01*
X134068571Y-78392857D01*
X134020952Y-78488095D01*
X133973333Y-78535714D01*
X133878095Y-78583333D01*
X133782857Y-78583333D01*
X133687619Y-78535714D01*
X133640000Y-78488095D01*
X133592380Y-78392857D01*
X133592380Y-78154761D01*
X133640000Y-78011904D01*
X133592380Y-77678571D02*
X134592380Y-77440476D01*
X133878095Y-77250000D01*
X134592380Y-77059523D01*
X133592380Y-76821428D01*
X133687619Y-76488095D02*
X133640000Y-76440476D01*
X133592380Y-76345238D01*
X133592380Y-76107142D01*
X133640000Y-76011904D01*
X133687619Y-75964285D01*
X133782857Y-75916666D01*
X133878095Y-75916666D01*
X134020952Y-75964285D01*
X134592380Y-76535714D01*
X134592380Y-75916666D01*
%TO.C,C5*%
X142043333Y-100377142D02*
X141995714Y-100424761D01*
X141852857Y-100472380D01*
X141757619Y-100472380D01*
X141614761Y-100424761D01*
X141519523Y-100329523D01*
X141471904Y-100234285D01*
X141424285Y-100043809D01*
X141424285Y-99900952D01*
X141471904Y-99710476D01*
X141519523Y-99615238D01*
X141614761Y-99520000D01*
X141757619Y-99472380D01*
X141852857Y-99472380D01*
X141995714Y-99520000D01*
X142043333Y-99567619D01*
X142948095Y-99472380D02*
X142471904Y-99472380D01*
X142424285Y-99948571D01*
X142471904Y-99900952D01*
X142567142Y-99853333D01*
X142805238Y-99853333D01*
X142900476Y-99900952D01*
X142948095Y-99948571D01*
X142995714Y-100043809D01*
X142995714Y-100281904D01*
X142948095Y-100377142D01*
X142900476Y-100424761D01*
X142805238Y-100472380D01*
X142567142Y-100472380D01*
X142471904Y-100424761D01*
X142424285Y-100377142D01*
%TO.C,JP4*%
X125906666Y-118642380D02*
X125906666Y-119356666D01*
X125859047Y-119499523D01*
X125763809Y-119594761D01*
X125620952Y-119642380D01*
X125525714Y-119642380D01*
X126382857Y-119642380D02*
X126382857Y-118642380D01*
X126763809Y-118642380D01*
X126859047Y-118690000D01*
X126906666Y-118737619D01*
X126954285Y-118832857D01*
X126954285Y-118975714D01*
X126906666Y-119070952D01*
X126859047Y-119118571D01*
X126763809Y-119166190D01*
X126382857Y-119166190D01*
X127811428Y-118975714D02*
X127811428Y-119642380D01*
X127573333Y-118594761D02*
X127335238Y-119309047D01*
X127954285Y-119309047D01*
%TO.C,C7*%
X89450254Y-105830666D02*
X89497873Y-105878285D01*
X89545492Y-106021142D01*
X89545492Y-106116380D01*
X89497873Y-106259238D01*
X89402635Y-106354476D01*
X89307397Y-106402095D01*
X89116921Y-106449714D01*
X88974064Y-106449714D01*
X88783588Y-106402095D01*
X88688350Y-106354476D01*
X88593112Y-106259238D01*
X88545492Y-106116380D01*
X88545492Y-106021142D01*
X88593112Y-105878285D01*
X88640731Y-105830666D01*
X88545492Y-105497333D02*
X88545492Y-104830666D01*
X89545492Y-105259238D01*
%TO.C,U1*%
X92691095Y-70138380D02*
X92691095Y-70947904D01*
X92738714Y-71043142D01*
X92786333Y-71090761D01*
X92881571Y-71138380D01*
X93072047Y-71138380D01*
X93167285Y-71090761D01*
X93214904Y-71043142D01*
X93262523Y-70947904D01*
X93262523Y-70138380D01*
X94262523Y-71138380D02*
X93691095Y-71138380D01*
X93976809Y-71138380D02*
X93976809Y-70138380D01*
X93881571Y-70281238D01*
X93786333Y-70376476D01*
X93691095Y-70424095D01*
%TO.C,U4*%
X132688095Y-105862380D02*
X132688095Y-106671904D01*
X132735714Y-106767142D01*
X132783333Y-106814761D01*
X132878571Y-106862380D01*
X133069047Y-106862380D01*
X133164285Y-106814761D01*
X133211904Y-106767142D01*
X133259523Y-106671904D01*
X133259523Y-105862380D01*
X134164285Y-106195714D02*
X134164285Y-106862380D01*
X133926190Y-105814761D02*
X133688095Y-106529047D01*
X134307142Y-106529047D01*
%TO.C,C8*%
X142133333Y-107842254D02*
X142085714Y-107889873D01*
X141942857Y-107937492D01*
X141847619Y-107937492D01*
X141704761Y-107889873D01*
X141609523Y-107794635D01*
X141561904Y-107699397D01*
X141514285Y-107508921D01*
X141514285Y-107366064D01*
X141561904Y-107175588D01*
X141609523Y-107080350D01*
X141704761Y-106985112D01*
X141847619Y-106937492D01*
X141942857Y-106937492D01*
X142085714Y-106985112D01*
X142133333Y-107032731D01*
X142704761Y-107366064D02*
X142609523Y-107318445D01*
X142561904Y-107270826D01*
X142514285Y-107175588D01*
X142514285Y-107127969D01*
X142561904Y-107032731D01*
X142609523Y-106985112D01*
X142704761Y-106937492D01*
X142895238Y-106937492D01*
X142990476Y-106985112D01*
X143038095Y-107032731D01*
X143085714Y-107127969D01*
X143085714Y-107175588D01*
X143038095Y-107270826D01*
X142990476Y-107318445D01*
X142895238Y-107366064D01*
X142704761Y-107366064D01*
X142609523Y-107413683D01*
X142561904Y-107461302D01*
X142514285Y-107556540D01*
X142514285Y-107747016D01*
X142561904Y-107842254D01*
X142609523Y-107889873D01*
X142704761Y-107937492D01*
X142895238Y-107937492D01*
X142990476Y-107889873D01*
X143038095Y-107842254D01*
X143085714Y-107747016D01*
X143085714Y-107556540D01*
X143038095Y-107461302D01*
X142990476Y-107413683D01*
X142895238Y-107366064D01*
%TO.C,J3*%
X159942666Y-77652380D02*
X159942666Y-78366666D01*
X159895047Y-78509523D01*
X159799809Y-78604761D01*
X159656952Y-78652380D01*
X159561714Y-78652380D01*
X160323619Y-77652380D02*
X160942666Y-77652380D01*
X160609333Y-78033333D01*
X160752190Y-78033333D01*
X160847428Y-78080952D01*
X160895047Y-78128571D01*
X160942666Y-78223809D01*
X160942666Y-78461904D01*
X160895047Y-78557142D01*
X160847428Y-78604761D01*
X160752190Y-78652380D01*
X160466476Y-78652380D01*
X160371238Y-78604761D01*
X160323619Y-78557142D01*
%TO.C,R1*%
X100613333Y-92245180D02*
X100280000Y-91768990D01*
X100041904Y-92245180D02*
X100041904Y-91245180D01*
X100422857Y-91245180D01*
X100518095Y-91292800D01*
X100565714Y-91340419D01*
X100613333Y-91435657D01*
X100613333Y-91578514D01*
X100565714Y-91673752D01*
X100518095Y-91721371D01*
X100422857Y-91768990D01*
X100041904Y-91768990D01*
X101565714Y-92245180D02*
X100994285Y-92245180D01*
X101280000Y-92245180D02*
X101280000Y-91245180D01*
X101184761Y-91388038D01*
X101089523Y-91483276D01*
X100994285Y-91530895D01*
%TO.C,C4*%
X89511142Y-111672666D02*
X89558761Y-111720285D01*
X89606380Y-111863142D01*
X89606380Y-111958380D01*
X89558761Y-112101238D01*
X89463523Y-112196476D01*
X89368285Y-112244095D01*
X89177809Y-112291714D01*
X89034952Y-112291714D01*
X88844476Y-112244095D01*
X88749238Y-112196476D01*
X88654000Y-112101238D01*
X88606380Y-111958380D01*
X88606380Y-111863142D01*
X88654000Y-111720285D01*
X88701619Y-111672666D01*
X88939714Y-110815523D02*
X89606380Y-110815523D01*
X88558761Y-111053619D02*
X89273047Y-111291714D01*
X89273047Y-110672666D01*
%TO.C,JP7*%
X110706666Y-93392380D02*
X110706666Y-94106666D01*
X110659047Y-94249523D01*
X110563809Y-94344761D01*
X110420952Y-94392380D01*
X110325714Y-94392380D01*
X111182857Y-94392380D02*
X111182857Y-93392380D01*
X111563809Y-93392380D01*
X111659047Y-93440000D01*
X111706666Y-93487619D01*
X111754285Y-93582857D01*
X111754285Y-93725714D01*
X111706666Y-93820952D01*
X111659047Y-93868571D01*
X111563809Y-93916190D01*
X111182857Y-93916190D01*
X112087619Y-93392380D02*
X112754285Y-93392380D01*
X112325714Y-94392380D01*
%TO.C,R5*%
X92603580Y-85256666D02*
X92127390Y-85590000D01*
X92603580Y-85828095D02*
X91603580Y-85828095D01*
X91603580Y-85447142D01*
X91651200Y-85351904D01*
X91698819Y-85304285D01*
X91794057Y-85256666D01*
X91936914Y-85256666D01*
X92032152Y-85304285D01*
X92079771Y-85351904D01*
X92127390Y-85447142D01*
X92127390Y-85828095D01*
X91603580Y-84351904D02*
X91603580Y-84828095D01*
X92079771Y-84875714D01*
X92032152Y-84828095D01*
X91984533Y-84732857D01*
X91984533Y-84494761D01*
X92032152Y-84399523D01*
X92079771Y-84351904D01*
X92175009Y-84304285D01*
X92413104Y-84304285D01*
X92508342Y-84351904D01*
X92555961Y-84399523D01*
X92603580Y-84494761D01*
X92603580Y-84732857D01*
X92555961Y-84828095D01*
X92508342Y-84875714D01*
%TO.C,R2*%
X92816133Y-95511180D02*
X92482800Y-95034990D01*
X92244704Y-95511180D02*
X92244704Y-94511180D01*
X92625657Y-94511180D01*
X92720895Y-94558800D01*
X92768514Y-94606419D01*
X92816133Y-94701657D01*
X92816133Y-94844514D01*
X92768514Y-94939752D01*
X92720895Y-94987371D01*
X92625657Y-95034990D01*
X92244704Y-95034990D01*
X93197085Y-94606419D02*
X93244704Y-94558800D01*
X93339942Y-94511180D01*
X93578038Y-94511180D01*
X93673276Y-94558800D01*
X93720895Y-94606419D01*
X93768514Y-94701657D01*
X93768514Y-94796895D01*
X93720895Y-94939752D01*
X93149466Y-95511180D01*
X93768514Y-95511180D01*
%TO.C,JP5*%
X118673666Y-103534780D02*
X118673666Y-104249066D01*
X118626047Y-104391923D01*
X118530809Y-104487161D01*
X118387952Y-104534780D01*
X118292714Y-104534780D01*
X119149857Y-104534780D02*
X119149857Y-103534780D01*
X119530809Y-103534780D01*
X119626047Y-103582400D01*
X119673666Y-103630019D01*
X119721285Y-103725257D01*
X119721285Y-103868114D01*
X119673666Y-103963352D01*
X119626047Y-104010971D01*
X119530809Y-104058590D01*
X119149857Y-104058590D01*
X120626047Y-103534780D02*
X120149857Y-103534780D01*
X120102238Y-104010971D01*
X120149857Y-103963352D01*
X120245095Y-103915733D01*
X120483190Y-103915733D01*
X120578428Y-103963352D01*
X120626047Y-104010971D01*
X120673666Y-104106209D01*
X120673666Y-104344304D01*
X120626047Y-104439542D01*
X120578428Y-104487161D01*
X120483190Y-104534780D01*
X120245095Y-104534780D01*
X120149857Y-104487161D01*
X120102238Y-104439542D01*
D11*
%TO.C,R9*%
X87530000Y-88360000D02*
X87860000Y-88360000D01*
X90270000Y-81820000D02*
X90270000Y-88360000D01*
X87530000Y-81820000D02*
X87530000Y-88360000D01*
X87860000Y-81820000D02*
X87530000Y-81820000D01*
X89940000Y-81820000D02*
X90270000Y-81820000D01*
X90270000Y-88360000D02*
X89940000Y-88360000D01*
%TO.C,JP8*%
X88960000Y-76713000D02*
X88960000Y-78043000D01*
X88960000Y-72843000D02*
X86300000Y-72843000D01*
X88960000Y-75443000D02*
X88960000Y-72843000D01*
X88960000Y-75443000D02*
X86300000Y-75443000D01*
X88960000Y-78043000D02*
X87630000Y-78043000D01*
X86300000Y-75443000D02*
X86300000Y-72843000D01*
%TO.C,JP3*%
X123380000Y-115570000D02*
X120720000Y-115570000D01*
X123380000Y-115570000D02*
X123380000Y-110430000D01*
X123380000Y-116840000D02*
X123380000Y-118170000D01*
X120720000Y-115570000D02*
X120720000Y-110430000D01*
X123380000Y-110430000D02*
X120720000Y-110430000D01*
X123380000Y-118170000D02*
X122050000Y-118170000D01*
%TO.C,JP2*%
X134620000Y-115460000D02*
X134620000Y-110320000D01*
X137280000Y-110320000D02*
X134620000Y-110320000D01*
X137280000Y-118060000D02*
X135950000Y-118060000D01*
X137280000Y-115460000D02*
X137280000Y-110320000D01*
X137280000Y-116730000D02*
X137280000Y-118060000D01*
X137280000Y-115460000D02*
X134620000Y-115460000D01*
%TO.C,J1*%
X150015662Y-104555000D02*
X150015662Y-104055000D01*
X150448675Y-104305000D02*
X150015662Y-104555000D01*
X150015662Y-104055000D02*
X150448675Y-104305000D01*
X161390000Y-125330000D02*
X150910000Y-125330000D01*
X150910000Y-94360000D02*
X161390000Y-94360000D01*
X150910000Y-125330000D02*
X150910000Y-94360000D01*
%TO.C,U3*%
X106800000Y-94672000D02*
X105150000Y-94672000D01*
X106800000Y-115112000D02*
X106800000Y-94672000D01*
X99010000Y-94612000D02*
X99010000Y-115172000D01*
X109290000Y-115172000D02*
X109290000Y-94612000D01*
X99010000Y-115172000D02*
X109290000Y-115172000D01*
X103150000Y-94672000D02*
X101500000Y-94672000D01*
X101500000Y-115112000D02*
X106800000Y-115112000D01*
X109290000Y-94612000D02*
X99010000Y-94612000D01*
X101500000Y-94672000D02*
X101500000Y-115112000D01*
X103150000Y-94672000D02*
G75*
G03*
X105150000Y-94672000I1000000J0D01*
G01*
%TO.C,U2*%
X148082000Y-87074000D02*
X148082000Y-89614000D01*
X140422000Y-71184000D02*
X150662000Y-71184000D01*
X140422000Y-71184000D02*
X140422000Y-87074000D01*
X145542000Y-87074000D02*
X145542000Y-89614000D01*
X143002000Y-87074000D02*
X143002000Y-89614000D01*
X150662000Y-71184000D02*
X150662000Y-87074000D01*
X140422000Y-87074000D02*
X150662000Y-87074000D01*
%TO.C,C3*%
X95484887Y-117460000D02*
G75*
G03*
X95484887Y-117460000I-2620000J0D01*
G01*
X94265887Y-115285000D02*
X94265887Y-116420000D01*
X94345887Y-115338000D02*
X94345887Y-116420000D01*
X94825887Y-118500000D02*
X94825887Y-119159000D01*
X94305887Y-115311000D02*
X94305887Y-116420000D01*
X95105887Y-116141000D02*
X95105887Y-118779000D01*
X94705887Y-118500000D02*
X94705887Y-119286000D01*
X94705887Y-115634000D02*
X94705887Y-116420000D01*
X95065887Y-116077000D02*
X95065887Y-118843000D01*
X94585887Y-118500000D02*
X94585887Y-119397000D01*
X93665887Y-115005000D02*
X93665887Y-116420000D01*
X93064887Y-118500000D02*
X93064887Y-120033000D01*
X93985887Y-118500000D02*
X93985887Y-119789000D01*
X94945887Y-115906000D02*
X94945887Y-119014000D01*
X93504887Y-118500000D02*
X93504887Y-119961000D01*
X93905887Y-115095000D02*
X93905887Y-116420000D01*
X93144887Y-118500000D02*
X93144887Y-120025000D01*
X93625887Y-118500000D02*
X93625887Y-119928000D01*
X93424887Y-118500000D02*
X93424887Y-119980000D01*
X92904887Y-114880000D02*
X92904887Y-116420000D01*
X92864887Y-114880000D02*
X92864887Y-116420000D01*
X93625887Y-114992000D02*
X93625887Y-116420000D01*
X94985887Y-115960000D02*
X94985887Y-118960000D01*
X93024887Y-118500000D02*
X93024887Y-120036000D01*
X95345887Y-116655000D02*
X95345887Y-118265000D01*
X93504887Y-114959000D02*
X93504887Y-116420000D01*
X94145887Y-118500000D02*
X94145887Y-119707000D01*
X94865887Y-115807000D02*
X94865887Y-116420000D01*
X93985887Y-115131000D02*
X93985887Y-116420000D01*
X95225887Y-116362000D02*
X95225887Y-118558000D01*
X93665887Y-118500000D02*
X93665887Y-119915000D01*
X93224887Y-114904000D02*
X93224887Y-116420000D01*
X95465887Y-117176000D02*
X95465887Y-117744000D01*
X94625887Y-118500000D02*
X94625887Y-119361000D01*
X93905887Y-118500000D02*
X93905887Y-119825000D01*
X93464887Y-118500000D02*
X93464887Y-119971000D01*
X94145887Y-115213000D02*
X94145887Y-116420000D01*
X94105887Y-118500000D02*
X94105887Y-119728000D01*
X94865887Y-118500000D02*
X94865887Y-119113000D01*
X94745887Y-118500000D02*
X94745887Y-119245000D01*
X94505887Y-115456000D02*
X94505887Y-116420000D01*
X93384887Y-118500000D02*
X93384887Y-119988000D01*
X94425887Y-115395000D02*
X94425887Y-116420000D01*
X94465887Y-118500000D02*
X94465887Y-119495000D01*
X94385887Y-115365000D02*
X94385887Y-116420000D01*
X94745887Y-115675000D02*
X94745887Y-116420000D01*
X93585887Y-114980000D02*
X93585887Y-116420000D01*
X93785887Y-118500000D02*
X93785887Y-119874000D01*
X93224887Y-118500000D02*
X93224887Y-120016000D01*
X94665887Y-118500000D02*
X94665887Y-119324000D01*
X93264887Y-114910000D02*
X93264887Y-116420000D01*
X90310112Y-115735000D02*
X90310112Y-116235000D01*
X93705887Y-118500000D02*
X93705887Y-119902000D01*
X95265887Y-116449000D02*
X95265887Y-118471000D01*
X93344887Y-118500000D02*
X93344887Y-119996000D01*
X92944887Y-114881000D02*
X92944887Y-116420000D01*
X93945887Y-115112000D02*
X93945887Y-116420000D01*
X94025887Y-118500000D02*
X94025887Y-119770000D01*
X94345887Y-118500000D02*
X94345887Y-119582000D01*
X93825887Y-115062000D02*
X93825887Y-116420000D01*
X93705887Y-115018000D02*
X93705887Y-116420000D01*
X93024887Y-114884000D02*
X93024887Y-116420000D01*
X92984887Y-118500000D02*
X92984887Y-120038000D01*
X92944887Y-118500000D02*
X92944887Y-120039000D01*
X94625887Y-115559000D02*
X94625887Y-116420000D01*
X93825887Y-118500000D02*
X93825887Y-119858000D01*
X94025887Y-115150000D02*
X94025887Y-116420000D01*
X93424887Y-114940000D02*
X93424887Y-116420000D01*
X93745887Y-118500000D02*
X93745887Y-119888000D01*
X94825887Y-115761000D02*
X94825887Y-116420000D01*
X94185887Y-118500000D02*
X94185887Y-119684000D01*
X94785887Y-115717000D02*
X94785887Y-116420000D01*
X94905887Y-115855000D02*
X94905887Y-119065000D01*
X90060112Y-115985000D02*
X90560112Y-115985000D01*
X94785887Y-118500000D02*
X94785887Y-119203000D01*
X94665887Y-115596000D02*
X94665887Y-116420000D01*
X92984887Y-114882000D02*
X92984887Y-116420000D01*
X93064887Y-114887000D02*
X93064887Y-116420000D01*
X95145887Y-116209000D02*
X95145887Y-118711000D01*
X95385887Y-116783000D02*
X95385887Y-118137000D01*
X94465887Y-115425000D02*
X94465887Y-116420000D01*
X95185887Y-116282000D02*
X95185887Y-118638000D01*
X93384887Y-114932000D02*
X93384887Y-116420000D01*
X93184887Y-118500000D02*
X93184887Y-120021000D01*
X92904887Y-118500000D02*
X92904887Y-120040000D01*
X94225887Y-115260000D02*
X94225887Y-116420000D01*
X94385887Y-118500000D02*
X94385887Y-119555000D01*
X94545887Y-118500000D02*
X94545887Y-119431000D01*
X93745887Y-115032000D02*
X93745887Y-116420000D01*
X93144887Y-114895000D02*
X93144887Y-116420000D01*
X93104887Y-114891000D02*
X93104887Y-116420000D01*
X94585887Y-115523000D02*
X94585887Y-116420000D01*
X93585887Y-118500000D02*
X93585887Y-119940000D01*
X94105887Y-115192000D02*
X94105887Y-116420000D01*
X93865887Y-115078000D02*
X93865887Y-116420000D01*
X94225887Y-118500000D02*
X94225887Y-119660000D01*
X93865887Y-118500000D02*
X93865887Y-119842000D01*
X93544887Y-118500000D02*
X93544887Y-119951000D01*
X94545887Y-115489000D02*
X94545887Y-116420000D01*
X94065887Y-115170000D02*
X94065887Y-116420000D01*
X93544887Y-114969000D02*
X93544887Y-116420000D01*
X93264887Y-118500000D02*
X93264887Y-120010000D01*
X94065887Y-118500000D02*
X94065887Y-119750000D01*
X93785887Y-115046000D02*
X93785887Y-116420000D01*
X95305887Y-116545000D02*
X95305887Y-118375000D01*
X94185887Y-115236000D02*
X94185887Y-116420000D01*
X93304887Y-114917000D02*
X93304887Y-116420000D01*
X93104887Y-118500000D02*
X93104887Y-120029000D01*
X93184887Y-114899000D02*
X93184887Y-116420000D01*
X95425887Y-116942000D02*
X95425887Y-117978000D01*
X93304887Y-118500000D02*
X93304887Y-120003000D01*
X94305887Y-118500000D02*
X94305887Y-119609000D01*
X92864887Y-118500000D02*
X92864887Y-120040000D01*
X94505887Y-118500000D02*
X94505887Y-119464000D01*
X94425887Y-118500000D02*
X94425887Y-119525000D01*
X93945887Y-118500000D02*
X93945887Y-119808000D01*
X93344887Y-114924000D02*
X93344887Y-116420000D01*
X95025887Y-116017000D02*
X95025887Y-118903000D01*
X93464887Y-114949000D02*
X93464887Y-116420000D01*
X94265887Y-118500000D02*
X94265887Y-119635000D01*
%TO.C,C2*%
X91924000Y-99892888D02*
X90399000Y-99892888D01*
X95484000Y-100172888D02*
X94004000Y-100172888D01*
X94749000Y-101493888D02*
X94004000Y-101493888D01*
X95346000Y-100613888D02*
X94004000Y-100613888D01*
X95274000Y-100773888D02*
X94004000Y-100773888D01*
X95164000Y-100973888D02*
X94004000Y-100973888D01*
X94689000Y-97058113D02*
X94189000Y-97058113D01*
X95139000Y-101013888D02*
X94004000Y-101013888D01*
X91924000Y-100413888D02*
X90509000Y-100413888D01*
X94999000Y-101213888D02*
X94004000Y-101213888D01*
X95419000Y-100413888D02*
X94004000Y-100413888D01*
X95329000Y-100653888D02*
X94004000Y-100653888D01*
X95492000Y-100132888D02*
X94004000Y-100132888D01*
X91924000Y-100933888D02*
X90740000Y-100933888D01*
X91924000Y-100493888D02*
X90536000Y-100493888D01*
X91924000Y-99692888D02*
X90385000Y-99692888D01*
X91924000Y-101173888D02*
X90899000Y-101173888D01*
X91924000Y-101093888D02*
X90842000Y-101093888D01*
X91924000Y-100853888D02*
X90696000Y-100853888D01*
X91924000Y-101213888D02*
X90929000Y-101213888D01*
X95455000Y-100292888D02*
X94004000Y-100292888D01*
X95312000Y-100693888D02*
X94004000Y-100693888D01*
X94407000Y-101773888D02*
X91521000Y-101773888D01*
X95432000Y-100373888D02*
X94004000Y-100373888D01*
X91924000Y-100172888D02*
X90444000Y-100172888D01*
X95507000Y-100052888D02*
X94004000Y-100052888D01*
X94215000Y-101893888D02*
X91713000Y-101893888D01*
X95188000Y-100933888D02*
X94004000Y-100933888D01*
X94935000Y-101293888D02*
X94004000Y-101293888D01*
X95475000Y-100212888D02*
X94004000Y-100212888D01*
X91924000Y-101333888D02*
X91027000Y-101333888D01*
X91924000Y-99652888D02*
X90384000Y-99652888D01*
X91924000Y-99852888D02*
X90395000Y-99852888D01*
X94142000Y-101933888D02*
X91786000Y-101933888D01*
X91924000Y-99732888D02*
X90386000Y-99732888D01*
X91924000Y-100893888D02*
X90717000Y-100893888D01*
X93641000Y-102133888D02*
X92287000Y-102133888D01*
X93879000Y-102053888D02*
X92049000Y-102053888D01*
X91924000Y-100012888D02*
X90414000Y-100012888D01*
X94865000Y-101373888D02*
X94004000Y-101373888D01*
X91924000Y-100252888D02*
X90463000Y-100252888D01*
X91924000Y-101453888D02*
X91138000Y-101453888D01*
X91924000Y-100092888D02*
X90428000Y-100092888D01*
X91924000Y-99972888D02*
X90408000Y-99972888D01*
X94901000Y-101333888D02*
X94004000Y-101333888D01*
X91924000Y-101013888D02*
X90789000Y-101013888D01*
X91924000Y-101133888D02*
X90869000Y-101133888D01*
X91924000Y-100733888D02*
X90635000Y-100733888D01*
X91924000Y-101613888D02*
X91311000Y-101613888D01*
X91924000Y-101533888D02*
X91221000Y-101533888D01*
X95086000Y-101093888D02*
X94004000Y-101093888D01*
X93248000Y-102213888D02*
X92680000Y-102213888D01*
X94439000Y-96808113D02*
X94439000Y-97308113D01*
X95514000Y-100012888D02*
X94004000Y-100012888D01*
X95444000Y-100333888D02*
X94004000Y-100333888D01*
X95406000Y-100453888D02*
X94004000Y-100453888D01*
X94569000Y-101653888D02*
X91359000Y-101653888D01*
X95520000Y-99972888D02*
X94004000Y-99972888D01*
X95029000Y-101173888D02*
X94004000Y-101173888D01*
X95293000Y-100733888D02*
X94004000Y-100733888D01*
X95544000Y-99612888D02*
X94004000Y-99612888D01*
X91924000Y-100773888D02*
X90654000Y-100773888D01*
X95540000Y-99772888D02*
X94004000Y-99772888D01*
X91924000Y-99772888D02*
X90388000Y-99772888D01*
X94617000Y-101613888D02*
X94004000Y-101613888D01*
X95254000Y-100813888D02*
X94004000Y-100813888D01*
X95465000Y-100252888D02*
X94004000Y-100252888D01*
X95544000Y-99652888D02*
X94004000Y-99652888D01*
X91924000Y-100333888D02*
X90484000Y-100333888D01*
X93482000Y-102173888D02*
X92446000Y-102173888D01*
X94968000Y-101253888D02*
X94004000Y-101253888D01*
X94283000Y-101853888D02*
X91645000Y-101853888D01*
X95537000Y-99812888D02*
X94004000Y-99812888D01*
X91924000Y-100813888D02*
X90674000Y-100813888D01*
X95113000Y-101053888D02*
X94004000Y-101053888D01*
X93769000Y-102093888D02*
X92159000Y-102093888D01*
X91924000Y-100132888D02*
X90436000Y-100132888D01*
X91924000Y-101053888D02*
X90815000Y-101053888D01*
X91924000Y-101373888D02*
X91063000Y-101373888D01*
X91924000Y-100292888D02*
X90473000Y-100292888D01*
X95211000Y-100893888D02*
X94004000Y-100893888D01*
X91924000Y-100373888D02*
X90496000Y-100373888D01*
X91924000Y-101253888D02*
X90960000Y-101253888D01*
X95529000Y-99892888D02*
X94004000Y-99892888D01*
X91924000Y-100973888D02*
X90764000Y-100973888D01*
X91924000Y-100613888D02*
X90582000Y-100613888D01*
X94790000Y-101453888D02*
X94004000Y-101453888D01*
X93975000Y-102013888D02*
X91953000Y-102013888D01*
X94347000Y-101813888D02*
X91581000Y-101813888D01*
X95533000Y-99852888D02*
X94004000Y-99852888D01*
X91924000Y-100653888D02*
X90599000Y-100653888D01*
X95500000Y-100092888D02*
X94004000Y-100092888D01*
X95542000Y-99732888D02*
X94004000Y-99732888D01*
X95525000Y-99932888D02*
X94004000Y-99932888D01*
X94828000Y-101413888D02*
X94004000Y-101413888D01*
X94464000Y-101733888D02*
X91464000Y-101733888D01*
X91924000Y-99812888D02*
X90391000Y-99812888D01*
X91924000Y-101293888D02*
X90993000Y-101293888D01*
X91924000Y-100453888D02*
X90522000Y-100453888D01*
X95362000Y-100573888D02*
X94004000Y-100573888D01*
X91924000Y-100052888D02*
X90421000Y-100052888D01*
X94707000Y-101533888D02*
X94004000Y-101533888D01*
X91924000Y-100533888D02*
X90550000Y-100533888D01*
X95543000Y-99692888D02*
X94004000Y-99692888D01*
X91924000Y-101493888D02*
X91179000Y-101493888D01*
X95378000Y-100533888D02*
X94004000Y-100533888D01*
X91924000Y-99612888D02*
X90384000Y-99612888D01*
X91924000Y-101573888D02*
X91265000Y-101573888D01*
X94663000Y-101573888D02*
X94004000Y-101573888D01*
X91924000Y-101413888D02*
X91100000Y-101413888D01*
X91924000Y-100573888D02*
X90566000Y-100573888D01*
X91924000Y-100212888D02*
X90453000Y-100212888D01*
X95232000Y-100853888D02*
X94004000Y-100853888D01*
X94062000Y-101973888D02*
X91866000Y-101973888D01*
X91924000Y-100693888D02*
X90616000Y-100693888D01*
X94518000Y-101693888D02*
X91410000Y-101693888D01*
X95392000Y-100493888D02*
X94004000Y-100493888D01*
X95059000Y-101133888D02*
X94004000Y-101133888D01*
X91924000Y-99932888D02*
X90403000Y-99932888D01*
X95584000Y-99612888D02*
G75*
G03*
X95584000Y-99612888I-2620000J0D01*
G01*
%TO.C,C1*%
X155337000Y-71500000D02*
X155337000Y-72874000D01*
X156337000Y-74954000D02*
X156337000Y-75657000D01*
X151861225Y-72189000D02*
X151861225Y-72689000D01*
X154456000Y-71334000D02*
X154456000Y-72874000D01*
X154656000Y-74954000D02*
X154656000Y-76483000D01*
X154696000Y-71349000D02*
X154696000Y-72874000D01*
X155617000Y-71624000D02*
X155617000Y-72874000D01*
X156777000Y-72816000D02*
X156777000Y-75012000D01*
X155897000Y-74954000D02*
X155897000Y-76036000D01*
X155016000Y-71403000D02*
X155016000Y-72874000D01*
X155497000Y-71566000D02*
X155497000Y-72874000D01*
X156657000Y-72595000D02*
X156657000Y-75233000D01*
X154736000Y-71353000D02*
X154736000Y-72874000D01*
X156737000Y-72736000D02*
X156737000Y-75092000D01*
X155016000Y-74954000D02*
X155016000Y-76425000D01*
X155056000Y-74954000D02*
X155056000Y-76415000D01*
X155857000Y-71765000D02*
X155857000Y-72874000D01*
X155817000Y-71739000D02*
X155817000Y-72874000D01*
X156857000Y-72999000D02*
X156857000Y-74829000D01*
X155657000Y-74954000D02*
X155657000Y-76182000D01*
X156537000Y-72414000D02*
X156537000Y-75414000D01*
X156137000Y-71977000D02*
X156137000Y-72874000D01*
X155377000Y-74954000D02*
X155377000Y-76312000D01*
X155737000Y-74954000D02*
X155737000Y-76138000D01*
X155537000Y-71585000D02*
X155537000Y-72874000D01*
X156377000Y-72215000D02*
X156377000Y-72874000D01*
X155137000Y-74954000D02*
X155137000Y-76394000D01*
X156577000Y-72471000D02*
X156577000Y-75357000D01*
X156417000Y-74954000D02*
X156417000Y-75567000D01*
X156297000Y-72129000D02*
X156297000Y-72874000D01*
X155417000Y-71532000D02*
X155417000Y-72874000D01*
X154536000Y-71336000D02*
X154536000Y-72874000D01*
X154616000Y-71341000D02*
X154616000Y-72874000D01*
X156497000Y-72360000D02*
X156497000Y-75468000D01*
X155937000Y-74954000D02*
X155937000Y-76009000D01*
X156257000Y-72088000D02*
X156257000Y-72874000D01*
X154736000Y-74954000D02*
X154736000Y-76475000D01*
X156417000Y-72261000D02*
X156417000Y-72874000D01*
X154976000Y-74954000D02*
X154976000Y-76434000D01*
X156137000Y-74954000D02*
X156137000Y-75851000D01*
X155697000Y-74954000D02*
X155697000Y-76161000D01*
X155937000Y-71819000D02*
X155937000Y-72874000D01*
X155217000Y-71459000D02*
X155217000Y-72874000D01*
X156897000Y-73109000D02*
X156897000Y-74719000D01*
X155177000Y-71446000D02*
X155177000Y-72874000D01*
X154776000Y-71358000D02*
X154776000Y-72874000D01*
X155137000Y-71434000D02*
X155137000Y-72874000D01*
X154856000Y-74954000D02*
X154856000Y-76457000D01*
X155417000Y-74954000D02*
X155417000Y-76296000D01*
X155737000Y-71690000D02*
X155737000Y-72874000D01*
X155337000Y-74954000D02*
X155337000Y-76328000D01*
X156257000Y-74954000D02*
X156257000Y-75740000D01*
X154936000Y-74954000D02*
X154936000Y-76442000D01*
X156977000Y-73396000D02*
X156977000Y-74432000D01*
X154456000Y-74954000D02*
X154456000Y-76494000D01*
X155977000Y-74954000D02*
X155977000Y-75979000D01*
X155457000Y-71549000D02*
X155457000Y-72874000D01*
X155537000Y-74954000D02*
X155537000Y-76243000D01*
X155977000Y-71849000D02*
X155977000Y-72874000D01*
X155697000Y-71667000D02*
X155697000Y-72874000D01*
X156177000Y-74954000D02*
X156177000Y-75815000D01*
X154976000Y-71394000D02*
X154976000Y-72874000D01*
X154656000Y-71345000D02*
X154656000Y-72874000D01*
X154856000Y-71371000D02*
X154856000Y-72874000D01*
X155377000Y-71516000D02*
X155377000Y-72874000D01*
X154696000Y-74954000D02*
X154696000Y-76479000D01*
X155217000Y-74954000D02*
X155217000Y-76369000D01*
X155297000Y-71486000D02*
X155297000Y-72874000D01*
X154776000Y-74954000D02*
X154776000Y-76470000D01*
X155657000Y-71646000D02*
X155657000Y-72874000D01*
X156297000Y-74954000D02*
X156297000Y-75699000D01*
X155897000Y-71792000D02*
X155897000Y-72874000D01*
X156217000Y-72050000D02*
X156217000Y-72874000D01*
X155177000Y-74954000D02*
X155177000Y-76382000D01*
X154576000Y-74954000D02*
X154576000Y-76490000D01*
X155497000Y-74954000D02*
X155497000Y-76262000D01*
X155817000Y-74954000D02*
X155817000Y-76089000D01*
X154896000Y-74954000D02*
X154896000Y-76450000D01*
X155577000Y-74954000D02*
X155577000Y-76224000D01*
X155257000Y-71472000D02*
X155257000Y-72874000D01*
X156097000Y-71943000D02*
X156097000Y-72874000D01*
X156617000Y-72531000D02*
X156617000Y-75297000D01*
X155056000Y-71413000D02*
X155056000Y-72874000D01*
X156017000Y-71879000D02*
X156017000Y-72874000D01*
X156337000Y-72171000D02*
X156337000Y-72874000D01*
X156377000Y-74954000D02*
X156377000Y-75613000D01*
X155617000Y-74954000D02*
X155617000Y-76204000D01*
X155457000Y-74954000D02*
X155457000Y-76279000D01*
X154416000Y-71334000D02*
X154416000Y-72874000D01*
X155777000Y-71714000D02*
X155777000Y-72874000D01*
X155096000Y-71423000D02*
X155096000Y-72874000D01*
X156697000Y-72663000D02*
X156697000Y-75165000D01*
X156097000Y-74954000D02*
X156097000Y-75885000D01*
X157017000Y-73630000D02*
X157017000Y-74198000D01*
X154616000Y-74954000D02*
X154616000Y-76487000D01*
X154896000Y-71378000D02*
X154896000Y-72874000D01*
X154816000Y-71364000D02*
X154816000Y-72874000D01*
X156217000Y-74954000D02*
X156217000Y-75778000D01*
X156177000Y-72013000D02*
X156177000Y-72874000D01*
X155096000Y-74954000D02*
X155096000Y-76405000D01*
X156057000Y-71910000D02*
X156057000Y-72874000D01*
X156457000Y-72309000D02*
X156457000Y-75519000D01*
X154816000Y-74954000D02*
X154816000Y-76464000D01*
X156017000Y-74954000D02*
X156017000Y-75949000D01*
X155297000Y-74954000D02*
X155297000Y-76342000D01*
X156817000Y-72903000D02*
X156817000Y-74925000D01*
X154936000Y-71386000D02*
X154936000Y-72874000D01*
X155257000Y-74954000D02*
X155257000Y-76356000D01*
X154576000Y-71338000D02*
X154576000Y-72874000D01*
X155857000Y-74954000D02*
X155857000Y-76063000D01*
X155777000Y-74954000D02*
X155777000Y-76114000D01*
X154536000Y-74954000D02*
X154536000Y-76492000D01*
X151611225Y-72439000D02*
X152111225Y-72439000D01*
X154496000Y-71335000D02*
X154496000Y-72874000D01*
X154496000Y-74954000D02*
X154496000Y-76493000D01*
X154416000Y-74954000D02*
X154416000Y-76494000D01*
X155577000Y-71604000D02*
X155577000Y-72874000D01*
X156937000Y-73237000D02*
X156937000Y-74591000D01*
X156057000Y-74954000D02*
X156057000Y-75918000D01*
X157036000Y-73914000D02*
G75*
G03*
X157036000Y-73914000I-2620000J0D01*
G01*
%TO.C,SW1*%
X122770000Y-75068800D02*
X122770000Y-79568800D01*
X126770000Y-73818800D02*
X125270000Y-73818800D01*
X129270000Y-79568800D02*
X129270000Y-75068800D01*
X125270000Y-80818800D02*
X126770000Y-80818800D01*
%TO.C,R6*%
X92226000Y-78200000D02*
X92556000Y-78200000D01*
X89816000Y-71660000D02*
X90146000Y-71660000D01*
X90146000Y-78200000D02*
X89816000Y-78200000D01*
X89816000Y-78200000D02*
X89816000Y-71660000D01*
X92556000Y-71660000D02*
X92226000Y-71660000D01*
X92556000Y-78200000D02*
X92556000Y-71660000D01*
%TO.C,R8*%
X118390800Y-83940400D02*
X118060800Y-83940400D01*
X118060800Y-77400400D02*
X118390800Y-77400400D01*
X118060800Y-83940400D02*
X118060800Y-77400400D01*
X120470800Y-83940400D02*
X120800800Y-83940400D01*
X120800800Y-83940400D02*
X120800800Y-77400400D01*
X120800800Y-77400400D02*
X120470800Y-77400400D01*
%TO.C,R7*%
X114708000Y-83915000D02*
X114708000Y-77375000D01*
X117448000Y-83915000D02*
X117448000Y-77375000D01*
X117118000Y-83915000D02*
X117448000Y-83915000D01*
X115038000Y-83915000D02*
X114708000Y-83915000D01*
X117448000Y-77375000D02*
X117118000Y-77375000D01*
X114708000Y-77375000D02*
X115038000Y-77375000D01*
%TO.C,JP1*%
X132890000Y-115590000D02*
X132890000Y-110450000D01*
X132890000Y-118190000D02*
X131560000Y-118190000D01*
X132890000Y-115590000D02*
X130230000Y-115590000D01*
X132890000Y-116860000D02*
X132890000Y-118190000D01*
X130230000Y-115590000D02*
X130230000Y-110450000D01*
X132890000Y-110450000D02*
X130230000Y-110450000D01*
%TO.C,R3*%
X110860000Y-109200000D02*
X110530000Y-109200000D01*
X113270000Y-102660000D02*
X112940000Y-102660000D01*
X110530000Y-109200000D02*
X110530000Y-102660000D01*
X112940000Y-109200000D02*
X113270000Y-109200000D01*
X110530000Y-102660000D02*
X110860000Y-102660000D01*
X113270000Y-109200000D02*
X113270000Y-102660000D01*
%TO.C,J2*%
X84410000Y-72560000D02*
X84410000Y-125780000D01*
X84410000Y-125780000D02*
X72070000Y-125780000D01*
X85304338Y-82800000D02*
X84871325Y-82550000D01*
X85304338Y-82300000D02*
X85304338Y-82800000D01*
X72070000Y-72560000D02*
X84410000Y-72560000D01*
X84871325Y-82550000D02*
X85304338Y-82300000D01*
%TO.C,C9*%
X94782000Y-92749000D02*
X94782000Y-93064000D01*
X94782000Y-90324000D02*
X94782000Y-90639000D01*
X89542000Y-90324000D02*
X89542000Y-90639000D01*
X89542000Y-93064000D02*
X94782000Y-93064000D01*
X89542000Y-92749000D02*
X89542000Y-93064000D01*
X89542000Y-90324000D02*
X94782000Y-90324000D01*
%TO.C,JP6*%
X125630000Y-101740000D02*
X125630000Y-103070000D01*
X125630000Y-95330000D02*
X122970000Y-95330000D01*
X125630000Y-103070000D02*
X124300000Y-103070000D01*
X125630000Y-100470000D02*
X125630000Y-95330000D01*
X125630000Y-100470000D02*
X122970000Y-100470000D01*
X122970000Y-100470000D02*
X122970000Y-95330000D01*
%TO.C,J4*%
X124445000Y-89348000D02*
X125775000Y-89348000D01*
X125775000Y-89348000D02*
X125775000Y-90678000D01*
X123175000Y-92008000D02*
X118035000Y-92008000D01*
X118035000Y-89348000D02*
X118035000Y-92008000D01*
X123175000Y-89348000D02*
X123175000Y-92008000D01*
X123175000Y-89348000D02*
X118035000Y-89348000D01*
%TO.C,C6*%
X115127000Y-98393888D02*
X113943000Y-98393888D01*
X111863000Y-97953888D02*
X110475000Y-97953888D01*
X111863000Y-98513888D02*
X110754000Y-98513888D01*
X111863000Y-97192888D02*
X110325000Y-97192888D01*
X114403000Y-99193888D02*
X111403000Y-99193888D01*
X115479000Y-97232888D02*
X113943000Y-97232888D01*
X113580000Y-99593888D02*
X112226000Y-99593888D01*
X115414000Y-97672888D02*
X113943000Y-97672888D01*
X111863000Y-98873888D02*
X111039000Y-98873888D01*
X114286000Y-99273888D02*
X111520000Y-99273888D01*
X114154000Y-99353888D02*
X111652000Y-99353888D01*
X114222000Y-99313888D02*
X111584000Y-99313888D01*
X111863000Y-98553888D02*
X110781000Y-98553888D01*
X115317000Y-97993888D02*
X113943000Y-97993888D01*
X115025000Y-98553888D02*
X113943000Y-98553888D01*
X111863000Y-98833888D02*
X111002000Y-98833888D01*
X111863000Y-99033888D02*
X111204000Y-99033888D01*
X115301000Y-98033888D02*
X113943000Y-98033888D01*
X115453000Y-97472888D02*
X113943000Y-97472888D01*
X115371000Y-97833888D02*
X113943000Y-97833888D01*
X111863000Y-98993888D02*
X111160000Y-98993888D01*
X113187000Y-99673888D02*
X112619000Y-99673888D01*
X111863000Y-97272888D02*
X110330000Y-97272888D01*
X115431000Y-97592888D02*
X113943000Y-97592888D01*
X115404000Y-97712888D02*
X113943000Y-97712888D01*
X115483000Y-97072888D02*
X113943000Y-97072888D01*
X111863000Y-97752888D02*
X110412000Y-97752888D01*
X111863000Y-97112888D02*
X110323000Y-97112888D01*
X114907000Y-98713888D02*
X113943000Y-98713888D01*
X115358000Y-97873888D02*
X113943000Y-97873888D01*
X115213000Y-98233888D02*
X113943000Y-98233888D01*
X111863000Y-97312888D02*
X110334000Y-97312888D01*
X115476000Y-97272888D02*
X113943000Y-97272888D01*
X115232000Y-98193888D02*
X113943000Y-98193888D01*
X111863000Y-97632888D02*
X110383000Y-97632888D01*
X111863000Y-98633888D02*
X110838000Y-98633888D01*
X111863000Y-97392888D02*
X110342000Y-97392888D01*
X113818000Y-99513888D02*
X111988000Y-99513888D01*
X115078000Y-98473888D02*
X113943000Y-98473888D01*
X115459000Y-97432888D02*
X113943000Y-97432888D01*
X111863000Y-97072888D02*
X110323000Y-97072888D01*
X111863000Y-97712888D02*
X110402000Y-97712888D01*
X111863000Y-97512888D02*
X110360000Y-97512888D01*
X111863000Y-97472888D02*
X110353000Y-97472888D01*
X113421000Y-99633888D02*
X112385000Y-99633888D01*
X111863000Y-97833888D02*
X110435000Y-97833888D01*
X115423000Y-97632888D02*
X113943000Y-97632888D01*
X114001000Y-99433888D02*
X111805000Y-99433888D01*
X111863000Y-98793888D02*
X110966000Y-98793888D01*
X115052000Y-98513888D02*
X113943000Y-98513888D01*
X111863000Y-97552888D02*
X110367000Y-97552888D01*
X115193000Y-98273888D02*
X113943000Y-98273888D01*
X111863000Y-98033888D02*
X110505000Y-98033888D01*
X111863000Y-98913888D02*
X111077000Y-98913888D01*
X111863000Y-97873888D02*
X110448000Y-97873888D01*
X114508000Y-99113888D02*
X111298000Y-99113888D01*
X111863000Y-98593888D02*
X110808000Y-98593888D01*
X115446000Y-97512888D02*
X113943000Y-97512888D01*
X111863000Y-97232888D02*
X110327000Y-97232888D01*
X111863000Y-97993888D02*
X110489000Y-97993888D01*
X111863000Y-97793888D02*
X110423000Y-97793888D01*
X115439000Y-97552888D02*
X113943000Y-97552888D01*
X113914000Y-99473888D02*
X111892000Y-99473888D01*
X111863000Y-98753888D02*
X110932000Y-98753888D01*
X111863000Y-98073888D02*
X110521000Y-98073888D01*
X111863000Y-98233888D02*
X110593000Y-98233888D01*
X115345000Y-97913888D02*
X113943000Y-97913888D01*
X114804000Y-98833888D02*
X113943000Y-98833888D01*
X114688000Y-98953888D02*
X113943000Y-98953888D01*
X111863000Y-98953888D02*
X111118000Y-98953888D01*
X114081000Y-99393888D02*
X111725000Y-99393888D01*
X115482000Y-97152888D02*
X113943000Y-97152888D01*
X111863000Y-98193888D02*
X110574000Y-98193888D01*
X111863000Y-97432888D02*
X110347000Y-97432888D01*
X115472000Y-97312888D02*
X113943000Y-97312888D01*
X114457000Y-99153888D02*
X111349000Y-99153888D01*
X111863000Y-98313888D02*
X110635000Y-98313888D01*
X111863000Y-97352888D02*
X110338000Y-97352888D01*
X114968000Y-98633888D02*
X113943000Y-98633888D01*
X111863000Y-97152888D02*
X110324000Y-97152888D01*
X111863000Y-98153888D02*
X110555000Y-98153888D01*
X115268000Y-98113888D02*
X113943000Y-98113888D01*
X115331000Y-97953888D02*
X113943000Y-97953888D01*
X114840000Y-98793888D02*
X113943000Y-98793888D01*
X111863000Y-98473888D02*
X110728000Y-98473888D01*
X111863000Y-98273888D02*
X110613000Y-98273888D01*
X115468000Y-97352888D02*
X113943000Y-97352888D01*
X111863000Y-99073888D02*
X111250000Y-99073888D01*
X111863000Y-97592888D02*
X110375000Y-97592888D01*
X115103000Y-98433888D02*
X113943000Y-98433888D01*
X111863000Y-98713888D02*
X110899000Y-98713888D01*
X115394000Y-97752888D02*
X113943000Y-97752888D01*
X115251000Y-98153888D02*
X113943000Y-98153888D01*
X111863000Y-98433888D02*
X110703000Y-98433888D01*
X114556000Y-99073888D02*
X113943000Y-99073888D01*
X114767000Y-98873888D02*
X113943000Y-98873888D01*
X111863000Y-98393888D02*
X110679000Y-98393888D01*
X114602000Y-99033888D02*
X113943000Y-99033888D01*
X115383000Y-97793888D02*
X113943000Y-97793888D01*
X115285000Y-98073888D02*
X113943000Y-98073888D01*
X111863000Y-97913888D02*
X110461000Y-97913888D01*
X115150000Y-98353888D02*
X113943000Y-98353888D01*
X114874000Y-98753888D02*
X113943000Y-98753888D01*
X114729000Y-98913888D02*
X113943000Y-98913888D01*
X114346000Y-99233888D02*
X111460000Y-99233888D01*
X115171000Y-98313888D02*
X113943000Y-98313888D01*
X111863000Y-97672888D02*
X110392000Y-97672888D01*
X114628000Y-94518113D02*
X114128000Y-94518113D01*
X114646000Y-98993888D02*
X113943000Y-98993888D01*
X115464000Y-97392888D02*
X113943000Y-97392888D01*
X115481000Y-97192888D02*
X113943000Y-97192888D01*
X115483000Y-97112888D02*
X113943000Y-97112888D01*
X114938000Y-98673888D02*
X113943000Y-98673888D01*
X113708000Y-99553888D02*
X112098000Y-99553888D01*
X114378000Y-94268113D02*
X114378000Y-94768113D01*
X114998000Y-98593888D02*
X113943000Y-98593888D01*
X111863000Y-98353888D02*
X110656000Y-98353888D01*
X111863000Y-98113888D02*
X110538000Y-98113888D01*
X111863000Y-98673888D02*
X110868000Y-98673888D01*
X115523000Y-97072888D02*
G75*
G03*
X115523000Y-97072888I-2620000J0D01*
G01*
%TO.C,R4*%
X116432000Y-109188000D02*
X116102000Y-109188000D01*
X114022000Y-102648000D02*
X113692000Y-102648000D01*
X116102000Y-102648000D02*
X116432000Y-102648000D01*
X113692000Y-102648000D02*
X113692000Y-109188000D01*
X113692000Y-109188000D02*
X114022000Y-109188000D01*
X116432000Y-102648000D02*
X116432000Y-109188000D01*
%TO.C,SW2*%
X130912800Y-75016800D02*
X130912800Y-79516800D01*
X134912800Y-73766800D02*
X133412800Y-73766800D01*
X137412800Y-79516800D02*
X137412800Y-75016800D01*
X133412800Y-80766800D02*
X134912800Y-80766800D01*
%TO.C,C5*%
X144610000Y-96784888D02*
X143100000Y-96784888D01*
X141020000Y-97185888D02*
X139605000Y-97185888D01*
X144209000Y-97825888D02*
X143100000Y-97825888D01*
X144095000Y-97985888D02*
X143100000Y-97985888D01*
X141020000Y-96784888D02*
X139510000Y-96784888D01*
X144031000Y-98065888D02*
X143100000Y-98065888D01*
X141020000Y-98385888D02*
X140407000Y-98385888D01*
X141020000Y-96544888D02*
X139484000Y-96544888D01*
X144603000Y-96824888D02*
X143100000Y-96824888D01*
X144625000Y-96664888D02*
X143100000Y-96664888D01*
X144350000Y-97585888D02*
X143100000Y-97585888D01*
X143785000Y-93830113D02*
X143285000Y-93830113D01*
X143886000Y-98225888D02*
X143100000Y-98225888D01*
X144633000Y-96584888D02*
X143100000Y-96584888D01*
X144502000Y-97225888D02*
X143100000Y-97225888D01*
X143311000Y-98665888D02*
X140809000Y-98665888D01*
X143238000Y-98705888D02*
X140882000Y-98705888D01*
X144458000Y-97345888D02*
X143100000Y-97345888D01*
X144370000Y-97545888D02*
X143100000Y-97545888D01*
X141020000Y-96984888D02*
X139549000Y-96984888D01*
X144540000Y-97105888D02*
X143100000Y-97105888D01*
X141020000Y-97785888D02*
X139885000Y-97785888D01*
X144636000Y-96544888D02*
X143100000Y-96544888D01*
X144561000Y-97024888D02*
X143100000Y-97024888D01*
X142975000Y-98825888D02*
X141145000Y-98825888D01*
X143158000Y-98745888D02*
X140962000Y-98745888D01*
X141020000Y-98305888D02*
X140317000Y-98305888D01*
X141020000Y-97585888D02*
X139770000Y-97585888D01*
X141020000Y-98105888D02*
X140123000Y-98105888D01*
X141020000Y-98145888D02*
X140159000Y-98145888D01*
X143759000Y-98345888D02*
X143100000Y-98345888D01*
X144580000Y-96944888D02*
X143100000Y-96944888D01*
X141020000Y-97705888D02*
X139836000Y-97705888D01*
X143961000Y-98145888D02*
X143100000Y-98145888D01*
X142737000Y-98905888D02*
X141383000Y-98905888D01*
X141020000Y-96424888D02*
X139480000Y-96424888D01*
X143924000Y-98185888D02*
X143100000Y-98185888D01*
X144064000Y-98025888D02*
X143100000Y-98025888D01*
X144616000Y-96744888D02*
X143100000Y-96744888D01*
X143071000Y-98785888D02*
X141049000Y-98785888D01*
X143614000Y-98465888D02*
X140506000Y-98465888D01*
X143713000Y-98385888D02*
X143100000Y-98385888D01*
X144640000Y-96384888D02*
X143100000Y-96384888D01*
X143379000Y-98625888D02*
X140741000Y-98625888D01*
X141020000Y-97345888D02*
X139662000Y-97345888D01*
X141020000Y-97905888D02*
X139965000Y-97905888D01*
X141020000Y-96584888D02*
X139487000Y-96584888D01*
X141020000Y-98185888D02*
X140196000Y-98185888D01*
X144425000Y-97425888D02*
X143100000Y-97425888D01*
X144182000Y-97865888D02*
X143100000Y-97865888D01*
X141020000Y-96824888D02*
X139517000Y-96824888D01*
X141020000Y-97425888D02*
X139695000Y-97425888D01*
X144155000Y-97905888D02*
X143100000Y-97905888D01*
X143845000Y-98265888D02*
X143100000Y-98265888D01*
X141020000Y-97145888D02*
X139592000Y-97145888D01*
X141020000Y-97105888D02*
X139580000Y-97105888D01*
X143665000Y-98425888D02*
X140455000Y-98425888D01*
X144515000Y-97185888D02*
X143100000Y-97185888D01*
X141020000Y-97865888D02*
X139938000Y-97865888D01*
X142344000Y-98985888D02*
X141776000Y-98985888D01*
X141020000Y-98025888D02*
X140056000Y-98025888D01*
X144408000Y-97465888D02*
X143100000Y-97465888D01*
X141020000Y-97385888D02*
X139678000Y-97385888D01*
X144588000Y-96904888D02*
X143100000Y-96904888D01*
X144528000Y-97145888D02*
X143100000Y-97145888D01*
X144474000Y-97305888D02*
X143100000Y-97305888D01*
X141020000Y-97265888D02*
X139632000Y-97265888D01*
X144551000Y-97064888D02*
X143100000Y-97064888D01*
X144571000Y-96984888D02*
X143100000Y-96984888D01*
X141020000Y-97745888D02*
X139860000Y-97745888D01*
X141020000Y-97024888D02*
X139559000Y-97024888D01*
X141020000Y-97625888D02*
X139792000Y-97625888D01*
X141020000Y-97465888D02*
X139712000Y-97465888D01*
X141020000Y-96904888D02*
X139532000Y-96904888D01*
X141020000Y-97825888D02*
X139911000Y-97825888D01*
X144640000Y-96424888D02*
X143100000Y-96424888D01*
X141020000Y-96744888D02*
X139504000Y-96744888D01*
X141020000Y-97545888D02*
X139750000Y-97545888D01*
X141020000Y-96384888D02*
X139480000Y-96384888D01*
X144260000Y-97745888D02*
X143100000Y-97745888D01*
X141020000Y-97665888D02*
X139813000Y-97665888D01*
X144638000Y-96504888D02*
X143100000Y-96504888D01*
X141020000Y-98225888D02*
X140234000Y-98225888D01*
X143443000Y-98585888D02*
X140677000Y-98585888D01*
X144125000Y-97945888D02*
X143100000Y-97945888D01*
X142865000Y-98865888D02*
X141255000Y-98865888D01*
X144328000Y-97625888D02*
X143100000Y-97625888D01*
X143803000Y-98305888D02*
X143100000Y-98305888D01*
X144307000Y-97665888D02*
X143100000Y-97665888D01*
X141020000Y-96944888D02*
X139540000Y-96944888D01*
X143535000Y-93580113D02*
X143535000Y-94080113D01*
X141020000Y-98065888D02*
X140089000Y-98065888D01*
X141020000Y-98345888D02*
X140361000Y-98345888D01*
X141020000Y-96464888D02*
X139481000Y-96464888D01*
X141020000Y-97305888D02*
X139646000Y-97305888D01*
X144284000Y-97705888D02*
X143100000Y-97705888D01*
X144235000Y-97785888D02*
X143100000Y-97785888D01*
X144629000Y-96624888D02*
X143100000Y-96624888D01*
X144389000Y-97505888D02*
X143100000Y-97505888D01*
X144596000Y-96864888D02*
X143100000Y-96864888D01*
X141020000Y-96664888D02*
X139495000Y-96664888D01*
X141020000Y-96864888D02*
X139524000Y-96864888D01*
X143560000Y-98505888D02*
X140560000Y-98505888D01*
X144442000Y-97385888D02*
X143100000Y-97385888D01*
X142578000Y-98945888D02*
X141542000Y-98945888D01*
X144488000Y-97265888D02*
X143100000Y-97265888D01*
X141020000Y-98265888D02*
X140275000Y-98265888D01*
X141020000Y-97064888D02*
X139569000Y-97064888D01*
X144621000Y-96704888D02*
X143100000Y-96704888D01*
X143997000Y-98105888D02*
X143100000Y-98105888D01*
X141020000Y-96504888D02*
X139482000Y-96504888D01*
X141020000Y-97225888D02*
X139618000Y-97225888D01*
X141020000Y-97505888D02*
X139731000Y-97505888D01*
X141020000Y-96704888D02*
X139499000Y-96704888D01*
X141020000Y-96624888D02*
X139491000Y-96624888D01*
X144639000Y-96464888D02*
X143100000Y-96464888D01*
X143503000Y-98545888D02*
X140617000Y-98545888D01*
X141020000Y-97945888D02*
X139995000Y-97945888D01*
X141020000Y-97985888D02*
X140025000Y-97985888D01*
X144680000Y-96384888D02*
G75*
G03*
X144680000Y-96384888I-2620000J0D01*
G01*
%TO.C,JP4*%
X128070000Y-118190000D02*
X126740000Y-118190000D01*
X125410000Y-115590000D02*
X125410000Y-110450000D01*
X128070000Y-116860000D02*
X128070000Y-118190000D01*
X128070000Y-115590000D02*
X125410000Y-115590000D01*
X128070000Y-115590000D02*
X128070000Y-110450000D01*
X128070000Y-110450000D02*
X125410000Y-110450000D01*
%TO.C,C7*%
X93789000Y-103222000D02*
X93789000Y-104624000D01*
X93909000Y-103266000D02*
X93909000Y-104624000D01*
X94269000Y-103440000D02*
X94269000Y-104624000D01*
X94669000Y-103727000D02*
X94669000Y-104624000D01*
X95309000Y-104566000D02*
X95309000Y-106762000D01*
X92988000Y-106704000D02*
X92988000Y-108244000D01*
X94629000Y-103693000D02*
X94629000Y-104624000D01*
X94829000Y-106704000D02*
X94829000Y-107449000D01*
X93669000Y-103184000D02*
X93669000Y-104624000D01*
X95549000Y-105380000D02*
X95549000Y-105948000D01*
X94709000Y-106704000D02*
X94709000Y-107565000D01*
X94189000Y-103396000D02*
X94189000Y-104624000D01*
X93348000Y-103114000D02*
X93348000Y-104624000D01*
X94149000Y-106704000D02*
X94149000Y-107954000D01*
X94709000Y-103763000D02*
X94709000Y-104624000D01*
X93228000Y-103099000D02*
X93228000Y-104624000D01*
X95149000Y-104281000D02*
X95149000Y-107047000D01*
X94869000Y-106704000D02*
X94869000Y-107407000D01*
X94749000Y-106704000D02*
X94749000Y-107528000D01*
X93548000Y-106704000D02*
X93548000Y-108175000D01*
X93108000Y-106704000D02*
X93108000Y-108240000D01*
X94949000Y-106704000D02*
X94949000Y-107317000D01*
X93709000Y-106704000D02*
X93709000Y-108132000D01*
X93228000Y-106704000D02*
X93228000Y-108229000D01*
X94669000Y-106704000D02*
X94669000Y-107601000D01*
X94909000Y-106704000D02*
X94909000Y-107363000D01*
X93508000Y-103144000D02*
X93508000Y-104624000D01*
X94149000Y-103374000D02*
X94149000Y-104624000D01*
X94989000Y-104059000D02*
X94989000Y-107269000D01*
X94109000Y-106704000D02*
X94109000Y-107974000D01*
X94469000Y-106704000D02*
X94469000Y-107759000D01*
X93548000Y-103153000D02*
X93548000Y-104624000D01*
X94789000Y-103838000D02*
X94789000Y-104624000D01*
X95189000Y-104345000D02*
X95189000Y-106983000D01*
X94589000Y-103660000D02*
X94589000Y-104624000D01*
X94909000Y-103965000D02*
X94909000Y-104624000D01*
X94069000Y-106704000D02*
X94069000Y-107993000D01*
X94349000Y-103489000D02*
X94349000Y-104624000D01*
X93468000Y-106704000D02*
X93468000Y-108192000D01*
X93148000Y-106704000D02*
X93148000Y-108237000D01*
X93188000Y-106704000D02*
X93188000Y-108233000D01*
X93949000Y-106704000D02*
X93949000Y-108046000D01*
X94509000Y-106704000D02*
X94509000Y-107729000D01*
X94789000Y-106704000D02*
X94789000Y-107490000D01*
X94429000Y-103542000D02*
X94429000Y-104624000D01*
X93909000Y-106704000D02*
X93909000Y-108062000D01*
X93829000Y-106704000D02*
X93829000Y-108092000D01*
X94069000Y-103335000D02*
X94069000Y-104624000D01*
X93428000Y-103128000D02*
X93428000Y-104624000D01*
X93068000Y-106704000D02*
X93068000Y-108242000D01*
X93989000Y-106704000D02*
X93989000Y-108029000D01*
X94229000Y-103417000D02*
X94229000Y-104624000D01*
X93869000Y-103250000D02*
X93869000Y-104624000D01*
X94549000Y-103629000D02*
X94549000Y-104624000D01*
X93709000Y-103196000D02*
X93709000Y-104624000D01*
X95269000Y-104486000D02*
X95269000Y-106842000D01*
X94629000Y-106704000D02*
X94629000Y-107635000D01*
X94349000Y-106704000D02*
X94349000Y-107839000D01*
X93348000Y-106704000D02*
X93348000Y-108214000D01*
X93308000Y-106704000D02*
X93308000Y-108220000D01*
X93789000Y-106704000D02*
X93789000Y-108106000D01*
X93869000Y-106704000D02*
X93869000Y-108078000D01*
X94229000Y-106704000D02*
X94229000Y-107911000D01*
X93028000Y-106704000D02*
X93028000Y-108243000D01*
X93829000Y-103236000D02*
X93829000Y-104624000D01*
X93028000Y-103085000D02*
X93028000Y-104624000D01*
X94949000Y-104011000D02*
X94949000Y-104624000D01*
X94189000Y-106704000D02*
X94189000Y-107932000D01*
X95229000Y-104413000D02*
X95229000Y-106915000D01*
X93588000Y-103163000D02*
X93588000Y-104624000D01*
X94029000Y-103316000D02*
X94029000Y-104624000D01*
X93428000Y-106704000D02*
X93428000Y-108200000D01*
X93989000Y-103299000D02*
X93989000Y-104624000D01*
X95069000Y-104164000D02*
X95069000Y-107164000D01*
X93068000Y-103086000D02*
X93068000Y-104624000D01*
X93388000Y-103121000D02*
X93388000Y-104624000D01*
X92948000Y-103084000D02*
X92948000Y-104624000D01*
X93268000Y-103103000D02*
X93268000Y-104624000D01*
X94029000Y-106704000D02*
X94029000Y-108012000D01*
X94109000Y-103354000D02*
X94109000Y-104624000D01*
X95469000Y-104987000D02*
X95469000Y-106341000D01*
X93388000Y-106704000D02*
X93388000Y-108207000D01*
X95349000Y-104653000D02*
X95349000Y-106675000D01*
X95109000Y-104221000D02*
X95109000Y-107107000D01*
X95509000Y-105146000D02*
X95509000Y-106182000D01*
X92948000Y-106704000D02*
X92948000Y-108244000D01*
X93669000Y-106704000D02*
X93669000Y-108144000D01*
X93148000Y-103091000D02*
X93148000Y-104624000D01*
X94749000Y-103800000D02*
X94749000Y-104624000D01*
X93588000Y-106704000D02*
X93588000Y-108165000D01*
X94549000Y-106704000D02*
X94549000Y-107699000D01*
X92988000Y-103084000D02*
X92988000Y-104624000D01*
X95029000Y-104110000D02*
X95029000Y-107218000D01*
X94389000Y-103515000D02*
X94389000Y-104624000D01*
X93308000Y-103108000D02*
X93308000Y-104624000D01*
X93268000Y-106704000D02*
X93268000Y-108225000D01*
X94829000Y-103879000D02*
X94829000Y-104624000D01*
X94509000Y-103599000D02*
X94509000Y-104624000D01*
X94269000Y-106704000D02*
X94269000Y-107888000D01*
X93949000Y-103282000D02*
X93949000Y-104624000D01*
X93628000Y-103173000D02*
X93628000Y-104624000D01*
X95429000Y-104859000D02*
X95429000Y-106469000D01*
X90143225Y-104189000D02*
X90643225Y-104189000D01*
X90393225Y-103939000D02*
X90393225Y-104439000D01*
X93749000Y-106704000D02*
X93749000Y-108119000D01*
X94589000Y-106704000D02*
X94589000Y-107668000D01*
X93188000Y-103095000D02*
X93188000Y-104624000D01*
X94469000Y-103569000D02*
X94469000Y-104624000D01*
X93108000Y-103088000D02*
X93108000Y-104624000D01*
X93749000Y-103209000D02*
X93749000Y-104624000D01*
X94429000Y-106704000D02*
X94429000Y-107786000D01*
X93468000Y-103136000D02*
X93468000Y-104624000D01*
X94309000Y-106704000D02*
X94309000Y-107864000D01*
X95389000Y-104749000D02*
X95389000Y-106579000D01*
X93508000Y-106704000D02*
X93508000Y-108184000D01*
X94869000Y-103921000D02*
X94869000Y-104624000D01*
X94309000Y-103464000D02*
X94309000Y-104624000D01*
X93628000Y-106704000D02*
X93628000Y-108155000D01*
X94389000Y-106704000D02*
X94389000Y-107813000D01*
X95568000Y-105664000D02*
G75*
G03*
X95568000Y-105664000I-2620000J0D01*
G01*
%TO.C,U1*%
X112133000Y-63826000D02*
X112133000Y-71446000D01*
X112133000Y-88066000D02*
X110013000Y-88066000D01*
X95893000Y-71446000D02*
X95893000Y-63826000D01*
X112133000Y-87446000D02*
X112133000Y-88066000D01*
X98013000Y-88066000D02*
X95893000Y-88066000D01*
X95893000Y-63826000D02*
X112133000Y-63826000D01*
X95893000Y-88066000D02*
X95893000Y-87446000D01*
X95893000Y-71446000D02*
X95283000Y-71446000D01*
%TO.C,U4*%
X138570000Y-105410000D02*
X128330000Y-105410000D01*
X135990000Y-89520000D02*
X135990000Y-86980000D01*
X128330000Y-105410000D02*
X128330000Y-89520000D01*
X138570000Y-105410000D02*
X138570000Y-89520000D01*
X138570000Y-89520000D02*
X128330000Y-89520000D01*
X130910000Y-89520000D02*
X130910000Y-86980000D01*
X133450000Y-89520000D02*
X133450000Y-86980000D01*
%TO.C,C8*%
X141160000Y-105631000D02*
X140336000Y-105631000D01*
X144565000Y-104871000D02*
X143240000Y-104871000D01*
X141160000Y-105511000D02*
X140229000Y-105511000D01*
X144720000Y-104390000D02*
X143240000Y-104390000D01*
X141160000Y-105431000D02*
X140165000Y-105431000D01*
X141160000Y-104711000D02*
X139772000Y-104711000D01*
X144750000Y-104230000D02*
X143240000Y-104230000D01*
X141160000Y-105751000D02*
X140457000Y-105751000D01*
X144375000Y-105231000D02*
X143240000Y-105231000D01*
X141160000Y-104791000D02*
X139802000Y-104791000D01*
X142877000Y-106351000D02*
X141523000Y-106351000D01*
X141160000Y-104751000D02*
X139786000Y-104751000D01*
X141160000Y-104510000D02*
X139709000Y-104510000D01*
X144769000Y-104070000D02*
X143240000Y-104070000D01*
X143643000Y-105991000D02*
X140757000Y-105991000D01*
X143754000Y-105911000D02*
X140646000Y-105911000D01*
X141160000Y-105391000D02*
X140135000Y-105391000D01*
X144778000Y-103950000D02*
X143240000Y-103950000D01*
X144064000Y-105631000D02*
X143240000Y-105631000D01*
X144171000Y-105511000D02*
X143240000Y-105511000D01*
X141160000Y-104671000D02*
X139758000Y-104671000D01*
X144349000Y-105271000D02*
X143240000Y-105271000D01*
X144776000Y-103990000D02*
X143240000Y-103990000D01*
X144026000Y-105671000D02*
X143240000Y-105671000D01*
X141160000Y-105711000D02*
X140415000Y-105711000D01*
X143005000Y-106311000D02*
X141395000Y-106311000D01*
X144628000Y-104711000D02*
X143240000Y-104711000D01*
X143675000Y-101025225D02*
X143675000Y-101525225D01*
X144761000Y-104150000D02*
X143240000Y-104150000D01*
X141160000Y-103910000D02*
X139621000Y-103910000D01*
X144265000Y-105391000D02*
X143240000Y-105391000D01*
X141160000Y-105111000D02*
X139953000Y-105111000D01*
X144756000Y-104190000D02*
X143240000Y-104190000D01*
X144204000Y-105471000D02*
X143240000Y-105471000D01*
X141160000Y-104070000D02*
X139631000Y-104070000D01*
X141160000Y-105031000D02*
X139910000Y-105031000D01*
X141160000Y-104831000D02*
X139818000Y-104831000D01*
X141160000Y-104190000D02*
X139644000Y-104190000D01*
X141160000Y-105231000D02*
X140025000Y-105231000D01*
X144510000Y-104991000D02*
X143240000Y-104991000D01*
X144101000Y-105591000D02*
X143240000Y-105591000D01*
X141160000Y-103950000D02*
X139622000Y-103950000D01*
X141160000Y-105671000D02*
X140374000Y-105671000D01*
X143378000Y-106151000D02*
X141022000Y-106151000D01*
X144295000Y-105351000D02*
X143240000Y-105351000D01*
X144598000Y-104791000D02*
X143240000Y-104791000D01*
X144736000Y-104310000D02*
X143240000Y-104310000D01*
X144680000Y-104551000D02*
X143240000Y-104551000D01*
X141160000Y-105551000D02*
X140263000Y-105551000D01*
X143583000Y-106031000D02*
X140817000Y-106031000D01*
X144773000Y-104030000D02*
X143240000Y-104030000D01*
X143899000Y-105791000D02*
X143240000Y-105791000D01*
X144780000Y-103870000D02*
X143240000Y-103870000D01*
X144780000Y-103830000D02*
X143240000Y-103830000D01*
X144137000Y-105551000D02*
X143240000Y-105551000D01*
X144529000Y-104951000D02*
X143240000Y-104951000D01*
X141160000Y-105151000D02*
X139976000Y-105151000D01*
X144668000Y-104591000D02*
X143240000Y-104591000D01*
X144400000Y-105191000D02*
X143240000Y-105191000D01*
X143943000Y-105751000D02*
X143240000Y-105751000D01*
X143700000Y-105951000D02*
X140700000Y-105951000D01*
X141160000Y-104230000D02*
X139650000Y-104230000D01*
X141160000Y-104430000D02*
X139689000Y-104430000D01*
X141160000Y-104470000D02*
X139699000Y-104470000D01*
X144235000Y-105431000D02*
X143240000Y-105431000D01*
X144582000Y-104831000D02*
X143240000Y-104831000D01*
X141160000Y-105351000D02*
X140105000Y-105351000D01*
X144490000Y-105031000D02*
X143240000Y-105031000D01*
X141160000Y-104110000D02*
X139635000Y-104110000D01*
X144642000Y-104671000D02*
X143240000Y-104671000D01*
X141160000Y-105311000D02*
X140078000Y-105311000D01*
X143115000Y-106271000D02*
X141285000Y-106271000D01*
X141160000Y-105791000D02*
X140501000Y-105791000D01*
X143805000Y-105871000D02*
X140595000Y-105871000D01*
X141160000Y-104991000D02*
X139890000Y-104991000D01*
X144691000Y-104510000D02*
X143240000Y-104510000D01*
X144548000Y-104911000D02*
X143240000Y-104911000D01*
X141160000Y-103870000D02*
X139620000Y-103870000D01*
X144711000Y-104430000D02*
X143240000Y-104430000D01*
X141160000Y-104270000D02*
X139657000Y-104270000D01*
X141160000Y-104390000D02*
X139680000Y-104390000D01*
X141160000Y-105831000D02*
X140547000Y-105831000D01*
X144728000Y-104350000D02*
X143240000Y-104350000D01*
X141160000Y-104911000D02*
X139852000Y-104911000D01*
X143298000Y-106191000D02*
X141102000Y-106191000D01*
X141160000Y-104150000D02*
X139639000Y-104150000D01*
X142484000Y-106431000D02*
X141916000Y-106431000D01*
X141160000Y-105071000D02*
X139932000Y-105071000D01*
X143853000Y-105831000D02*
X143240000Y-105831000D01*
X143451000Y-106111000D02*
X140949000Y-106111000D01*
X144468000Y-105071000D02*
X143240000Y-105071000D01*
X143211000Y-106231000D02*
X141189000Y-106231000D01*
X141160000Y-104030000D02*
X139627000Y-104030000D01*
X144614000Y-104751000D02*
X143240000Y-104751000D01*
X141160000Y-104350000D02*
X139672000Y-104350000D01*
X141160000Y-103830000D02*
X139620000Y-103830000D01*
X141160000Y-105591000D02*
X140299000Y-105591000D01*
X141160000Y-104310000D02*
X139664000Y-104310000D01*
X143925000Y-101275225D02*
X143425000Y-101275225D01*
X141160000Y-104951000D02*
X139871000Y-104951000D01*
X144765000Y-104110000D02*
X143240000Y-104110000D01*
X141160000Y-105271000D02*
X140051000Y-105271000D01*
X144424000Y-105151000D02*
X143240000Y-105151000D01*
X141160000Y-104551000D02*
X139720000Y-104551000D01*
X143519000Y-106071000D02*
X140881000Y-106071000D01*
X141160000Y-104871000D02*
X139835000Y-104871000D01*
X144743000Y-104270000D02*
X143240000Y-104270000D01*
X144447000Y-105111000D02*
X143240000Y-105111000D01*
X144779000Y-103910000D02*
X143240000Y-103910000D01*
X141160000Y-104631000D02*
X139745000Y-104631000D01*
X142718000Y-106391000D02*
X141682000Y-106391000D01*
X141160000Y-105191000D02*
X140000000Y-105191000D01*
X144701000Y-104470000D02*
X143240000Y-104470000D01*
X144655000Y-104631000D02*
X143240000Y-104631000D01*
X141160000Y-103990000D02*
X139624000Y-103990000D01*
X143985000Y-105711000D02*
X143240000Y-105711000D01*
X144322000Y-105311000D02*
X143240000Y-105311000D01*
X141160000Y-105471000D02*
X140196000Y-105471000D01*
X141160000Y-104591000D02*
X139732000Y-104591000D01*
X144820000Y-103830000D02*
G75*
G03*
X144820000Y-103830000I-2620000J0D01*
G01*
%TO.C,J3*%
X153620000Y-88620000D02*
X152570000Y-88620000D01*
X152570000Y-87570000D02*
X152570000Y-88620000D01*
X167470000Y-79220000D02*
X167470000Y-88420000D01*
X152770000Y-79220000D02*
X154670000Y-79220000D01*
X167470000Y-88420000D02*
X152770000Y-88420000D01*
X152770000Y-81920000D02*
X152770000Y-79220000D01*
X158670000Y-79220000D02*
X167470000Y-79220000D01*
X152770000Y-88420000D02*
X152770000Y-85820000D01*
%TO.C,R1*%
X104050000Y-90710000D02*
X104050000Y-90380000D01*
X97510000Y-90380000D02*
X97510000Y-90710000D01*
X97510000Y-93120000D02*
X97510000Y-92790000D01*
X104050000Y-93120000D02*
X97510000Y-93120000D01*
X104050000Y-92790000D02*
X104050000Y-93120000D01*
X104050000Y-90380000D02*
X97510000Y-90380000D01*
%TO.C,C4*%
X94749000Y-109642000D02*
X94749000Y-110466000D01*
X94229000Y-109259000D02*
X94229000Y-110466000D01*
X94829000Y-109721000D02*
X94829000Y-110466000D01*
X93989000Y-109141000D02*
X93989000Y-110466000D01*
X95509000Y-110988000D02*
X95509000Y-112024000D01*
X94069000Y-112546000D02*
X94069000Y-113835000D01*
X93108000Y-108930000D02*
X93108000Y-110466000D01*
X95549000Y-111222000D02*
X95549000Y-111790000D01*
X94949000Y-109853000D02*
X94949000Y-110466000D01*
X93388000Y-108963000D02*
X93388000Y-110466000D01*
X93428000Y-108970000D02*
X93428000Y-110466000D01*
X94349000Y-112546000D02*
X94349000Y-113681000D01*
X94389000Y-112546000D02*
X94389000Y-113655000D01*
X93428000Y-112546000D02*
X93428000Y-114042000D01*
X95189000Y-110187000D02*
X95189000Y-112825000D01*
X93228000Y-112546000D02*
X93228000Y-114071000D01*
X95349000Y-110495000D02*
X95349000Y-112517000D01*
X94509000Y-112546000D02*
X94509000Y-113571000D01*
X94029000Y-109158000D02*
X94029000Y-110466000D01*
X95149000Y-110123000D02*
X95149000Y-112889000D01*
X93869000Y-109092000D02*
X93869000Y-110466000D01*
X94109000Y-112546000D02*
X94109000Y-113816000D01*
X93749000Y-112546000D02*
X93749000Y-113961000D01*
X95269000Y-110328000D02*
X95269000Y-112684000D01*
X94189000Y-112546000D02*
X94189000Y-113774000D01*
X94509000Y-109441000D02*
X94509000Y-110466000D01*
X93268000Y-108945000D02*
X93268000Y-110466000D01*
X94469000Y-109411000D02*
X94469000Y-110466000D01*
X95229000Y-110255000D02*
X95229000Y-112757000D01*
X93068000Y-112546000D02*
X93068000Y-114084000D01*
X94789000Y-109680000D02*
X94789000Y-110466000D01*
X95469000Y-110829000D02*
X95469000Y-112183000D01*
X93949000Y-109124000D02*
X93949000Y-110466000D01*
X93468000Y-112546000D02*
X93468000Y-114034000D01*
X95389000Y-110591000D02*
X95389000Y-112421000D01*
X93709000Y-109038000D02*
X93709000Y-110466000D01*
X94989000Y-109901000D02*
X94989000Y-113111000D01*
X95069000Y-110006000D02*
X95069000Y-113006000D01*
X94429000Y-109384000D02*
X94429000Y-110466000D01*
X94429000Y-112546000D02*
X94429000Y-113628000D01*
X90143225Y-110031000D02*
X90643225Y-110031000D01*
X93148000Y-108933000D02*
X93148000Y-110466000D01*
X93348000Y-112546000D02*
X93348000Y-114056000D01*
X93548000Y-112546000D02*
X93548000Y-114017000D01*
X93829000Y-112546000D02*
X93829000Y-113934000D01*
X94669000Y-112546000D02*
X94669000Y-113443000D01*
X92988000Y-108926000D02*
X92988000Y-110466000D01*
X93869000Y-112546000D02*
X93869000Y-113920000D01*
X93308000Y-112546000D02*
X93308000Y-114062000D01*
X94069000Y-109177000D02*
X94069000Y-110466000D01*
X93108000Y-112546000D02*
X93108000Y-114082000D01*
X94389000Y-109357000D02*
X94389000Y-110466000D01*
X94269000Y-112546000D02*
X94269000Y-113730000D01*
X93588000Y-112546000D02*
X93588000Y-114007000D01*
X94109000Y-109196000D02*
X94109000Y-110466000D01*
X94629000Y-112546000D02*
X94629000Y-113477000D01*
X94669000Y-109569000D02*
X94669000Y-110466000D01*
X94869000Y-112546000D02*
X94869000Y-113249000D01*
X95429000Y-110701000D02*
X95429000Y-112311000D01*
X94589000Y-109502000D02*
X94589000Y-110466000D01*
X93028000Y-112546000D02*
X93028000Y-114085000D01*
X93669000Y-112546000D02*
X93669000Y-113986000D01*
X93628000Y-109015000D02*
X93628000Y-110466000D01*
X93188000Y-108937000D02*
X93188000Y-110466000D01*
X93228000Y-108941000D02*
X93228000Y-110466000D01*
X94149000Y-109216000D02*
X94149000Y-110466000D01*
X95309000Y-110408000D02*
X95309000Y-112604000D01*
X94309000Y-112546000D02*
X94309000Y-113706000D01*
X93188000Y-112546000D02*
X93188000Y-114075000D01*
X92948000Y-112546000D02*
X92948000Y-114086000D01*
X93388000Y-112546000D02*
X93388000Y-114049000D01*
X93749000Y-109051000D02*
X93749000Y-110466000D01*
X93548000Y-108995000D02*
X93548000Y-110466000D01*
X93508000Y-108986000D02*
X93508000Y-110466000D01*
X93468000Y-108978000D02*
X93468000Y-110466000D01*
X93068000Y-108928000D02*
X93068000Y-110466000D01*
X94269000Y-109282000D02*
X94269000Y-110466000D01*
X93989000Y-112546000D02*
X93989000Y-113871000D01*
X94589000Y-112546000D02*
X94589000Y-113510000D01*
X94149000Y-112546000D02*
X94149000Y-113796000D01*
X94629000Y-109535000D02*
X94629000Y-110466000D01*
X93949000Y-112546000D02*
X93949000Y-113888000D01*
X93268000Y-112546000D02*
X93268000Y-114067000D01*
X93348000Y-108956000D02*
X93348000Y-110466000D01*
X93508000Y-112546000D02*
X93508000Y-114026000D01*
X93829000Y-109078000D02*
X93829000Y-110466000D01*
X94309000Y-109306000D02*
X94309000Y-110466000D01*
X93789000Y-112546000D02*
X93789000Y-113948000D01*
X94029000Y-112546000D02*
X94029000Y-113854000D01*
X94909000Y-112546000D02*
X94909000Y-113205000D01*
X90393225Y-109781000D02*
X90393225Y-110281000D01*
X94869000Y-109763000D02*
X94869000Y-110466000D01*
X92948000Y-108926000D02*
X92948000Y-110466000D01*
X94349000Y-109331000D02*
X94349000Y-110466000D01*
X93628000Y-112546000D02*
X93628000Y-113997000D01*
X93789000Y-109064000D02*
X93789000Y-110466000D01*
X94229000Y-112546000D02*
X94229000Y-113753000D01*
X94549000Y-109471000D02*
X94549000Y-110466000D01*
X94549000Y-112546000D02*
X94549000Y-113541000D01*
X93909000Y-109108000D02*
X93909000Y-110466000D01*
X93148000Y-112546000D02*
X93148000Y-114079000D01*
X95029000Y-109952000D02*
X95029000Y-113060000D01*
X95109000Y-110063000D02*
X95109000Y-112949000D01*
X94709000Y-112546000D02*
X94709000Y-113407000D01*
X94749000Y-112546000D02*
X94749000Y-113370000D01*
X93669000Y-109026000D02*
X93669000Y-110466000D01*
X94949000Y-112546000D02*
X94949000Y-113159000D01*
X94469000Y-112546000D02*
X94469000Y-113601000D01*
X93709000Y-112546000D02*
X93709000Y-113974000D01*
X93909000Y-112546000D02*
X93909000Y-113904000D01*
X94709000Y-109605000D02*
X94709000Y-110466000D01*
X94909000Y-109807000D02*
X94909000Y-110466000D01*
X92988000Y-112546000D02*
X92988000Y-114086000D01*
X93588000Y-109005000D02*
X93588000Y-110466000D01*
X93308000Y-108950000D02*
X93308000Y-110466000D01*
X93028000Y-108927000D02*
X93028000Y-110466000D01*
X94789000Y-112546000D02*
X94789000Y-113332000D01*
X94829000Y-112546000D02*
X94829000Y-113291000D01*
X94189000Y-109238000D02*
X94189000Y-110466000D01*
X95568000Y-111506000D02*
G75*
G03*
X95568000Y-111506000I-2620000J0D01*
G01*
%TO.C,JP7*%
X107735000Y-90330000D02*
X107735000Y-92990000D01*
X112875000Y-90330000D02*
X107735000Y-90330000D01*
X114145000Y-90330000D02*
X115475000Y-90330000D01*
X112875000Y-90330000D02*
X112875000Y-92990000D01*
X112875000Y-92990000D02*
X107735000Y-92990000D01*
X115475000Y-90330000D02*
X115475000Y-91660000D01*
%TO.C,R5*%
X90832000Y-81820000D02*
X91162000Y-81820000D01*
X91162000Y-88360000D02*
X90832000Y-88360000D01*
X93572000Y-81820000D02*
X93242000Y-81820000D01*
X93572000Y-88360000D02*
X93572000Y-81820000D01*
X93242000Y-88360000D02*
X93572000Y-88360000D01*
X90832000Y-88360000D02*
X90832000Y-81820000D01*
%TO.C,R2*%
X96234000Y-93956000D02*
X96234000Y-93626000D01*
X96234000Y-96036000D02*
X96234000Y-96366000D01*
X96234000Y-96366000D02*
X89694000Y-96366000D01*
X89694000Y-96366000D02*
X89694000Y-96036000D01*
X96234000Y-93626000D02*
X89694000Y-93626000D01*
X89694000Y-93626000D02*
X89694000Y-93956000D01*
%TO.C,JP5*%
X120837000Y-101752400D02*
X120837000Y-103082400D01*
X120837000Y-100482400D02*
X120837000Y-95342400D01*
X120837000Y-103082400D02*
X119507000Y-103082400D01*
X118177000Y-100482400D02*
X118177000Y-95342400D01*
X120837000Y-100482400D02*
X118177000Y-100482400D01*
X120837000Y-95342400D02*
X118177000Y-95342400D01*
%TD*%
M02*
