M48
; DRILL file {KiCad (6.0.2)} date Sun Jul 10 11:40:41 2022
; FORMAT={-:-/ absolute / inch / decimal}
; #@! TF.CreationDate,2022-07-10T11:40:41-05:00
; #@! TF.GenerationSoftware,Kicad,Pcbnew,(6.0.2)
; #@! TF.FileFunction,Plated,1,2,PTH
FMAT,2
INCH
; #@! TA.AperFunction,Plated,PTH,ViaDrill
T1C0.0157
; #@! TA.AperFunction,Plated,PTH,ComponentDrill
T2C0.0315
; #@! TA.AperFunction,Plated,PTH,ComponentDrill
T3C0.0394
; #@! TA.AperFunction,Plated,PTH,ComponentDrill
T4C0.0433
; #@! TA.AperFunction,Plated,PTH,ComponentDrill
T5C0.1260
%
G90
G05
T1
X3.0591Y-3.8417
X3.0681Y-4.2409
X3.2693Y-4.7193
X3.4732Y-4.1465
X3.6406Y-4.7689
X3.8949Y-4.8024
X3.985Y-4.8049
X4.1008Y-3.2339
X4.1516Y-3.0429
X4.3425Y-3.0878
X4.3429Y-4.8364
X4.36Y-2.75
X4.39Y-2.69
X4.4496Y-4.2039
X4.5705Y-3.5823
X4.67Y-2.72
X4.7Y-3.22
X4.7138Y-2.9252
X4.7339Y-2.7717
X4.74Y-3.16
X4.7803Y-4.8732
X4.88Y-3.78
X4.9335Y-4.937
X4.9724Y-2.8484
X4.9894Y-3.0094
X5.76Y-3.84
T2
X3.1244Y-2.7331
X3.42Y-3.23
X3.42Y-3.53
X3.4205Y-2.8445
X3.4205Y-3.1445
X3.4244Y-2.7331
X3.4331Y-3.6953
X3.5118Y-3.6953
X3.6104Y-3.8704
X3.6104Y-4.1704
X3.6613Y-3.64
X3.7104Y-3.8704
X3.7104Y-4.1704
X3.74Y-3.64
X3.81Y-2.75
X3.8104Y-3.8704
X3.8104Y-4.1704
X3.8539Y-3.3098
X3.874Y-3.4291
X3.874Y-3.7291
X3.9094Y-2.8969
X3.9094Y-3.1969
X3.9104Y-3.8704
X3.9104Y-4.1704
X3.985Y-3.4417
X4.0104Y-3.8704
X4.0104Y-4.1704
X4.0157Y-3.6929
X4.0346Y-2.898
X4.0346Y-3.198
X4.0508Y-3.3098
X4.0945Y-3.6929
X4.11Y-2.75
X4.1104Y-3.8704
X4.1104Y-4.1704
X4.2104Y-3.8704
X4.2104Y-4.1704
X4.2425Y-3.6929
X4.285Y-3.4417
X4.3104Y-3.8704
X4.3104Y-4.1704
X4.3213Y-3.6929
X4.3807Y-3.4398
X4.5008Y-3.6343
X4.5008Y-3.713
X4.5866Y-3.8693
X4.5866Y-4.1693
X4.6807Y-3.4398
X4.6866Y-3.8693
X4.6866Y-4.1693
X4.7866Y-3.8693
X4.7866Y-4.1693
X4.8866Y-3.8693
X4.8866Y-4.1693
X4.9866Y-3.8693
X4.9866Y-4.1693
X5.04Y-2.66
X5.04Y-2.96
X5.0417Y-3.0547
X5.0417Y-3.3547
X5.07Y-4.3313
X5.07Y-4.41
X5.0752Y-3.4587
X5.0752Y-3.7587
X5.0866Y-3.8693
X5.0866Y-4.1693
X5.1866Y-3.8693
X5.1866Y-4.1693
X5.2094Y-3.45
X5.2094Y-3.75
X5.2866Y-3.8693
X5.2866Y-4.1693
X5.3113Y-4.36
X5.3594Y-4.5724
X5.3594Y-4.6512
X5.39Y-3.38
X5.39Y-3.4587
X5.39Y-4.36
X5.3957Y-3.6613
X5.3957Y-3.74
X5.64Y-3.7313
X5.64Y-3.81
X6.0Y-3.47
X6.0787Y-3.47
X6.2324Y-3.48
X6.3111Y-3.48
T3
X3.137Y-3.3041
X3.137Y-3.4132
X3.137Y-3.5222
X3.137Y-3.6313
X3.137Y-3.7404
X3.137Y-3.8494
X3.137Y-3.9585
X3.137Y-4.0675
X3.137Y-4.1766
X3.137Y-4.2856
X3.137Y-4.3947
X3.137Y-4.5037
X3.2488Y-3.2496
X3.2488Y-3.3587
X3.2488Y-3.4677
X3.2488Y-3.5768
X3.2488Y-3.6858
X3.2488Y-3.7949
X3.2488Y-3.9039
X3.2488Y-4.013
X3.2488Y-4.122
X3.2488Y-4.2311
X3.2488Y-4.3402
X3.2488Y-4.4492
X3.2488Y-4.5583
X3.5555Y-3.0508
X3.56Y-3.25
X3.56Y-3.35
X3.56Y-3.45
X3.6555Y-3.0508
X3.6732Y-4.3841
X3.6732Y-4.4841
X3.6732Y-4.5841
X3.6858Y-2.7528
X3.6858Y-2.8528
X3.72Y-3.25
X3.72Y-3.35
X3.72Y-3.45
X3.7555Y-3.0508
X3.8854Y-4.3833
X3.8854Y-4.4833
X3.8854Y-4.5833
X4.0937Y-4.3844
X4.0937Y-4.4844
X4.0937Y-4.5844
X4.2972Y-4.3854
X4.2972Y-4.4854
X4.2972Y-4.5854
X4.4909Y-4.3862
X4.4909Y-4.4862
X4.4909Y-4.5862
X4.6913Y-4.3856
X4.6913Y-4.4856
X4.6913Y-4.5856
X4.7352Y-3.5807
X4.8352Y-3.5807
X4.8827Y-4.4819
X4.8827Y-4.5819
X4.9352Y-3.5807
X6.05Y-4.1065
X6.05Y-4.2156
X6.05Y-4.3246
X6.05Y-4.4337
X6.05Y-4.5427
X6.1618Y-4.161
X6.1618Y-4.2701
X6.1618Y-4.3791
X6.1618Y-4.4882
T4
X5.1741Y-2.7128
X5.1741Y-2.89
X5.1741Y-3.0228
X5.1741Y-3.2
X5.43Y-2.7128
X5.43Y-2.89
X5.43Y-3.0228
X5.43Y-3.2
X5.5795Y-3.9543
X5.61Y-3.5834
X5.6795Y-3.9543
X5.71Y-3.5834
X5.7795Y-3.9543
X5.81Y-3.5834
T5
X3.1929Y-2.9768
X3.1929Y-4.8311
X6.0618Y-3.8325
X6.0618Y-4.8167
T3
G00X6.0453Y-3.0744
M15
G01X6.0453Y-2.9957
M16
G05
G00X6.2028Y-2.85
M15
G01X6.124Y-2.85
M16
G05
G00X6.2815Y-3.0744
M15
G01X6.2815Y-2.9957
M16
G05
T0
M30
