%TF.GenerationSoftware,KiCad,Pcbnew,(6.0.2)*%
%TF.CreationDate,2022-07-10T11:40:40-05:00*%
%TF.ProjectId,WiFiModem,57694669-4d6f-4646-956d-2e6b69636164,rev?*%
%TF.SameCoordinates,Original*%
%TF.FileFunction,Copper,L2,Bot*%
%TF.FilePolarity,Positive*%
%FSLAX46Y46*%
G04 Gerber Fmt 4.6, Leading zero omitted, Abs format (unit mm)*
G04 Created by KiCad (PCBNEW (6.0.2)) date 2022-07-10 11:40:40*
%MOMM*%
%LPD*%
G01*
G04 APERTURE LIST*
G04 Aperture macros list*
%AMRoundRect*
0 Rectangle with rounded corners*
0 $1 Rounding radius*
0 $2 $3 $4 $5 $6 $7 $8 $9 X,Y pos of 4 corners*
0 Add a 4 corners polygon primitive as box body*
4,1,4,$2,$3,$4,$5,$6,$7,$8,$9,$2,$3,0*
0 Add four circle primitives for the rounded corners*
1,1,$1+$1,$2,$3*
1,1,$1+$1,$4,$5*
1,1,$1+$1,$6,$7*
1,1,$1+$1,$8,$9*
0 Add four rect primitives between the rounded corners*
20,1,$1+$1,$2,$3,$4,$5,0*
20,1,$1+$1,$4,$5,$6,$7,0*
20,1,$1+$1,$6,$7,$8,$9,0*
20,1,$1+$1,$8,$9,$2,$3,0*%
G04 Aperture macros list end*
%TA.AperFunction,ComponentPad*%
%ADD10R,1.600000X1.600000*%
%TD*%
%TA.AperFunction,ComponentPad*%
%ADD11C,1.600000*%
%TD*%
%TA.AperFunction,ComponentPad*%
%ADD12R,1.700000X1.700000*%
%TD*%
%TA.AperFunction,ComponentPad*%
%ADD13O,1.700000X1.700000*%
%TD*%
%TA.AperFunction,ComponentPad*%
%ADD14O,1.600000X1.600000*%
%TD*%
%TA.AperFunction,ComponentPad*%
%ADD15C,4.000000*%
%TD*%
%TA.AperFunction,ComponentPad*%
%ADD16R,1.905000X2.000000*%
%TD*%
%TA.AperFunction,ComponentPad*%
%ADD17O,1.905000X2.000000*%
%TD*%
%TA.AperFunction,ComponentPad*%
%ADD18C,2.000000*%
%TD*%
%TA.AperFunction,ComponentPad*%
%ADD19R,3.500000X3.500000*%
%TD*%
%TA.AperFunction,ComponentPad*%
%ADD20RoundRect,0.750000X0.750000X1.000000X-0.750000X1.000000X-0.750000X-1.000000X0.750000X-1.000000X0*%
%TD*%
%TA.AperFunction,ComponentPad*%
%ADD21RoundRect,0.875000X0.875000X0.875000X-0.875000X0.875000X-0.875000X-0.875000X0.875000X-0.875000X0*%
%TD*%
%TA.AperFunction,ViaPad*%
%ADD22C,0.800000*%
%TD*%
%TA.AperFunction,Conductor*%
%ADD23C,0.350000*%
%TD*%
G04 APERTURE END LIST*
D10*
%TO.P,C13,1*%
%TO.N,+5V*%
X136906000Y-110744000D03*
D11*
%TO.P,C13,2*%
%TO.N,GND*%
X134906000Y-110744000D03*
%TD*%
D12*
%TO.P,JP3,1,A*%
%TO.N,RTS*%
X103980000Y-116445000D03*
D13*
%TO.P,JP3,2,C*%
%TO.N,RTSB*%
X103980000Y-113905000D03*
%TO.P,JP3,3,B*%
%TO.N,CTS*%
X103980000Y-111365000D03*
%TD*%
D12*
%TO.P,JP2,1,A*%
%TO.N,TXD*%
X93300000Y-116435000D03*
D13*
%TO.P,JP2,2,C*%
%TO.N,TXDB*%
X93300000Y-113895000D03*
%TO.P,JP2,3,B*%
%TO.N,RXD*%
X93300000Y-111355000D03*
%TD*%
D11*
%TO.P,R11,1*%
%TO.N,Net-(R11-Pad1)*%
X128910000Y-95470000D03*
D14*
%TO.P,R11,2*%
%TO.N,GPIO5*%
X128910000Y-87850000D03*
%TD*%
D11*
%TO.P,R10,1*%
%TO.N,Net-(R10-Pad1)*%
X118890000Y-87370000D03*
D14*
%TO.P,R10,2*%
%TO.N,GPIO14*%
X111270000Y-87370000D03*
%TD*%
D12*
%TO.P,JP10,1,A*%
%TO.N,DTR*%
X119160000Y-116475000D03*
D13*
%TO.P,JP10,2,C*%
%TO.N,DTRB*%
X119160000Y-113935000D03*
%TO.P,JP10,3,B*%
%TO.N,DSR*%
X119160000Y-111395000D03*
%TD*%
D11*
%TO.P,J1,9,9*%
%TO.N,RI*%
X156510000Y-114000000D03*
%TO.P,J1,8,8*%
%TO.N,RTS*%
X156510000Y-111230000D03*
%TO.P,J1,7,7*%
%TO.N,CTS*%
X156510000Y-108460000D03*
%TO.P,J1,6,6*%
%TO.N,DSR*%
X156510000Y-105690000D03*
%TO.P,J1,5,5*%
%TO.N,GND*%
X153670000Y-115385000D03*
%TO.P,J1,4,4*%
%TO.N,DTR*%
X153670000Y-112615000D03*
%TO.P,J1,3,3*%
%TO.N,RXD*%
X153670000Y-109845000D03*
%TO.P,J1,2,2*%
%TO.N,TXD*%
X153670000Y-107075000D03*
D10*
%TO.P,J1,1,1*%
%TO.N,DCD*%
X153670000Y-104305000D03*
D15*
%TO.P,J1,0*%
%TO.N,N/C*%
X153970000Y-122345000D03*
X153970000Y-97345000D03*
%TD*%
D10*
%TO.P,C11,1*%
%TO.N,GND*%
X136906000Y-85852000D03*
D11*
%TO.P,C11,2*%
%TO.N,Net-(C11-Pad2)*%
X136906000Y-87852000D03*
%TD*%
D10*
%TO.P,U3,1,C1+*%
%TO.N,Net-(C7-Pad1)*%
X109484000Y-98308000D03*
D14*
%TO.P,U3,2,VS+*%
%TO.N,Net-(C2-Pad2)*%
X106944000Y-98308000D03*
%TO.P,U3,3,C1-*%
%TO.N,Net-(C7-Pad2)*%
X104404000Y-98308000D03*
%TO.P,U3,4,C2+*%
%TO.N,Net-(C4-Pad1)*%
X101864000Y-98308000D03*
%TO.P,U3,5,C2-*%
%TO.N,Net-(C4-Pad2)*%
X99324000Y-98308000D03*
%TO.P,U3,6,VS-*%
%TO.N,Net-(C3-Pad2)*%
X96784000Y-98308000D03*
%TO.P,U3,7,T2OUT*%
%TO.N,CTSB*%
X94244000Y-98308000D03*
%TO.P,U3,8,R2IN*%
%TO.N,RTSB*%
X91704000Y-98308000D03*
%TO.P,U3,9,R2OUT*%
%TO.N,Net-(R1-Pad1)*%
X91704000Y-105928000D03*
%TO.P,U3,10,T2IN*%
%TO.N,GPIO15*%
X94244000Y-105928000D03*
%TO.P,U3,11,T1IN*%
%TO.N,GPIO1*%
X96784000Y-105928000D03*
%TO.P,U3,12,R1OUT*%
%TO.N,Net-(R3-Pad1)*%
X99324000Y-105928000D03*
%TO.P,U3,13,R1IN*%
%TO.N,TXDB*%
X101864000Y-105928000D03*
%TO.P,U3,14,T1OUT*%
%TO.N,RXDB*%
X104404000Y-105928000D03*
%TO.P,U3,15,GND*%
%TO.N,GND*%
X106944000Y-105928000D03*
%TO.P,U3,16,VCC*%
%TO.N,+5V*%
X109484000Y-105928000D03*
%TD*%
D16*
%TO.P,U2,1,VI*%
%TO.N,Net-(C1-Pad1)*%
X142494000Y-91018000D03*
D17*
%TO.P,U2,2,GND*%
%TO.N,GND*%
X145034000Y-91018000D03*
%TO.P,U2,3,VO*%
%TO.N,+5V*%
X147574000Y-91018000D03*
%TD*%
D10*
%TO.P,C3,1*%
%TO.N,GND*%
X87200000Y-93860000D03*
D11*
%TO.P,C3,2*%
%TO.N,Net-(C3-Pad2)*%
X89200000Y-93860000D03*
%TD*%
D10*
%TO.P,C2,1*%
%TO.N,+5V*%
X109760000Y-93800000D03*
D11*
%TO.P,C2,2*%
%TO.N,Net-(C2-Pad2)*%
X107760000Y-93800000D03*
%TD*%
D10*
%TO.P,C1,1*%
%TO.N,Net-(C1-Pad1)*%
X158302888Y-88392000D03*
D11*
%TO.P,C1,2*%
%TO.N,GND*%
X160302888Y-88392000D03*
%TD*%
D18*
%TO.P,SW1,1,1*%
%TO.N,GND*%
X137922000Y-73406000D03*
X131422000Y-73406000D03*
%TO.P,SW1,2,2*%
%TO.N,Net-(R6-Pad2)*%
X137922000Y-68906000D03*
X131422000Y-68906000D03*
%TD*%
D11*
%TO.P,R6,1*%
%TO.N,+3V3*%
X96774000Y-69850000D03*
D14*
%TO.P,R6,2*%
%TO.N,Net-(R6-Pad2)*%
X104394000Y-69850000D03*
%TD*%
D11*
%TO.P,R8,1*%
%TO.N,+3V3*%
X128016000Y-75184000D03*
D14*
%TO.P,R8,2*%
%TO.N,Net-(R8-Pad2)*%
X128016000Y-67564000D03*
%TD*%
D11*
%TO.P,R7,1*%
%TO.N,Net-(JP7-Pad1)*%
X132320000Y-87630000D03*
D14*
%TO.P,R7,2*%
%TO.N,GND*%
X132320000Y-95250000D03*
%TD*%
D12*
%TO.P,JP1,1,A*%
%TO.N,RXD*%
X98690000Y-116415000D03*
D13*
%TO.P,JP1,2,C*%
%TO.N,RXDB*%
X98690000Y-113875000D03*
%TO.P,JP1,3,B*%
%TO.N,TXD*%
X98690000Y-111335000D03*
%TD*%
D11*
%TO.P,R3,1*%
%TO.N,Net-(R3-Pad1)*%
X98400000Y-94720000D03*
D14*
%TO.P,R3,2*%
%TO.N,GPIO3*%
X98400000Y-87100000D03*
%TD*%
D11*
%TO.P,J2,25,P25*%
%TO.N,unconnected-(J2-Pad25)*%
X79680000Y-83925000D03*
%TO.P,J2,24,P24*%
%TO.N,unconnected-(J2-Pad24)*%
X79680000Y-86695000D03*
%TO.P,J2,23,P23*%
%TO.N,unconnected-(J2-Pad23)*%
X79680000Y-89465000D03*
%TO.P,J2,22,P22*%
%TO.N,RI*%
X79680000Y-92235000D03*
%TO.P,J2,21,P21*%
%TO.N,unconnected-(J2-Pad21)*%
X79680000Y-95005000D03*
%TO.P,J2,20,P20*%
%TO.N,DTR*%
X79680000Y-97775000D03*
%TO.P,J2,19,P19*%
%TO.N,unconnected-(J2-Pad19)*%
X79680000Y-100545000D03*
%TO.P,J2,18,P18*%
%TO.N,unconnected-(J2-Pad18)*%
X79680000Y-103315000D03*
%TO.P,J2,17,P17*%
%TO.N,unconnected-(J2-Pad17)*%
X79680000Y-106085000D03*
%TO.P,J2,16,P16*%
%TO.N,unconnected-(J2-Pad16)*%
X79680000Y-108855000D03*
%TO.P,J2,15,P15*%
%TO.N,unconnected-(J2-Pad15)*%
X79680000Y-111625000D03*
%TO.P,J2,14,P14*%
%TO.N,unconnected-(J2-Pad14)*%
X79680000Y-114395000D03*
%TO.P,J2,13,13*%
%TO.N,unconnected-(J2-Pad13)*%
X82520000Y-82540000D03*
%TO.P,J2,12,12*%
%TO.N,unconnected-(J2-Pad12)*%
X82520000Y-85310000D03*
%TO.P,J2,11,11*%
%TO.N,unconnected-(J2-Pad11)*%
X82520000Y-88080000D03*
%TO.P,J2,10,10*%
%TO.N,unconnected-(J2-Pad10)*%
X82520000Y-90850000D03*
%TO.P,J2,9,9*%
%TO.N,unconnected-(J2-Pad9)*%
X82520000Y-93620000D03*
%TO.P,J2,8,8*%
%TO.N,DCD*%
X82520000Y-96390000D03*
%TO.P,J2,7,7*%
%TO.N,GND*%
X82520000Y-99160000D03*
%TO.P,J2,6,6*%
%TO.N,DSR*%
X82520000Y-101930000D03*
%TO.P,J2,5,5*%
%TO.N,CTS*%
X82520000Y-104700000D03*
%TO.P,J2,4,4*%
%TO.N,RTS*%
X82520000Y-107470000D03*
%TO.P,J2,3,3*%
%TO.N,RXD*%
X82520000Y-110240000D03*
%TO.P,J2,2,2*%
%TO.N,TXD*%
X82520000Y-113010000D03*
D10*
%TO.P,J2,1,1*%
%TO.N,unconnected-(J2-Pad1)*%
X82520000Y-115780000D03*
D15*
%TO.P,J2,0*%
%TO.N,N/C*%
X81100000Y-122710000D03*
X81100000Y-75610000D03*
%TD*%
D11*
%TO.P,R12,1*%
%TO.N,GPIO14*%
X86980000Y-69420000D03*
D14*
%TO.P,R12,2*%
%TO.N,GND*%
X79360000Y-69420000D03*
%TD*%
D11*
%TO.P,R9,1*%
%TO.N,Net-(JP8-Pad1)*%
X102480000Y-73610000D03*
D14*
%TO.P,R9,2*%
%TO.N,+3V3*%
X102480000Y-81230000D03*
%TD*%
D11*
%TO.P,C9,1*%
%TO.N,GND*%
X97890000Y-84070000D03*
%TO.P,C9,2*%
%TO.N,+3V3*%
X102890000Y-84070000D03*
%TD*%
D12*
%TO.P,JP6,1,A*%
%TO.N,GPIO3*%
X94488000Y-87630000D03*
D13*
%TO.P,JP6,2,C*%
%TO.N,Net-(JP6-Pad2)*%
X94488000Y-85090000D03*
%TO.P,JP6,3,B*%
%TO.N,Net-(J4-Pad2)*%
X94488000Y-82550000D03*
%TD*%
D12*
%TO.P,J4,1,Pin_1*%
%TO.N,GND*%
X95390000Y-77490000D03*
D13*
%TO.P,J4,2,Pin_2*%
%TO.N,Net-(J4-Pad2)*%
X92850000Y-77490000D03*
%TO.P,J4,3,Pin_3*%
%TO.N,Net-(J4-Pad3)*%
X90310000Y-77490000D03*
%TD*%
D10*
%TO.P,C6,1*%
%TO.N,+5V*%
X114320000Y-94310000D03*
D11*
%TO.P,C6,2*%
%TO.N,GND*%
X114320000Y-92310000D03*
%TD*%
D10*
%TO.P,C10,1*%
%TO.N,+5V*%
X128778000Y-112014000D03*
D11*
%TO.P,C10,2*%
%TO.N,Net-(C10-Pad2)*%
X128778000Y-110014000D03*
%TD*%
%TO.P,R4,1*%
%TO.N,GPIO3*%
X101220000Y-87420000D03*
D14*
%TO.P,R4,2*%
%TO.N,GND*%
X108840000Y-87420000D03*
%TD*%
D11*
%TO.P,R13,1*%
%TO.N,GPIO5*%
X128060000Y-85210000D03*
D14*
%TO.P,R13,2*%
%TO.N,GND*%
X128060000Y-77590000D03*
%TD*%
D18*
%TO.P,SW2,1,1*%
%TO.N,Net-(R8-Pad2)*%
X131422000Y-76780000D03*
X137922000Y-76780000D03*
%TO.P,SW2,2,2*%
%TO.N,GND*%
X131422000Y-81280000D03*
X137922000Y-81280000D03*
%TD*%
D10*
%TO.P,U5,1,C1+*%
%TO.N,Net-(C14-Pad1)*%
X134280000Y-98280000D03*
D14*
%TO.P,U5,2,VS+*%
%TO.N,Net-(C10-Pad2)*%
X131740000Y-98280000D03*
%TO.P,U5,3,C1-*%
%TO.N,Net-(C14-Pad2)*%
X129200000Y-98280000D03*
%TO.P,U5,4,C2+*%
%TO.N,Net-(C12-Pad1)*%
X126660000Y-98280000D03*
%TO.P,U5,5,C2-*%
%TO.N,Net-(C12-Pad2)*%
X124120000Y-98280000D03*
%TO.P,U5,6,VS-*%
%TO.N,Net-(C11-Pad2)*%
X121580000Y-98280000D03*
%TO.P,U5,7,T2OUT*%
%TO.N,DSRB*%
X119040000Y-98280000D03*
%TO.P,U5,8,R2IN*%
%TO.N,DTRB*%
X116500000Y-98280000D03*
%TO.P,U5,9,R2OUT*%
%TO.N,Net-(R10-Pad1)*%
X116500000Y-105900000D03*
%TO.P,U5,10,T2IN*%
%TO.N,GPIO4*%
X119040000Y-105900000D03*
%TO.P,U5,11,T1IN*%
%TO.N,GPIO12*%
X121580000Y-105900000D03*
%TO.P,U5,12,R1OUT*%
%TO.N,Net-(R11-Pad1)*%
X124120000Y-105900000D03*
%TO.P,U5,13,R1IN*%
%TO.N,DCD*%
X126660000Y-105900000D03*
%TO.P,U5,14,T1OUT*%
%TO.N,RI*%
X129200000Y-105900000D03*
%TO.P,U5,15,GND*%
%TO.N,GND*%
X131740000Y-105900000D03*
%TO.P,U5,16,VCC*%
%TO.N,+5V*%
X134280000Y-105900000D03*
%TD*%
D10*
%TO.P,C5,1*%
%TO.N,+5V*%
X152400000Y-88138000D03*
D11*
%TO.P,C5,2*%
%TO.N,GND*%
X154400000Y-88138000D03*
%TD*%
D12*
%TO.P,JP4,1,A*%
%TO.N,CTS*%
X109150000Y-116470000D03*
D13*
%TO.P,JP4,2,C*%
%TO.N,CTSB*%
X109150000Y-113930000D03*
%TO.P,JP4,3,B*%
%TO.N,RTS*%
X109150000Y-111390000D03*
%TD*%
D10*
%TO.P,C7,1*%
%TO.N,Net-(C7-Pad1)*%
X104000000Y-93800000D03*
D11*
%TO.P,C7,2*%
%TO.N,Net-(C7-Pad2)*%
X102000000Y-93800000D03*
%TD*%
D16*
%TO.P,U4,1,GND*%
%TO.N,GND*%
X146800000Y-100440000D03*
D17*
%TO.P,U4,2,VO*%
%TO.N,+3V3*%
X144260000Y-100440000D03*
%TO.P,U4,3,VI*%
%TO.N,+5V*%
X141720000Y-100440000D03*
%TD*%
D10*
%TO.P,C8,1*%
%TO.N,+3V3*%
X136130000Y-116140000D03*
D11*
%TO.P,C8,2*%
%TO.N,GND*%
X136130000Y-118140000D03*
%TD*%
D10*
%TO.P,C12,1*%
%TO.N,Net-(C12-Pad1)*%
X137050000Y-94996000D03*
D11*
%TO.P,C12,2*%
%TO.N,Net-(C12-Pad2)*%
X137050000Y-92996000D03*
%TD*%
D12*
%TO.P,JP11,1,A*%
%TO.N,DSR*%
X114070000Y-116490000D03*
D13*
%TO.P,JP11,2,C*%
%TO.N,DSRB*%
X114070000Y-113950000D03*
%TO.P,JP11,3,B*%
%TO.N,DTR*%
X114070000Y-111410000D03*
%TD*%
D10*
%TO.P,C14,1*%
%TO.N,Net-(C14-Pad1)*%
X143256000Y-96774000D03*
D11*
%TO.P,C14,2*%
%TO.N,Net-(C14-Pad2)*%
X143256000Y-94774000D03*
%TD*%
D19*
%TO.P,J3,1*%
%TO.N,Net-(C1-Pad1)*%
X153550000Y-77090000D03*
D20*
%TO.P,J3,2*%
%TO.N,GND*%
X159550000Y-77090000D03*
D21*
%TO.P,J3,3*%
%TO.N,unconnected-(J3-Pad3)*%
X156550000Y-72390000D03*
%TD*%
D11*
%TO.P,R1,1*%
%TO.N,Net-(R1-Pad1)*%
X86868000Y-89662000D03*
D14*
%TO.P,R1,2*%
%TO.N,GPIO13*%
X86868000Y-82042000D03*
%TD*%
D12*
%TO.P,JP8,1,A*%
%TO.N,Net-(JP8-Pad1)*%
X93620000Y-72460000D03*
D13*
%TO.P,JP8,2,B*%
%TO.N,GND*%
X93620000Y-69920000D03*
%TD*%
D10*
%TO.P,C4,1*%
%TO.N,Net-(C4-Pad1)*%
X94996000Y-92456000D03*
D11*
%TO.P,C4,2*%
%TO.N,Net-(C4-Pad2)*%
X92996000Y-92456000D03*
%TD*%
D12*
%TO.P,JP7,1,A*%
%TO.N,Net-(JP7-Pad1)*%
X125355000Y-90950000D03*
D13*
%TO.P,JP7,2,C*%
%TO.N,Net-(JP7-Pad2)*%
X122815000Y-90950000D03*
%TO.P,JP7,3,B*%
%TO.N,GPIO15*%
X120275000Y-90950000D03*
%TD*%
D11*
%TO.P,R5,1*%
%TO.N,+3V3*%
X99300000Y-81200000D03*
D14*
%TO.P,R5,2*%
%TO.N,Net-(R5-Pad2)*%
X99300000Y-73580000D03*
%TD*%
D11*
%TO.P,R2,1*%
%TO.N,GPIO13*%
X86880000Y-79870000D03*
D14*
%TO.P,R2,2*%
%TO.N,GND*%
X86880000Y-72250000D03*
%TD*%
D12*
%TO.P,JP9,1,A*%
%TO.N,DSR*%
X124020000Y-113840000D03*
D13*
%TO.P,JP9,2,B*%
%TO.N,RI*%
X124020000Y-116380000D03*
%TD*%
D12*
%TO.P,JP5,1,A*%
%TO.N,GPIO1*%
X90424000Y-87630000D03*
D13*
%TO.P,JP5,2,C*%
%TO.N,Net-(JP5-Pad2)*%
X90424000Y-85090000D03*
%TO.P,JP5,3,B*%
%TO.N,Net-(J4-Pad3)*%
X90424000Y-82550000D03*
%TD*%
D22*
%TO.N,+3V3*%
X146304000Y-97536000D03*
X119380000Y-81788000D03*
%TO.N,DCD*%
X125310000Y-125400000D03*
%TO.N,TXD*%
X92470000Y-121130000D03*
%TO.N,RXD*%
X83040000Y-119870000D03*
%TO.N,DTR*%
X110310000Y-122844500D03*
%TO.N,CTS*%
X98930000Y-121980000D03*
%TO.N,RTS*%
X101220000Y-122044500D03*
X77930000Y-107720000D03*
%TO.N,RI*%
X77700000Y-97580000D03*
X121420000Y-123780000D03*
%TO.N,Net-(JP5-Pad2)*%
X118618000Y-69088000D03*
%TO.N,Net-(JP6-Pad2)*%
X120240000Y-70400000D03*
%TO.N,Net-(JP7-Pad2)*%
X120396000Y-80264000D03*
%TO.N,Net-(R6-Pad2)*%
X111506000Y-68326000D03*
%TO.N,Net-(R8-Pad2)*%
X126730000Y-76440000D03*
%TO.N,Net-(R1-Pad1)*%
X88220000Y-105320000D03*
%TO.N,GPIO15*%
X116090000Y-90990000D03*
%TO.N,GPIO13*%
X104160000Y-82140000D03*
%TO.N,Net-(C11-Pad2)*%
X123952000Y-96012000D03*
%TO.N,GPIO14*%
X110744000Y-69850000D03*
X105450000Y-77290000D03*
%TO.N,GPIO5*%
X126300000Y-72350000D03*
%TO.N,GPIO12*%
X110300000Y-78430000D03*
X113020000Y-106780000D03*
%TO.N,GPIO4*%
X119730000Y-74300000D03*
%TD*%
D23*
%TO.N,Net-(JP8-Pad1)*%
X94090000Y-71990000D02*
X93620000Y-72460000D01*
X102480000Y-73610000D02*
X100860000Y-71990000D01*
X100860000Y-71990000D02*
X94090000Y-71990000D01*
%TO.N,Net-(C1-Pad1)*%
X158302888Y-81632888D02*
X153760000Y-77090000D01*
X142494000Y-85836000D02*
X151240000Y-77090000D01*
X142494000Y-91018000D02*
X142494000Y-85836000D01*
X153760000Y-77090000D02*
X153550000Y-77090000D01*
X151240000Y-77090000D02*
X153550000Y-77090000D01*
X158302888Y-88392000D02*
X158302888Y-81632888D01*
%TO.N,+5V*%
X112190000Y-97100000D02*
X114320000Y-94970000D01*
X139740000Y-100440000D02*
X134280000Y-105900000D01*
X112190000Y-103190000D02*
X112190000Y-97100000D01*
X114310000Y-94320000D02*
X110280000Y-94320000D01*
X110280000Y-94320000D02*
X109760000Y-93800000D01*
X136906000Y-108526000D02*
X134280000Y-105900000D01*
X109484000Y-105928000D02*
X109484000Y-105896000D01*
X114320000Y-94310000D02*
X114310000Y-94320000D01*
X136906000Y-110998000D02*
X136906000Y-110744000D01*
X141720000Y-100440000D02*
X139740000Y-100440000D01*
X134874000Y-113030000D02*
X136906000Y-110998000D01*
X114320000Y-94970000D02*
X114320000Y-94310000D01*
X136906000Y-110744000D02*
X136906000Y-108526000D01*
X109484000Y-105896000D02*
X112190000Y-103190000D01*
X152400000Y-88138000D02*
X152400000Y-93472000D01*
X152400000Y-93472000D02*
X147320000Y-98552000D01*
X128778000Y-112014000D02*
X129794000Y-113030000D01*
X143608000Y-98552000D02*
X141720000Y-100440000D01*
X147574000Y-91018000D02*
X149520000Y-91018000D01*
X149520000Y-91018000D02*
X152400000Y-88138000D01*
X129794000Y-113030000D02*
X134874000Y-113030000D01*
X143608000Y-98552000D02*
X147320000Y-98552000D01*
%TO.N,Net-(C2-Pad2)*%
X107760000Y-96278000D02*
X107760000Y-93800000D01*
X106944000Y-97094000D02*
X107760000Y-96278000D01*
X106944000Y-98308000D02*
X106944000Y-97094000D01*
%TO.N,Net-(C3-Pad2)*%
X94556000Y-96080000D02*
X91420000Y-96080000D01*
X96784000Y-98308000D02*
X94556000Y-96080000D01*
X91420000Y-96080000D02*
X89200000Y-93860000D01*
%TO.N,Net-(C4-Pad1)*%
X98520000Y-92530000D02*
X95070000Y-92530000D01*
X101864000Y-97224000D02*
X99970000Y-95330000D01*
X99970000Y-93980000D02*
X98520000Y-92530000D01*
X99970000Y-95330000D02*
X99970000Y-93980000D01*
X101864000Y-98308000D02*
X101864000Y-97224000D01*
X95070000Y-92530000D02*
X94996000Y-92456000D01*
%TO.N,Net-(C4-Pad2)*%
X92996000Y-93196000D02*
X92996000Y-92456000D01*
X99324000Y-97824000D02*
X95770000Y-94270000D01*
X99324000Y-98308000D02*
X99324000Y-97824000D01*
X95770000Y-94270000D02*
X94070000Y-94270000D01*
X94070000Y-94270000D02*
X92996000Y-93196000D01*
%TO.N,Net-(C7-Pad1)*%
X106480000Y-99750000D02*
X105680000Y-98950000D01*
X104010000Y-93800000D02*
X104000000Y-93800000D01*
X105680000Y-98950000D02*
X105680000Y-95470000D01*
X109484000Y-98308000D02*
X109484000Y-98836000D01*
X109484000Y-98836000D02*
X108570000Y-99750000D01*
X105680000Y-95470000D02*
X104010000Y-93800000D01*
X108570000Y-99750000D02*
X106480000Y-99750000D01*
%TO.N,Net-(C7-Pad2)*%
X104404000Y-96864000D02*
X104404000Y-98308000D01*
X102000000Y-93800000D02*
X102000000Y-94460000D01*
X102000000Y-94460000D02*
X104404000Y-96864000D01*
%TO.N,+3V3*%
X95490000Y-71190000D02*
X92180000Y-71190000D01*
X146558000Y-97282000D02*
X146558000Y-94488000D01*
X146304000Y-97536000D02*
X146558000Y-97282000D01*
X91520000Y-74080000D02*
X92670000Y-75230000D01*
X102480000Y-81230000D02*
X102320000Y-81070000D01*
X144280000Y-108230000D02*
X144272000Y-108222000D01*
X123030000Y-80550000D02*
X121792000Y-81788000D01*
X139446000Y-90678000D02*
X139446000Y-85276000D01*
X99270000Y-77600000D02*
X99300000Y-77630000D01*
X99300000Y-77630000D02*
X99300000Y-81200000D01*
X133470000Y-83770000D02*
X130740000Y-86500000D01*
X99270000Y-77040000D02*
X99270000Y-77600000D01*
X125108000Y-86500000D02*
X120396000Y-81788000D01*
X96774000Y-69850000D02*
X96774000Y-69906000D01*
X145034000Y-92964000D02*
X141732000Y-92964000D01*
X136130000Y-116140000D02*
X136370000Y-116140000D01*
X96774000Y-69906000D02*
X95490000Y-71190000D01*
X146558000Y-94488000D02*
X145034000Y-92964000D01*
X97460000Y-75230000D02*
X99270000Y-77040000D01*
X119762000Y-81788000D02*
X119380000Y-81788000D01*
X144272000Y-100452000D02*
X144260000Y-100440000D01*
X123030000Y-78160000D02*
X123030000Y-80550000D01*
X92180000Y-71190000D02*
X91520000Y-71850000D01*
X92670000Y-75230000D02*
X97460000Y-75230000D01*
X99430000Y-81070000D02*
X99300000Y-81200000D01*
X102320000Y-81070000D02*
X99430000Y-81070000D01*
X137940000Y-83770000D02*
X133470000Y-83770000D01*
X126006000Y-75184000D02*
X123030000Y-78160000D01*
X141732000Y-92964000D02*
X139446000Y-90678000D01*
X139446000Y-85276000D02*
X137940000Y-83770000D01*
X91520000Y-71850000D02*
X91520000Y-74080000D01*
X136370000Y-116140000D02*
X144280000Y-108230000D01*
X128016000Y-75184000D02*
X126006000Y-75184000D01*
X130740000Y-86500000D02*
X125108000Y-86500000D01*
X119762000Y-81788000D02*
X121792000Y-81788000D01*
X144272000Y-108222000D02*
X144272000Y-100452000D01*
%TO.N,DCD*%
X75120000Y-98750000D02*
X77480000Y-96390000D01*
X77480000Y-96390000D02*
X82520000Y-96390000D01*
X155120000Y-103950000D02*
X154765000Y-104305000D01*
X159310000Y-109940000D02*
X158350000Y-108980000D01*
X154765000Y-104305000D02*
X153670000Y-104305000D01*
X75120000Y-124520000D02*
X75120000Y-98750000D01*
X158350000Y-104740000D02*
X157560000Y-103950000D01*
X125200000Y-125510000D02*
X125200000Y-125950000D01*
X76550000Y-125950000D02*
X75120000Y-124520000D01*
X156030000Y-125950000D02*
X159310000Y-122670000D01*
X125200000Y-125950000D02*
X76550000Y-125950000D01*
X158350000Y-108980000D02*
X158350000Y-104740000D01*
X125200000Y-125950000D02*
X156030000Y-125950000D01*
X157560000Y-103950000D02*
X155120000Y-103950000D01*
X125310000Y-125400000D02*
X125200000Y-125510000D01*
X159310000Y-122670000D02*
X159310000Y-109940000D01*
%TO.N,TXD*%
X84290000Y-113010000D02*
X82520000Y-113010000D01*
X149100000Y-113110000D02*
X149100000Y-117330000D01*
X153670000Y-107075000D02*
X153015000Y-107075000D01*
X85500000Y-115640000D02*
X85500000Y-114220000D01*
X85500000Y-114220000D02*
X84290000Y-113010000D01*
X149100000Y-117330000D02*
X145830000Y-120600000D01*
X90460000Y-120600000D02*
X85500000Y-115640000D01*
X91940000Y-120600000D02*
X92470000Y-121130000D01*
X151610000Y-108480000D02*
X151610000Y-110600000D01*
X151610000Y-110600000D02*
X149100000Y-113110000D01*
X153015000Y-107075000D02*
X151610000Y-108480000D01*
X145830000Y-120600000D02*
X90460000Y-120600000D01*
%TO.N,RXD*%
X155880000Y-109840000D02*
X155875000Y-109845000D01*
X158220000Y-110580000D02*
X157480000Y-109840000D01*
X122560000Y-124520000D02*
X147860000Y-124520000D01*
X95860000Y-112280000D02*
X95860000Y-115710000D01*
X156450000Y-117920000D02*
X158220000Y-116150000D01*
X93300000Y-111355000D02*
X94935000Y-111355000D01*
X88370000Y-125200000D02*
X121880000Y-125200000D01*
X121880000Y-125200000D02*
X122560000Y-124520000D01*
X94935000Y-111355000D02*
X95860000Y-112280000D01*
X83040000Y-119870000D02*
X83080000Y-119870000D01*
X157480000Y-109840000D02*
X155880000Y-109840000D01*
X147860000Y-124520000D02*
X154460000Y-117920000D01*
X154460000Y-117920000D02*
X156450000Y-117920000D01*
X95860000Y-115710000D02*
X96565000Y-116415000D01*
X158220000Y-116150000D02*
X158220000Y-110580000D01*
X155875000Y-109845000D02*
X153670000Y-109845000D01*
X96565000Y-116415000D02*
X98690000Y-116415000D01*
X83080000Y-119870000D02*
X88410000Y-125200000D01*
%TO.N,DTR*%
X76630000Y-115280000D02*
X76630000Y-103450000D01*
X110300000Y-122880000D02*
X109500000Y-123680000D01*
X77700000Y-99000000D02*
X78925000Y-97775000D01*
X79370000Y-118020000D02*
X76630000Y-115280000D01*
X78925000Y-97775000D02*
X79680000Y-97775000D01*
X114070000Y-111410000D02*
X115400000Y-111410000D01*
X147160000Y-122880000D02*
X110300000Y-122880000D01*
X153670000Y-112930000D02*
X151900000Y-114700000D01*
X153670000Y-112615000D02*
X153670000Y-112930000D01*
X115400000Y-111410000D02*
X116670000Y-112680000D01*
X117545000Y-116475000D02*
X119160000Y-116475000D01*
X77700000Y-102380000D02*
X77700000Y-99000000D01*
X109500000Y-123680000D02*
X89540000Y-123680000D01*
X116670000Y-115600000D02*
X117545000Y-116475000D01*
X151900000Y-118140000D02*
X147160000Y-122880000D01*
X116670000Y-112680000D02*
X116670000Y-115600000D01*
X83880000Y-118020000D02*
X79370000Y-118020000D01*
X89540000Y-123680000D02*
X83880000Y-118020000D01*
X151900000Y-114700000D02*
X151900000Y-118140000D01*
X76630000Y-103450000D02*
X77700000Y-102380000D01*
%TO.N,DSR*%
X114070000Y-116490000D02*
X114070000Y-119120000D01*
X84400000Y-111880000D02*
X84400000Y-102890000D01*
X145410000Y-119800000D02*
X148390000Y-116820000D01*
X90850000Y-119870000D02*
X86440000Y-115460000D01*
X114070000Y-119120000D02*
X113950000Y-119240000D01*
X83440000Y-101930000D02*
X82520000Y-101930000D01*
X152810000Y-105690000D02*
X156510000Y-105690000D01*
X150920000Y-107580000D02*
X152810000Y-105690000D01*
X148390000Y-112680000D02*
X150920000Y-110150000D01*
X113320000Y-119870000D02*
X90850000Y-119870000D01*
X150920000Y-110150000D02*
X150920000Y-107580000D01*
X122480000Y-111395000D02*
X124020000Y-112935000D01*
X84400000Y-102890000D02*
X83440000Y-101930000D01*
X86440000Y-115460000D02*
X86440000Y-113920000D01*
X119160000Y-111395000D02*
X122480000Y-111395000D01*
X124020000Y-112935000D02*
X124020000Y-113840000D01*
X114510000Y-119800000D02*
X145410000Y-119800000D01*
X113950000Y-119240000D02*
X113320000Y-119870000D01*
X113950000Y-119240000D02*
X114510000Y-119800000D01*
X86440000Y-113920000D02*
X84400000Y-111880000D01*
X148390000Y-116820000D02*
X148390000Y-112680000D01*
%TO.N,CTS*%
X108980000Y-116640000D02*
X109150000Y-116470000D01*
X83790000Y-114350000D02*
X81770000Y-114350000D01*
X105825000Y-111365000D02*
X106530000Y-112070000D01*
X84610000Y-116380000D02*
X84610000Y-115170000D01*
X152220000Y-111142862D02*
X149860000Y-113502862D01*
X107510000Y-116640000D02*
X108980000Y-116640000D01*
X99640000Y-121270000D02*
X146470000Y-121270000D01*
X98930000Y-121980000D02*
X90210000Y-121980000D01*
X103980000Y-111365000D02*
X105825000Y-111365000D01*
X82120000Y-104700000D02*
X82520000Y-104700000D01*
X81120000Y-105700000D02*
X82120000Y-104700000D01*
X81120000Y-113700000D02*
X81120000Y-105700000D01*
X81770000Y-114350000D02*
X81120000Y-113700000D01*
X84610000Y-115170000D02*
X83790000Y-114350000D01*
X90210000Y-121980000D02*
X84610000Y-116380000D01*
X152830000Y-108460000D02*
X152220000Y-109070000D01*
X98930000Y-121980000D02*
X99640000Y-121270000D01*
X106530000Y-112070000D02*
X106530000Y-115660000D01*
X149860000Y-113502862D02*
X149860000Y-117880000D01*
X156510000Y-108460000D02*
X152830000Y-108460000D01*
X106530000Y-115660000D02*
X107510000Y-116640000D01*
X149860000Y-117880000D02*
X146470000Y-121270000D01*
X152220000Y-109070000D02*
X152220000Y-111142862D01*
%TO.N,RTS*%
X150700000Y-114470000D02*
X152050000Y-113120000D01*
X100520000Y-122920000D02*
X101370000Y-122070000D01*
X152910000Y-111230000D02*
X156510000Y-111230000D01*
X152050000Y-113120000D02*
X152050000Y-112090000D01*
X101370000Y-122070000D02*
X146730000Y-122070000D01*
X77470000Y-115040000D02*
X79760000Y-117330000D01*
X79760000Y-117330000D02*
X84290000Y-117330000D01*
X152050000Y-112090000D02*
X152910000Y-111230000D01*
X89880000Y-122920000D02*
X100520000Y-122920000D01*
X150700000Y-118100000D02*
X150700000Y-114470000D01*
X146730000Y-122070000D02*
X150700000Y-118100000D01*
X84290000Y-117330000D02*
X89880000Y-122920000D01*
X77930000Y-107720000D02*
X77470000Y-108180000D01*
X77470000Y-108180000D02*
X77470000Y-115040000D01*
%TO.N,RI*%
X128484000Y-107696000D02*
X129200000Y-106980000D01*
X79000000Y-118750000D02*
X75860000Y-115610000D01*
X129200000Y-106980000D02*
X129200000Y-105900000D01*
X75860000Y-115610000D02*
X75860000Y-99420000D01*
X126070000Y-115050000D02*
X126070000Y-108450000D01*
X75860000Y-99420000D02*
X77700000Y-97580000D01*
X83430000Y-118750000D02*
X79000000Y-118750000D01*
X124740000Y-116380000D02*
X126070000Y-115050000D01*
X126070000Y-108450000D02*
X126824000Y-107696000D01*
X155580000Y-115680000D02*
X155580000Y-114930000D01*
X121480000Y-123720000D02*
X121420000Y-123780000D01*
X120660000Y-124480000D02*
X89160000Y-124480000D01*
X155580000Y-114930000D02*
X156510000Y-114000000D01*
X124020000Y-116380000D02*
X124740000Y-116380000D01*
X147540000Y-123720000D02*
X155580000Y-115680000D01*
X121420000Y-123780000D02*
X121360000Y-123780000D01*
X89160000Y-124480000D02*
X83430000Y-118750000D01*
X126824000Y-107696000D02*
X128484000Y-107696000D01*
X121360000Y-123780000D02*
X120660000Y-124480000D01*
X121480000Y-123720000D02*
X147540000Y-123720000D01*
%TO.N,Net-(J4-Pad2)*%
X93218000Y-81280000D02*
X94488000Y-82550000D01*
X93218000Y-77858000D02*
X93218000Y-81280000D01*
X92850000Y-77490000D02*
X93218000Y-77858000D01*
%TO.N,Net-(J4-Pad3)*%
X90424000Y-82550000D02*
X90424000Y-77604000D01*
X90424000Y-77604000D02*
X90310000Y-77490000D01*
%TO.N,RXDB*%
X104092000Y-105928000D02*
X104404000Y-105928000D01*
X100750000Y-111815000D02*
X100750000Y-109270000D01*
X98690000Y-113875000D02*
X100750000Y-111815000D01*
X100750000Y-109270000D02*
X104092000Y-105928000D01*
%TO.N,TXDB*%
X92075489Y-112670489D02*
X93300000Y-113895000D01*
X99290000Y-109230000D02*
X92430000Y-109230000D01*
X92430000Y-109230000D02*
X92075489Y-109584511D01*
X101864000Y-106656000D02*
X99290000Y-109230000D01*
X101864000Y-105928000D02*
X101864000Y-106656000D01*
X92075489Y-109584511D02*
X92075489Y-112670489D01*
%TO.N,RTSB*%
X103980000Y-113905000D02*
X101865000Y-113905000D01*
X99990000Y-117980000D02*
X92250000Y-117980000D01*
X90160000Y-115890000D02*
X90160000Y-99852000D01*
X90160000Y-99852000D02*
X91704000Y-98308000D01*
X101865000Y-113905000D02*
X101150000Y-114620000D01*
X101150000Y-116820000D02*
X99990000Y-117980000D01*
X101150000Y-114620000D02*
X101150000Y-116820000D01*
X92250000Y-117980000D02*
X90160000Y-115890000D01*
%TO.N,CTSB*%
X89340000Y-98470000D02*
X90980000Y-96830000D01*
X111240000Y-117910000D02*
X110120000Y-119030000D01*
X111240000Y-114880000D02*
X111240000Y-117910000D01*
X90980000Y-96830000D02*
X93360000Y-96830000D01*
X91610000Y-119030000D02*
X89340000Y-116760000D01*
X93360000Y-96830000D02*
X94244000Y-97714000D01*
X110120000Y-119030000D02*
X91610000Y-119030000D01*
X110290000Y-113930000D02*
X111240000Y-114880000D01*
X109150000Y-113930000D02*
X110290000Y-113930000D01*
X89340000Y-116760000D02*
X89340000Y-98470000D01*
X94244000Y-97714000D02*
X94244000Y-98308000D01*
%TO.N,Net-(JP5-Pad2)*%
X113030000Y-71460000D02*
X102960000Y-71460000D01*
X118618000Y-69088000D02*
X115402000Y-69088000D01*
X88540000Y-70160000D02*
X88540000Y-83206000D01*
X88540000Y-83206000D02*
X90424000Y-85090000D01*
X102960000Y-71460000D02*
X99110000Y-67610000D01*
X91090000Y-67610000D02*
X88540000Y-70160000D01*
X115402000Y-69088000D02*
X113030000Y-71460000D01*
X99110000Y-67610000D02*
X91090000Y-67610000D01*
%TO.N,Net-(JP6-Pad2)*%
X91590000Y-68300000D02*
X90040000Y-69850000D01*
X91570000Y-75440000D02*
X91570000Y-79410000D01*
X90040000Y-69850000D02*
X90040000Y-73910000D01*
X92270000Y-83870000D02*
X93490000Y-85090000D01*
X91570000Y-79410000D02*
X92270000Y-80110000D01*
X117380000Y-70400000D02*
X115500000Y-72280000D01*
X90040000Y-73910000D02*
X91570000Y-75440000D01*
X120240000Y-70400000D02*
X117380000Y-70400000D01*
X115500000Y-72280000D02*
X102600000Y-72280000D01*
X102600000Y-72280000D02*
X98620000Y-68300000D01*
X93490000Y-85090000D02*
X94488000Y-85090000D01*
X92270000Y-80110000D02*
X92270000Y-83870000D01*
X98620000Y-68300000D02*
X91590000Y-68300000D01*
%TO.N,DTRB*%
X114960000Y-108510000D02*
X114960000Y-99820000D01*
X117040000Y-111815000D02*
X117040000Y-110590000D01*
X119160000Y-113935000D02*
X117040000Y-111815000D01*
X114960000Y-99820000D02*
X116500000Y-98280000D01*
X117040000Y-110590000D02*
X114960000Y-108510000D01*
%TO.N,DSRB*%
X117360000Y-96600000D02*
X119040000Y-98280000D01*
X115460000Y-96600000D02*
X117360000Y-96600000D01*
X113950000Y-98110000D02*
X115460000Y-96600000D01*
X114070000Y-113950000D02*
X112430000Y-112310000D01*
X113950000Y-108300000D02*
X113950000Y-98110000D01*
X112430000Y-109820000D02*
X113950000Y-108300000D01*
X112430000Y-112310000D02*
X112430000Y-109820000D01*
%TO.N,Net-(JP7-Pad1)*%
X125355000Y-90950000D02*
X126630000Y-90950000D01*
X131210000Y-89770000D02*
X132320000Y-88660000D01*
X126630000Y-90950000D02*
X127810000Y-89770000D01*
X127810000Y-89770000D02*
X131210000Y-89770000D01*
X132320000Y-88660000D02*
X132320000Y-87630000D01*
%TO.N,Net-(JP7-Pad2)*%
X118364000Y-80264000D02*
X120396000Y-80264000D01*
X117856000Y-82931000D02*
X117856000Y-80772000D01*
X117856000Y-82931000D02*
X122815000Y-87890000D01*
X117856000Y-80772000D02*
X118364000Y-80264000D01*
X122815000Y-87890000D02*
X122815000Y-90950000D01*
%TO.N,Net-(R6-Pad2)*%
X118938814Y-68313489D02*
X118951325Y-68326000D01*
X111506000Y-68326000D02*
X118284675Y-68326000D01*
X125730000Y-69850000D02*
X130478000Y-69850000D01*
X118284675Y-68326000D02*
X118297186Y-68313489D01*
X118297186Y-68313489D02*
X118938814Y-68313489D01*
X137922000Y-68906000D02*
X131422000Y-68906000D01*
X124206000Y-68326000D02*
X125730000Y-69850000D01*
X118951325Y-68326000D02*
X124206000Y-68326000D01*
X130478000Y-69850000D02*
X131422000Y-68906000D01*
%TO.N,Net-(R8-Pad2)*%
X129720000Y-76780000D02*
X131422000Y-76780000D01*
X126730000Y-76440000D02*
X126930000Y-76440000D01*
X129355489Y-76415489D02*
X129720000Y-76780000D01*
X126930000Y-76440000D02*
X126954511Y-76415489D01*
X126954511Y-76415489D02*
X129355489Y-76415489D01*
%TO.N,Net-(R1-Pad1)*%
X85290000Y-95380000D02*
X85290000Y-91240000D01*
X88220000Y-105320000D02*
X87660000Y-104760000D01*
X87660000Y-104760000D02*
X87660000Y-97750000D01*
X87660000Y-97750000D02*
X85290000Y-95380000D01*
X85290000Y-91240000D02*
X86868000Y-89662000D01*
%TO.N,GPIO1*%
X90800000Y-88006000D02*
X90424000Y-87630000D01*
X96784000Y-104130000D02*
X98044000Y-102870000D01*
X95590000Y-95110000D02*
X92350000Y-95110000D01*
X90800000Y-93560000D02*
X90800000Y-88006000D01*
X98044000Y-97564000D02*
X95590000Y-95110000D01*
X96784000Y-105928000D02*
X96784000Y-104130000D01*
X92350000Y-95110000D02*
X90800000Y-93560000D01*
X98044000Y-102870000D02*
X98044000Y-97564000D01*
%TO.N,GPIO3*%
X101220000Y-87420000D02*
X98720000Y-87420000D01*
X98400000Y-87100000D02*
X95018000Y-87100000D01*
X98720000Y-87420000D02*
X98400000Y-87100000D01*
X95018000Y-87100000D02*
X94488000Y-87630000D01*
%TO.N,Net-(R3-Pad1)*%
X100560000Y-99620000D02*
X100560000Y-97090000D01*
X99324000Y-100856000D02*
X100560000Y-99620000D01*
X100560000Y-97090000D02*
X98400000Y-94930000D01*
X99324000Y-105928000D02*
X99324000Y-100856000D01*
X98400000Y-94930000D02*
X98400000Y-94720000D01*
%TO.N,GPIO15*%
X95000000Y-107960000D02*
X99630000Y-107960000D01*
X94244000Y-107204000D02*
X95000000Y-107960000D01*
X100600000Y-106990000D02*
X100600000Y-104910000D01*
X100580000Y-94830000D02*
X100580000Y-92990000D01*
X103140000Y-102370000D02*
X103140000Y-97390000D01*
X116090000Y-90990000D02*
X112670000Y-90990000D01*
X112670000Y-90990000D02*
X111730000Y-91930000D01*
X103140000Y-97390000D02*
X100580000Y-94830000D01*
X100600000Y-104910000D02*
X103140000Y-102370000D01*
X100580000Y-92990000D02*
X101640000Y-91930000D01*
X101640000Y-91930000D02*
X111730000Y-91930000D01*
X99630000Y-107960000D02*
X100600000Y-106990000D01*
X94244000Y-105928000D02*
X94244000Y-107204000D01*
%TO.N,GPIO13*%
X88160000Y-86350000D02*
X86868000Y-85058000D01*
X103690000Y-82610000D02*
X102050000Y-82610000D01*
X86880000Y-79870000D02*
X86880000Y-82030000D01*
X104160000Y-82140000D02*
X103690000Y-82610000D01*
X96200000Y-86350000D02*
X88160000Y-86350000D01*
X102050000Y-82610000D02*
X99080000Y-85580000D01*
X86868000Y-85058000D02*
X86868000Y-82042000D01*
X86880000Y-82030000D02*
X86868000Y-82042000D01*
X96970000Y-85580000D02*
X96200000Y-86350000D01*
X99080000Y-85580000D02*
X96970000Y-85580000D01*
%TO.N,Net-(C10-Pad2)*%
X133020000Y-99560000D02*
X133020000Y-107518000D01*
X133020000Y-107518000D02*
X130524000Y-110014000D01*
X130524000Y-110014000D02*
X128778000Y-110014000D01*
X131740000Y-98280000D02*
X133020000Y-99560000D01*
%TO.N,Net-(C11-Pad2)*%
X123952000Y-96012000D02*
X124968000Y-94996000D01*
X136906000Y-88900000D02*
X136906000Y-87852000D01*
X127508000Y-91440000D02*
X134366000Y-91440000D01*
X124968000Y-94996000D02*
X124968000Y-93980000D01*
X124968000Y-93980000D02*
X127508000Y-91440000D01*
X134366000Y-91440000D02*
X136906000Y-88900000D01*
%TO.N,Net-(C12-Pad1)*%
X126660000Y-98280000D02*
X126660000Y-94600000D01*
X127460000Y-93800000D02*
X135854000Y-93800000D01*
X126660000Y-94600000D02*
X127460000Y-93800000D01*
X135854000Y-93800000D02*
X137050000Y-94996000D01*
%TO.N,Net-(C12-Pad2)*%
X125680000Y-94370000D02*
X127370000Y-92680000D01*
X124120000Y-98280000D02*
X125680000Y-96720000D01*
X136734000Y-92680000D02*
X137050000Y-92996000D01*
X127370000Y-92680000D02*
X136734000Y-92680000D01*
X125680000Y-96720000D02*
X125680000Y-94370000D01*
%TO.N,Net-(C14-Pad1)*%
X141750000Y-98280000D02*
X143256000Y-96774000D01*
X134280000Y-98280000D02*
X141750000Y-98280000D01*
%TO.N,Net-(C14-Pad2)*%
X130750000Y-96730000D02*
X140506000Y-96730000D01*
X140506000Y-96730000D02*
X142462000Y-94774000D01*
X142462000Y-94774000D02*
X143256000Y-94774000D01*
X129200000Y-98280000D02*
X130750000Y-96730000D01*
%TO.N,Net-(R10-Pad1)*%
X120320000Y-96830000D02*
X118110000Y-94620000D01*
X116500000Y-103390000D02*
X120320000Y-99570000D01*
X118110000Y-88150000D02*
X118890000Y-87370000D01*
X116500000Y-105900000D02*
X116500000Y-103390000D01*
X118110000Y-94620000D02*
X118110000Y-88150000D01*
X120320000Y-99570000D02*
X120320000Y-96830000D01*
%TO.N,GPIO14*%
X106840000Y-85440000D02*
X109730000Y-85440000D01*
X111270000Y-86980000D02*
X111270000Y-87370000D01*
X104920000Y-68210000D02*
X103640000Y-66930000D01*
X110744000Y-69850000D02*
X109104000Y-68210000D01*
X103640000Y-66930000D02*
X89470000Y-66930000D01*
X105400000Y-77340000D02*
X105400000Y-84000000D01*
X105450000Y-77290000D02*
X105400000Y-77340000D01*
X109104000Y-68210000D02*
X104920000Y-68210000D01*
X109730000Y-85440000D02*
X111270000Y-86980000D01*
X105400000Y-84000000D02*
X106840000Y-85440000D01*
X89470000Y-66930000D02*
X86980000Y-69420000D01*
%TO.N,Net-(R11-Pad1)*%
X124120000Y-105900000D02*
X124120000Y-105850000D01*
X124120000Y-105850000D02*
X127930000Y-102040000D01*
X127930000Y-102040000D02*
X127930000Y-96450000D01*
X127930000Y-96450000D02*
X128910000Y-95470000D01*
%TO.N,GPIO5*%
X130700000Y-75160000D02*
X128640000Y-73100000D01*
X128060000Y-85210000D02*
X130890000Y-85210000D01*
X133250000Y-82850000D02*
X133250000Y-75540000D01*
X128170000Y-72350000D02*
X126300000Y-72350000D01*
X133250000Y-75540000D02*
X132870000Y-75160000D01*
X128640000Y-73100000D02*
X128640000Y-72820000D01*
X132870000Y-75160000D02*
X130700000Y-75160000D01*
X130890000Y-85210000D02*
X133250000Y-82850000D01*
X128640000Y-72820000D02*
X128170000Y-72350000D01*
%TO.N,GPIO12*%
X117094000Y-94326000D02*
X117094000Y-88900000D01*
X113020000Y-106780000D02*
X113010000Y-106770000D01*
X113010000Y-106770000D02*
X113010000Y-97760000D01*
X116332000Y-81534000D02*
X113228000Y-78430000D01*
X116332000Y-88138000D02*
X116332000Y-81534000D01*
X113010000Y-97760000D02*
X114940000Y-95830000D01*
X115590000Y-95830000D02*
X117094000Y-94326000D01*
X114940000Y-95830000D02*
X115590000Y-95830000D01*
X117094000Y-88900000D02*
X116332000Y-88138000D01*
X113228000Y-78430000D02*
X110300000Y-78430000D01*
%TO.N,GPIO4*%
X119710000Y-74280000D02*
X118700000Y-74280000D01*
X121530000Y-94590000D02*
X122830000Y-95890000D01*
X117094000Y-75886000D02*
X117094000Y-83312000D01*
X119730000Y-74300000D02*
X119710000Y-74280000D01*
X117094000Y-83312000D02*
X121530000Y-87748000D01*
X119040000Y-104340000D02*
X119040000Y-105900000D01*
X121530000Y-87748000D02*
X121530000Y-94590000D01*
X122830000Y-95890000D02*
X122830000Y-100550000D01*
X118700000Y-74280000D02*
X117094000Y-75886000D01*
X122830000Y-100550000D02*
X119040000Y-104340000D01*
%TD*%
M02*
