%TF.GenerationSoftware,KiCad,Pcbnew,(6.0.2)*%
%TF.CreationDate,2022-07-31T21:24:07-05:00*%
%TF.ProjectId,WiFiModem,57694669-4d6f-4646-956d-2e6b69636164,rev?*%
%TF.SameCoordinates,Original*%
%TF.FileFunction,Soldermask,Top*%
%TF.FilePolarity,Negative*%
%FSLAX46Y46*%
G04 Gerber Fmt 4.6, Leading zero omitted, Abs format (unit mm)*
G04 Created by KiCad (PCBNEW (6.0.2)) date 2022-07-31 21:24:07*
%MOMM*%
%LPD*%
G01*
G04 APERTURE LIST*
G04 Aperture macros list*
%AMRoundRect*
0 Rectangle with rounded corners*
0 $1 Rounding radius*
0 $2 $3 $4 $5 $6 $7 $8 $9 X,Y pos of 4 corners*
0 Add a 4 corners polygon primitive as box body*
4,1,4,$2,$3,$4,$5,$6,$7,$8,$9,$2,$3,0*
0 Add four circle primitives for the rounded corners*
1,1,$1+$1,$2,$3*
1,1,$1+$1,$4,$5*
1,1,$1+$1,$6,$7*
1,1,$1+$1,$8,$9*
0 Add four rect primitives between the rounded corners*
20,1,$1+$1,$2,$3,$4,$5,0*
20,1,$1+$1,$4,$5,$6,$7,0*
20,1,$1+$1,$6,$7,$8,$9,0*
20,1,$1+$1,$8,$9,$2,$3,0*%
G04 Aperture macros list end*
%ADD10R,1.600000X1.600000*%
%ADD11C,1.600000*%
%ADD12R,1.700000X1.700000*%
%ADD13O,1.700000X1.700000*%
%ADD14O,1.600000X1.600000*%
%ADD15C,4.000000*%
%ADD16O,3.500000X3.500000*%
%ADD17R,1.905000X2.000000*%
%ADD18O,1.905000X2.000000*%
%ADD19C,2.000000*%
%ADD20R,2.500000X1.000000*%
%ADD21R,1.000000X1.800000*%
%ADD22R,3.500000X3.500000*%
%ADD23RoundRect,0.750000X0.750000X1.000000X-0.750000X1.000000X-0.750000X-1.000000X0.750000X-1.000000X0*%
%ADD24RoundRect,0.875000X0.875000X0.875000X-0.875000X0.875000X-0.875000X-0.875000X0.875000X-0.875000X0*%
G04 APERTURE END LIST*
D10*
%TO.C,C13*%
X136960000Y-111430000D03*
D11*
X134960000Y-111430000D03*
%TD*%
D12*
%TO.C,JP3*%
X103980000Y-116445000D03*
D13*
X103980000Y-113905000D03*
X103980000Y-111365000D03*
%TD*%
D12*
%TO.C,JP2*%
X93300000Y-116435000D03*
D13*
X93300000Y-113895000D03*
X93300000Y-111355000D03*
%TD*%
D11*
%TO.C,R10*%
X118890000Y-87370000D03*
D14*
X111270000Y-87370000D03*
%TD*%
D12*
%TO.C,JP10*%
X119160000Y-116475000D03*
D13*
X119160000Y-113935000D03*
X119160000Y-111395000D03*
%TD*%
D15*
%TO.C,J1*%
X153970000Y-97345000D03*
X153970000Y-122345000D03*
D10*
X153670000Y-104305000D03*
D11*
X153670000Y-107075000D03*
X153670000Y-109845000D03*
X153670000Y-112615000D03*
X153670000Y-115385000D03*
X156510000Y-105690000D03*
X156510000Y-108460000D03*
X156510000Y-111230000D03*
X156510000Y-114000000D03*
%TD*%
D10*
%TO.C,C11*%
X136906000Y-85852000D03*
D11*
X136906000Y-87852000D03*
%TD*%
D10*
%TO.C,U3*%
X109484000Y-98308000D03*
D14*
X106944000Y-98308000D03*
X104404000Y-98308000D03*
X101864000Y-98308000D03*
X99324000Y-98308000D03*
X96784000Y-98308000D03*
X94244000Y-98308000D03*
X91704000Y-98308000D03*
X91704000Y-105928000D03*
X94244000Y-105928000D03*
X96784000Y-105928000D03*
X99324000Y-105928000D03*
X101864000Y-105928000D03*
X104404000Y-105928000D03*
X106944000Y-105928000D03*
X109484000Y-105928000D03*
%TD*%
D16*
%TO.C,U2*%
X145034000Y-74358000D03*
D17*
X142494000Y-91018000D03*
D18*
X145034000Y-91018000D03*
X147574000Y-91018000D03*
%TD*%
D10*
%TO.C,C3*%
X87200000Y-93860000D03*
D11*
X89200000Y-93860000D03*
%TD*%
D10*
%TO.C,C2*%
X109760000Y-93800000D03*
D11*
X107760000Y-93800000D03*
%TD*%
D10*
%TO.C,C1*%
X158302888Y-88392000D03*
D11*
X160302888Y-88392000D03*
%TD*%
D12*
%TO.C,JP9*%
X124206000Y-116520000D03*
D13*
X124206000Y-113980000D03*
X124206000Y-111440000D03*
%TD*%
D19*
%TO.C,SW1*%
X137922000Y-73406000D03*
X131422000Y-73406000D03*
X137922000Y-68906000D03*
X131422000Y-68906000D03*
%TD*%
D11*
%TO.C,R6*%
X96774000Y-69850000D03*
D14*
X104394000Y-69850000D03*
%TD*%
D11*
%TO.C,R8*%
X128016000Y-75184000D03*
D14*
X128016000Y-67564000D03*
%TD*%
D11*
%TO.C,R7*%
X132320000Y-87630000D03*
D14*
X132320000Y-95250000D03*
%TD*%
D12*
%TO.C,JP1*%
X98690000Y-116415000D03*
D13*
X98690000Y-113875000D03*
X98690000Y-111335000D03*
%TD*%
D11*
%TO.C,R3*%
X98400000Y-94720000D03*
D14*
X98400000Y-87100000D03*
%TD*%
D15*
%TO.C,J2*%
X81100000Y-75610000D03*
X81100000Y-122710000D03*
D10*
X82520000Y-115780000D03*
D11*
X82520000Y-113010000D03*
X82520000Y-110240000D03*
X82520000Y-107470000D03*
X82520000Y-104700000D03*
X82520000Y-101930000D03*
X82520000Y-99160000D03*
X82520000Y-96390000D03*
X82520000Y-93620000D03*
X82520000Y-90850000D03*
X82520000Y-88080000D03*
X82520000Y-85310000D03*
X82520000Y-82540000D03*
X79680000Y-114395000D03*
X79680000Y-111625000D03*
X79680000Y-108855000D03*
X79680000Y-106085000D03*
X79680000Y-103315000D03*
X79680000Y-100545000D03*
X79680000Y-97775000D03*
X79680000Y-95005000D03*
X79680000Y-92235000D03*
X79680000Y-89465000D03*
X79680000Y-86695000D03*
X79680000Y-83925000D03*
%TD*%
%TO.C,R12*%
X86980000Y-69420000D03*
D14*
X79360000Y-69420000D03*
%TD*%
D11*
%TO.C,R9*%
X102480000Y-73610000D03*
D14*
X102480000Y-81230000D03*
%TD*%
D11*
%TO.C,C9*%
X97890000Y-84070000D03*
X102890000Y-84070000D03*
%TD*%
D12*
%TO.C,JP6*%
X94488000Y-87630000D03*
D13*
X94488000Y-85090000D03*
X94488000Y-82550000D03*
%TD*%
D12*
%TO.C,J4*%
X95390000Y-77490000D03*
D13*
X92850000Y-77490000D03*
X90310000Y-77490000D03*
%TD*%
D10*
%TO.C,C6*%
X114320000Y-94310000D03*
D11*
X114320000Y-92310000D03*
%TD*%
D10*
%TO.C,C10*%
X130048000Y-112268000D03*
D11*
X130048000Y-110268000D03*
%TD*%
%TO.C,R4*%
X101220000Y-87420000D03*
D14*
X108840000Y-87420000D03*
%TD*%
D19*
%TO.C,SW2*%
X131422000Y-76780000D03*
X137922000Y-76780000D03*
X131422000Y-81280000D03*
X137922000Y-81280000D03*
%TD*%
D10*
%TO.C,U5*%
X134280000Y-98280000D03*
D14*
X131740000Y-98280000D03*
X129200000Y-98280000D03*
X126660000Y-98280000D03*
X124120000Y-98280000D03*
X121580000Y-98280000D03*
X119040000Y-98280000D03*
X116500000Y-98280000D03*
X116500000Y-105900000D03*
X119040000Y-105900000D03*
X121580000Y-105900000D03*
X124120000Y-105900000D03*
X126660000Y-105900000D03*
X129200000Y-105900000D03*
X131740000Y-105900000D03*
X134280000Y-105900000D03*
%TD*%
D10*
%TO.C,C5*%
X152400000Y-88138000D03*
D11*
X154400000Y-88138000D03*
%TD*%
D12*
%TO.C,JP4*%
X109150000Y-116470000D03*
D13*
X109150000Y-113930000D03*
X109150000Y-111390000D03*
%TD*%
D10*
%TO.C,C7*%
X104000000Y-93800000D03*
D11*
X102000000Y-93800000D03*
%TD*%
D20*
%TO.C,U1*%
X107970000Y-68255000D03*
X107970000Y-70255000D03*
X107970000Y-72255000D03*
X107970000Y-74255000D03*
X107970000Y-76255000D03*
X107970000Y-78255000D03*
X107970000Y-80255000D03*
X107970000Y-82255000D03*
D21*
X110570000Y-83755000D03*
X112570000Y-83755000D03*
X114570000Y-83755000D03*
X116570000Y-83755000D03*
X118570000Y-83755000D03*
X120570000Y-83755000D03*
D20*
X123170000Y-82255000D03*
X123170000Y-80255000D03*
X123170000Y-78255000D03*
X123170000Y-76255000D03*
X123170000Y-74255000D03*
X123170000Y-72255000D03*
X123170000Y-70255000D03*
X123170000Y-68255000D03*
%TD*%
D16*
%TO.C,U4*%
X144260000Y-117100000D03*
D17*
X146800000Y-100440000D03*
D18*
X144260000Y-100440000D03*
X141720000Y-100440000D03*
%TD*%
D10*
%TO.C,C8*%
X136130000Y-116140000D03*
D11*
X136130000Y-118140000D03*
%TD*%
D10*
%TO.C,C12*%
X137050000Y-94996000D03*
D11*
X137050000Y-92996000D03*
%TD*%
D12*
%TO.C,JP11*%
X114070000Y-116490000D03*
D13*
X114070000Y-113950000D03*
X114070000Y-111410000D03*
%TD*%
D10*
%TO.C,C14*%
X143256000Y-96774000D03*
D11*
X143256000Y-94774000D03*
%TD*%
D22*
%TO.C,J3*%
X153550000Y-77090000D03*
D23*
X159550000Y-77090000D03*
D24*
X156550000Y-72390000D03*
%TD*%
D11*
%TO.C,R1*%
X86868000Y-89662000D03*
D14*
X86868000Y-82042000D03*
%TD*%
D12*
%TO.C,JP8*%
X93620000Y-72460000D03*
D13*
X93620000Y-69920000D03*
%TD*%
D10*
%TO.C,C4*%
X94996000Y-92456000D03*
D11*
X92996000Y-92456000D03*
%TD*%
%TO.C,R5*%
X99300000Y-81200000D03*
D14*
X99300000Y-73580000D03*
%TD*%
D11*
%TO.C,R2*%
X86880000Y-79870000D03*
D14*
X86880000Y-72250000D03*
%TD*%
D12*
%TO.C,JP5*%
X90424000Y-87630000D03*
D13*
X90424000Y-85090000D03*
X90424000Y-82550000D03*
%TD*%
M02*
