%TF.GenerationSoftware,KiCad,Pcbnew,(6.0.2)*%
%TF.CreationDate,2022-07-30T21:02:22-05:00*%
%TF.ProjectId,WiFiModem,57694669-4d6f-4646-956d-2e6b69636164,rev?*%
%TF.SameCoordinates,Original*%
%TF.FileFunction,Legend,Top*%
%TF.FilePolarity,Positive*%
%FSLAX46Y46*%
G04 Gerber Fmt 4.6, Leading zero omitted, Abs format (unit mm)*
G04 Created by KiCad (PCBNEW (6.0.2)) date 2022-07-30 21:02:22*
%MOMM*%
%LPD*%
G01*
G04 APERTURE LIST*
%ADD10C,0.150000*%
%ADD11C,0.120000*%
G04 APERTURE END LIST*
D10*
X103442380Y-109392380D02*
X103109047Y-108916190D01*
X102870952Y-109392380D02*
X102870952Y-108392380D01*
X103251904Y-108392380D01*
X103347142Y-108440000D01*
X103394761Y-108487619D01*
X103442380Y-108582857D01*
X103442380Y-108725714D01*
X103394761Y-108820952D01*
X103347142Y-108868571D01*
X103251904Y-108916190D01*
X102870952Y-108916190D01*
X103728095Y-108392380D02*
X104299523Y-108392380D01*
X104013809Y-109392380D02*
X104013809Y-108392380D01*
X104585238Y-109344761D02*
X104728095Y-109392380D01*
X104966190Y-109392380D01*
X105061428Y-109344761D01*
X105109047Y-109297142D01*
X105156666Y-109201904D01*
X105156666Y-109106666D01*
X105109047Y-109011428D01*
X105061428Y-108963809D01*
X104966190Y-108916190D01*
X104775714Y-108868571D01*
X104680476Y-108820952D01*
X104632857Y-108773333D01*
X104585238Y-108678095D01*
X104585238Y-108582857D01*
X104632857Y-108487619D01*
X104680476Y-108440000D01*
X104775714Y-108392380D01*
X105013809Y-108392380D01*
X105156666Y-108440000D01*
X118137142Y-109432380D02*
X118137142Y-108432380D01*
X118375238Y-108432380D01*
X118518095Y-108480000D01*
X118613333Y-108575238D01*
X118660952Y-108670476D01*
X118708571Y-108860952D01*
X118708571Y-109003809D01*
X118660952Y-109194285D01*
X118613333Y-109289523D01*
X118518095Y-109384761D01*
X118375238Y-109432380D01*
X118137142Y-109432380D01*
X118994285Y-108432380D02*
X119565714Y-108432380D01*
X119280000Y-109432380D02*
X119280000Y-108432380D01*
X120470476Y-109432380D02*
X120137142Y-108956190D01*
X119899047Y-109432380D02*
X119899047Y-108432380D01*
X120280000Y-108432380D01*
X120375238Y-108480000D01*
X120422857Y-108527619D01*
X120470476Y-108622857D01*
X120470476Y-108765714D01*
X120422857Y-108860952D01*
X120375238Y-108908571D01*
X120280000Y-108956190D01*
X119899047Y-108956190D01*
X130963809Y-83100000D02*
X130868571Y-83052380D01*
X130725714Y-83052380D01*
X130582857Y-83100000D01*
X130487619Y-83195238D01*
X130440000Y-83290476D01*
X130392380Y-83480952D01*
X130392380Y-83623809D01*
X130440000Y-83814285D01*
X130487619Y-83909523D01*
X130582857Y-84004761D01*
X130725714Y-84052380D01*
X130820952Y-84052380D01*
X130963809Y-84004761D01*
X131011428Y-83957142D01*
X131011428Y-83623809D01*
X130820952Y-83623809D01*
X131440000Y-84052380D02*
X131440000Y-83052380D01*
X131820952Y-83052380D01*
X131916190Y-83100000D01*
X131963809Y-83147619D01*
X132011428Y-83242857D01*
X132011428Y-83385714D01*
X131963809Y-83480952D01*
X131916190Y-83528571D01*
X131820952Y-83576190D01*
X131440000Y-83576190D01*
X132440000Y-84052380D02*
X132440000Y-83052380D01*
X133106666Y-83052380D02*
X133297142Y-83052380D01*
X133392380Y-83100000D01*
X133487619Y-83195238D01*
X133535238Y-83385714D01*
X133535238Y-83719047D01*
X133487619Y-83909523D01*
X133392380Y-84004761D01*
X133297142Y-84052380D01*
X133106666Y-84052380D01*
X133011428Y-84004761D01*
X132916190Y-83909523D01*
X132868571Y-83719047D01*
X132868571Y-83385714D01*
X132916190Y-83195238D01*
X133011428Y-83100000D01*
X133106666Y-83052380D01*
X134154285Y-83052380D02*
X134249523Y-83052380D01*
X134344761Y-83100000D01*
X134392380Y-83147619D01*
X134440000Y-83242857D01*
X134487619Y-83433333D01*
X134487619Y-83671428D01*
X134440000Y-83861904D01*
X134392380Y-83957142D01*
X134344761Y-84004761D01*
X134249523Y-84052380D01*
X134154285Y-84052380D01*
X134059047Y-84004761D01*
X134011428Y-83957142D01*
X133963809Y-83861904D01*
X133916190Y-83671428D01*
X133916190Y-83433333D01*
X133963809Y-83242857D01*
X134011428Y-83147619D01*
X134059047Y-83100000D01*
X134154285Y-83052380D01*
X136685714Y-98502380D02*
X136114285Y-98502380D01*
X136400000Y-98502380D02*
X136400000Y-97502380D01*
X136304761Y-97645238D01*
X136209523Y-97740476D01*
X136114285Y-97788095D01*
X140433809Y-109182380D02*
X139957619Y-109182380D01*
X139957619Y-108182380D01*
X140767142Y-109182380D02*
X140767142Y-108182380D01*
X141100476Y-108896666D01*
X141433809Y-108182380D01*
X141433809Y-109182380D01*
X142433809Y-109182380D02*
X141862380Y-109182380D01*
X142148095Y-109182380D02*
X142148095Y-108182380D01*
X142052857Y-108325238D01*
X141957619Y-108420476D01*
X141862380Y-108468095D01*
X143386190Y-109182380D02*
X142814761Y-109182380D01*
X143100476Y-109182380D02*
X143100476Y-108182380D01*
X143005238Y-108325238D01*
X142910000Y-108420476D01*
X142814761Y-108468095D01*
X144338571Y-109182380D02*
X143767142Y-109182380D01*
X144052857Y-109182380D02*
X144052857Y-108182380D01*
X143957619Y-108325238D01*
X143862380Y-108420476D01*
X143767142Y-108468095D01*
X144671904Y-108182380D02*
X145338571Y-108182380D01*
X144910000Y-109182380D01*
X145719523Y-108801428D02*
X146481428Y-108801428D01*
X146862380Y-108182380D02*
X147481428Y-108182380D01*
X147148095Y-108563333D01*
X147290952Y-108563333D01*
X147386190Y-108610952D01*
X147433809Y-108658571D01*
X147481428Y-108753809D01*
X147481428Y-108991904D01*
X147433809Y-109087142D01*
X147386190Y-109134761D01*
X147290952Y-109182380D01*
X147005238Y-109182380D01*
X146910000Y-109134761D01*
X146862380Y-109087142D01*
X147910000Y-109087142D02*
X147957619Y-109134761D01*
X147910000Y-109182380D01*
X147862380Y-109134761D01*
X147910000Y-109087142D01*
X147910000Y-109182380D01*
X148290952Y-108182380D02*
X148910000Y-108182380D01*
X148576666Y-108563333D01*
X148719523Y-108563333D01*
X148814761Y-108610952D01*
X148862380Y-108658571D01*
X148910000Y-108753809D01*
X148910000Y-108991904D01*
X148862380Y-109087142D01*
X148814761Y-109134761D01*
X148719523Y-109182380D01*
X148433809Y-109182380D01*
X148338571Y-109134761D01*
X148290952Y-109087142D01*
X89844571Y-71969142D02*
X89844571Y-72302476D01*
X90368380Y-72302476D02*
X89368380Y-72302476D01*
X89368380Y-71826285D01*
X90368380Y-70969142D02*
X90368380Y-71445333D01*
X89368380Y-71445333D01*
X89368380Y-70445333D02*
X89368380Y-70254857D01*
X89416000Y-70159619D01*
X89511238Y-70064380D01*
X89701714Y-70016761D01*
X90035047Y-70016761D01*
X90225523Y-70064380D01*
X90320761Y-70159619D01*
X90368380Y-70254857D01*
X90368380Y-70445333D01*
X90320761Y-70540571D01*
X90225523Y-70635809D01*
X90035047Y-70683428D01*
X89701714Y-70683428D01*
X89511238Y-70635809D01*
X89416000Y-70540571D01*
X89368380Y-70445333D01*
X89368380Y-69683428D02*
X90368380Y-69445333D01*
X89654095Y-69254857D01*
X90368380Y-69064380D01*
X89368380Y-68826285D01*
X123263333Y-102592380D02*
X123263333Y-101592380D01*
X123596666Y-102306666D01*
X123930000Y-101592380D01*
X123930000Y-102592380D01*
X124358571Y-102306666D02*
X124834761Y-102306666D01*
X124263333Y-102592380D02*
X124596666Y-101592380D01*
X124930000Y-102592380D01*
X125168095Y-101592380D02*
X125834761Y-102592380D01*
X125834761Y-101592380D02*
X125168095Y-102592380D01*
X126168095Y-101687619D02*
X126215714Y-101640000D01*
X126310952Y-101592380D01*
X126549047Y-101592380D01*
X126644285Y-101640000D01*
X126691904Y-101687619D01*
X126739523Y-101782857D01*
X126739523Y-101878095D01*
X126691904Y-102020952D01*
X126120476Y-102592380D01*
X126739523Y-102592380D01*
X127072857Y-101592380D02*
X127691904Y-101592380D01*
X127358571Y-101973333D01*
X127501428Y-101973333D01*
X127596666Y-102020952D01*
X127644285Y-102068571D01*
X127691904Y-102163809D01*
X127691904Y-102401904D01*
X127644285Y-102497142D01*
X127596666Y-102544761D01*
X127501428Y-102592380D01*
X127215714Y-102592380D01*
X127120476Y-102544761D01*
X127072857Y-102497142D01*
X128072857Y-101687619D02*
X128120476Y-101640000D01*
X128215714Y-101592380D01*
X128453809Y-101592380D01*
X128549047Y-101640000D01*
X128596666Y-101687619D01*
X128644285Y-101782857D01*
X128644285Y-101878095D01*
X128596666Y-102020952D01*
X128025238Y-102592380D01*
X128644285Y-102592380D01*
X98393333Y-109352380D02*
X98060000Y-108876190D01*
X97821904Y-109352380D02*
X97821904Y-108352380D01*
X98202857Y-108352380D01*
X98298095Y-108400000D01*
X98345714Y-108447619D01*
X98393333Y-108542857D01*
X98393333Y-108685714D01*
X98345714Y-108780952D01*
X98298095Y-108828571D01*
X98202857Y-108876190D01*
X97821904Y-108876190D01*
X98726666Y-108352380D02*
X99393333Y-109352380D01*
X99393333Y-108352380D02*
X98726666Y-109352380D01*
X94541428Y-121092380D02*
X94779523Y-122092380D01*
X94970000Y-121378095D01*
X95160476Y-122092380D01*
X95398571Y-121092380D01*
X95779523Y-122092380D02*
X95779523Y-121092380D01*
X96589047Y-121568571D02*
X96255714Y-121568571D01*
X96255714Y-122092380D02*
X96255714Y-121092380D01*
X96731904Y-121092380D01*
X97112857Y-122092380D02*
X97112857Y-121092380D01*
X98350952Y-122092380D02*
X98350952Y-121092380D01*
X98684285Y-121806666D01*
X99017619Y-121092380D01*
X99017619Y-122092380D01*
X99684285Y-121092380D02*
X99874761Y-121092380D01*
X99970000Y-121140000D01*
X100065238Y-121235238D01*
X100112857Y-121425714D01*
X100112857Y-121759047D01*
X100065238Y-121949523D01*
X99970000Y-122044761D01*
X99874761Y-122092380D01*
X99684285Y-122092380D01*
X99589047Y-122044761D01*
X99493809Y-121949523D01*
X99446190Y-121759047D01*
X99446190Y-121425714D01*
X99493809Y-121235238D01*
X99589047Y-121140000D01*
X99684285Y-121092380D01*
X100541428Y-122092380D02*
X100541428Y-121092380D01*
X100779523Y-121092380D01*
X100922380Y-121140000D01*
X101017619Y-121235238D01*
X101065238Y-121330476D01*
X101112857Y-121520952D01*
X101112857Y-121663809D01*
X101065238Y-121854285D01*
X101017619Y-121949523D01*
X100922380Y-122044761D01*
X100779523Y-122092380D01*
X100541428Y-122092380D01*
X101541428Y-121568571D02*
X101874761Y-121568571D01*
X102017619Y-122092380D02*
X101541428Y-122092380D01*
X101541428Y-121092380D01*
X102017619Y-121092380D01*
X102446190Y-122092380D02*
X102446190Y-121092380D01*
X102779523Y-121806666D01*
X103112857Y-121092380D01*
X103112857Y-122092380D01*
X104684285Y-121568571D02*
X104827142Y-121616190D01*
X104874761Y-121663809D01*
X104922380Y-121759047D01*
X104922380Y-121901904D01*
X104874761Y-121997142D01*
X104827142Y-122044761D01*
X104731904Y-122092380D01*
X104350952Y-122092380D01*
X104350952Y-121092380D01*
X104684285Y-121092380D01*
X104779523Y-121140000D01*
X104827142Y-121187619D01*
X104874761Y-121282857D01*
X104874761Y-121378095D01*
X104827142Y-121473333D01*
X104779523Y-121520952D01*
X104684285Y-121568571D01*
X104350952Y-121568571D01*
X105541428Y-121616190D02*
X105541428Y-122092380D01*
X105208095Y-121092380D02*
X105541428Y-121616190D01*
X105874761Y-121092380D01*
X106970000Y-122092380D02*
X106970000Y-121092380D01*
X107208095Y-121092380D01*
X107350952Y-121140000D01*
X107446190Y-121235238D01*
X107493809Y-121330476D01*
X107541428Y-121520952D01*
X107541428Y-121663809D01*
X107493809Y-121854285D01*
X107446190Y-121949523D01*
X107350952Y-122044761D01*
X107208095Y-122092380D01*
X106970000Y-122092380D01*
X107922380Y-121806666D02*
X108398571Y-121806666D01*
X107827142Y-122092380D02*
X108160476Y-121092380D01*
X108493809Y-122092380D01*
X108827142Y-122092380D02*
X108827142Y-121092380D01*
X109398571Y-122092380D01*
X109398571Y-121092380D01*
X109874761Y-122092380D02*
X109874761Y-121092380D01*
X110350952Y-121568571D02*
X110684285Y-121568571D01*
X110827142Y-122092380D02*
X110350952Y-122092380D01*
X110350952Y-121092380D01*
X110827142Y-121092380D01*
X111731904Y-122092380D02*
X111255714Y-122092380D01*
X111255714Y-121092380D01*
X112827142Y-122092380D02*
X112827142Y-121092380D01*
X113160476Y-121806666D01*
X113493809Y-121092380D01*
X113493809Y-122092380D01*
X113922380Y-121806666D02*
X114398571Y-121806666D01*
X113827142Y-122092380D02*
X114160476Y-121092380D01*
X114493809Y-122092380D01*
X115398571Y-122092380D02*
X115065238Y-121616190D01*
X114827142Y-122092380D02*
X114827142Y-121092380D01*
X115208095Y-121092380D01*
X115303333Y-121140000D01*
X115350952Y-121187619D01*
X115398571Y-121282857D01*
X115398571Y-121425714D01*
X115350952Y-121520952D01*
X115303333Y-121568571D01*
X115208095Y-121616190D01*
X114827142Y-121616190D01*
X115827142Y-122092380D02*
X115827142Y-121092380D01*
X116398571Y-122092380D02*
X115970000Y-121520952D01*
X116398571Y-121092380D02*
X115827142Y-121663809D01*
X116779523Y-122044761D02*
X116922380Y-122092380D01*
X117160476Y-122092380D01*
X117255714Y-122044761D01*
X117303333Y-121997142D01*
X117350952Y-121901904D01*
X117350952Y-121806666D01*
X117303333Y-121711428D01*
X117255714Y-121663809D01*
X117160476Y-121616190D01*
X116970000Y-121568571D01*
X116874761Y-121520952D01*
X116827142Y-121473333D01*
X116779523Y-121378095D01*
X116779523Y-121282857D01*
X116827142Y-121187619D01*
X116874761Y-121140000D01*
X116970000Y-121092380D01*
X117208095Y-121092380D01*
X117350952Y-121140000D01*
X102065238Y-122702380D02*
X102398571Y-123702380D01*
X102731904Y-122702380D01*
X103065238Y-123178571D02*
X103398571Y-123178571D01*
X103541428Y-123702380D02*
X103065238Y-123702380D01*
X103065238Y-122702380D01*
X103541428Y-122702380D01*
X104541428Y-123702380D02*
X104208095Y-123226190D01*
X103970000Y-123702380D02*
X103970000Y-122702380D01*
X104350952Y-122702380D01*
X104446190Y-122750000D01*
X104493809Y-122797619D01*
X104541428Y-122892857D01*
X104541428Y-123035714D01*
X104493809Y-123130952D01*
X104446190Y-123178571D01*
X104350952Y-123226190D01*
X103970000Y-123226190D01*
X104922380Y-123654761D02*
X105065238Y-123702380D01*
X105303333Y-123702380D01*
X105398571Y-123654761D01*
X105446190Y-123607142D01*
X105493809Y-123511904D01*
X105493809Y-123416666D01*
X105446190Y-123321428D01*
X105398571Y-123273809D01*
X105303333Y-123226190D01*
X105112857Y-123178571D01*
X105017619Y-123130952D01*
X104970000Y-123083333D01*
X104922380Y-122988095D01*
X104922380Y-122892857D01*
X104970000Y-122797619D01*
X105017619Y-122750000D01*
X105112857Y-122702380D01*
X105350952Y-122702380D01*
X105493809Y-122750000D01*
X105922380Y-123702380D02*
X105922380Y-122702380D01*
X106589047Y-122702380D02*
X106779523Y-122702380D01*
X106874761Y-122750000D01*
X106970000Y-122845238D01*
X107017619Y-123035714D01*
X107017619Y-123369047D01*
X106970000Y-123559523D01*
X106874761Y-123654761D01*
X106779523Y-123702380D01*
X106589047Y-123702380D01*
X106493809Y-123654761D01*
X106398571Y-123559523D01*
X106350952Y-123369047D01*
X106350952Y-123035714D01*
X106398571Y-122845238D01*
X106493809Y-122750000D01*
X106589047Y-122702380D01*
X107446190Y-123702380D02*
X107446190Y-122702380D01*
X108017619Y-123702380D01*
X108017619Y-122702380D01*
X109208095Y-122797619D02*
X109255714Y-122750000D01*
X109350952Y-122702380D01*
X109589047Y-122702380D01*
X109684285Y-122750000D01*
X109731904Y-122797619D01*
X109779523Y-122892857D01*
X109779523Y-122988095D01*
X109731904Y-123130952D01*
X109160476Y-123702380D01*
X109779523Y-123702380D01*
X101136666Y-125217142D02*
X101089047Y-125264761D01*
X100946190Y-125312380D01*
X100850952Y-125312380D01*
X100708095Y-125264761D01*
X100612857Y-125169523D01*
X100565238Y-125074285D01*
X100517619Y-124883809D01*
X100517619Y-124740952D01*
X100565238Y-124550476D01*
X100612857Y-124455238D01*
X100708095Y-124360000D01*
X100850952Y-124312380D01*
X100946190Y-124312380D01*
X101089047Y-124360000D01*
X101136666Y-124407619D01*
X102136666Y-125217142D02*
X102089047Y-125264761D01*
X101946190Y-125312380D01*
X101850952Y-125312380D01*
X101708095Y-125264761D01*
X101612857Y-125169523D01*
X101565238Y-125074285D01*
X101517619Y-124883809D01*
X101517619Y-124740952D01*
X101565238Y-124550476D01*
X101612857Y-124455238D01*
X101708095Y-124360000D01*
X101850952Y-124312380D01*
X101946190Y-124312380D01*
X102089047Y-124360000D01*
X102136666Y-124407619D01*
X102565238Y-124931428D02*
X103327142Y-124931428D01*
X104136666Y-124788571D02*
X104279523Y-124836190D01*
X104327142Y-124883809D01*
X104374761Y-124979047D01*
X104374761Y-125121904D01*
X104327142Y-125217142D01*
X104279523Y-125264761D01*
X104184285Y-125312380D01*
X103803333Y-125312380D01*
X103803333Y-124312380D01*
X104136666Y-124312380D01*
X104231904Y-124360000D01*
X104279523Y-124407619D01*
X104327142Y-124502857D01*
X104327142Y-124598095D01*
X104279523Y-124693333D01*
X104231904Y-124740952D01*
X104136666Y-124788571D01*
X103803333Y-124788571D01*
X104993809Y-124836190D02*
X104993809Y-125312380D01*
X104660476Y-124312380D02*
X104993809Y-124836190D01*
X105327142Y-124312380D01*
X105660476Y-124931428D02*
X106422380Y-124931428D01*
X106850952Y-125264761D02*
X106993809Y-125312380D01*
X107231904Y-125312380D01*
X107327142Y-125264761D01*
X107374761Y-125217142D01*
X107422380Y-125121904D01*
X107422380Y-125026666D01*
X107374761Y-124931428D01*
X107327142Y-124883809D01*
X107231904Y-124836190D01*
X107041428Y-124788571D01*
X106946190Y-124740952D01*
X106898571Y-124693333D01*
X106850952Y-124598095D01*
X106850952Y-124502857D01*
X106898571Y-124407619D01*
X106946190Y-124360000D01*
X107041428Y-124312380D01*
X107279523Y-124312380D01*
X107422380Y-124360000D01*
X107803333Y-125026666D02*
X108279523Y-125026666D01*
X107708095Y-125312380D02*
X108041428Y-124312380D01*
X108374761Y-125312380D01*
X109898571Y-124645714D02*
X109898571Y-125312380D01*
X109660476Y-124264761D02*
X109422380Y-124979047D01*
X110041428Y-124979047D01*
X110422380Y-125217142D02*
X110470000Y-125264761D01*
X110422380Y-125312380D01*
X110374761Y-125264761D01*
X110422380Y-125217142D01*
X110422380Y-125312380D01*
X111089047Y-124312380D02*
X111184285Y-124312380D01*
X111279523Y-124360000D01*
X111327142Y-124407619D01*
X111374761Y-124502857D01*
X111422380Y-124693333D01*
X111422380Y-124931428D01*
X111374761Y-125121904D01*
X111327142Y-125217142D01*
X111279523Y-125264761D01*
X111184285Y-125312380D01*
X111089047Y-125312380D01*
X110993809Y-125264761D01*
X110946190Y-125217142D01*
X110898571Y-125121904D01*
X110850952Y-124931428D01*
X110850952Y-124693333D01*
X110898571Y-124502857D01*
X110946190Y-124407619D01*
X110993809Y-124360000D01*
X111089047Y-124312380D01*
X112355714Y-76128571D02*
X112689047Y-76128571D01*
X112831904Y-76652380D02*
X112355714Y-76652380D01*
X112355714Y-75652380D01*
X112831904Y-75652380D01*
X113212857Y-76604761D02*
X113355714Y-76652380D01*
X113593809Y-76652380D01*
X113689047Y-76604761D01*
X113736666Y-76557142D01*
X113784285Y-76461904D01*
X113784285Y-76366666D01*
X113736666Y-76271428D01*
X113689047Y-76223809D01*
X113593809Y-76176190D01*
X113403333Y-76128571D01*
X113308095Y-76080952D01*
X113260476Y-76033333D01*
X113212857Y-75938095D01*
X113212857Y-75842857D01*
X113260476Y-75747619D01*
X113308095Y-75700000D01*
X113403333Y-75652380D01*
X113641428Y-75652380D01*
X113784285Y-75700000D01*
X114212857Y-76652380D02*
X114212857Y-75652380D01*
X114593809Y-75652380D01*
X114689047Y-75700000D01*
X114736666Y-75747619D01*
X114784285Y-75842857D01*
X114784285Y-75985714D01*
X114736666Y-76080952D01*
X114689047Y-76128571D01*
X114593809Y-76176190D01*
X114212857Y-76176190D01*
X115212857Y-76271428D02*
X115974761Y-76271428D01*
X116974761Y-76652380D02*
X116403333Y-76652380D01*
X116689047Y-76652380D02*
X116689047Y-75652380D01*
X116593809Y-75795238D01*
X116498571Y-75890476D01*
X116403333Y-75938095D01*
X117355714Y-75747619D02*
X117403333Y-75700000D01*
X117498571Y-75652380D01*
X117736666Y-75652380D01*
X117831904Y-75700000D01*
X117879523Y-75747619D01*
X117927142Y-75842857D01*
X117927142Y-75938095D01*
X117879523Y-76080952D01*
X117308095Y-76652380D01*
X117927142Y-76652380D01*
X118355714Y-76128571D02*
X118689047Y-76128571D01*
X118831904Y-76652380D02*
X118355714Y-76652380D01*
X118355714Y-75652380D01*
X118831904Y-75652380D01*
X112911904Y-109432380D02*
X112911904Y-108432380D01*
X113150000Y-108432380D01*
X113292857Y-108480000D01*
X113388095Y-108575238D01*
X113435714Y-108670476D01*
X113483333Y-108860952D01*
X113483333Y-109003809D01*
X113435714Y-109194285D01*
X113388095Y-109289523D01*
X113292857Y-109384761D01*
X113150000Y-109432380D01*
X112911904Y-109432380D01*
X113864285Y-109384761D02*
X114007142Y-109432380D01*
X114245238Y-109432380D01*
X114340476Y-109384761D01*
X114388095Y-109337142D01*
X114435714Y-109241904D01*
X114435714Y-109146666D01*
X114388095Y-109051428D01*
X114340476Y-109003809D01*
X114245238Y-108956190D01*
X114054761Y-108908571D01*
X113959523Y-108860952D01*
X113911904Y-108813333D01*
X113864285Y-108718095D01*
X113864285Y-108622857D01*
X113911904Y-108527619D01*
X113959523Y-108480000D01*
X114054761Y-108432380D01*
X114292857Y-108432380D01*
X114435714Y-108480000D01*
X115435714Y-109432380D02*
X115102380Y-108956190D01*
X114864285Y-109432380D02*
X114864285Y-108432380D01*
X115245238Y-108432380D01*
X115340476Y-108480000D01*
X115388095Y-108527619D01*
X115435714Y-108622857D01*
X115435714Y-108765714D01*
X115388095Y-108860952D01*
X115340476Y-108908571D01*
X115245238Y-108956190D01*
X114864285Y-108956190D01*
X92543333Y-75382380D02*
X92210000Y-74906190D01*
X91971904Y-75382380D02*
X91971904Y-74382380D01*
X92352857Y-74382380D01*
X92448095Y-74430000D01*
X92495714Y-74477619D01*
X92543333Y-74572857D01*
X92543333Y-74715714D01*
X92495714Y-74810952D01*
X92448095Y-74858571D01*
X92352857Y-74906190D01*
X91971904Y-74906190D01*
X92876666Y-74382380D02*
X93543333Y-75382380D01*
X93543333Y-74382380D02*
X92876666Y-75382380D01*
X160088571Y-113233809D02*
X160088571Y-113567142D01*
X160612380Y-113567142D02*
X159612380Y-113567142D01*
X159612380Y-113090952D01*
X160088571Y-112710000D02*
X160088571Y-112376666D01*
X160612380Y-112233809D02*
X160612380Y-112710000D01*
X159612380Y-112710000D01*
X159612380Y-112233809D01*
X160612380Y-111805238D02*
X159612380Y-111805238D01*
X160326666Y-111471904D01*
X159612380Y-111138571D01*
X160612380Y-111138571D01*
X160326666Y-110710000D02*
X160326666Y-110233809D01*
X160612380Y-110805238D02*
X159612380Y-110471904D01*
X160612380Y-110138571D01*
X160612380Y-109329047D02*
X160612380Y-109805238D01*
X159612380Y-109805238D01*
X160088571Y-108995714D02*
X160088571Y-108662380D01*
X160612380Y-108519523D02*
X160612380Y-108995714D01*
X159612380Y-108995714D01*
X159612380Y-108519523D01*
X160612380Y-107329047D02*
X159612380Y-107329047D01*
X159612380Y-107090952D01*
X159660000Y-106948095D01*
X159755238Y-106852857D01*
X159850476Y-106805238D01*
X160040952Y-106757619D01*
X160183809Y-106757619D01*
X160374285Y-106805238D01*
X160469523Y-106852857D01*
X160564761Y-106948095D01*
X160612380Y-107090952D01*
X160612380Y-107329047D01*
X160088571Y-105995714D02*
X160136190Y-105852857D01*
X160183809Y-105805238D01*
X160279047Y-105757619D01*
X160421904Y-105757619D01*
X160517142Y-105805238D01*
X160564761Y-105852857D01*
X160612380Y-105948095D01*
X160612380Y-106329047D01*
X159612380Y-106329047D01*
X159612380Y-105995714D01*
X159660000Y-105900476D01*
X159707619Y-105852857D01*
X159802857Y-105805238D01*
X159898095Y-105805238D01*
X159993333Y-105852857D01*
X160040952Y-105900476D01*
X160088571Y-105995714D01*
X160088571Y-106329047D01*
X160612380Y-105281428D02*
X160612380Y-105090952D01*
X160564761Y-104995714D01*
X160517142Y-104948095D01*
X160374285Y-104852857D01*
X160183809Y-104805238D01*
X159802857Y-104805238D01*
X159707619Y-104852857D01*
X159660000Y-104900476D01*
X159612380Y-104995714D01*
X159612380Y-105186190D01*
X159660000Y-105281428D01*
X159707619Y-105329047D01*
X159802857Y-105376666D01*
X160040952Y-105376666D01*
X160136190Y-105329047D01*
X160183809Y-105281428D01*
X160231428Y-105186190D01*
X160231428Y-104995714D01*
X160183809Y-104900476D01*
X160136190Y-104852857D01*
X160040952Y-104805238D01*
X121944095Y-109418380D02*
X121944095Y-108418380D01*
X122182190Y-108418380D01*
X122325047Y-108466000D01*
X122420285Y-108561238D01*
X122467904Y-108656476D01*
X122515523Y-108846952D01*
X122515523Y-108989809D01*
X122467904Y-109180285D01*
X122420285Y-109275523D01*
X122325047Y-109370761D01*
X122182190Y-109418380D01*
X121944095Y-109418380D01*
X123515523Y-109323142D02*
X123467904Y-109370761D01*
X123325047Y-109418380D01*
X123229809Y-109418380D01*
X123086952Y-109370761D01*
X122991714Y-109275523D01*
X122944095Y-109180285D01*
X122896476Y-108989809D01*
X122896476Y-108846952D01*
X122944095Y-108656476D01*
X122991714Y-108561238D01*
X123086952Y-108466000D01*
X123229809Y-108418380D01*
X123325047Y-108418380D01*
X123467904Y-108466000D01*
X123515523Y-108513619D01*
X123944095Y-109418380D02*
X123944095Y-108418380D01*
X124182190Y-108418380D01*
X124325047Y-108466000D01*
X124420285Y-108561238D01*
X124467904Y-108656476D01*
X124515523Y-108846952D01*
X124515523Y-108989809D01*
X124467904Y-109180285D01*
X124420285Y-109275523D01*
X124325047Y-109370761D01*
X124182190Y-109418380D01*
X123944095Y-109418380D01*
X125277428Y-108894571D02*
X125420285Y-108942190D01*
X125467904Y-108989809D01*
X125515523Y-109085047D01*
X125515523Y-109227904D01*
X125467904Y-109323142D01*
X125420285Y-109370761D01*
X125325047Y-109418380D01*
X124944095Y-109418380D01*
X124944095Y-108418380D01*
X125277428Y-108418380D01*
X125372666Y-108466000D01*
X125420285Y-108513619D01*
X125467904Y-108608857D01*
X125467904Y-108704095D01*
X125420285Y-108799333D01*
X125372666Y-108846952D01*
X125277428Y-108894571D01*
X124944095Y-108894571D01*
X126515523Y-109418380D02*
X126182190Y-108942190D01*
X125944095Y-109418380D02*
X125944095Y-108418380D01*
X126325047Y-108418380D01*
X126420285Y-108466000D01*
X126467904Y-108513619D01*
X126515523Y-108608857D01*
X126515523Y-108751714D01*
X126467904Y-108846952D01*
X126420285Y-108894571D01*
X126325047Y-108942190D01*
X125944095Y-108942190D01*
X75671428Y-92920000D02*
X75671428Y-92586666D01*
X75147619Y-92586666D02*
X76147619Y-92586666D01*
X76147619Y-93062857D01*
X75671428Y-93443809D02*
X75671428Y-93777142D01*
X75147619Y-93920000D02*
X75147619Y-93443809D01*
X76147619Y-93443809D01*
X76147619Y-93920000D01*
X75147619Y-94348571D02*
X76147619Y-94348571D01*
X75433333Y-94681904D01*
X76147619Y-95015238D01*
X75147619Y-95015238D01*
X75433333Y-95443809D02*
X75433333Y-95920000D01*
X75147619Y-95348571D02*
X76147619Y-95681904D01*
X75147619Y-96015238D01*
X75147619Y-96824761D02*
X75147619Y-96348571D01*
X76147619Y-96348571D01*
X75671428Y-97158095D02*
X75671428Y-97491428D01*
X75147619Y-97634285D02*
X75147619Y-97158095D01*
X76147619Y-97158095D01*
X76147619Y-97634285D01*
X75147619Y-98824761D02*
X76147619Y-98824761D01*
X76147619Y-99062857D01*
X76100000Y-99205714D01*
X76004761Y-99300952D01*
X75909523Y-99348571D01*
X75719047Y-99396190D01*
X75576190Y-99396190D01*
X75385714Y-99348571D01*
X75290476Y-99300952D01*
X75195238Y-99205714D01*
X75147619Y-99062857D01*
X75147619Y-98824761D01*
X75671428Y-100158095D02*
X75623809Y-100300952D01*
X75576190Y-100348571D01*
X75480952Y-100396190D01*
X75338095Y-100396190D01*
X75242857Y-100348571D01*
X75195238Y-100300952D01*
X75147619Y-100205714D01*
X75147619Y-99824761D01*
X76147619Y-99824761D01*
X76147619Y-100158095D01*
X76100000Y-100253333D01*
X76052380Y-100300952D01*
X75957142Y-100348571D01*
X75861904Y-100348571D01*
X75766666Y-100300952D01*
X75719047Y-100253333D01*
X75671428Y-100158095D01*
X75671428Y-99824761D01*
X76052380Y-100777142D02*
X76100000Y-100824761D01*
X76147619Y-100920000D01*
X76147619Y-101158095D01*
X76100000Y-101253333D01*
X76052380Y-101300952D01*
X75957142Y-101348571D01*
X75861904Y-101348571D01*
X75719047Y-101300952D01*
X75147619Y-100729523D01*
X75147619Y-101348571D01*
X76147619Y-102253333D02*
X76147619Y-101777142D01*
X75671428Y-101729523D01*
X75719047Y-101777142D01*
X75766666Y-101872380D01*
X75766666Y-102110476D01*
X75719047Y-102205714D01*
X75671428Y-102253333D01*
X75576190Y-102300952D01*
X75338095Y-102300952D01*
X75242857Y-102253333D01*
X75195238Y-102205714D01*
X75147619Y-102110476D01*
X75147619Y-101872380D01*
X75195238Y-101777142D01*
X75242857Y-101729523D01*
X92268095Y-108352380D02*
X92839523Y-108352380D01*
X92553809Y-109352380D02*
X92553809Y-108352380D01*
X93077619Y-108352380D02*
X93744285Y-109352380D01*
X93744285Y-108352380D02*
X93077619Y-109352380D01*
X133497619Y-67252380D02*
X133164285Y-66776190D01*
X132926190Y-67252380D02*
X132926190Y-66252380D01*
X133307142Y-66252380D01*
X133402380Y-66300000D01*
X133450000Y-66347619D01*
X133497619Y-66442857D01*
X133497619Y-66585714D01*
X133450000Y-66680952D01*
X133402380Y-66728571D01*
X133307142Y-66776190D01*
X132926190Y-66776190D01*
X133926190Y-66728571D02*
X134259523Y-66728571D01*
X134402380Y-67252380D02*
X133926190Y-67252380D01*
X133926190Y-66252380D01*
X134402380Y-66252380D01*
X134783333Y-67204761D02*
X134926190Y-67252380D01*
X135164285Y-67252380D01*
X135259523Y-67204761D01*
X135307142Y-67157142D01*
X135354761Y-67061904D01*
X135354761Y-66966666D01*
X135307142Y-66871428D01*
X135259523Y-66823809D01*
X135164285Y-66776190D01*
X134973809Y-66728571D01*
X134878571Y-66680952D01*
X134830952Y-66633333D01*
X134783333Y-66538095D01*
X134783333Y-66442857D01*
X134830952Y-66347619D01*
X134878571Y-66300000D01*
X134973809Y-66252380D01*
X135211904Y-66252380D01*
X135354761Y-66300000D01*
X135783333Y-66728571D02*
X136116666Y-66728571D01*
X136259523Y-67252380D02*
X135783333Y-67252380D01*
X135783333Y-66252380D01*
X136259523Y-66252380D01*
X136545238Y-66252380D02*
X137116666Y-66252380D01*
X136830952Y-67252380D02*
X136830952Y-66252380D01*
X88185714Y-111852380D02*
X88185714Y-110852380D01*
X88423809Y-110852380D01*
X88566666Y-110900000D01*
X88661904Y-110995238D01*
X88709523Y-111090476D01*
X88757142Y-111280952D01*
X88757142Y-111423809D01*
X88709523Y-111614285D01*
X88661904Y-111709523D01*
X88566666Y-111804761D01*
X88423809Y-111852380D01*
X88185714Y-111852380D01*
X89757142Y-111757142D02*
X89709523Y-111804761D01*
X89566666Y-111852380D01*
X89471428Y-111852380D01*
X89328571Y-111804761D01*
X89233333Y-111709523D01*
X89185714Y-111614285D01*
X89138095Y-111423809D01*
X89138095Y-111280952D01*
X89185714Y-111090476D01*
X89233333Y-110995238D01*
X89328571Y-110900000D01*
X89471428Y-110852380D01*
X89566666Y-110852380D01*
X89709523Y-110900000D01*
X89757142Y-110947619D01*
X90185714Y-111328571D02*
X90519047Y-111328571D01*
X90661904Y-111852380D02*
X90185714Y-111852380D01*
X90185714Y-110852380D01*
X90661904Y-110852380D01*
X95123095Y-74430000D02*
X95027857Y-74382380D01*
X94885000Y-74382380D01*
X94742142Y-74430000D01*
X94646904Y-74525238D01*
X94599285Y-74620476D01*
X94551666Y-74810952D01*
X94551666Y-74953809D01*
X94599285Y-75144285D01*
X94646904Y-75239523D01*
X94742142Y-75334761D01*
X94885000Y-75382380D01*
X94980238Y-75382380D01*
X95123095Y-75334761D01*
X95170714Y-75287142D01*
X95170714Y-74953809D01*
X94980238Y-74953809D01*
X95599285Y-75382380D02*
X95599285Y-74382380D01*
X96170714Y-75382380D01*
X96170714Y-74382380D01*
X96646904Y-75382380D02*
X96646904Y-74382380D01*
X96885000Y-74382380D01*
X97027857Y-74430000D01*
X97123095Y-74525238D01*
X97170714Y-74620476D01*
X97218333Y-74810952D01*
X97218333Y-74953809D01*
X97170714Y-75144285D01*
X97123095Y-75239523D01*
X97027857Y-75334761D01*
X96885000Y-75382380D01*
X96646904Y-75382380D01*
X88374761Y-116722380D02*
X88374761Y-115722380D01*
X88612857Y-115722380D01*
X88755714Y-115770000D01*
X88850952Y-115865238D01*
X88898571Y-115960476D01*
X88946190Y-116150952D01*
X88946190Y-116293809D01*
X88898571Y-116484285D01*
X88850952Y-116579523D01*
X88755714Y-116674761D01*
X88612857Y-116722380D01*
X88374761Y-116722380D01*
X89231904Y-115722380D02*
X89803333Y-115722380D01*
X89517619Y-116722380D02*
X89517619Y-115722380D01*
X90136666Y-116198571D02*
X90470000Y-116198571D01*
X90612857Y-116722380D02*
X90136666Y-116722380D01*
X90136666Y-115722380D01*
X90612857Y-115722380D01*
X108482380Y-109297142D02*
X108434761Y-109344761D01*
X108291904Y-109392380D01*
X108196666Y-109392380D01*
X108053809Y-109344761D01*
X107958571Y-109249523D01*
X107910952Y-109154285D01*
X107863333Y-108963809D01*
X107863333Y-108820952D01*
X107910952Y-108630476D01*
X107958571Y-108535238D01*
X108053809Y-108440000D01*
X108196666Y-108392380D01*
X108291904Y-108392380D01*
X108434761Y-108440000D01*
X108482380Y-108487619D01*
X108768095Y-108392380D02*
X109339523Y-108392380D01*
X109053809Y-109392380D02*
X109053809Y-108392380D01*
X109625238Y-109344761D02*
X109768095Y-109392380D01*
X110006190Y-109392380D01*
X110101428Y-109344761D01*
X110149047Y-109297142D01*
X110196666Y-109201904D01*
X110196666Y-109106666D01*
X110149047Y-109011428D01*
X110101428Y-108963809D01*
X110006190Y-108916190D01*
X109815714Y-108868571D01*
X109720476Y-108820952D01*
X109672857Y-108773333D01*
X109625238Y-108678095D01*
X109625238Y-108582857D01*
X109672857Y-108487619D01*
X109720476Y-108440000D01*
X109815714Y-108392380D01*
X110053809Y-108392380D01*
X110196666Y-108440000D01*
X98063333Y-102642380D02*
X98063333Y-101642380D01*
X98396666Y-102356666D01*
X98730000Y-101642380D01*
X98730000Y-102642380D01*
X99158571Y-102356666D02*
X99634761Y-102356666D01*
X99063333Y-102642380D02*
X99396666Y-101642380D01*
X99730000Y-102642380D01*
X99968095Y-101642380D02*
X100634761Y-102642380D01*
X100634761Y-101642380D02*
X99968095Y-102642380D01*
X100968095Y-101737619D02*
X101015714Y-101690000D01*
X101110952Y-101642380D01*
X101349047Y-101642380D01*
X101444285Y-101690000D01*
X101491904Y-101737619D01*
X101539523Y-101832857D01*
X101539523Y-101928095D01*
X101491904Y-102070952D01*
X100920476Y-102642380D01*
X101539523Y-102642380D01*
X101872857Y-101642380D02*
X102491904Y-101642380D01*
X102158571Y-102023333D01*
X102301428Y-102023333D01*
X102396666Y-102070952D01*
X102444285Y-102118571D01*
X102491904Y-102213809D01*
X102491904Y-102451904D01*
X102444285Y-102547142D01*
X102396666Y-102594761D01*
X102301428Y-102642380D01*
X102015714Y-102642380D01*
X101920476Y-102594761D01*
X101872857Y-102547142D01*
X102872857Y-101737619D02*
X102920476Y-101690000D01*
X103015714Y-101642380D01*
X103253809Y-101642380D01*
X103349047Y-101690000D01*
X103396666Y-101737619D01*
X103444285Y-101832857D01*
X103444285Y-101928095D01*
X103396666Y-102070952D01*
X102825238Y-102642380D01*
X103444285Y-102642380D01*
X143183333Y-82722380D02*
X142707142Y-82722380D01*
X142707142Y-81722380D01*
X143516666Y-82722380D02*
X143516666Y-81722380D01*
X143850000Y-82436666D01*
X144183333Y-81722380D01*
X144183333Y-82722380D01*
X144564285Y-81722380D02*
X145230952Y-81722380D01*
X144802380Y-82722380D01*
X145754761Y-82150952D02*
X145659523Y-82103333D01*
X145611904Y-82055714D01*
X145564285Y-81960476D01*
X145564285Y-81912857D01*
X145611904Y-81817619D01*
X145659523Y-81770000D01*
X145754761Y-81722380D01*
X145945238Y-81722380D01*
X146040476Y-81770000D01*
X146088095Y-81817619D01*
X146135714Y-81912857D01*
X146135714Y-81960476D01*
X146088095Y-82055714D01*
X146040476Y-82103333D01*
X145945238Y-82150952D01*
X145754761Y-82150952D01*
X145659523Y-82198571D01*
X145611904Y-82246190D01*
X145564285Y-82341428D01*
X145564285Y-82531904D01*
X145611904Y-82627142D01*
X145659523Y-82674761D01*
X145754761Y-82722380D01*
X145945238Y-82722380D01*
X146040476Y-82674761D01*
X146088095Y-82627142D01*
X146135714Y-82531904D01*
X146135714Y-82341428D01*
X146088095Y-82246190D01*
X146040476Y-82198571D01*
X145945238Y-82150952D01*
X146754761Y-81722380D02*
X146850000Y-81722380D01*
X146945238Y-81770000D01*
X146992857Y-81817619D01*
X147040476Y-81912857D01*
X147088095Y-82103333D01*
X147088095Y-82341428D01*
X147040476Y-82531904D01*
X146992857Y-82627142D01*
X146945238Y-82674761D01*
X146850000Y-82722380D01*
X146754761Y-82722380D01*
X146659523Y-82674761D01*
X146611904Y-82627142D01*
X146564285Y-82531904D01*
X146516666Y-82341428D01*
X146516666Y-82103333D01*
X146564285Y-81912857D01*
X146611904Y-81817619D01*
X146659523Y-81770000D01*
X146754761Y-81722380D01*
X147992857Y-81722380D02*
X147516666Y-81722380D01*
X147469047Y-82198571D01*
X147516666Y-82150952D01*
X147611904Y-82103333D01*
X147850000Y-82103333D01*
X147945238Y-82150952D01*
X147992857Y-82198571D01*
X148040476Y-82293809D01*
X148040476Y-82531904D01*
X147992857Y-82627142D01*
X147945238Y-82674761D01*
X147850000Y-82722380D01*
X147611904Y-82722380D01*
X147516666Y-82674761D01*
X147469047Y-82627142D01*
X150914761Y-67992380D02*
X151581428Y-67992380D01*
X151152857Y-68992380D01*
X151962380Y-68611428D02*
X152724285Y-68611428D01*
X153724285Y-68992380D02*
X153152857Y-68992380D01*
X153438571Y-68992380D02*
X153438571Y-67992380D01*
X153343333Y-68135238D01*
X153248095Y-68230476D01*
X153152857Y-68278095D01*
X154105238Y-68087619D02*
X154152857Y-68040000D01*
X154248095Y-67992380D01*
X154486190Y-67992380D01*
X154581428Y-68040000D01*
X154629047Y-68087619D01*
X154676666Y-68182857D01*
X154676666Y-68278095D01*
X154629047Y-68420952D01*
X154057619Y-68992380D01*
X154676666Y-68992380D01*
X154962380Y-67992380D02*
X155295714Y-68992380D01*
X155629047Y-67992380D01*
X155962380Y-68992380D02*
X155962380Y-67992380D01*
X156200476Y-67992380D01*
X156343333Y-68040000D01*
X156438571Y-68135238D01*
X156486190Y-68230476D01*
X156533809Y-68420952D01*
X156533809Y-68563809D01*
X156486190Y-68754285D01*
X156438571Y-68849523D01*
X156343333Y-68944761D01*
X156200476Y-68992380D01*
X155962380Y-68992380D01*
X157533809Y-68897142D02*
X157486190Y-68944761D01*
X157343333Y-68992380D01*
X157248095Y-68992380D01*
X157105238Y-68944761D01*
X157010000Y-68849523D01*
X156962380Y-68754285D01*
X156914761Y-68563809D01*
X156914761Y-68420952D01*
X156962380Y-68230476D01*
X157010000Y-68135238D01*
X157105238Y-68040000D01*
X157248095Y-67992380D01*
X157343333Y-67992380D01*
X157486190Y-68040000D01*
X157533809Y-68087619D01*
X158724285Y-68992380D02*
X158724285Y-67992380D01*
X159105238Y-67992380D01*
X159200476Y-68040000D01*
X159248095Y-68087619D01*
X159295714Y-68182857D01*
X159295714Y-68325714D01*
X159248095Y-68420952D01*
X159200476Y-68468571D01*
X159105238Y-68516190D01*
X158724285Y-68516190D01*
X159724285Y-68992380D02*
X159724285Y-67992380D01*
X160200476Y-68992380D02*
X160200476Y-67992380D01*
X160771904Y-68992380D01*
X160771904Y-67992380D01*
X161248095Y-68611428D02*
X162010000Y-68611428D01*
X161629047Y-68992380D02*
X161629047Y-68230476D01*
X111815714Y-98942380D02*
X111244285Y-98942380D01*
X111530000Y-98942380D02*
X111530000Y-97942380D01*
X111434761Y-98085238D01*
X111339523Y-98180476D01*
X111244285Y-98228095D01*
X89408095Y-74382380D02*
X89979523Y-74382380D01*
X89693809Y-75382380D02*
X89693809Y-74382380D01*
X90217619Y-74382380D02*
X90884285Y-75382380D01*
X90884285Y-74382380D02*
X90217619Y-75382380D01*
%TO.C,C13*%
X135337142Y-108437142D02*
X135289523Y-108484761D01*
X135146666Y-108532380D01*
X135051428Y-108532380D01*
X134908571Y-108484761D01*
X134813333Y-108389523D01*
X134765714Y-108294285D01*
X134718095Y-108103809D01*
X134718095Y-107960952D01*
X134765714Y-107770476D01*
X134813333Y-107675238D01*
X134908571Y-107580000D01*
X135051428Y-107532380D01*
X135146666Y-107532380D01*
X135289523Y-107580000D01*
X135337142Y-107627619D01*
X136289523Y-108532380D02*
X135718095Y-108532380D01*
X136003809Y-108532380D02*
X136003809Y-107532380D01*
X135908571Y-107675238D01*
X135813333Y-107770476D01*
X135718095Y-107818095D01*
X136622857Y-107532380D02*
X137241904Y-107532380D01*
X136908571Y-107913333D01*
X137051428Y-107913333D01*
X137146666Y-107960952D01*
X137194285Y-108008571D01*
X137241904Y-108103809D01*
X137241904Y-108341904D01*
X137194285Y-108437142D01*
X137146666Y-108484761D01*
X137051428Y-108532380D01*
X136765714Y-108532380D01*
X136670476Y-108484761D01*
X136622857Y-108437142D01*
%TO.C,JP3*%
X103146666Y-118227380D02*
X103146666Y-118941666D01*
X103099047Y-119084523D01*
X103003809Y-119179761D01*
X102860952Y-119227380D01*
X102765714Y-119227380D01*
X103622857Y-119227380D02*
X103622857Y-118227380D01*
X104003809Y-118227380D01*
X104099047Y-118275000D01*
X104146666Y-118322619D01*
X104194285Y-118417857D01*
X104194285Y-118560714D01*
X104146666Y-118655952D01*
X104099047Y-118703571D01*
X104003809Y-118751190D01*
X103622857Y-118751190D01*
X104527619Y-118227380D02*
X105146666Y-118227380D01*
X104813333Y-118608333D01*
X104956190Y-118608333D01*
X105051428Y-118655952D01*
X105099047Y-118703571D01*
X105146666Y-118798809D01*
X105146666Y-119036904D01*
X105099047Y-119132142D01*
X105051428Y-119179761D01*
X104956190Y-119227380D01*
X104670476Y-119227380D01*
X104575238Y-119179761D01*
X104527619Y-119132142D01*
%TO.C,JP2*%
X92466666Y-118217380D02*
X92466666Y-118931666D01*
X92419047Y-119074523D01*
X92323809Y-119169761D01*
X92180952Y-119217380D01*
X92085714Y-119217380D01*
X92942857Y-119217380D02*
X92942857Y-118217380D01*
X93323809Y-118217380D01*
X93419047Y-118265000D01*
X93466666Y-118312619D01*
X93514285Y-118407857D01*
X93514285Y-118550714D01*
X93466666Y-118645952D01*
X93419047Y-118693571D01*
X93323809Y-118741190D01*
X92942857Y-118741190D01*
X93895238Y-118312619D02*
X93942857Y-118265000D01*
X94038095Y-118217380D01*
X94276190Y-118217380D01*
X94371428Y-118265000D01*
X94419047Y-118312619D01*
X94466666Y-118407857D01*
X94466666Y-118503095D01*
X94419047Y-118645952D01*
X93847619Y-119217380D01*
X94466666Y-119217380D01*
%TO.C,R10*%
X114397142Y-87872380D02*
X114063809Y-87396190D01*
X113825714Y-87872380D02*
X113825714Y-86872380D01*
X114206666Y-86872380D01*
X114301904Y-86920000D01*
X114349523Y-86967619D01*
X114397142Y-87062857D01*
X114397142Y-87205714D01*
X114349523Y-87300952D01*
X114301904Y-87348571D01*
X114206666Y-87396190D01*
X113825714Y-87396190D01*
X115349523Y-87872380D02*
X114778095Y-87872380D01*
X115063809Y-87872380D02*
X115063809Y-86872380D01*
X114968571Y-87015238D01*
X114873333Y-87110476D01*
X114778095Y-87158095D01*
X115968571Y-86872380D02*
X116063809Y-86872380D01*
X116159047Y-86920000D01*
X116206666Y-86967619D01*
X116254285Y-87062857D01*
X116301904Y-87253333D01*
X116301904Y-87491428D01*
X116254285Y-87681904D01*
X116206666Y-87777142D01*
X116159047Y-87824761D01*
X116063809Y-87872380D01*
X115968571Y-87872380D01*
X115873333Y-87824761D01*
X115825714Y-87777142D01*
X115778095Y-87681904D01*
X115730476Y-87491428D01*
X115730476Y-87253333D01*
X115778095Y-87062857D01*
X115825714Y-86967619D01*
X115873333Y-86920000D01*
X115968571Y-86872380D01*
%TO.C,JP10*%
X117850476Y-118257380D02*
X117850476Y-118971666D01*
X117802857Y-119114523D01*
X117707619Y-119209761D01*
X117564761Y-119257380D01*
X117469523Y-119257380D01*
X118326666Y-119257380D02*
X118326666Y-118257380D01*
X118707619Y-118257380D01*
X118802857Y-118305000D01*
X118850476Y-118352619D01*
X118898095Y-118447857D01*
X118898095Y-118590714D01*
X118850476Y-118685952D01*
X118802857Y-118733571D01*
X118707619Y-118781190D01*
X118326666Y-118781190D01*
X119850476Y-119257380D02*
X119279047Y-119257380D01*
X119564761Y-119257380D02*
X119564761Y-118257380D01*
X119469523Y-118400238D01*
X119374285Y-118495476D01*
X119279047Y-118543095D01*
X120469523Y-118257380D02*
X120564761Y-118257380D01*
X120660000Y-118305000D01*
X120707619Y-118352619D01*
X120755238Y-118447857D01*
X120802857Y-118638333D01*
X120802857Y-118876428D01*
X120755238Y-119066904D01*
X120707619Y-119162142D01*
X120660000Y-119209761D01*
X120564761Y-119257380D01*
X120469523Y-119257380D01*
X120374285Y-119209761D01*
X120326666Y-119162142D01*
X120279047Y-119066904D01*
X120231428Y-118876428D01*
X120231428Y-118638333D01*
X120279047Y-118447857D01*
X120326666Y-118352619D01*
X120374285Y-118305000D01*
X120469523Y-118257380D01*
%TO.C,J1*%
X149422380Y-110178333D02*
X150136666Y-110178333D01*
X150279523Y-110225952D01*
X150374761Y-110321190D01*
X150422380Y-110464047D01*
X150422380Y-110559285D01*
X150422380Y-109178333D02*
X150422380Y-109749761D01*
X150422380Y-109464047D02*
X149422380Y-109464047D01*
X149565238Y-109559285D01*
X149660476Y-109654523D01*
X149708095Y-109749761D01*
%TO.C,C11*%
X136189142Y-83679142D02*
X136141523Y-83726761D01*
X135998666Y-83774380D01*
X135903428Y-83774380D01*
X135760571Y-83726761D01*
X135665333Y-83631523D01*
X135617714Y-83536285D01*
X135570095Y-83345809D01*
X135570095Y-83202952D01*
X135617714Y-83012476D01*
X135665333Y-82917238D01*
X135760571Y-82822000D01*
X135903428Y-82774380D01*
X135998666Y-82774380D01*
X136141523Y-82822000D01*
X136189142Y-82869619D01*
X137141523Y-83774380D02*
X136570095Y-83774380D01*
X136855809Y-83774380D02*
X136855809Y-82774380D01*
X136760571Y-82917238D01*
X136665333Y-83012476D01*
X136570095Y-83060095D01*
X138093904Y-83774380D02*
X137522476Y-83774380D01*
X137808190Y-83774380D02*
X137808190Y-82774380D01*
X137712952Y-82917238D01*
X137617714Y-83012476D01*
X137522476Y-83060095D01*
%TO.C,U3*%
X111512380Y-102831904D02*
X112321904Y-102831904D01*
X112417142Y-102784285D01*
X112464761Y-102736666D01*
X112512380Y-102641428D01*
X112512380Y-102450952D01*
X112464761Y-102355714D01*
X112417142Y-102308095D01*
X112321904Y-102260476D01*
X111512380Y-102260476D01*
X111512380Y-101879523D02*
X111512380Y-101260476D01*
X111893333Y-101593809D01*
X111893333Y-101450952D01*
X111940952Y-101355714D01*
X111988571Y-101308095D01*
X112083809Y-101260476D01*
X112321904Y-101260476D01*
X112417142Y-101308095D01*
X112464761Y-101355714D01*
X112512380Y-101450952D01*
X112512380Y-101736666D01*
X112464761Y-101831904D01*
X112417142Y-101879523D01*
%TO.C,U2*%
X144338095Y-69872380D02*
X144338095Y-70681904D01*
X144385714Y-70777142D01*
X144433333Y-70824761D01*
X144528571Y-70872380D01*
X144719047Y-70872380D01*
X144814285Y-70824761D01*
X144861904Y-70777142D01*
X144909523Y-70681904D01*
X144909523Y-69872380D01*
X145338095Y-69967619D02*
X145385714Y-69920000D01*
X145480952Y-69872380D01*
X145719047Y-69872380D01*
X145814285Y-69920000D01*
X145861904Y-69967619D01*
X145909523Y-70062857D01*
X145909523Y-70158095D01*
X145861904Y-70300952D01*
X145290476Y-70872380D01*
X145909523Y-70872380D01*
%TO.C,C3*%
X87873333Y-97837142D02*
X87825714Y-97884761D01*
X87682857Y-97932380D01*
X87587619Y-97932380D01*
X87444761Y-97884761D01*
X87349523Y-97789523D01*
X87301904Y-97694285D01*
X87254285Y-97503809D01*
X87254285Y-97360952D01*
X87301904Y-97170476D01*
X87349523Y-97075238D01*
X87444761Y-96980000D01*
X87587619Y-96932380D01*
X87682857Y-96932380D01*
X87825714Y-96980000D01*
X87873333Y-97027619D01*
X88206666Y-96932380D02*
X88825714Y-96932380D01*
X88492380Y-97313333D01*
X88635238Y-97313333D01*
X88730476Y-97360952D01*
X88778095Y-97408571D01*
X88825714Y-97503809D01*
X88825714Y-97741904D01*
X88778095Y-97837142D01*
X88730476Y-97884761D01*
X88635238Y-97932380D01*
X88349523Y-97932380D01*
X88254285Y-97884761D01*
X88206666Y-97837142D01*
%TO.C,C2*%
X108813333Y-90587142D02*
X108765714Y-90634761D01*
X108622857Y-90682380D01*
X108527619Y-90682380D01*
X108384761Y-90634761D01*
X108289523Y-90539523D01*
X108241904Y-90444285D01*
X108194285Y-90253809D01*
X108194285Y-90110952D01*
X108241904Y-89920476D01*
X108289523Y-89825238D01*
X108384761Y-89730000D01*
X108527619Y-89682380D01*
X108622857Y-89682380D01*
X108765714Y-89730000D01*
X108813333Y-89777619D01*
X109194285Y-89777619D02*
X109241904Y-89730000D01*
X109337142Y-89682380D01*
X109575238Y-89682380D01*
X109670476Y-89730000D01*
X109718095Y-89777619D01*
X109765714Y-89872857D01*
X109765714Y-89968095D01*
X109718095Y-90110952D01*
X109146666Y-90682380D01*
X109765714Y-90682380D01*
%TO.C,C1*%
X159091333Y-85193142D02*
X159043714Y-85240761D01*
X158900857Y-85288380D01*
X158805619Y-85288380D01*
X158662761Y-85240761D01*
X158567523Y-85145523D01*
X158519904Y-85050285D01*
X158472285Y-84859809D01*
X158472285Y-84716952D01*
X158519904Y-84526476D01*
X158567523Y-84431238D01*
X158662761Y-84336000D01*
X158805619Y-84288380D01*
X158900857Y-84288380D01*
X159043714Y-84336000D01*
X159091333Y-84383619D01*
X160043714Y-85288380D02*
X159472285Y-85288380D01*
X159758000Y-85288380D02*
X159758000Y-84288380D01*
X159662761Y-84431238D01*
X159567523Y-84526476D01*
X159472285Y-84574095D01*
%TO.C,JP9*%
X123372666Y-118302380D02*
X123372666Y-119016666D01*
X123325047Y-119159523D01*
X123229809Y-119254761D01*
X123086952Y-119302380D01*
X122991714Y-119302380D01*
X123848857Y-119302380D02*
X123848857Y-118302380D01*
X124229809Y-118302380D01*
X124325047Y-118350000D01*
X124372666Y-118397619D01*
X124420285Y-118492857D01*
X124420285Y-118635714D01*
X124372666Y-118730952D01*
X124325047Y-118778571D01*
X124229809Y-118826190D01*
X123848857Y-118826190D01*
X124896476Y-119302380D02*
X125086952Y-119302380D01*
X125182190Y-119254761D01*
X125229809Y-119207142D01*
X125325047Y-119064285D01*
X125372666Y-118873809D01*
X125372666Y-118492857D01*
X125325047Y-118397619D01*
X125277428Y-118350000D01*
X125182190Y-118302380D01*
X124991714Y-118302380D01*
X124896476Y-118350000D01*
X124848857Y-118397619D01*
X124801238Y-118492857D01*
X124801238Y-118730952D01*
X124848857Y-118826190D01*
X124896476Y-118873809D01*
X124991714Y-118921428D01*
X125182190Y-118921428D01*
X125277428Y-118873809D01*
X125325047Y-118826190D01*
X125372666Y-118730952D01*
%TO.C,SW1*%
X133387466Y-71540761D02*
X133530323Y-71588380D01*
X133768419Y-71588380D01*
X133863657Y-71540761D01*
X133911276Y-71493142D01*
X133958895Y-71397904D01*
X133958895Y-71302666D01*
X133911276Y-71207428D01*
X133863657Y-71159809D01*
X133768419Y-71112190D01*
X133577942Y-71064571D01*
X133482704Y-71016952D01*
X133435085Y-70969333D01*
X133387466Y-70874095D01*
X133387466Y-70778857D01*
X133435085Y-70683619D01*
X133482704Y-70636000D01*
X133577942Y-70588380D01*
X133816038Y-70588380D01*
X133958895Y-70636000D01*
X134292228Y-70588380D02*
X134530323Y-71588380D01*
X134720800Y-70874095D01*
X134911276Y-71588380D01*
X135149371Y-70588380D01*
X136054133Y-71588380D02*
X135482704Y-71588380D01*
X135768419Y-71588380D02*
X135768419Y-70588380D01*
X135673180Y-70731238D01*
X135577942Y-70826476D01*
X135482704Y-70874095D01*
%TO.C,R6*%
X100417333Y-70302380D02*
X100084000Y-69826190D01*
X99845904Y-70302380D02*
X99845904Y-69302380D01*
X100226857Y-69302380D01*
X100322095Y-69350000D01*
X100369714Y-69397619D01*
X100417333Y-69492857D01*
X100417333Y-69635714D01*
X100369714Y-69730952D01*
X100322095Y-69778571D01*
X100226857Y-69826190D01*
X99845904Y-69826190D01*
X101274476Y-69302380D02*
X101084000Y-69302380D01*
X100988761Y-69350000D01*
X100941142Y-69397619D01*
X100845904Y-69540476D01*
X100798285Y-69730952D01*
X100798285Y-70111904D01*
X100845904Y-70207142D01*
X100893523Y-70254761D01*
X100988761Y-70302380D01*
X101179238Y-70302380D01*
X101274476Y-70254761D01*
X101322095Y-70207142D01*
X101369714Y-70111904D01*
X101369714Y-69873809D01*
X101322095Y-69778571D01*
X101274476Y-69730952D01*
X101179238Y-69683333D01*
X100988761Y-69683333D01*
X100893523Y-69730952D01*
X100845904Y-69778571D01*
X100798285Y-69873809D01*
%TO.C,R8*%
X128468380Y-71540666D02*
X127992190Y-71874000D01*
X128468380Y-72112095D02*
X127468380Y-72112095D01*
X127468380Y-71731142D01*
X127516000Y-71635904D01*
X127563619Y-71588285D01*
X127658857Y-71540666D01*
X127801714Y-71540666D01*
X127896952Y-71588285D01*
X127944571Y-71635904D01*
X127992190Y-71731142D01*
X127992190Y-72112095D01*
X127896952Y-70969238D02*
X127849333Y-71064476D01*
X127801714Y-71112095D01*
X127706476Y-71159714D01*
X127658857Y-71159714D01*
X127563619Y-71112095D01*
X127516000Y-71064476D01*
X127468380Y-70969238D01*
X127468380Y-70778761D01*
X127516000Y-70683523D01*
X127563619Y-70635904D01*
X127658857Y-70588285D01*
X127706476Y-70588285D01*
X127801714Y-70635904D01*
X127849333Y-70683523D01*
X127896952Y-70778761D01*
X127896952Y-70969238D01*
X127944571Y-71064476D01*
X127992190Y-71112095D01*
X128087428Y-71159714D01*
X128277904Y-71159714D01*
X128373142Y-71112095D01*
X128420761Y-71064476D01*
X128468380Y-70969238D01*
X128468380Y-70778761D01*
X128420761Y-70683523D01*
X128373142Y-70635904D01*
X128277904Y-70588285D01*
X128087428Y-70588285D01*
X127992190Y-70635904D01*
X127944571Y-70683523D01*
X127896952Y-70778761D01*
%TO.C,R7*%
X132772380Y-91606666D02*
X132296190Y-91940000D01*
X132772380Y-92178095D02*
X131772380Y-92178095D01*
X131772380Y-91797142D01*
X131820000Y-91701904D01*
X131867619Y-91654285D01*
X131962857Y-91606666D01*
X132105714Y-91606666D01*
X132200952Y-91654285D01*
X132248571Y-91701904D01*
X132296190Y-91797142D01*
X132296190Y-92178095D01*
X131772380Y-91273333D02*
X131772380Y-90606666D01*
X132772380Y-91035238D01*
%TO.C,JP1*%
X97856666Y-118197380D02*
X97856666Y-118911666D01*
X97809047Y-119054523D01*
X97713809Y-119149761D01*
X97570952Y-119197380D01*
X97475714Y-119197380D01*
X98332857Y-119197380D02*
X98332857Y-118197380D01*
X98713809Y-118197380D01*
X98809047Y-118245000D01*
X98856666Y-118292619D01*
X98904285Y-118387857D01*
X98904285Y-118530714D01*
X98856666Y-118625952D01*
X98809047Y-118673571D01*
X98713809Y-118721190D01*
X98332857Y-118721190D01*
X99856666Y-119197380D02*
X99285238Y-119197380D01*
X99570952Y-119197380D02*
X99570952Y-118197380D01*
X99475714Y-118340238D01*
X99380476Y-118435476D01*
X99285238Y-118483095D01*
%TO.C,R3*%
X98852380Y-91076666D02*
X98376190Y-91410000D01*
X98852380Y-91648095D02*
X97852380Y-91648095D01*
X97852380Y-91267142D01*
X97900000Y-91171904D01*
X97947619Y-91124285D01*
X98042857Y-91076666D01*
X98185714Y-91076666D01*
X98280952Y-91124285D01*
X98328571Y-91171904D01*
X98376190Y-91267142D01*
X98376190Y-91648095D01*
X97852380Y-90743333D02*
X97852380Y-90124285D01*
X98233333Y-90457619D01*
X98233333Y-90314761D01*
X98280952Y-90219523D01*
X98328571Y-90171904D01*
X98423809Y-90124285D01*
X98661904Y-90124285D01*
X98757142Y-90171904D01*
X98804761Y-90219523D01*
X98852380Y-90314761D01*
X98852380Y-90600476D01*
X98804761Y-90695714D01*
X98757142Y-90743333D01*
%TO.C,J2*%
X84772380Y-99493333D02*
X85486666Y-99493333D01*
X85629523Y-99540952D01*
X85724761Y-99636190D01*
X85772380Y-99779047D01*
X85772380Y-99874285D01*
X84867619Y-99064761D02*
X84820000Y-99017142D01*
X84772380Y-98921904D01*
X84772380Y-98683809D01*
X84820000Y-98588571D01*
X84867619Y-98540952D01*
X84962857Y-98493333D01*
X85058095Y-98493333D01*
X85200952Y-98540952D01*
X85772380Y-99112380D01*
X85772380Y-98493333D01*
%TO.C,R12*%
X82447367Y-69852380D02*
X82114034Y-69376190D01*
X81875939Y-69852380D02*
X81875939Y-68852380D01*
X82256891Y-68852380D01*
X82352129Y-68900000D01*
X82399748Y-68947619D01*
X82447367Y-69042857D01*
X82447367Y-69185714D01*
X82399748Y-69280952D01*
X82352129Y-69328571D01*
X82256891Y-69376190D01*
X81875939Y-69376190D01*
X83399748Y-69852380D02*
X82828320Y-69852380D01*
X83114034Y-69852380D02*
X83114034Y-68852380D01*
X83018796Y-68995238D01*
X82923558Y-69090476D01*
X82828320Y-69138095D01*
X83780701Y-68947619D02*
X83828320Y-68900000D01*
X83923558Y-68852380D01*
X84161653Y-68852380D01*
X84256891Y-68900000D01*
X84304510Y-68947619D01*
X84352129Y-69042857D01*
X84352129Y-69138095D01*
X84304510Y-69280952D01*
X83733082Y-69852380D01*
X84352129Y-69852380D01*
%TO.C,R9*%
X102842380Y-77476666D02*
X102366190Y-77810000D01*
X102842380Y-78048095D02*
X101842380Y-78048095D01*
X101842380Y-77667142D01*
X101890000Y-77571904D01*
X101937619Y-77524285D01*
X102032857Y-77476666D01*
X102175714Y-77476666D01*
X102270952Y-77524285D01*
X102318571Y-77571904D01*
X102366190Y-77667142D01*
X102366190Y-78048095D01*
X102842380Y-77000476D02*
X102842380Y-76810000D01*
X102794761Y-76714761D01*
X102747142Y-76667142D01*
X102604285Y-76571904D01*
X102413809Y-76524285D01*
X102032857Y-76524285D01*
X101937619Y-76571904D01*
X101890000Y-76619523D01*
X101842380Y-76714761D01*
X101842380Y-76905238D01*
X101890000Y-77000476D01*
X101937619Y-77048095D01*
X102032857Y-77095714D01*
X102270952Y-77095714D01*
X102366190Y-77048095D01*
X102413809Y-77000476D01*
X102461428Y-76905238D01*
X102461428Y-76714761D01*
X102413809Y-76619523D01*
X102366190Y-76571904D01*
X102270952Y-76524285D01*
%TO.C,C9*%
X100223333Y-84477942D02*
X100175714Y-84525561D01*
X100032857Y-84573180D01*
X99937619Y-84573180D01*
X99794761Y-84525561D01*
X99699523Y-84430323D01*
X99651904Y-84335085D01*
X99604285Y-84144609D01*
X99604285Y-84001752D01*
X99651904Y-83811276D01*
X99699523Y-83716038D01*
X99794761Y-83620800D01*
X99937619Y-83573180D01*
X100032857Y-83573180D01*
X100175714Y-83620800D01*
X100223333Y-83668419D01*
X100699523Y-84573180D02*
X100890000Y-84573180D01*
X100985238Y-84525561D01*
X101032857Y-84477942D01*
X101128095Y-84335085D01*
X101175714Y-84144609D01*
X101175714Y-83763657D01*
X101128095Y-83668419D01*
X101080476Y-83620800D01*
X100985238Y-83573180D01*
X100794761Y-83573180D01*
X100699523Y-83620800D01*
X100651904Y-83668419D01*
X100604285Y-83763657D01*
X100604285Y-84001752D01*
X100651904Y-84096990D01*
X100699523Y-84144609D01*
X100794761Y-84192228D01*
X100985238Y-84192228D01*
X101080476Y-84144609D01*
X101128095Y-84096990D01*
X101175714Y-84001752D01*
%TO.C,JP6*%
X93656666Y-79542380D02*
X93656666Y-80256666D01*
X93609047Y-80399523D01*
X93513809Y-80494761D01*
X93370952Y-80542380D01*
X93275714Y-80542380D01*
X94132857Y-80542380D02*
X94132857Y-79542380D01*
X94513809Y-79542380D01*
X94609047Y-79590000D01*
X94656666Y-79637619D01*
X94704285Y-79732857D01*
X94704285Y-79875714D01*
X94656666Y-79970952D01*
X94609047Y-80018571D01*
X94513809Y-80066190D01*
X94132857Y-80066190D01*
X95561428Y-79542380D02*
X95370952Y-79542380D01*
X95275714Y-79590000D01*
X95228095Y-79637619D01*
X95132857Y-79780476D01*
X95085238Y-79970952D01*
X95085238Y-80351904D01*
X95132857Y-80447142D01*
X95180476Y-80494761D01*
X95275714Y-80542380D01*
X95466190Y-80542380D01*
X95561428Y-80494761D01*
X95609047Y-80447142D01*
X95656666Y-80351904D01*
X95656666Y-80113809D01*
X95609047Y-80018571D01*
X95561428Y-79970952D01*
X95466190Y-79923333D01*
X95275714Y-79923333D01*
X95180476Y-79970952D01*
X95132857Y-80018571D01*
X95085238Y-80113809D01*
%TO.C,J4*%
X96216666Y-73092380D02*
X96216666Y-73806666D01*
X96169047Y-73949523D01*
X96073809Y-74044761D01*
X95930952Y-74092380D01*
X95835714Y-74092380D01*
X97121428Y-73425714D02*
X97121428Y-74092380D01*
X96883333Y-73044761D02*
X96645238Y-73759047D01*
X97264285Y-73759047D01*
%TO.C,C6*%
X114153333Y-90127142D02*
X114105714Y-90174761D01*
X113962857Y-90222380D01*
X113867619Y-90222380D01*
X113724761Y-90174761D01*
X113629523Y-90079523D01*
X113581904Y-89984285D01*
X113534285Y-89793809D01*
X113534285Y-89650952D01*
X113581904Y-89460476D01*
X113629523Y-89365238D01*
X113724761Y-89270000D01*
X113867619Y-89222380D01*
X113962857Y-89222380D01*
X114105714Y-89270000D01*
X114153333Y-89317619D01*
X115010476Y-89222380D02*
X114820000Y-89222380D01*
X114724761Y-89270000D01*
X114677142Y-89317619D01*
X114581904Y-89460476D01*
X114534285Y-89650952D01*
X114534285Y-90031904D01*
X114581904Y-90127142D01*
X114629523Y-90174761D01*
X114724761Y-90222380D01*
X114915238Y-90222380D01*
X115010476Y-90174761D01*
X115058095Y-90127142D01*
X115105714Y-90031904D01*
X115105714Y-89793809D01*
X115058095Y-89698571D01*
X115010476Y-89650952D01*
X114915238Y-89603333D01*
X114724761Y-89603333D01*
X114629523Y-89650952D01*
X114581904Y-89698571D01*
X114534285Y-89793809D01*
%TO.C,C10*%
X129405142Y-115165142D02*
X129357523Y-115212761D01*
X129214666Y-115260380D01*
X129119428Y-115260380D01*
X128976571Y-115212761D01*
X128881333Y-115117523D01*
X128833714Y-115022285D01*
X128786095Y-114831809D01*
X128786095Y-114688952D01*
X128833714Y-114498476D01*
X128881333Y-114403238D01*
X128976571Y-114308000D01*
X129119428Y-114260380D01*
X129214666Y-114260380D01*
X129357523Y-114308000D01*
X129405142Y-114355619D01*
X130357523Y-115260380D02*
X129786095Y-115260380D01*
X130071809Y-115260380D02*
X130071809Y-114260380D01*
X129976571Y-114403238D01*
X129881333Y-114498476D01*
X129786095Y-114546095D01*
X130976571Y-114260380D02*
X131071809Y-114260380D01*
X131167047Y-114308000D01*
X131214666Y-114355619D01*
X131262285Y-114450857D01*
X131309904Y-114641333D01*
X131309904Y-114879428D01*
X131262285Y-115069904D01*
X131214666Y-115165142D01*
X131167047Y-115212761D01*
X131071809Y-115260380D01*
X130976571Y-115260380D01*
X130881333Y-115212761D01*
X130833714Y-115165142D01*
X130786095Y-115069904D01*
X130738476Y-114879428D01*
X130738476Y-114641333D01*
X130786095Y-114450857D01*
X130833714Y-114355619D01*
X130881333Y-114308000D01*
X130976571Y-114260380D01*
%TO.C,R4*%
X104736333Y-87872380D02*
X104403000Y-87396190D01*
X104164904Y-87872380D02*
X104164904Y-86872380D01*
X104545857Y-86872380D01*
X104641095Y-86920000D01*
X104688714Y-86967619D01*
X104736333Y-87062857D01*
X104736333Y-87205714D01*
X104688714Y-87300952D01*
X104641095Y-87348571D01*
X104545857Y-87396190D01*
X104164904Y-87396190D01*
X105593476Y-87205714D02*
X105593476Y-87872380D01*
X105355380Y-86824761D02*
X105117285Y-87539047D01*
X105736333Y-87539047D01*
%TO.C,SW2*%
X133355466Y-79411961D02*
X133498323Y-79459580D01*
X133736419Y-79459580D01*
X133831657Y-79411961D01*
X133879276Y-79364342D01*
X133926895Y-79269104D01*
X133926895Y-79173866D01*
X133879276Y-79078628D01*
X133831657Y-79031009D01*
X133736419Y-78983390D01*
X133545942Y-78935771D01*
X133450704Y-78888152D01*
X133403085Y-78840533D01*
X133355466Y-78745295D01*
X133355466Y-78650057D01*
X133403085Y-78554819D01*
X133450704Y-78507200D01*
X133545942Y-78459580D01*
X133784038Y-78459580D01*
X133926895Y-78507200D01*
X134260228Y-78459580D02*
X134498323Y-79459580D01*
X134688800Y-78745295D01*
X134879276Y-79459580D01*
X135117371Y-78459580D01*
X135450704Y-78554819D02*
X135498323Y-78507200D01*
X135593561Y-78459580D01*
X135831657Y-78459580D01*
X135926895Y-78507200D01*
X135974514Y-78554819D01*
X136022133Y-78650057D01*
X136022133Y-78745295D01*
X135974514Y-78888152D01*
X135403085Y-79459580D01*
X136022133Y-79459580D01*
%TO.C,U5*%
X136062380Y-102851904D02*
X136871904Y-102851904D01*
X136967142Y-102804285D01*
X137014761Y-102756666D01*
X137062380Y-102661428D01*
X137062380Y-102470952D01*
X137014761Y-102375714D01*
X136967142Y-102328095D01*
X136871904Y-102280476D01*
X136062380Y-102280476D01*
X136062380Y-101328095D02*
X136062380Y-101804285D01*
X136538571Y-101851904D01*
X136490952Y-101804285D01*
X136443333Y-101709047D01*
X136443333Y-101470952D01*
X136490952Y-101375714D01*
X136538571Y-101328095D01*
X136633809Y-101280476D01*
X136871904Y-101280476D01*
X136967142Y-101328095D01*
X137014761Y-101375714D01*
X137062380Y-101470952D01*
X137062380Y-101709047D01*
X137014761Y-101804285D01*
X136967142Y-101851904D01*
%TO.C,C5*%
X153249333Y-84939142D02*
X153201714Y-84986761D01*
X153058857Y-85034380D01*
X152963619Y-85034380D01*
X152820761Y-84986761D01*
X152725523Y-84891523D01*
X152677904Y-84796285D01*
X152630285Y-84605809D01*
X152630285Y-84462952D01*
X152677904Y-84272476D01*
X152725523Y-84177238D01*
X152820761Y-84082000D01*
X152963619Y-84034380D01*
X153058857Y-84034380D01*
X153201714Y-84082000D01*
X153249333Y-84129619D01*
X154154095Y-84034380D02*
X153677904Y-84034380D01*
X153630285Y-84510571D01*
X153677904Y-84462952D01*
X153773142Y-84415333D01*
X154011238Y-84415333D01*
X154106476Y-84462952D01*
X154154095Y-84510571D01*
X154201714Y-84605809D01*
X154201714Y-84843904D01*
X154154095Y-84939142D01*
X154106476Y-84986761D01*
X154011238Y-85034380D01*
X153773142Y-85034380D01*
X153677904Y-84986761D01*
X153630285Y-84939142D01*
%TO.C,JP4*%
X108316666Y-118252380D02*
X108316666Y-118966666D01*
X108269047Y-119109523D01*
X108173809Y-119204761D01*
X108030952Y-119252380D01*
X107935714Y-119252380D01*
X108792857Y-119252380D02*
X108792857Y-118252380D01*
X109173809Y-118252380D01*
X109269047Y-118300000D01*
X109316666Y-118347619D01*
X109364285Y-118442857D01*
X109364285Y-118585714D01*
X109316666Y-118680952D01*
X109269047Y-118728571D01*
X109173809Y-118776190D01*
X108792857Y-118776190D01*
X110221428Y-118585714D02*
X110221428Y-119252380D01*
X109983333Y-118204761D02*
X109745238Y-118919047D01*
X110364285Y-118919047D01*
%TO.C,C7*%
X102624221Y-90601142D02*
X102576602Y-90648761D01*
X102433745Y-90696380D01*
X102338507Y-90696380D01*
X102195649Y-90648761D01*
X102100411Y-90553523D01*
X102052792Y-90458285D01*
X102005173Y-90267809D01*
X102005173Y-90124952D01*
X102052792Y-89934476D01*
X102100411Y-89839238D01*
X102195649Y-89744000D01*
X102338507Y-89696380D01*
X102433745Y-89696380D01*
X102576602Y-89744000D01*
X102624221Y-89791619D01*
X102957554Y-89696380D02*
X103624221Y-89696380D01*
X103195649Y-90696380D01*
%TO.C,U1*%
X104328095Y-66622380D02*
X104328095Y-67431904D01*
X104375714Y-67527142D01*
X104423333Y-67574761D01*
X104518571Y-67622380D01*
X104709047Y-67622380D01*
X104804285Y-67574761D01*
X104851904Y-67527142D01*
X104899523Y-67431904D01*
X104899523Y-66622380D01*
X105899523Y-67622380D02*
X105328095Y-67622380D01*
X105613809Y-67622380D02*
X105613809Y-66622380D01*
X105518571Y-66765238D01*
X105423333Y-66860476D01*
X105328095Y-66908095D01*
%TO.C,U4*%
X143498095Y-120472380D02*
X143498095Y-121281904D01*
X143545714Y-121377142D01*
X143593333Y-121424761D01*
X143688571Y-121472380D01*
X143879047Y-121472380D01*
X143974285Y-121424761D01*
X144021904Y-121377142D01*
X144069523Y-121281904D01*
X144069523Y-120472380D01*
X144974285Y-120805714D02*
X144974285Y-121472380D01*
X144736190Y-120424761D02*
X144498095Y-121139047D01*
X145117142Y-121139047D01*
%TO.C,C8*%
X135783333Y-121182255D02*
X135735714Y-121229874D01*
X135592857Y-121277493D01*
X135497619Y-121277493D01*
X135354761Y-121229874D01*
X135259523Y-121134636D01*
X135211904Y-121039398D01*
X135164285Y-120848922D01*
X135164285Y-120706065D01*
X135211904Y-120515589D01*
X135259523Y-120420351D01*
X135354761Y-120325113D01*
X135497619Y-120277493D01*
X135592857Y-120277493D01*
X135735714Y-120325113D01*
X135783333Y-120372732D01*
X136354761Y-120706065D02*
X136259523Y-120658446D01*
X136211904Y-120610827D01*
X136164285Y-120515589D01*
X136164285Y-120467970D01*
X136211904Y-120372732D01*
X136259523Y-120325113D01*
X136354761Y-120277493D01*
X136545238Y-120277493D01*
X136640476Y-120325113D01*
X136688095Y-120372732D01*
X136735714Y-120467970D01*
X136735714Y-120515589D01*
X136688095Y-120610827D01*
X136640476Y-120658446D01*
X136545238Y-120706065D01*
X136354761Y-120706065D01*
X136259523Y-120753684D01*
X136211904Y-120801303D01*
X136164285Y-120896541D01*
X136164285Y-121087017D01*
X136211904Y-121182255D01*
X136259523Y-121229874D01*
X136354761Y-121277493D01*
X136545238Y-121277493D01*
X136640476Y-121229874D01*
X136688095Y-121182255D01*
X136735714Y-121087017D01*
X136735714Y-120896541D01*
X136688095Y-120801303D01*
X136640476Y-120753684D01*
X136545238Y-120706065D01*
%TO.C,C12*%
X136587142Y-90863142D02*
X136539523Y-90910761D01*
X136396666Y-90958380D01*
X136301428Y-90958380D01*
X136158571Y-90910761D01*
X136063333Y-90815523D01*
X136015714Y-90720285D01*
X135968095Y-90529809D01*
X135968095Y-90386952D01*
X136015714Y-90196476D01*
X136063333Y-90101238D01*
X136158571Y-90006000D01*
X136301428Y-89958380D01*
X136396666Y-89958380D01*
X136539523Y-90006000D01*
X136587142Y-90053619D01*
X137539523Y-90958380D02*
X136968095Y-90958380D01*
X137253809Y-90958380D02*
X137253809Y-89958380D01*
X137158571Y-90101238D01*
X137063333Y-90196476D01*
X136968095Y-90244095D01*
X137920476Y-90053619D02*
X137968095Y-90006000D01*
X138063333Y-89958380D01*
X138301428Y-89958380D01*
X138396666Y-90006000D01*
X138444285Y-90053619D01*
X138491904Y-90148857D01*
X138491904Y-90244095D01*
X138444285Y-90386952D01*
X137872857Y-90958380D01*
X138491904Y-90958380D01*
%TO.C,JP11*%
X112760476Y-118272380D02*
X112760476Y-118986666D01*
X112712857Y-119129523D01*
X112617619Y-119224761D01*
X112474761Y-119272380D01*
X112379523Y-119272380D01*
X113236666Y-119272380D02*
X113236666Y-118272380D01*
X113617619Y-118272380D01*
X113712857Y-118320000D01*
X113760476Y-118367619D01*
X113808095Y-118462857D01*
X113808095Y-118605714D01*
X113760476Y-118700952D01*
X113712857Y-118748571D01*
X113617619Y-118796190D01*
X113236666Y-118796190D01*
X114760476Y-119272380D02*
X114189047Y-119272380D01*
X114474761Y-119272380D02*
X114474761Y-118272380D01*
X114379523Y-118415238D01*
X114284285Y-118510476D01*
X114189047Y-118558095D01*
X115712857Y-119272380D02*
X115141428Y-119272380D01*
X115427142Y-119272380D02*
X115427142Y-118272380D01*
X115331904Y-118415238D01*
X115236666Y-118510476D01*
X115141428Y-118558095D01*
%TO.C,C14*%
X147153142Y-96506857D02*
X147200761Y-96554476D01*
X147248380Y-96697333D01*
X147248380Y-96792571D01*
X147200761Y-96935428D01*
X147105523Y-97030666D01*
X147010285Y-97078285D01*
X146819809Y-97125904D01*
X146676952Y-97125904D01*
X146486476Y-97078285D01*
X146391238Y-97030666D01*
X146296000Y-96935428D01*
X146248380Y-96792571D01*
X146248380Y-96697333D01*
X146296000Y-96554476D01*
X146343619Y-96506857D01*
X147248380Y-95554476D02*
X147248380Y-96125904D01*
X147248380Y-95840190D02*
X146248380Y-95840190D01*
X146391238Y-95935428D01*
X146486476Y-96030666D01*
X146534095Y-96125904D01*
X146581714Y-94697333D02*
X147248380Y-94697333D01*
X146200761Y-94935428D02*
X146915047Y-95173523D01*
X146915047Y-94554476D01*
%TO.C,J3*%
X159822666Y-70922380D02*
X159822666Y-71636666D01*
X159775047Y-71779523D01*
X159679809Y-71874761D01*
X159536952Y-71922380D01*
X159441714Y-71922380D01*
X160203619Y-70922380D02*
X160822666Y-70922380D01*
X160489333Y-71303333D01*
X160632190Y-71303333D01*
X160727428Y-71350952D01*
X160775047Y-71398571D01*
X160822666Y-71493809D01*
X160822666Y-71731904D01*
X160775047Y-71827142D01*
X160727428Y-71874761D01*
X160632190Y-71922380D01*
X160346476Y-71922380D01*
X160251238Y-71874761D01*
X160203619Y-71827142D01*
%TO.C,R1*%
X87277580Y-86018666D02*
X86801390Y-86352000D01*
X87277580Y-86590095D02*
X86277580Y-86590095D01*
X86277580Y-86209142D01*
X86325200Y-86113904D01*
X86372819Y-86066285D01*
X86468057Y-86018666D01*
X86610914Y-86018666D01*
X86706152Y-86066285D01*
X86753771Y-86113904D01*
X86801390Y-86209142D01*
X86801390Y-86590095D01*
X87277580Y-85066285D02*
X87277580Y-85637714D01*
X87277580Y-85352000D02*
X86277580Y-85352000D01*
X86420438Y-85447238D01*
X86515676Y-85542476D01*
X86563295Y-85637714D01*
%TO.C,JP8*%
X91040380Y-72023333D02*
X91754666Y-72023333D01*
X91897523Y-72070952D01*
X91992761Y-72166190D01*
X92040380Y-72309047D01*
X92040380Y-72404285D01*
X92040380Y-71547142D02*
X91040380Y-71547142D01*
X91040380Y-71166190D01*
X91088000Y-71070952D01*
X91135619Y-71023333D01*
X91230857Y-70975714D01*
X91373714Y-70975714D01*
X91468952Y-71023333D01*
X91516571Y-71070952D01*
X91564190Y-71166190D01*
X91564190Y-71547142D01*
X91468952Y-70404285D02*
X91421333Y-70499523D01*
X91373714Y-70547142D01*
X91278476Y-70594761D01*
X91230857Y-70594761D01*
X91135619Y-70547142D01*
X91088000Y-70499523D01*
X91040380Y-70404285D01*
X91040380Y-70213809D01*
X91088000Y-70118571D01*
X91135619Y-70070952D01*
X91230857Y-70023333D01*
X91278476Y-70023333D01*
X91373714Y-70070952D01*
X91421333Y-70118571D01*
X91468952Y-70213809D01*
X91468952Y-70404285D01*
X91516571Y-70499523D01*
X91564190Y-70547142D01*
X91659428Y-70594761D01*
X91849904Y-70594761D01*
X91945142Y-70547142D01*
X91992761Y-70499523D01*
X92040380Y-70404285D01*
X92040380Y-70213809D01*
X91992761Y-70118571D01*
X91945142Y-70070952D01*
X91849904Y-70023333D01*
X91659428Y-70023333D01*
X91564190Y-70070952D01*
X91516571Y-70118571D01*
X91468952Y-70213809D01*
%TO.C,C4*%
X93813333Y-96369142D02*
X93765714Y-96416761D01*
X93622857Y-96464380D01*
X93527619Y-96464380D01*
X93384761Y-96416761D01*
X93289523Y-96321523D01*
X93241904Y-96226285D01*
X93194285Y-96035809D01*
X93194285Y-95892952D01*
X93241904Y-95702476D01*
X93289523Y-95607238D01*
X93384761Y-95512000D01*
X93527619Y-95464380D01*
X93622857Y-95464380D01*
X93765714Y-95512000D01*
X93813333Y-95559619D01*
X94670476Y-95797714D02*
X94670476Y-96464380D01*
X94432380Y-95416761D02*
X94194285Y-96131047D01*
X94813333Y-96131047D01*
%TO.C,R5*%
X99701580Y-77556666D02*
X99225390Y-77890000D01*
X99701580Y-78128095D02*
X98701580Y-78128095D01*
X98701580Y-77747142D01*
X98749200Y-77651904D01*
X98796819Y-77604285D01*
X98892057Y-77556666D01*
X99034914Y-77556666D01*
X99130152Y-77604285D01*
X99177771Y-77651904D01*
X99225390Y-77747142D01*
X99225390Y-78128095D01*
X98701580Y-76651904D02*
X98701580Y-77128095D01*
X99177771Y-77175714D01*
X99130152Y-77128095D01*
X99082533Y-77032857D01*
X99082533Y-76794761D01*
X99130152Y-76699523D01*
X99177771Y-76651904D01*
X99273009Y-76604285D01*
X99511104Y-76604285D01*
X99606342Y-76651904D01*
X99653961Y-76699523D01*
X99701580Y-76794761D01*
X99701580Y-77032857D01*
X99653961Y-77128095D01*
X99606342Y-77175714D01*
%TO.C,R2*%
X87269580Y-76245466D02*
X86793390Y-76578800D01*
X87269580Y-76816895D02*
X86269580Y-76816895D01*
X86269580Y-76435942D01*
X86317200Y-76340704D01*
X86364819Y-76293085D01*
X86460057Y-76245466D01*
X86602914Y-76245466D01*
X86698152Y-76293085D01*
X86745771Y-76340704D01*
X86793390Y-76435942D01*
X86793390Y-76816895D01*
X86364819Y-75864514D02*
X86317200Y-75816895D01*
X86269580Y-75721657D01*
X86269580Y-75483561D01*
X86317200Y-75388323D01*
X86364819Y-75340704D01*
X86460057Y-75293085D01*
X86555295Y-75293085D01*
X86698152Y-75340704D01*
X87269580Y-75912133D01*
X87269580Y-75293085D01*
%TO.C,JP5*%
X89636666Y-79562380D02*
X89636666Y-80276666D01*
X89589047Y-80419523D01*
X89493809Y-80514761D01*
X89350952Y-80562380D01*
X89255714Y-80562380D01*
X90112857Y-80562380D02*
X90112857Y-79562380D01*
X90493809Y-79562380D01*
X90589047Y-79610000D01*
X90636666Y-79657619D01*
X90684285Y-79752857D01*
X90684285Y-79895714D01*
X90636666Y-79990952D01*
X90589047Y-80038571D01*
X90493809Y-80086190D01*
X90112857Y-80086190D01*
X91589047Y-79562380D02*
X91112857Y-79562380D01*
X91065238Y-80038571D01*
X91112857Y-79990952D01*
X91208095Y-79943333D01*
X91446190Y-79943333D01*
X91541428Y-79990952D01*
X91589047Y-80038571D01*
X91636666Y-80133809D01*
X91636666Y-80371904D01*
X91589047Y-80467142D01*
X91541428Y-80514761D01*
X91446190Y-80562380D01*
X91208095Y-80562380D01*
X91112857Y-80514761D01*
X91065238Y-80467142D01*
D11*
%TO.C,C13*%
X133959000Y-110390000D02*
X133959000Y-109777000D01*
X134599000Y-113630000D02*
X134599000Y-112470000D01*
X133999000Y-110390000D02*
X133999000Y-109731000D01*
X134279000Y-113401000D02*
X134279000Y-112470000D01*
X135960000Y-114010000D02*
X135960000Y-112470000D01*
X134799000Y-113740000D02*
X134799000Y-112470000D01*
X135280000Y-113921000D02*
X135280000Y-112470000D01*
X135360000Y-110390000D02*
X135360000Y-108919000D01*
X133599000Y-112528000D02*
X133599000Y-110332000D01*
X135640000Y-110390000D02*
X135640000Y-108869000D01*
X134839000Y-113759000D02*
X134839000Y-112470000D01*
X133359000Y-111714000D02*
X133359000Y-111146000D01*
X134879000Y-113778000D02*
X134879000Y-112470000D01*
X133519000Y-112345000D02*
X133519000Y-110515000D01*
X135079000Y-110390000D02*
X135079000Y-109002000D01*
X135760000Y-110390000D02*
X135760000Y-108857000D01*
X134399000Y-113495000D02*
X134399000Y-112470000D01*
X133399000Y-111948000D02*
X133399000Y-110912000D01*
X134639000Y-113654000D02*
X134639000Y-112470000D01*
X133999000Y-113129000D02*
X133999000Y-112470000D01*
X133879000Y-112984000D02*
X133879000Y-109876000D01*
X135600000Y-110390000D02*
X135600000Y-108874000D01*
X134439000Y-113525000D02*
X134439000Y-112470000D01*
X135159000Y-113885000D02*
X135159000Y-112470000D01*
X134079000Y-110390000D02*
X134079000Y-109645000D01*
X133959000Y-113083000D02*
X133959000Y-112470000D01*
X134519000Y-110390000D02*
X134519000Y-109281000D01*
X135600000Y-113986000D02*
X135600000Y-112470000D01*
X134439000Y-110390000D02*
X134439000Y-109335000D01*
X134479000Y-113552000D02*
X134479000Y-112470000D01*
X134159000Y-110390000D02*
X134159000Y-109566000D01*
X135480000Y-113966000D02*
X135480000Y-112470000D01*
X134199000Y-110390000D02*
X134199000Y-109529000D01*
X135320000Y-110390000D02*
X135320000Y-108929000D01*
X135400000Y-113950000D02*
X135400000Y-112470000D01*
X135880000Y-110390000D02*
X135880000Y-108851000D01*
X135920000Y-114010000D02*
X135920000Y-112470000D01*
X135039000Y-113844000D02*
X135039000Y-112470000D01*
X133839000Y-112930000D02*
X133839000Y-109930000D01*
X134599000Y-110390000D02*
X134599000Y-109230000D01*
X135199000Y-110390000D02*
X135199000Y-108962000D01*
X135720000Y-110390000D02*
X135720000Y-108861000D01*
X133799000Y-112873000D02*
X133799000Y-109987000D01*
X134239000Y-110390000D02*
X134239000Y-109493000D01*
X135119000Y-113872000D02*
X135119000Y-112470000D01*
X135920000Y-110390000D02*
X135920000Y-108850000D01*
X134959000Y-113812000D02*
X134959000Y-112470000D01*
X134719000Y-113698000D02*
X134719000Y-112470000D01*
X134399000Y-110390000D02*
X134399000Y-109365000D01*
X134119000Y-110390000D02*
X134119000Y-109604000D01*
X135119000Y-110390000D02*
X135119000Y-108988000D01*
X134879000Y-110390000D02*
X134879000Y-109082000D01*
X135720000Y-113999000D02*
X135720000Y-112470000D01*
X133759000Y-112813000D02*
X133759000Y-110047000D01*
X134239000Y-113367000D02*
X134239000Y-112470000D01*
X135199000Y-113898000D02*
X135199000Y-112470000D01*
X134679000Y-110390000D02*
X134679000Y-109183000D01*
X134719000Y-110390000D02*
X134719000Y-109162000D01*
X134679000Y-113677000D02*
X134679000Y-112470000D01*
X135840000Y-110390000D02*
X135840000Y-108852000D01*
X133679000Y-112681000D02*
X133679000Y-110179000D01*
X134639000Y-110390000D02*
X134639000Y-109206000D01*
X133919000Y-113035000D02*
X133919000Y-109825000D01*
X135560000Y-110390000D02*
X135560000Y-108880000D01*
X135360000Y-113941000D02*
X135360000Y-112470000D01*
X135280000Y-110390000D02*
X135280000Y-108939000D01*
X135800000Y-114006000D02*
X135800000Y-112470000D01*
X134279000Y-110390000D02*
X134279000Y-109459000D01*
X135680000Y-110390000D02*
X135680000Y-108865000D01*
X134919000Y-113795000D02*
X134919000Y-112470000D01*
X134039000Y-110390000D02*
X134039000Y-109687000D01*
X135079000Y-113858000D02*
X135079000Y-112470000D01*
X134359000Y-110390000D02*
X134359000Y-109395000D01*
X135320000Y-113931000D02*
X135320000Y-112470000D01*
X133479000Y-112235000D02*
X133479000Y-110625000D01*
X134999000Y-113828000D02*
X134999000Y-112470000D01*
X134799000Y-110390000D02*
X134799000Y-109120000D01*
X138514775Y-113155000D02*
X138514775Y-112655000D01*
X134479000Y-110390000D02*
X134479000Y-109308000D01*
X134199000Y-113331000D02*
X134199000Y-112470000D01*
X134359000Y-113465000D02*
X134359000Y-112470000D01*
X133439000Y-112107000D02*
X133439000Y-110753000D01*
X135960000Y-110390000D02*
X135960000Y-108850000D01*
X135800000Y-110390000D02*
X135800000Y-108854000D01*
X133639000Y-112608000D02*
X133639000Y-110252000D01*
X135440000Y-110390000D02*
X135440000Y-108902000D01*
X134519000Y-113579000D02*
X134519000Y-112470000D01*
X135520000Y-110390000D02*
X135520000Y-108887000D01*
X134079000Y-113215000D02*
X134079000Y-112470000D01*
X134999000Y-110390000D02*
X134999000Y-109032000D01*
X135400000Y-110390000D02*
X135400000Y-108910000D01*
X134319000Y-110390000D02*
X134319000Y-109426000D01*
X134919000Y-110390000D02*
X134919000Y-109065000D01*
X135840000Y-114008000D02*
X135840000Y-112470000D01*
X133559000Y-112441000D02*
X133559000Y-110419000D01*
X135760000Y-114003000D02*
X135760000Y-112470000D01*
X135159000Y-110390000D02*
X135159000Y-108975000D01*
X134039000Y-113173000D02*
X134039000Y-112470000D01*
X134839000Y-110390000D02*
X134839000Y-109101000D01*
X134559000Y-110390000D02*
X134559000Y-109255000D01*
X135680000Y-113995000D02*
X135680000Y-112470000D01*
X135880000Y-114009000D02*
X135880000Y-112470000D01*
X133719000Y-112749000D02*
X133719000Y-110111000D01*
X135239000Y-110390000D02*
X135239000Y-108950000D01*
X134759000Y-110390000D02*
X134759000Y-109140000D01*
X135239000Y-113910000D02*
X135239000Y-112470000D01*
X134319000Y-113434000D02*
X134319000Y-112470000D01*
X134559000Y-113605000D02*
X134559000Y-112470000D01*
X135640000Y-113991000D02*
X135640000Y-112470000D01*
X134119000Y-113256000D02*
X134119000Y-112470000D01*
X135039000Y-110390000D02*
X135039000Y-109016000D01*
X134959000Y-110390000D02*
X134959000Y-109048000D01*
X134159000Y-113294000D02*
X134159000Y-112470000D01*
X135440000Y-113958000D02*
X135440000Y-112470000D01*
X138764775Y-112905000D02*
X138264775Y-112905000D01*
X135560000Y-113980000D02*
X135560000Y-112470000D01*
X134759000Y-113720000D02*
X134759000Y-112470000D01*
X135520000Y-113973000D02*
X135520000Y-112470000D01*
X135480000Y-110390000D02*
X135480000Y-108894000D01*
X138580000Y-111430000D02*
G75*
G03*
X138580000Y-111430000I-2620000J0D01*
G01*
%TO.C,JP3*%
X105310000Y-115175000D02*
X102650000Y-115175000D01*
X105310000Y-115175000D02*
X105310000Y-110035000D01*
X105310000Y-116445000D02*
X105310000Y-117775000D01*
X102650000Y-115175000D02*
X102650000Y-110035000D01*
X105310000Y-110035000D02*
X102650000Y-110035000D01*
X105310000Y-117775000D02*
X103980000Y-117775000D01*
%TO.C,JP2*%
X91970000Y-115165000D02*
X91970000Y-110025000D01*
X94630000Y-110025000D02*
X91970000Y-110025000D01*
X94630000Y-117765000D02*
X93300000Y-117765000D01*
X94630000Y-115165000D02*
X94630000Y-110025000D01*
X94630000Y-116435000D02*
X94630000Y-117765000D01*
X94630000Y-115165000D02*
X91970000Y-115165000D01*
%TO.C,R10*%
X118350000Y-86330000D02*
X118350000Y-86000000D01*
X111810000Y-88740000D02*
X111810000Y-88410000D01*
X118350000Y-86000000D02*
X111810000Y-86000000D01*
X118350000Y-88410000D02*
X118350000Y-88740000D01*
X118350000Y-88740000D02*
X111810000Y-88740000D01*
X111810000Y-86000000D02*
X111810000Y-86330000D01*
%TO.C,JP10*%
X120490000Y-117805000D02*
X119160000Y-117805000D01*
X120490000Y-115205000D02*
X120490000Y-110065000D01*
X120490000Y-115205000D02*
X117830000Y-115205000D01*
X120490000Y-116475000D02*
X120490000Y-117805000D01*
X120490000Y-110065000D02*
X117830000Y-110065000D01*
X117830000Y-115205000D02*
X117830000Y-110065000D01*
%TO.C,J1*%
X150015662Y-104555000D02*
X150015662Y-104055000D01*
X150448675Y-104305000D02*
X150015662Y-104555000D01*
X150015662Y-104055000D02*
X150448675Y-104305000D01*
X161390000Y-125330000D02*
X150910000Y-125330000D01*
X150910000Y-94360000D02*
X161390000Y-94360000D01*
X150910000Y-125330000D02*
X150910000Y-94360000D01*
%TO.C,C11*%
X139407000Y-87492000D02*
X137946000Y-87492000D01*
X138381000Y-84047225D02*
X138381000Y-84547225D01*
X139153000Y-88133000D02*
X137946000Y-88133000D01*
X135866000Y-88813000D02*
X135207000Y-88813000D01*
X137424000Y-89413000D02*
X136388000Y-89413000D01*
X135866000Y-86972000D02*
X134328000Y-86972000D01*
X135866000Y-87653000D02*
X134451000Y-87653000D01*
X135866000Y-88853000D02*
X135253000Y-88853000D01*
X135866000Y-88053000D02*
X134616000Y-88053000D01*
X137190000Y-89453000D02*
X136622000Y-89453000D01*
X135866000Y-88693000D02*
X135080000Y-88693000D01*
X139485000Y-86932000D02*
X137946000Y-86932000D01*
X138559000Y-88853000D02*
X137946000Y-88853000D01*
X139417000Y-87452000D02*
X137946000Y-87452000D01*
X139055000Y-88293000D02*
X137946000Y-88293000D01*
X138807000Y-88613000D02*
X137946000Y-88613000D01*
X135866000Y-88093000D02*
X134638000Y-88093000D01*
X138406000Y-88973000D02*
X135406000Y-88973000D01*
X138691000Y-88733000D02*
X137946000Y-88733000D01*
X138225000Y-89093000D02*
X135587000Y-89093000D01*
X139449000Y-87292000D02*
X137946000Y-87292000D01*
X139235000Y-87973000D02*
X137946000Y-87973000D01*
X138941000Y-88453000D02*
X137946000Y-88453000D01*
X135866000Y-87452000D02*
X134395000Y-87452000D01*
X139320000Y-87773000D02*
X137946000Y-87773000D01*
X135866000Y-87933000D02*
X134558000Y-87933000D01*
X139028000Y-88333000D02*
X137946000Y-88333000D01*
X135866000Y-86852000D02*
X134326000Y-86852000D01*
X135866000Y-88293000D02*
X134757000Y-88293000D01*
X135866000Y-87252000D02*
X134356000Y-87252000D01*
X138910000Y-88493000D02*
X137946000Y-88493000D01*
X135866000Y-86932000D02*
X134327000Y-86932000D01*
X139334000Y-87733000D02*
X137946000Y-87733000D01*
X135866000Y-87412000D02*
X134386000Y-87412000D01*
X139386000Y-87573000D02*
X137946000Y-87573000D01*
X135866000Y-88573000D02*
X134969000Y-88573000D01*
X135866000Y-88013000D02*
X134596000Y-88013000D01*
X139196000Y-88053000D02*
X137946000Y-88053000D01*
X139304000Y-87813000D02*
X137946000Y-87813000D01*
X135866000Y-87292000D02*
X134363000Y-87292000D01*
X135866000Y-88373000D02*
X134811000Y-88373000D01*
X135866000Y-88253000D02*
X134731000Y-88253000D01*
X135866000Y-87893000D02*
X134541000Y-87893000D01*
X135866000Y-87973000D02*
X134577000Y-87973000D01*
X138649000Y-88773000D02*
X137946000Y-88773000D01*
X135866000Y-87773000D02*
X134492000Y-87773000D01*
X135866000Y-88453000D02*
X134871000Y-88453000D01*
X137821000Y-89293000D02*
X135991000Y-89293000D01*
X139254000Y-87933000D02*
X137946000Y-87933000D01*
X135866000Y-87532000D02*
X134415000Y-87532000D01*
X135866000Y-88533000D02*
X134935000Y-88533000D01*
X135866000Y-88773000D02*
X135163000Y-88773000D01*
X139484000Y-86972000D02*
X137946000Y-86972000D01*
X139130000Y-88173000D02*
X137946000Y-88173000D01*
X135866000Y-87332000D02*
X134370000Y-87332000D01*
X139081000Y-88253000D02*
X137946000Y-88253000D01*
X139397000Y-87532000D02*
X137946000Y-87532000D01*
X137917000Y-89253000D02*
X135895000Y-89253000D01*
X138877000Y-88533000D02*
X137946000Y-88533000D01*
X138084000Y-89173000D02*
X135728000Y-89173000D01*
X139456000Y-87252000D02*
X137946000Y-87252000D01*
X135866000Y-87012000D02*
X134330000Y-87012000D01*
X139216000Y-88013000D02*
X137946000Y-88013000D01*
X135866000Y-88413000D02*
X134841000Y-88413000D01*
X138460000Y-88933000D02*
X135352000Y-88933000D01*
X135866000Y-88173000D02*
X134682000Y-88173000D01*
X135866000Y-88213000D02*
X134706000Y-88213000D01*
X139482000Y-87012000D02*
X137946000Y-87012000D01*
X138732000Y-88693000D02*
X137946000Y-88693000D01*
X138631000Y-84297225D02*
X138131000Y-84297225D01*
X139442000Y-87332000D02*
X137946000Y-87332000D01*
X135866000Y-88653000D02*
X135042000Y-88653000D01*
X138289000Y-89053000D02*
X135523000Y-89053000D01*
X135866000Y-87132000D02*
X134341000Y-87132000D01*
X138511000Y-88893000D02*
X135301000Y-88893000D01*
X139486000Y-86892000D02*
X137946000Y-86892000D01*
X139361000Y-87653000D02*
X137946000Y-87653000D01*
X135866000Y-87172000D02*
X134345000Y-87172000D01*
X139288000Y-87853000D02*
X137946000Y-87853000D01*
X137711000Y-89333000D02*
X136101000Y-89333000D01*
X135866000Y-88333000D02*
X134784000Y-88333000D01*
X135866000Y-88133000D02*
X134659000Y-88133000D01*
X138157000Y-89133000D02*
X135655000Y-89133000D01*
X135866000Y-87372000D02*
X134378000Y-87372000D01*
X138770000Y-88653000D02*
X137946000Y-88653000D01*
X135866000Y-87693000D02*
X134464000Y-87693000D01*
X135866000Y-87573000D02*
X134426000Y-87573000D01*
X139001000Y-88373000D02*
X137946000Y-88373000D01*
X135866000Y-87613000D02*
X134438000Y-87613000D01*
X139479000Y-87052000D02*
X137946000Y-87052000D01*
X139475000Y-87092000D02*
X137946000Y-87092000D01*
X138971000Y-88413000D02*
X137946000Y-88413000D01*
X138004000Y-89213000D02*
X135808000Y-89213000D01*
X135866000Y-88733000D02*
X135121000Y-88733000D01*
X139434000Y-87372000D02*
X137946000Y-87372000D01*
X138605000Y-88813000D02*
X137946000Y-88813000D01*
X139374000Y-87613000D02*
X137946000Y-87613000D01*
X135866000Y-87212000D02*
X134350000Y-87212000D01*
X139471000Y-87132000D02*
X137946000Y-87132000D01*
X138843000Y-88573000D02*
X137946000Y-88573000D01*
X139106000Y-88213000D02*
X137946000Y-88213000D01*
X137583000Y-89373000D02*
X136229000Y-89373000D01*
X139348000Y-87693000D02*
X137946000Y-87693000D01*
X139486000Y-86852000D02*
X137946000Y-86852000D01*
X139271000Y-87893000D02*
X137946000Y-87893000D01*
X135866000Y-86892000D02*
X134326000Y-86892000D01*
X135866000Y-87813000D02*
X134508000Y-87813000D01*
X138349000Y-89013000D02*
X135463000Y-89013000D01*
X135866000Y-87092000D02*
X134337000Y-87092000D01*
X139462000Y-87212000D02*
X137946000Y-87212000D01*
X139467000Y-87172000D02*
X137946000Y-87172000D01*
X135866000Y-87052000D02*
X134333000Y-87052000D01*
X139426000Y-87412000D02*
X137946000Y-87412000D01*
X135866000Y-88613000D02*
X135005000Y-88613000D01*
X135866000Y-87853000D02*
X134524000Y-87853000D01*
X135866000Y-87733000D02*
X134478000Y-87733000D01*
X135866000Y-87492000D02*
X134405000Y-87492000D01*
X139174000Y-88093000D02*
X137946000Y-88093000D01*
X135866000Y-88493000D02*
X134902000Y-88493000D01*
X139526000Y-86852000D02*
G75*
G03*
X139526000Y-86852000I-2620000J0D01*
G01*
%TO.C,U3*%
X110814000Y-104768000D02*
X110814000Y-103118000D01*
X90374000Y-104768000D02*
X110814000Y-104768000D01*
X110874000Y-96978000D02*
X90314000Y-96978000D01*
X90314000Y-107258000D02*
X110874000Y-107258000D01*
X90314000Y-96978000D02*
X90314000Y-107258000D01*
X110814000Y-101118000D02*
X110814000Y-99468000D01*
X90374000Y-99468000D02*
X90374000Y-104768000D01*
X110874000Y-107258000D02*
X110874000Y-96978000D01*
X110814000Y-99468000D02*
X90374000Y-99468000D01*
X110814000Y-101118000D02*
G75*
G03*
X110814000Y-103118000I0J-1000000D01*
G01*
%TO.C,U2*%
X147574000Y-87328000D02*
X147574000Y-89868000D01*
X139914000Y-71438000D02*
X150154000Y-71438000D01*
X139914000Y-71438000D02*
X139914000Y-87328000D01*
X145034000Y-87328000D02*
X145034000Y-89868000D01*
X142494000Y-87328000D02*
X142494000Y-89868000D01*
X150154000Y-71438000D02*
X150154000Y-87328000D01*
X139914000Y-87328000D02*
X150154000Y-87328000D01*
%TO.C,C3*%
X89601000Y-94900000D02*
X89601000Y-96035000D01*
X88800000Y-91349000D02*
X88800000Y-92820000D01*
X90361000Y-92417000D02*
X90361000Y-95303000D01*
X88680000Y-91324000D02*
X88680000Y-92820000D01*
X89281000Y-94900000D02*
X89281000Y-96208000D01*
X89761000Y-94900000D02*
X89761000Y-95925000D01*
X89841000Y-94900000D02*
X89841000Y-95864000D01*
X88200000Y-94900000D02*
X88200000Y-96440000D01*
X89641000Y-94900000D02*
X89641000Y-96009000D01*
X88640000Y-94900000D02*
X88640000Y-96403000D01*
X90761000Y-93342000D02*
X90761000Y-94378000D01*
X88520000Y-91299000D02*
X88520000Y-92820000D01*
X88440000Y-94900000D02*
X88440000Y-96429000D01*
X88640000Y-91317000D02*
X88640000Y-92820000D01*
X89521000Y-91636000D02*
X89521000Y-92820000D01*
X90641000Y-92945000D02*
X90641000Y-94775000D01*
X89121000Y-91446000D02*
X89121000Y-92820000D01*
X89401000Y-94900000D02*
X89401000Y-96150000D01*
X88600000Y-94900000D02*
X88600000Y-96410000D01*
X88880000Y-91369000D02*
X88880000Y-92820000D01*
X89401000Y-91570000D02*
X89401000Y-92820000D01*
X89881000Y-91889000D02*
X89881000Y-92820000D01*
X88880000Y-94900000D02*
X88880000Y-96351000D01*
X89201000Y-94900000D02*
X89201000Y-96242000D01*
X89561000Y-94900000D02*
X89561000Y-96060000D01*
X89201000Y-91478000D02*
X89201000Y-92820000D01*
X89441000Y-91592000D02*
X89441000Y-92820000D01*
X88921000Y-94900000D02*
X88921000Y-96340000D01*
X89921000Y-91923000D02*
X89921000Y-92820000D01*
X88440000Y-91291000D02*
X88440000Y-92820000D01*
X88480000Y-91295000D02*
X88480000Y-92820000D01*
X89081000Y-91432000D02*
X89081000Y-92820000D01*
X89881000Y-94900000D02*
X89881000Y-95831000D01*
X89721000Y-94900000D02*
X89721000Y-95955000D01*
X89561000Y-91660000D02*
X89561000Y-92820000D01*
X88240000Y-94900000D02*
X88240000Y-96440000D01*
X88520000Y-94900000D02*
X88520000Y-96421000D01*
X88720000Y-91332000D02*
X88720000Y-92820000D01*
X90521000Y-92682000D02*
X90521000Y-95038000D01*
X89801000Y-91825000D02*
X89801000Y-92820000D01*
X90721000Y-93183000D02*
X90721000Y-94537000D01*
X90481000Y-92609000D02*
X90481000Y-95111000D01*
X88400000Y-91287000D02*
X88400000Y-92820000D01*
X88320000Y-91282000D02*
X88320000Y-92820000D01*
X90001000Y-91996000D02*
X90001000Y-92820000D01*
X90121000Y-94900000D02*
X90121000Y-95603000D01*
X85395225Y-92385000D02*
X85895225Y-92385000D01*
X90241000Y-92255000D02*
X90241000Y-95465000D01*
X90121000Y-92117000D02*
X90121000Y-92820000D01*
X89521000Y-94900000D02*
X89521000Y-96084000D01*
X90161000Y-92161000D02*
X90161000Y-92820000D01*
X89081000Y-94900000D02*
X89081000Y-96288000D01*
X88760000Y-91340000D02*
X88760000Y-92820000D01*
X89361000Y-91550000D02*
X89361000Y-92820000D01*
X89161000Y-94900000D02*
X89161000Y-96258000D01*
X89961000Y-91959000D02*
X89961000Y-92820000D01*
X88280000Y-94900000D02*
X88280000Y-96439000D01*
X88320000Y-94900000D02*
X88320000Y-96438000D01*
X88360000Y-91284000D02*
X88360000Y-92820000D01*
X89041000Y-91418000D02*
X89041000Y-92820000D01*
X89161000Y-91462000D02*
X89161000Y-92820000D01*
X89681000Y-94900000D02*
X89681000Y-95982000D01*
X89361000Y-94900000D02*
X89361000Y-96170000D01*
X89281000Y-91512000D02*
X89281000Y-92820000D01*
X88280000Y-91281000D02*
X88280000Y-92820000D01*
X88680000Y-94900000D02*
X88680000Y-96396000D01*
X90601000Y-92849000D02*
X90601000Y-94871000D01*
X89041000Y-94900000D02*
X89041000Y-96302000D01*
X85645225Y-92135000D02*
X85645225Y-92635000D01*
X88600000Y-91310000D02*
X88600000Y-92820000D01*
X90001000Y-94900000D02*
X90001000Y-95724000D01*
X88560000Y-94900000D02*
X88560000Y-96416000D01*
X89121000Y-94900000D02*
X89121000Y-96274000D01*
X88921000Y-91380000D02*
X88921000Y-92820000D01*
X90081000Y-92075000D02*
X90081000Y-92820000D01*
X89721000Y-91765000D02*
X89721000Y-92820000D01*
X89801000Y-94900000D02*
X89801000Y-95895000D01*
X89761000Y-91795000D02*
X89761000Y-92820000D01*
X88720000Y-94900000D02*
X88720000Y-96388000D01*
X89841000Y-91856000D02*
X89841000Y-92820000D01*
X90081000Y-94900000D02*
X90081000Y-95645000D01*
X90201000Y-94900000D02*
X90201000Y-95513000D01*
X89441000Y-94900000D02*
X89441000Y-96128000D01*
X89481000Y-91613000D02*
X89481000Y-92820000D01*
X88800000Y-94900000D02*
X88800000Y-96371000D01*
X89241000Y-94900000D02*
X89241000Y-96225000D01*
X89961000Y-94900000D02*
X89961000Y-95761000D01*
X90801000Y-93576000D02*
X90801000Y-94144000D01*
X88560000Y-91304000D02*
X88560000Y-92820000D01*
X89001000Y-94900000D02*
X89001000Y-96315000D01*
X90561000Y-92762000D02*
X90561000Y-94958000D01*
X89321000Y-91531000D02*
X89321000Y-92820000D01*
X90201000Y-92207000D02*
X90201000Y-92820000D01*
X89481000Y-94900000D02*
X89481000Y-96107000D01*
X88840000Y-91359000D02*
X88840000Y-92820000D01*
X90681000Y-93055000D02*
X90681000Y-94665000D01*
X88360000Y-94900000D02*
X88360000Y-96436000D01*
X90321000Y-92360000D02*
X90321000Y-95360000D01*
X88961000Y-91392000D02*
X88961000Y-92820000D01*
X88200000Y-91280000D02*
X88200000Y-92820000D01*
X88240000Y-91280000D02*
X88240000Y-92820000D01*
X88760000Y-94900000D02*
X88760000Y-96380000D01*
X88961000Y-94900000D02*
X88961000Y-96328000D01*
X88480000Y-94900000D02*
X88480000Y-96425000D01*
X89241000Y-91495000D02*
X89241000Y-92820000D01*
X88840000Y-94900000D02*
X88840000Y-96361000D01*
X90281000Y-92306000D02*
X90281000Y-95414000D01*
X89321000Y-94900000D02*
X89321000Y-96189000D01*
X88400000Y-94900000D02*
X88400000Y-96433000D01*
X89001000Y-91405000D02*
X89001000Y-92820000D01*
X89921000Y-94900000D02*
X89921000Y-95797000D01*
X90401000Y-92477000D02*
X90401000Y-95243000D01*
X90041000Y-92034000D02*
X90041000Y-92820000D01*
X90041000Y-94900000D02*
X90041000Y-95686000D01*
X90441000Y-92541000D02*
X90441000Y-95179000D01*
X89641000Y-91711000D02*
X89641000Y-92820000D01*
X90161000Y-94900000D02*
X90161000Y-95559000D01*
X89681000Y-91738000D02*
X89681000Y-92820000D01*
X89601000Y-91685000D02*
X89601000Y-92820000D01*
X90820000Y-93860000D02*
G75*
G03*
X90820000Y-93860000I-2620000J0D01*
G01*
%TO.C,C2*%
X108480000Y-92760000D02*
X108480000Y-91235000D01*
X108200000Y-96320000D02*
X108200000Y-94840000D01*
X106879000Y-95585000D02*
X106879000Y-94840000D01*
X107759000Y-96182000D02*
X107759000Y-94840000D01*
X107599000Y-96110000D02*
X107599000Y-94840000D01*
X107399000Y-96000000D02*
X107399000Y-94840000D01*
X111314775Y-95525000D02*
X111314775Y-95025000D01*
X107359000Y-95975000D02*
X107359000Y-94840000D01*
X107959000Y-92760000D02*
X107959000Y-91345000D01*
X107159000Y-95835000D02*
X107159000Y-94840000D01*
X107959000Y-96255000D02*
X107959000Y-94840000D01*
X107719000Y-96165000D02*
X107719000Y-94840000D01*
X108240000Y-96328000D02*
X108240000Y-94840000D01*
X107439000Y-92760000D02*
X107439000Y-91576000D01*
X107879000Y-92760000D02*
X107879000Y-91372000D01*
X108680000Y-92760000D02*
X108680000Y-91221000D01*
X107199000Y-92760000D02*
X107199000Y-91735000D01*
X107279000Y-92760000D02*
X107279000Y-91678000D01*
X107519000Y-92760000D02*
X107519000Y-91532000D01*
X107159000Y-92760000D02*
X107159000Y-91765000D01*
X108080000Y-96291000D02*
X108080000Y-94840000D01*
X107679000Y-96148000D02*
X107679000Y-94840000D01*
X106599000Y-95243000D02*
X106599000Y-92357000D01*
X107999000Y-96268000D02*
X107999000Y-94840000D01*
X108200000Y-92760000D02*
X108200000Y-91280000D01*
X108320000Y-96343000D02*
X108320000Y-94840000D01*
X106479000Y-95051000D02*
X106479000Y-92549000D01*
X107439000Y-96024000D02*
X107439000Y-94840000D01*
X107079000Y-95771000D02*
X107079000Y-94840000D01*
X108160000Y-96311000D02*
X108160000Y-94840000D01*
X107039000Y-92760000D02*
X107039000Y-91863000D01*
X108720000Y-92760000D02*
X108720000Y-91220000D01*
X108520000Y-92760000D02*
X108520000Y-91231000D01*
X106439000Y-94978000D02*
X106439000Y-92622000D01*
X108640000Y-92760000D02*
X108640000Y-91222000D01*
X107479000Y-92760000D02*
X107479000Y-91553000D01*
X106239000Y-94477000D02*
X106239000Y-93123000D01*
X106319000Y-94715000D02*
X106319000Y-92885000D01*
X108360000Y-92760000D02*
X108360000Y-91250000D01*
X106999000Y-95701000D02*
X106999000Y-94840000D01*
X108120000Y-92760000D02*
X108120000Y-91299000D01*
X106919000Y-92760000D02*
X106919000Y-91974000D01*
X108280000Y-92760000D02*
X108280000Y-91264000D01*
X108400000Y-92760000D02*
X108400000Y-91244000D01*
X107039000Y-95737000D02*
X107039000Y-94840000D01*
X107359000Y-92760000D02*
X107359000Y-91625000D01*
X107239000Y-92760000D02*
X107239000Y-91705000D01*
X107639000Y-92760000D02*
X107639000Y-91471000D01*
X106759000Y-92760000D02*
X106759000Y-92147000D01*
X106839000Y-92760000D02*
X106839000Y-92057000D01*
X107279000Y-95922000D02*
X107279000Y-94840000D01*
X106159000Y-94084000D02*
X106159000Y-93516000D01*
X111564775Y-95275000D02*
X111064775Y-95275000D01*
X108360000Y-96350000D02*
X108360000Y-94840000D01*
X108039000Y-96280000D02*
X108039000Y-94840000D01*
X107919000Y-96242000D02*
X107919000Y-94840000D01*
X106719000Y-95405000D02*
X106719000Y-92195000D01*
X108400000Y-96356000D02*
X108400000Y-94840000D01*
X107199000Y-95865000D02*
X107199000Y-94840000D01*
X107639000Y-96129000D02*
X107639000Y-94840000D01*
X108760000Y-96380000D02*
X108760000Y-94840000D01*
X107599000Y-92760000D02*
X107599000Y-91490000D01*
X108600000Y-96376000D02*
X108600000Y-94840000D01*
X108600000Y-92760000D02*
X108600000Y-91224000D01*
X106759000Y-95453000D02*
X106759000Y-94840000D01*
X107559000Y-96090000D02*
X107559000Y-94840000D01*
X108120000Y-96301000D02*
X108120000Y-94840000D01*
X108720000Y-96380000D02*
X108720000Y-94840000D01*
X108039000Y-92760000D02*
X108039000Y-91320000D01*
X106199000Y-94318000D02*
X106199000Y-93282000D01*
X107119000Y-95804000D02*
X107119000Y-94840000D01*
X106519000Y-95119000D02*
X106519000Y-92481000D01*
X108560000Y-96373000D02*
X108560000Y-94840000D01*
X107559000Y-92760000D02*
X107559000Y-91510000D01*
X107319000Y-95949000D02*
X107319000Y-94840000D01*
X106279000Y-94605000D02*
X106279000Y-92995000D01*
X108240000Y-92760000D02*
X108240000Y-91272000D01*
X107319000Y-92760000D02*
X107319000Y-91651000D01*
X106999000Y-92760000D02*
X106999000Y-91899000D01*
X108080000Y-92760000D02*
X108080000Y-91309000D01*
X107479000Y-96047000D02*
X107479000Y-94840000D01*
X107999000Y-92760000D02*
X107999000Y-91332000D01*
X107119000Y-92760000D02*
X107119000Y-91796000D01*
X108480000Y-96365000D02*
X108480000Y-94840000D01*
X107399000Y-92760000D02*
X107399000Y-91600000D01*
X107759000Y-92760000D02*
X107759000Y-91418000D01*
X106919000Y-95626000D02*
X106919000Y-94840000D01*
X106359000Y-94811000D02*
X106359000Y-92789000D01*
X106559000Y-95183000D02*
X106559000Y-92417000D01*
X108520000Y-96369000D02*
X108520000Y-94840000D01*
X107719000Y-92760000D02*
X107719000Y-91435000D01*
X108280000Y-96336000D02*
X108280000Y-94840000D01*
X108640000Y-96378000D02*
X108640000Y-94840000D01*
X108440000Y-96361000D02*
X108440000Y-94840000D01*
X106959000Y-95664000D02*
X106959000Y-94840000D01*
X106639000Y-95300000D02*
X106639000Y-92300000D01*
X108560000Y-92760000D02*
X108560000Y-91227000D01*
X107079000Y-92760000D02*
X107079000Y-91829000D01*
X107919000Y-92760000D02*
X107919000Y-91358000D01*
X107799000Y-96198000D02*
X107799000Y-94840000D01*
X108320000Y-92760000D02*
X108320000Y-91257000D01*
X106839000Y-95543000D02*
X106839000Y-94840000D01*
X107839000Y-92760000D02*
X107839000Y-91386000D01*
X108680000Y-96379000D02*
X108680000Y-94840000D01*
X106879000Y-92760000D02*
X106879000Y-92015000D01*
X107839000Y-96214000D02*
X107839000Y-94840000D01*
X108760000Y-92760000D02*
X108760000Y-91220000D01*
X106799000Y-92760000D02*
X106799000Y-92101000D01*
X106799000Y-95499000D02*
X106799000Y-94840000D01*
X106959000Y-92760000D02*
X106959000Y-91936000D01*
X107799000Y-92760000D02*
X107799000Y-91402000D01*
X108160000Y-92760000D02*
X108160000Y-91289000D01*
X107519000Y-96068000D02*
X107519000Y-94840000D01*
X106399000Y-94898000D02*
X106399000Y-92702000D01*
X107679000Y-92760000D02*
X107679000Y-91452000D01*
X106679000Y-95354000D02*
X106679000Y-92246000D01*
X107879000Y-96228000D02*
X107879000Y-94840000D01*
X107239000Y-95895000D02*
X107239000Y-94840000D01*
X108440000Y-92760000D02*
X108440000Y-91239000D01*
X111380000Y-93800000D02*
G75*
G03*
X111380000Y-93800000I-2620000J0D01*
G01*
%TO.C,C1*%
X160223888Y-85978000D02*
X160223888Y-87352000D01*
X161223888Y-89432000D02*
X161223888Y-90135000D01*
X156748113Y-86667000D02*
X156748113Y-87167000D01*
X159342888Y-85812000D02*
X159342888Y-87352000D01*
X159542888Y-89432000D02*
X159542888Y-90961000D01*
X159582888Y-85827000D02*
X159582888Y-87352000D01*
X160503888Y-86102000D02*
X160503888Y-87352000D01*
X161663888Y-87294000D02*
X161663888Y-89490000D01*
X160783888Y-89432000D02*
X160783888Y-90514000D01*
X159902888Y-85881000D02*
X159902888Y-87352000D01*
X160383888Y-86044000D02*
X160383888Y-87352000D01*
X161543888Y-87073000D02*
X161543888Y-89711000D01*
X159622888Y-85831000D02*
X159622888Y-87352000D01*
X161623888Y-87214000D02*
X161623888Y-89570000D01*
X159902888Y-89432000D02*
X159902888Y-90903000D01*
X159942888Y-89432000D02*
X159942888Y-90893000D01*
X160743888Y-86243000D02*
X160743888Y-87352000D01*
X160703888Y-86217000D02*
X160703888Y-87352000D01*
X161743888Y-87477000D02*
X161743888Y-89307000D01*
X160543888Y-89432000D02*
X160543888Y-90660000D01*
X161423888Y-86892000D02*
X161423888Y-89892000D01*
X161023888Y-86455000D02*
X161023888Y-87352000D01*
X160263888Y-89432000D02*
X160263888Y-90790000D01*
X160623888Y-89432000D02*
X160623888Y-90616000D01*
X160423888Y-86063000D02*
X160423888Y-87352000D01*
X161263888Y-86693000D02*
X161263888Y-87352000D01*
X160023888Y-89432000D02*
X160023888Y-90872000D01*
X161463888Y-86949000D02*
X161463888Y-89835000D01*
X161303888Y-89432000D02*
X161303888Y-90045000D01*
X161183888Y-86607000D02*
X161183888Y-87352000D01*
X160303888Y-86010000D02*
X160303888Y-87352000D01*
X159422888Y-85814000D02*
X159422888Y-87352000D01*
X159502888Y-85819000D02*
X159502888Y-87352000D01*
X161383888Y-86838000D02*
X161383888Y-89946000D01*
X160823888Y-89432000D02*
X160823888Y-90487000D01*
X161143888Y-86566000D02*
X161143888Y-87352000D01*
X159622888Y-89432000D02*
X159622888Y-90953000D01*
X161303888Y-86739000D02*
X161303888Y-87352000D01*
X159862888Y-89432000D02*
X159862888Y-90912000D01*
X161023888Y-89432000D02*
X161023888Y-90329000D01*
X160583888Y-89432000D02*
X160583888Y-90639000D01*
X160823888Y-86297000D02*
X160823888Y-87352000D01*
X160103888Y-85937000D02*
X160103888Y-87352000D01*
X161783888Y-87587000D02*
X161783888Y-89197000D01*
X160063888Y-85924000D02*
X160063888Y-87352000D01*
X159662888Y-85836000D02*
X159662888Y-87352000D01*
X160023888Y-85912000D02*
X160023888Y-87352000D01*
X159742888Y-89432000D02*
X159742888Y-90935000D01*
X160303888Y-89432000D02*
X160303888Y-90774000D01*
X160623888Y-86168000D02*
X160623888Y-87352000D01*
X160223888Y-89432000D02*
X160223888Y-90806000D01*
X161143888Y-89432000D02*
X161143888Y-90218000D01*
X159822888Y-89432000D02*
X159822888Y-90920000D01*
X161863888Y-87874000D02*
X161863888Y-88910000D01*
X159342888Y-89432000D02*
X159342888Y-90972000D01*
X160863888Y-89432000D02*
X160863888Y-90457000D01*
X160343888Y-86027000D02*
X160343888Y-87352000D01*
X160423888Y-89432000D02*
X160423888Y-90721000D01*
X160863888Y-86327000D02*
X160863888Y-87352000D01*
X160583888Y-86145000D02*
X160583888Y-87352000D01*
X161063888Y-89432000D02*
X161063888Y-90293000D01*
X159862888Y-85872000D02*
X159862888Y-87352000D01*
X159542888Y-85823000D02*
X159542888Y-87352000D01*
X159742888Y-85849000D02*
X159742888Y-87352000D01*
X160263888Y-85994000D02*
X160263888Y-87352000D01*
X159582888Y-89432000D02*
X159582888Y-90957000D01*
X160103888Y-89432000D02*
X160103888Y-90847000D01*
X160183888Y-85964000D02*
X160183888Y-87352000D01*
X159662888Y-89432000D02*
X159662888Y-90948000D01*
X160543888Y-86124000D02*
X160543888Y-87352000D01*
X161183888Y-89432000D02*
X161183888Y-90177000D01*
X160783888Y-86270000D02*
X160783888Y-87352000D01*
X161103888Y-86528000D02*
X161103888Y-87352000D01*
X160063888Y-89432000D02*
X160063888Y-90860000D01*
X159462888Y-89432000D02*
X159462888Y-90968000D01*
X160383888Y-89432000D02*
X160383888Y-90740000D01*
X160703888Y-89432000D02*
X160703888Y-90567000D01*
X159782888Y-89432000D02*
X159782888Y-90928000D01*
X160463888Y-89432000D02*
X160463888Y-90702000D01*
X160143888Y-85950000D02*
X160143888Y-87352000D01*
X160983888Y-86421000D02*
X160983888Y-87352000D01*
X161503888Y-87009000D02*
X161503888Y-89775000D01*
X159942888Y-85891000D02*
X159942888Y-87352000D01*
X160903888Y-86357000D02*
X160903888Y-87352000D01*
X161223888Y-86649000D02*
X161223888Y-87352000D01*
X161263888Y-89432000D02*
X161263888Y-90091000D01*
X160503888Y-89432000D02*
X160503888Y-90682000D01*
X160343888Y-89432000D02*
X160343888Y-90757000D01*
X159302888Y-85812000D02*
X159302888Y-87352000D01*
X160663888Y-86192000D02*
X160663888Y-87352000D01*
X159982888Y-85901000D02*
X159982888Y-87352000D01*
X161583888Y-87141000D02*
X161583888Y-89643000D01*
X160983888Y-89432000D02*
X160983888Y-90363000D01*
X161903888Y-88108000D02*
X161903888Y-88676000D01*
X159502888Y-89432000D02*
X159502888Y-90965000D01*
X159782888Y-85856000D02*
X159782888Y-87352000D01*
X159702888Y-85842000D02*
X159702888Y-87352000D01*
X161103888Y-89432000D02*
X161103888Y-90256000D01*
X161063888Y-86491000D02*
X161063888Y-87352000D01*
X159982888Y-89432000D02*
X159982888Y-90883000D01*
X160943888Y-86388000D02*
X160943888Y-87352000D01*
X161343888Y-86787000D02*
X161343888Y-89997000D01*
X159702888Y-89432000D02*
X159702888Y-90942000D01*
X160903888Y-89432000D02*
X160903888Y-90427000D01*
X160183888Y-89432000D02*
X160183888Y-90820000D01*
X161703888Y-87381000D02*
X161703888Y-89403000D01*
X159822888Y-85864000D02*
X159822888Y-87352000D01*
X160143888Y-89432000D02*
X160143888Y-90834000D01*
X159462888Y-85816000D02*
X159462888Y-87352000D01*
X160743888Y-89432000D02*
X160743888Y-90541000D01*
X160663888Y-89432000D02*
X160663888Y-90592000D01*
X159422888Y-89432000D02*
X159422888Y-90970000D01*
X156498113Y-86917000D02*
X156998113Y-86917000D01*
X159382888Y-85813000D02*
X159382888Y-87352000D01*
X159382888Y-89432000D02*
X159382888Y-90971000D01*
X159302888Y-89432000D02*
X159302888Y-90972000D01*
X160463888Y-86082000D02*
X160463888Y-87352000D01*
X161823888Y-87715000D02*
X161823888Y-89069000D01*
X160943888Y-89432000D02*
X160943888Y-90396000D01*
X161922888Y-88392000D02*
G75*
G03*
X161922888Y-88392000I-2620000J0D01*
G01*
%TO.C,JP9*%
X125536000Y-117850000D02*
X124206000Y-117850000D01*
X125536000Y-115250000D02*
X122876000Y-115250000D01*
X125536000Y-110110000D02*
X122876000Y-110110000D01*
X122876000Y-115250000D02*
X122876000Y-110110000D01*
X125536000Y-115250000D02*
X125536000Y-110110000D01*
X125536000Y-116520000D02*
X125536000Y-117850000D01*
%TO.C,SW1*%
X136922000Y-67906000D02*
X132422000Y-67906000D01*
X138172000Y-71906000D02*
X138172000Y-70406000D01*
X132422000Y-74406000D02*
X136922000Y-74406000D01*
X131172000Y-70406000D02*
X131172000Y-71906000D01*
%TO.C,R6*%
X97314000Y-70890000D02*
X97314000Y-71220000D01*
X103854000Y-68480000D02*
X103854000Y-68810000D01*
X97314000Y-68810000D02*
X97314000Y-68480000D01*
X97314000Y-68480000D02*
X103854000Y-68480000D01*
X103854000Y-71220000D02*
X103854000Y-70890000D01*
X97314000Y-71220000D02*
X103854000Y-71220000D01*
%TO.C,R8*%
X126976000Y-74644000D02*
X126646000Y-74644000D01*
X126646000Y-68104000D02*
X126976000Y-68104000D01*
X126646000Y-74644000D02*
X126646000Y-68104000D01*
X129056000Y-74644000D02*
X129386000Y-74644000D01*
X129386000Y-74644000D02*
X129386000Y-68104000D01*
X129386000Y-68104000D02*
X129056000Y-68104000D01*
%TO.C,R7*%
X133690000Y-88170000D02*
X133690000Y-94710000D01*
X130950000Y-88170000D02*
X130950000Y-94710000D01*
X131280000Y-88170000D02*
X130950000Y-88170000D01*
X133360000Y-88170000D02*
X133690000Y-88170000D01*
X130950000Y-94710000D02*
X131280000Y-94710000D01*
X133690000Y-94710000D02*
X133360000Y-94710000D01*
%TO.C,JP1*%
X100020000Y-115145000D02*
X100020000Y-110005000D01*
X100020000Y-117745000D02*
X98690000Y-117745000D01*
X100020000Y-115145000D02*
X97360000Y-115145000D01*
X100020000Y-116415000D02*
X100020000Y-117745000D01*
X97360000Y-115145000D02*
X97360000Y-110005000D01*
X100020000Y-110005000D02*
X97360000Y-110005000D01*
%TO.C,R3*%
X97360000Y-94180000D02*
X97030000Y-94180000D01*
X99770000Y-87640000D02*
X99440000Y-87640000D01*
X97030000Y-94180000D02*
X97030000Y-87640000D01*
X99440000Y-94180000D02*
X99770000Y-94180000D01*
X97030000Y-87640000D02*
X97360000Y-87640000D01*
X99770000Y-94180000D02*
X99770000Y-87640000D01*
%TO.C,J2*%
X72040000Y-72550000D02*
X84380000Y-72550000D01*
X84841325Y-115780000D02*
X85274338Y-115530000D01*
X85274338Y-116030000D02*
X84841325Y-115780000D01*
X84380000Y-72550000D02*
X84380000Y-125770000D01*
X84380000Y-125770000D02*
X72040000Y-125770000D01*
X85274338Y-115530000D02*
X85274338Y-116030000D01*
%TO.C,R12*%
X86440000Y-68050000D02*
X79900000Y-68050000D01*
X86440000Y-70460000D02*
X86440000Y-70790000D01*
X79900000Y-68050000D02*
X79900000Y-68380000D01*
X86440000Y-68380000D02*
X86440000Y-68050000D01*
X86440000Y-70790000D02*
X79900000Y-70790000D01*
X79900000Y-70790000D02*
X79900000Y-70460000D01*
%TO.C,R9*%
X103850000Y-80690000D02*
X103520000Y-80690000D01*
X103520000Y-74150000D02*
X103850000Y-74150000D01*
X101110000Y-74150000D02*
X101110000Y-80690000D01*
X101110000Y-80690000D02*
X101440000Y-80690000D01*
X103850000Y-74150000D02*
X103850000Y-80690000D01*
X101440000Y-74150000D02*
X101110000Y-74150000D01*
%TO.C,C9*%
X97770000Y-82700000D02*
X103010000Y-82700000D01*
X97770000Y-85125000D02*
X97770000Y-85440000D01*
X97770000Y-85440000D02*
X103010000Y-85440000D01*
X97770000Y-82700000D02*
X97770000Y-83015000D01*
X103010000Y-82700000D02*
X103010000Y-83015000D01*
X103010000Y-85125000D02*
X103010000Y-85440000D01*
%TO.C,JP6*%
X95818000Y-87630000D02*
X95818000Y-88960000D01*
X95818000Y-81220000D02*
X93158000Y-81220000D01*
X95818000Y-88960000D02*
X94488000Y-88960000D01*
X95818000Y-86360000D02*
X95818000Y-81220000D01*
X95818000Y-86360000D02*
X93158000Y-86360000D01*
X93158000Y-86360000D02*
X93158000Y-81220000D01*
%TO.C,J4*%
X95390000Y-76160000D02*
X96720000Y-76160000D01*
X96720000Y-76160000D02*
X96720000Y-77490000D01*
X94120000Y-78820000D02*
X88980000Y-78820000D01*
X88980000Y-76160000D02*
X88980000Y-78820000D01*
X94120000Y-76160000D02*
X94120000Y-78820000D01*
X94120000Y-76160000D02*
X88980000Y-76160000D01*
%TO.C,C6*%
X112096000Y-91989000D02*
X113280000Y-91989000D01*
X115360000Y-92429000D02*
X116748000Y-92429000D01*
X115360000Y-91869000D02*
X116469000Y-91869000D01*
X115360000Y-93190000D02*
X116898000Y-93190000D01*
X112820000Y-91189000D02*
X115820000Y-91189000D01*
X111744000Y-93150000D02*
X113280000Y-93150000D01*
X113643000Y-90789000D02*
X114997000Y-90789000D01*
X111809000Y-92710000D02*
X113280000Y-92710000D01*
X115360000Y-91509000D02*
X116184000Y-91509000D01*
X112937000Y-91109000D02*
X115703000Y-91109000D01*
X113069000Y-91029000D02*
X115571000Y-91029000D01*
X113001000Y-91069000D02*
X115639000Y-91069000D01*
X115360000Y-91829000D02*
X116442000Y-91829000D01*
X111906000Y-92389000D02*
X113280000Y-92389000D01*
X112198000Y-91829000D02*
X113280000Y-91829000D01*
X115360000Y-91549000D02*
X116221000Y-91549000D01*
X115360000Y-91349000D02*
X116019000Y-91349000D01*
X111922000Y-92349000D02*
X113280000Y-92349000D01*
X111770000Y-92910000D02*
X113280000Y-92910000D01*
X111852000Y-92549000D02*
X113280000Y-92549000D01*
X115360000Y-91389000D02*
X116063000Y-91389000D01*
X114036000Y-90709000D02*
X114604000Y-90709000D01*
X115360000Y-93110000D02*
X116893000Y-93110000D01*
X111792000Y-92790000D02*
X113280000Y-92790000D01*
X111819000Y-92670000D02*
X113280000Y-92670000D01*
X111740000Y-93310000D02*
X113280000Y-93310000D01*
X115360000Y-92630000D02*
X116811000Y-92630000D01*
X115360000Y-93270000D02*
X116900000Y-93270000D01*
X112316000Y-91669000D02*
X113280000Y-91669000D01*
X111865000Y-92509000D02*
X113280000Y-92509000D01*
X112010000Y-92149000D02*
X113280000Y-92149000D01*
X115360000Y-93070000D02*
X116889000Y-93070000D01*
X111747000Y-93110000D02*
X113280000Y-93110000D01*
X111991000Y-92189000D02*
X113280000Y-92189000D01*
X115360000Y-92750000D02*
X116840000Y-92750000D01*
X115360000Y-91749000D02*
X116385000Y-91749000D01*
X115360000Y-92990000D02*
X116881000Y-92990000D01*
X113405000Y-90869000D02*
X115235000Y-90869000D01*
X112145000Y-91909000D02*
X113280000Y-91909000D01*
X111764000Y-92950000D02*
X113280000Y-92950000D01*
X115360000Y-93310000D02*
X116900000Y-93310000D01*
X115360000Y-92670000D02*
X116821000Y-92670000D01*
X115360000Y-92870000D02*
X116863000Y-92870000D01*
X115360000Y-92910000D02*
X116870000Y-92910000D01*
X113802000Y-90749000D02*
X114838000Y-90749000D01*
X115360000Y-92549000D02*
X116788000Y-92549000D01*
X111800000Y-92750000D02*
X113280000Y-92750000D01*
X113222000Y-90949000D02*
X115418000Y-90949000D01*
X115360000Y-91589000D02*
X116257000Y-91589000D01*
X112171000Y-91869000D02*
X113280000Y-91869000D01*
X115360000Y-92830000D02*
X116856000Y-92830000D01*
X112030000Y-92109000D02*
X113280000Y-92109000D01*
X115360000Y-92349000D02*
X116718000Y-92349000D01*
X115360000Y-91469000D02*
X116146000Y-91469000D01*
X115360000Y-92509000D02*
X116775000Y-92509000D01*
X112715000Y-91269000D02*
X115925000Y-91269000D01*
X115360000Y-91789000D02*
X116415000Y-91789000D01*
X111777000Y-92870000D02*
X113280000Y-92870000D01*
X115360000Y-93150000D02*
X116896000Y-93150000D01*
X115360000Y-92389000D02*
X116734000Y-92389000D01*
X115360000Y-92589000D02*
X116800000Y-92589000D01*
X111784000Y-92830000D02*
X113280000Y-92830000D01*
X113309000Y-90909000D02*
X115331000Y-90909000D01*
X115360000Y-91629000D02*
X116291000Y-91629000D01*
X115360000Y-92309000D02*
X116702000Y-92309000D01*
X115360000Y-92149000D02*
X116630000Y-92149000D01*
X111878000Y-92469000D02*
X113280000Y-92469000D01*
X112419000Y-91549000D02*
X113280000Y-91549000D01*
X112535000Y-91429000D02*
X113280000Y-91429000D01*
X115360000Y-91429000D02*
X116105000Y-91429000D01*
X113142000Y-90989000D02*
X115498000Y-90989000D01*
X111741000Y-93230000D02*
X113280000Y-93230000D01*
X115360000Y-92189000D02*
X116649000Y-92189000D01*
X115360000Y-92950000D02*
X116876000Y-92950000D01*
X111751000Y-93070000D02*
X113280000Y-93070000D01*
X112766000Y-91229000D02*
X115874000Y-91229000D01*
X115360000Y-92069000D02*
X116588000Y-92069000D01*
X115360000Y-93030000D02*
X116885000Y-93030000D01*
X112255000Y-91749000D02*
X113280000Y-91749000D01*
X115360000Y-93230000D02*
X116899000Y-93230000D01*
X115360000Y-92229000D02*
X116668000Y-92229000D01*
X111955000Y-92269000D02*
X113280000Y-92269000D01*
X111892000Y-92429000D02*
X113280000Y-92429000D01*
X112383000Y-91589000D02*
X113280000Y-91589000D01*
X115360000Y-91909000D02*
X116495000Y-91909000D01*
X115360000Y-92109000D02*
X116610000Y-92109000D01*
X111755000Y-93030000D02*
X113280000Y-93030000D01*
X115360000Y-91309000D02*
X115973000Y-91309000D01*
X115360000Y-92790000D02*
X116848000Y-92790000D01*
X112120000Y-91949000D02*
X113280000Y-91949000D01*
X115360000Y-91669000D02*
X116324000Y-91669000D01*
X111829000Y-92630000D02*
X113280000Y-92630000D01*
X111972000Y-92229000D02*
X113280000Y-92229000D01*
X115360000Y-91949000D02*
X116520000Y-91949000D01*
X112667000Y-91309000D02*
X113280000Y-91309000D01*
X112456000Y-91509000D02*
X113280000Y-91509000D01*
X115360000Y-91989000D02*
X116544000Y-91989000D01*
X112621000Y-91349000D02*
X113280000Y-91349000D01*
X111840000Y-92589000D02*
X113280000Y-92589000D01*
X111938000Y-92309000D02*
X113280000Y-92309000D01*
X115360000Y-92469000D02*
X116762000Y-92469000D01*
X112073000Y-92029000D02*
X113280000Y-92029000D01*
X112349000Y-91629000D02*
X113280000Y-91629000D01*
X112494000Y-91469000D02*
X113280000Y-91469000D01*
X112877000Y-91149000D02*
X115763000Y-91149000D01*
X112052000Y-92069000D02*
X113280000Y-92069000D01*
X115360000Y-92710000D02*
X116831000Y-92710000D01*
X112595000Y-95864775D02*
X113095000Y-95864775D01*
X112577000Y-91389000D02*
X113280000Y-91389000D01*
X111759000Y-92990000D02*
X113280000Y-92990000D01*
X111742000Y-93190000D02*
X113280000Y-93190000D01*
X111740000Y-93270000D02*
X113280000Y-93270000D01*
X112285000Y-91709000D02*
X113280000Y-91709000D01*
X113515000Y-90829000D02*
X115125000Y-90829000D01*
X112845000Y-96114775D02*
X112845000Y-95614775D01*
X112225000Y-91789000D02*
X113280000Y-91789000D01*
X115360000Y-92029000D02*
X116567000Y-92029000D01*
X115360000Y-92269000D02*
X116685000Y-92269000D01*
X115360000Y-91709000D02*
X116355000Y-91709000D01*
X116940000Y-93310000D02*
G75*
G03*
X116940000Y-93310000I-2620000J0D01*
G01*
%TO.C,C10*%
X132668000Y-111268000D02*
G75*
G03*
X132668000Y-111268000I-2620000J0D01*
G01*
X131088000Y-111228000D02*
X132628000Y-111228000D01*
X127801000Y-109987000D02*
X129008000Y-109987000D01*
X127498000Y-110868000D02*
X129008000Y-110868000D01*
X128184000Y-109467000D02*
X129008000Y-109467000D01*
X127537000Y-110668000D02*
X129008000Y-110668000D01*
X127780000Y-110027000D02*
X129008000Y-110027000D01*
X127580000Y-110507000D02*
X129008000Y-110507000D01*
X131088000Y-110708000D02*
X132568000Y-110708000D01*
X131088000Y-111268000D02*
X132628000Y-111268000D01*
X131088000Y-109947000D02*
X132272000Y-109947000D01*
X131088000Y-109667000D02*
X132083000Y-109667000D01*
X128870000Y-108947000D02*
X131226000Y-108947000D01*
X131088000Y-110147000D02*
X132377000Y-110147000D01*
X131088000Y-110267000D02*
X132430000Y-110267000D01*
X128443000Y-109227000D02*
X131653000Y-109227000D01*
X127848000Y-109907000D02*
X129008000Y-109907000D01*
X127468000Y-111228000D02*
X129008000Y-111228000D01*
X127634000Y-110347000D02*
X129008000Y-110347000D01*
X131088000Y-109507000D02*
X131949000Y-109507000D01*
X129371000Y-108747000D02*
X130725000Y-108747000D01*
X131088000Y-109387000D02*
X131833000Y-109387000D01*
X127487000Y-110948000D02*
X129008000Y-110948000D01*
X131088000Y-109747000D02*
X132143000Y-109747000D01*
X128323000Y-113822775D02*
X128823000Y-113822775D01*
X127700000Y-110187000D02*
X129008000Y-110187000D01*
X127899000Y-109827000D02*
X129008000Y-109827000D01*
X131088000Y-109907000D02*
X132248000Y-109907000D01*
X131088000Y-110748000D02*
X132576000Y-110748000D01*
X131088000Y-111028000D02*
X132617000Y-111028000D01*
X127650000Y-110307000D02*
X129008000Y-110307000D01*
X128395000Y-109267000D02*
X129008000Y-109267000D01*
X127568000Y-110547000D02*
X129008000Y-110547000D01*
X131088000Y-111068000D02*
X132621000Y-111068000D01*
X131088000Y-110948000D02*
X132609000Y-110948000D01*
X128665000Y-109067000D02*
X131431000Y-109067000D01*
X127520000Y-110748000D02*
X129008000Y-110748000D01*
X131088000Y-110868000D02*
X132598000Y-110868000D01*
X128263000Y-109387000D02*
X129008000Y-109387000D01*
X127593000Y-110467000D02*
X129008000Y-110467000D01*
X128013000Y-109667000D02*
X129008000Y-109667000D01*
X127470000Y-111148000D02*
X129008000Y-111148000D01*
X131088000Y-109307000D02*
X131747000Y-109307000D01*
X127547000Y-110628000D02*
X129008000Y-110628000D01*
X131088000Y-110788000D02*
X132584000Y-110788000D01*
X131088000Y-110588000D02*
X132539000Y-110588000D01*
X131088000Y-110187000D02*
X132396000Y-110187000D01*
X127758000Y-110067000D02*
X129008000Y-110067000D01*
X127953000Y-109747000D02*
X129008000Y-109747000D01*
X128077000Y-109587000D02*
X129008000Y-109587000D01*
X131088000Y-110467000D02*
X132503000Y-110467000D01*
X127472000Y-111108000D02*
X129008000Y-111108000D01*
X131088000Y-110427000D02*
X132490000Y-110427000D01*
X127483000Y-110988000D02*
X129008000Y-110988000D01*
X128729000Y-109027000D02*
X131367000Y-109027000D01*
X131088000Y-110387000D02*
X132476000Y-110387000D01*
X131088000Y-110988000D02*
X132613000Y-110988000D01*
X131088000Y-110027000D02*
X132316000Y-110027000D01*
X128222000Y-109427000D02*
X129008000Y-109427000D01*
X131088000Y-111148000D02*
X132626000Y-111148000D01*
X131088000Y-111108000D02*
X132624000Y-111108000D01*
X127505000Y-110828000D02*
X129008000Y-110828000D01*
X129037000Y-108867000D02*
X131059000Y-108867000D01*
X127528000Y-110708000D02*
X129008000Y-110708000D01*
X131088000Y-110067000D02*
X132338000Y-110067000D01*
X127469000Y-111188000D02*
X129008000Y-111188000D01*
X129764000Y-108667000D02*
X130332000Y-108667000D01*
X128950000Y-108907000D02*
X131146000Y-108907000D01*
X131088000Y-109787000D02*
X132170000Y-109787000D01*
X128573000Y-114072775D02*
X128573000Y-113572775D01*
X131088000Y-109627000D02*
X132052000Y-109627000D01*
X127620000Y-110387000D02*
X129008000Y-110387000D01*
X131088000Y-110507000D02*
X132516000Y-110507000D01*
X131088000Y-109587000D02*
X132019000Y-109587000D01*
X127606000Y-110427000D02*
X129008000Y-110427000D01*
X127824000Y-109947000D02*
X129008000Y-109947000D01*
X127475000Y-111068000D02*
X129008000Y-111068000D01*
X131088000Y-110347000D02*
X132462000Y-110347000D01*
X128044000Y-109627000D02*
X129008000Y-109627000D01*
X128111000Y-109547000D02*
X129008000Y-109547000D01*
X129530000Y-108707000D02*
X130566000Y-108707000D01*
X127557000Y-110588000D02*
X129008000Y-110588000D01*
X131088000Y-110908000D02*
X132604000Y-110908000D01*
X127719000Y-110147000D02*
X129008000Y-110147000D01*
X127468000Y-111268000D02*
X129008000Y-111268000D01*
X131088000Y-110828000D02*
X132591000Y-110828000D01*
X131088000Y-109547000D02*
X131985000Y-109547000D01*
X127512000Y-110788000D02*
X129008000Y-110788000D01*
X131088000Y-110307000D02*
X132446000Y-110307000D01*
X127926000Y-109787000D02*
X129008000Y-109787000D01*
X128305000Y-109347000D02*
X129008000Y-109347000D01*
X131088000Y-110628000D02*
X132549000Y-110628000D01*
X131088000Y-109267000D02*
X131701000Y-109267000D01*
X131088000Y-109347000D02*
X131791000Y-109347000D01*
X129133000Y-108827000D02*
X130963000Y-108827000D01*
X131088000Y-110668000D02*
X132559000Y-110668000D01*
X128548000Y-109147000D02*
X131548000Y-109147000D01*
X131088000Y-109707000D02*
X132113000Y-109707000D01*
X131088000Y-111188000D02*
X132627000Y-111188000D01*
X128349000Y-109307000D02*
X129008000Y-109307000D01*
X127666000Y-110267000D02*
X129008000Y-110267000D01*
X131088000Y-109827000D02*
X132197000Y-109827000D01*
X129243000Y-108787000D02*
X130853000Y-108787000D01*
X127983000Y-109707000D02*
X129008000Y-109707000D01*
X131088000Y-109427000D02*
X131874000Y-109427000D01*
X131088000Y-109987000D02*
X132295000Y-109987000D01*
X131088000Y-109467000D02*
X131912000Y-109467000D01*
X128797000Y-108987000D02*
X131299000Y-108987000D01*
X128147000Y-109507000D02*
X129008000Y-109507000D01*
X131088000Y-110547000D02*
X132528000Y-110547000D01*
X127479000Y-111028000D02*
X129008000Y-111028000D01*
X128605000Y-109107000D02*
X131491000Y-109107000D01*
X131088000Y-110107000D02*
X132358000Y-110107000D01*
X127738000Y-110107000D02*
X129008000Y-110107000D01*
X127873000Y-109867000D02*
X129008000Y-109867000D01*
X127683000Y-110227000D02*
X129008000Y-110227000D01*
X128494000Y-109187000D02*
X131602000Y-109187000D01*
X131088000Y-109867000D02*
X132223000Y-109867000D01*
X127492000Y-110908000D02*
X129008000Y-110908000D01*
X131088000Y-110227000D02*
X132413000Y-110227000D01*
%TO.C,R4*%
X108300000Y-86050000D02*
X108300000Y-86380000D01*
X101760000Y-88460000D02*
X101760000Y-88790000D01*
X101760000Y-86380000D02*
X101760000Y-86050000D01*
X101760000Y-88790000D02*
X108300000Y-88790000D01*
X108300000Y-88790000D02*
X108300000Y-88460000D01*
X101760000Y-86050000D02*
X108300000Y-86050000D01*
%TO.C,SW2*%
X136922000Y-75780000D02*
X132422000Y-75780000D01*
X138172000Y-79780000D02*
X138172000Y-78280000D01*
X132422000Y-82280000D02*
X136922000Y-82280000D01*
X131172000Y-78280000D02*
X131172000Y-79780000D01*
%TO.C,U5*%
X135670000Y-96950000D02*
X115110000Y-96950000D01*
X135610000Y-99440000D02*
X115170000Y-99440000D01*
X135610000Y-104740000D02*
X135610000Y-103090000D01*
X115110000Y-96950000D02*
X115110000Y-107230000D01*
X115170000Y-104740000D02*
X135610000Y-104740000D01*
X135670000Y-107230000D02*
X135670000Y-96950000D01*
X115170000Y-99440000D02*
X115170000Y-104740000D01*
X115110000Y-107230000D02*
X135670000Y-107230000D01*
X135610000Y-101090000D02*
X135610000Y-99440000D01*
X135610000Y-101090000D02*
G75*
G03*
X135610000Y-103090000I0J-1000000D01*
G01*
%TO.C,C5*%
X153800000Y-85588000D02*
X153800000Y-87098000D01*
X154201000Y-89178000D02*
X154201000Y-90593000D01*
X154841000Y-85989000D02*
X154841000Y-87098000D01*
X155001000Y-86103000D02*
X155001000Y-87098000D01*
X153800000Y-89178000D02*
X153800000Y-90688000D01*
X155081000Y-86167000D02*
X155081000Y-87098000D01*
X155401000Y-89178000D02*
X155401000Y-89791000D01*
X153560000Y-89178000D02*
X153560000Y-90714000D01*
X153840000Y-85595000D02*
X153840000Y-87098000D01*
X153680000Y-85573000D02*
X153680000Y-87098000D01*
X154601000Y-85848000D02*
X154601000Y-87098000D01*
X150845225Y-86413000D02*
X150845225Y-86913000D01*
X155241000Y-86312000D02*
X155241000Y-87098000D01*
X153600000Y-85565000D02*
X153600000Y-87098000D01*
X154241000Y-85696000D02*
X154241000Y-87098000D01*
X155681000Y-86887000D02*
X155681000Y-89389000D01*
X155721000Y-86960000D02*
X155721000Y-89316000D01*
X154361000Y-85740000D02*
X154361000Y-87098000D01*
X154561000Y-85828000D02*
X154561000Y-87098000D01*
X154000000Y-89178000D02*
X154000000Y-90649000D01*
X154121000Y-85658000D02*
X154121000Y-87098000D01*
X154801000Y-89178000D02*
X154801000Y-90313000D01*
X153560000Y-85562000D02*
X153560000Y-87098000D01*
X154040000Y-85637000D02*
X154040000Y-87098000D01*
X155841000Y-87223000D02*
X155841000Y-89053000D01*
X155761000Y-87040000D02*
X155761000Y-89236000D01*
X155321000Y-89178000D02*
X155321000Y-89881000D01*
X154601000Y-89178000D02*
X154601000Y-90428000D01*
X155121000Y-89178000D02*
X155121000Y-90075000D01*
X155161000Y-89178000D02*
X155161000Y-90039000D01*
X155361000Y-86439000D02*
X155361000Y-87098000D01*
X153960000Y-85618000D02*
X153960000Y-87098000D01*
X154721000Y-89178000D02*
X154721000Y-90362000D01*
X155161000Y-86237000D02*
X155161000Y-87098000D01*
X155921000Y-87461000D02*
X155921000Y-88815000D01*
X153440000Y-89178000D02*
X153440000Y-90718000D01*
X155201000Y-86274000D02*
X155201000Y-87098000D01*
X155041000Y-86134000D02*
X155041000Y-87098000D01*
X153760000Y-85582000D02*
X153760000Y-87098000D01*
X155801000Y-87127000D02*
X155801000Y-89149000D01*
X155481000Y-86584000D02*
X155481000Y-89692000D01*
X155401000Y-86485000D02*
X155401000Y-87098000D01*
X153400000Y-85558000D02*
X153400000Y-87098000D01*
X155641000Y-86819000D02*
X155641000Y-89457000D01*
X154361000Y-89178000D02*
X154361000Y-90536000D01*
X154921000Y-89178000D02*
X154921000Y-90233000D01*
X153600000Y-89178000D02*
X153600000Y-90711000D01*
X155201000Y-89178000D02*
X155201000Y-90002000D01*
X154441000Y-85773000D02*
X154441000Y-87098000D01*
X154881000Y-86016000D02*
X154881000Y-87098000D01*
X153840000Y-89178000D02*
X153840000Y-90681000D01*
X154441000Y-89178000D02*
X154441000Y-90503000D01*
X154921000Y-86043000D02*
X154921000Y-87098000D01*
X155281000Y-86353000D02*
X155281000Y-87098000D01*
X154161000Y-89178000D02*
X154161000Y-90606000D01*
X154121000Y-89178000D02*
X154121000Y-90618000D01*
X155441000Y-86533000D02*
X155441000Y-89743000D01*
X154201000Y-85683000D02*
X154201000Y-87098000D01*
X154881000Y-89178000D02*
X154881000Y-90260000D01*
X156001000Y-87854000D02*
X156001000Y-88422000D01*
X155041000Y-89178000D02*
X155041000Y-90142000D01*
X154481000Y-85790000D02*
X154481000Y-87098000D01*
X154401000Y-89178000D02*
X154401000Y-90520000D01*
X153920000Y-85610000D02*
X153920000Y-87098000D01*
X154161000Y-85670000D02*
X154161000Y-87098000D01*
X154321000Y-85724000D02*
X154321000Y-87098000D01*
X154281000Y-89178000D02*
X154281000Y-90566000D01*
X154080000Y-85647000D02*
X154080000Y-87098000D01*
X154000000Y-85627000D02*
X154000000Y-87098000D01*
X154761000Y-89178000D02*
X154761000Y-90338000D01*
X154040000Y-89178000D02*
X154040000Y-90639000D01*
X154641000Y-89178000D02*
X154641000Y-90406000D01*
X154481000Y-89178000D02*
X154481000Y-90486000D01*
X153920000Y-89178000D02*
X153920000Y-90666000D01*
X154841000Y-89178000D02*
X154841000Y-90287000D01*
X153440000Y-85558000D02*
X153440000Y-87098000D01*
X153760000Y-89178000D02*
X153760000Y-90694000D01*
X154561000Y-89178000D02*
X154561000Y-90448000D01*
X153400000Y-89178000D02*
X153400000Y-90718000D01*
X154761000Y-85938000D02*
X154761000Y-87098000D01*
X154681000Y-89178000D02*
X154681000Y-90385000D01*
X153520000Y-85560000D02*
X153520000Y-87098000D01*
X155241000Y-89178000D02*
X155241000Y-89964000D01*
X155601000Y-86755000D02*
X155601000Y-89521000D01*
X154961000Y-86073000D02*
X154961000Y-87098000D01*
X155881000Y-87333000D02*
X155881000Y-88943000D01*
X154641000Y-85870000D02*
X154641000Y-87098000D01*
X155321000Y-86395000D02*
X155321000Y-87098000D01*
X154681000Y-85891000D02*
X154681000Y-87098000D01*
X153960000Y-89178000D02*
X153960000Y-90658000D01*
X150595225Y-86663000D02*
X151095225Y-86663000D01*
X155081000Y-89178000D02*
X155081000Y-90109000D01*
X155361000Y-89178000D02*
X155361000Y-89837000D01*
X153480000Y-89178000D02*
X153480000Y-90717000D01*
X154321000Y-89178000D02*
X154321000Y-90552000D01*
X154721000Y-85914000D02*
X154721000Y-87098000D01*
X154801000Y-85963000D02*
X154801000Y-87098000D01*
X153640000Y-85569000D02*
X153640000Y-87098000D01*
X154521000Y-85809000D02*
X154521000Y-87098000D01*
X153880000Y-85602000D02*
X153880000Y-87098000D01*
X153680000Y-89178000D02*
X153680000Y-90703000D01*
X153880000Y-89178000D02*
X153880000Y-90674000D01*
X155521000Y-86638000D02*
X155521000Y-89638000D01*
X154401000Y-85756000D02*
X154401000Y-87098000D01*
X155961000Y-87620000D02*
X155961000Y-88656000D01*
X154281000Y-85710000D02*
X154281000Y-87098000D01*
X155281000Y-89178000D02*
X155281000Y-89923000D01*
X154080000Y-89178000D02*
X154080000Y-90629000D01*
X153720000Y-85577000D02*
X153720000Y-87098000D01*
X155121000Y-86201000D02*
X155121000Y-87098000D01*
X153520000Y-89178000D02*
X153520000Y-90716000D01*
X154241000Y-89178000D02*
X154241000Y-90580000D01*
X154521000Y-89178000D02*
X154521000Y-90467000D01*
X153720000Y-89178000D02*
X153720000Y-90699000D01*
X153640000Y-89178000D02*
X153640000Y-90707000D01*
X153480000Y-85559000D02*
X153480000Y-87098000D01*
X155561000Y-86695000D02*
X155561000Y-89581000D01*
X154961000Y-89178000D02*
X154961000Y-90203000D01*
X155001000Y-89178000D02*
X155001000Y-90173000D01*
X156020000Y-88138000D02*
G75*
G03*
X156020000Y-88138000I-2620000J0D01*
G01*
%TO.C,JP4*%
X110480000Y-117800000D02*
X109150000Y-117800000D01*
X107820000Y-115200000D02*
X107820000Y-110060000D01*
X110480000Y-116470000D02*
X110480000Y-117800000D01*
X110480000Y-115200000D02*
X107820000Y-115200000D01*
X110480000Y-115200000D02*
X110480000Y-110060000D01*
X110480000Y-110060000D02*
X107820000Y-110060000D01*
%TO.C,C7*%
X102159000Y-96242000D02*
X102159000Y-94840000D01*
X102039000Y-96198000D02*
X102039000Y-94840000D01*
X101679000Y-96024000D02*
X101679000Y-94840000D01*
X101279000Y-95737000D02*
X101279000Y-94840000D01*
X100639000Y-94898000D02*
X100639000Y-92702000D01*
X102960000Y-92760000D02*
X102960000Y-91220000D01*
X101319000Y-95771000D02*
X101319000Y-94840000D01*
X101119000Y-92760000D02*
X101119000Y-92015000D01*
X102279000Y-96280000D02*
X102279000Y-94840000D01*
X100399000Y-94084000D02*
X100399000Y-93516000D01*
X101239000Y-92760000D02*
X101239000Y-91899000D01*
X101759000Y-96068000D02*
X101759000Y-94840000D01*
X102600000Y-96350000D02*
X102600000Y-94840000D01*
X101799000Y-92760000D02*
X101799000Y-91510000D01*
X101239000Y-95701000D02*
X101239000Y-94840000D01*
X102720000Y-96365000D02*
X102720000Y-94840000D01*
X100799000Y-95183000D02*
X100799000Y-92417000D01*
X101079000Y-92760000D02*
X101079000Y-92057000D01*
X101199000Y-92760000D02*
X101199000Y-91936000D01*
X102400000Y-92760000D02*
X102400000Y-91289000D01*
X102840000Y-92760000D02*
X102840000Y-91224000D01*
X100999000Y-92760000D02*
X100999000Y-92147000D01*
X102239000Y-92760000D02*
X102239000Y-91332000D01*
X102720000Y-92760000D02*
X102720000Y-91235000D01*
X101279000Y-92760000D02*
X101279000Y-91863000D01*
X101039000Y-92760000D02*
X101039000Y-92101000D01*
X102440000Y-96320000D02*
X102440000Y-94840000D01*
X101799000Y-96090000D02*
X101799000Y-94840000D01*
X100959000Y-95405000D02*
X100959000Y-92195000D01*
X101839000Y-92760000D02*
X101839000Y-91490000D01*
X101479000Y-92760000D02*
X101479000Y-91705000D01*
X102400000Y-96311000D02*
X102400000Y-94840000D01*
X101159000Y-95626000D02*
X101159000Y-94840000D01*
X100759000Y-95119000D02*
X100759000Y-92481000D01*
X101359000Y-95804000D02*
X101359000Y-94840000D01*
X101039000Y-95499000D02*
X101039000Y-94840000D01*
X101879000Y-92760000D02*
X101879000Y-91471000D01*
X101599000Y-95975000D02*
X101599000Y-94840000D01*
X102480000Y-92760000D02*
X102480000Y-91272000D01*
X102800000Y-92760000D02*
X102800000Y-91227000D01*
X102760000Y-92760000D02*
X102760000Y-91231000D01*
X101999000Y-92760000D02*
X101999000Y-91418000D01*
X101439000Y-92760000D02*
X101439000Y-91735000D01*
X101159000Y-92760000D02*
X101159000Y-91974000D01*
X101519000Y-95922000D02*
X101519000Y-94840000D01*
X102039000Y-92760000D02*
X102039000Y-91402000D01*
X102119000Y-92760000D02*
X102119000Y-91372000D01*
X101879000Y-96129000D02*
X101879000Y-94840000D01*
X102520000Y-96336000D02*
X102520000Y-94840000D01*
X102880000Y-92760000D02*
X102880000Y-91222000D01*
X101959000Y-92760000D02*
X101959000Y-91435000D01*
X101719000Y-96047000D02*
X101719000Y-94840000D01*
X102079000Y-96214000D02*
X102079000Y-94840000D01*
X101399000Y-95835000D02*
X101399000Y-94840000D01*
X102239000Y-96268000D02*
X102239000Y-94840000D01*
X100679000Y-94978000D02*
X100679000Y-92622000D01*
X101319000Y-92760000D02*
X101319000Y-91829000D01*
X101599000Y-92760000D02*
X101599000Y-91625000D01*
X102600000Y-92760000D02*
X102600000Y-91250000D01*
X102640000Y-92760000D02*
X102640000Y-91244000D01*
X102159000Y-92760000D02*
X102159000Y-91358000D01*
X102079000Y-92760000D02*
X102079000Y-91386000D01*
X101719000Y-92760000D02*
X101719000Y-91553000D01*
X102920000Y-92760000D02*
X102920000Y-91221000D01*
X102119000Y-96228000D02*
X102119000Y-94840000D01*
X102920000Y-96379000D02*
X102920000Y-94840000D01*
X100999000Y-95453000D02*
X100999000Y-94840000D01*
X101759000Y-92760000D02*
X101759000Y-91532000D01*
X100719000Y-95051000D02*
X100719000Y-92549000D01*
X102360000Y-96301000D02*
X102360000Y-94840000D01*
X101919000Y-96148000D02*
X101919000Y-94840000D01*
X102520000Y-92760000D02*
X102520000Y-91264000D01*
X101959000Y-96165000D02*
X101959000Y-94840000D01*
X100879000Y-95300000D02*
X100879000Y-92300000D01*
X102880000Y-96378000D02*
X102880000Y-94840000D01*
X102560000Y-96343000D02*
X102560000Y-94840000D01*
X103000000Y-96380000D02*
X103000000Y-94840000D01*
X102680000Y-96361000D02*
X102680000Y-94840000D01*
X101919000Y-92760000D02*
X101919000Y-91452000D01*
X101839000Y-96110000D02*
X101839000Y-94840000D01*
X100479000Y-94477000D02*
X100479000Y-93123000D01*
X102560000Y-92760000D02*
X102560000Y-91257000D01*
X100599000Y-94811000D02*
X100599000Y-92789000D01*
X100839000Y-95243000D02*
X100839000Y-92357000D01*
X100439000Y-94318000D02*
X100439000Y-93282000D01*
X103000000Y-92760000D02*
X103000000Y-91220000D01*
X102279000Y-92760000D02*
X102279000Y-91320000D01*
X102800000Y-96373000D02*
X102800000Y-94840000D01*
X101199000Y-95664000D02*
X101199000Y-94840000D01*
X102360000Y-92760000D02*
X102360000Y-91299000D01*
X101399000Y-92760000D02*
X101399000Y-91765000D01*
X102960000Y-96380000D02*
X102960000Y-94840000D01*
X100919000Y-95354000D02*
X100919000Y-92246000D01*
X101559000Y-95949000D02*
X101559000Y-94840000D01*
X102640000Y-96356000D02*
X102640000Y-94840000D01*
X102680000Y-92760000D02*
X102680000Y-91239000D01*
X101119000Y-95585000D02*
X101119000Y-94840000D01*
X101439000Y-95865000D02*
X101439000Y-94840000D01*
X101679000Y-92760000D02*
X101679000Y-91576000D01*
X101999000Y-96182000D02*
X101999000Y-94840000D01*
X102320000Y-96291000D02*
X102320000Y-94840000D01*
X100519000Y-94605000D02*
X100519000Y-92995000D01*
X105804775Y-95275000D02*
X105304775Y-95275000D01*
X105554775Y-95525000D02*
X105554775Y-95025000D01*
X102199000Y-92760000D02*
X102199000Y-91345000D01*
X101359000Y-92760000D02*
X101359000Y-91796000D01*
X102760000Y-96369000D02*
X102760000Y-94840000D01*
X101479000Y-95895000D02*
X101479000Y-94840000D01*
X102840000Y-96376000D02*
X102840000Y-94840000D01*
X102199000Y-96255000D02*
X102199000Y-94840000D01*
X101519000Y-92760000D02*
X101519000Y-91678000D01*
X102480000Y-96328000D02*
X102480000Y-94840000D01*
X101639000Y-92760000D02*
X101639000Y-91600000D01*
X100559000Y-94715000D02*
X100559000Y-92885000D01*
X102440000Y-92760000D02*
X102440000Y-91280000D01*
X101079000Y-95543000D02*
X101079000Y-94840000D01*
X101639000Y-96000000D02*
X101639000Y-94840000D01*
X102320000Y-92760000D02*
X102320000Y-91309000D01*
X101559000Y-92760000D02*
X101559000Y-91651000D01*
X105620000Y-93800000D02*
G75*
G03*
X105620000Y-93800000I-2620000J0D01*
G01*
%TO.C,U1*%
X123690000Y-59635000D02*
X123690000Y-67255000D01*
X123690000Y-83875000D02*
X121570000Y-83875000D01*
X107450000Y-67255000D02*
X107450000Y-59635000D01*
X123690000Y-83255000D02*
X123690000Y-83875000D01*
X109570000Y-83875000D02*
X107450000Y-83875000D01*
X107450000Y-59635000D02*
X123690000Y-59635000D01*
X107450000Y-83875000D02*
X107450000Y-83255000D01*
X107450000Y-67255000D02*
X106840000Y-67255000D01*
%TO.C,U4*%
X149380000Y-120020000D02*
X139140000Y-120020000D01*
X146800000Y-104130000D02*
X146800000Y-101590000D01*
X139140000Y-120020000D02*
X139140000Y-104130000D01*
X149380000Y-120020000D02*
X149380000Y-104130000D01*
X149380000Y-104130000D02*
X139140000Y-104130000D01*
X141720000Y-104130000D02*
X141720000Y-101590000D01*
X144260000Y-104130000D02*
X144260000Y-101590000D01*
%TO.C,C8*%
X135090000Y-118941000D02*
X134266000Y-118941000D01*
X138495000Y-118181000D02*
X137170000Y-118181000D01*
X135090000Y-118821000D02*
X134159000Y-118821000D01*
X138650000Y-117700000D02*
X137170000Y-117700000D01*
X135090000Y-118741000D02*
X134095000Y-118741000D01*
X135090000Y-118021000D02*
X133702000Y-118021000D01*
X138680000Y-117540000D02*
X137170000Y-117540000D01*
X135090000Y-119061000D02*
X134387000Y-119061000D01*
X138305000Y-118541000D02*
X137170000Y-118541000D01*
X135090000Y-118101000D02*
X133732000Y-118101000D01*
X136807000Y-119661000D02*
X135453000Y-119661000D01*
X135090000Y-118061000D02*
X133716000Y-118061000D01*
X135090000Y-117820000D02*
X133639000Y-117820000D01*
X138699000Y-117380000D02*
X137170000Y-117380000D01*
X137573000Y-119301000D02*
X134687000Y-119301000D01*
X137684000Y-119221000D02*
X134576000Y-119221000D01*
X135090000Y-118701000D02*
X134065000Y-118701000D01*
X138708000Y-117260000D02*
X137170000Y-117260000D01*
X137994000Y-118941000D02*
X137170000Y-118941000D01*
X138101000Y-118821000D02*
X137170000Y-118821000D01*
X135090000Y-117981000D02*
X133688000Y-117981000D01*
X138279000Y-118581000D02*
X137170000Y-118581000D01*
X138706000Y-117300000D02*
X137170000Y-117300000D01*
X137956000Y-118981000D02*
X137170000Y-118981000D01*
X135090000Y-119021000D02*
X134345000Y-119021000D01*
X136935000Y-119621000D02*
X135325000Y-119621000D01*
X138558000Y-118021000D02*
X137170000Y-118021000D01*
X137605000Y-114335225D02*
X137605000Y-114835225D01*
X138691000Y-117460000D02*
X137170000Y-117460000D01*
X135090000Y-117220000D02*
X133551000Y-117220000D01*
X138195000Y-118701000D02*
X137170000Y-118701000D01*
X135090000Y-118421000D02*
X133883000Y-118421000D01*
X138686000Y-117500000D02*
X137170000Y-117500000D01*
X138134000Y-118781000D02*
X137170000Y-118781000D01*
X135090000Y-117380000D02*
X133561000Y-117380000D01*
X135090000Y-118341000D02*
X133840000Y-118341000D01*
X135090000Y-118141000D02*
X133748000Y-118141000D01*
X135090000Y-117500000D02*
X133574000Y-117500000D01*
X135090000Y-118541000D02*
X133955000Y-118541000D01*
X138440000Y-118301000D02*
X137170000Y-118301000D01*
X138031000Y-118901000D02*
X137170000Y-118901000D01*
X135090000Y-117260000D02*
X133552000Y-117260000D01*
X135090000Y-118981000D02*
X134304000Y-118981000D01*
X137308000Y-119461000D02*
X134952000Y-119461000D01*
X138225000Y-118661000D02*
X137170000Y-118661000D01*
X138528000Y-118101000D02*
X137170000Y-118101000D01*
X138666000Y-117620000D02*
X137170000Y-117620000D01*
X138610000Y-117861000D02*
X137170000Y-117861000D01*
X135090000Y-118861000D02*
X134193000Y-118861000D01*
X137513000Y-119341000D02*
X134747000Y-119341000D01*
X138703000Y-117340000D02*
X137170000Y-117340000D01*
X137829000Y-119101000D02*
X137170000Y-119101000D01*
X138710000Y-117180000D02*
X137170000Y-117180000D01*
X138710000Y-117140000D02*
X137170000Y-117140000D01*
X138067000Y-118861000D02*
X137170000Y-118861000D01*
X138459000Y-118261000D02*
X137170000Y-118261000D01*
X135090000Y-118461000D02*
X133906000Y-118461000D01*
X138598000Y-117901000D02*
X137170000Y-117901000D01*
X138330000Y-118501000D02*
X137170000Y-118501000D01*
X137873000Y-119061000D02*
X137170000Y-119061000D01*
X137630000Y-119261000D02*
X134630000Y-119261000D01*
X135090000Y-117540000D02*
X133580000Y-117540000D01*
X135090000Y-117740000D02*
X133619000Y-117740000D01*
X135090000Y-117780000D02*
X133629000Y-117780000D01*
X138165000Y-118741000D02*
X137170000Y-118741000D01*
X138512000Y-118141000D02*
X137170000Y-118141000D01*
X135090000Y-118661000D02*
X134035000Y-118661000D01*
X138420000Y-118341000D02*
X137170000Y-118341000D01*
X135090000Y-117420000D02*
X133565000Y-117420000D01*
X138572000Y-117981000D02*
X137170000Y-117981000D01*
X135090000Y-118621000D02*
X134008000Y-118621000D01*
X137045000Y-119581000D02*
X135215000Y-119581000D01*
X135090000Y-119101000D02*
X134431000Y-119101000D01*
X137735000Y-119181000D02*
X134525000Y-119181000D01*
X135090000Y-118301000D02*
X133820000Y-118301000D01*
X138621000Y-117820000D02*
X137170000Y-117820000D01*
X138478000Y-118221000D02*
X137170000Y-118221000D01*
X135090000Y-117180000D02*
X133550000Y-117180000D01*
X138641000Y-117740000D02*
X137170000Y-117740000D01*
X135090000Y-117580000D02*
X133587000Y-117580000D01*
X135090000Y-117700000D02*
X133610000Y-117700000D01*
X135090000Y-119141000D02*
X134477000Y-119141000D01*
X138658000Y-117660000D02*
X137170000Y-117660000D01*
X135090000Y-118221000D02*
X133782000Y-118221000D01*
X137228000Y-119501000D02*
X135032000Y-119501000D01*
X135090000Y-117460000D02*
X133569000Y-117460000D01*
X136414000Y-119741000D02*
X135846000Y-119741000D01*
X135090000Y-118381000D02*
X133862000Y-118381000D01*
X137783000Y-119141000D02*
X137170000Y-119141000D01*
X137381000Y-119421000D02*
X134879000Y-119421000D01*
X138398000Y-118381000D02*
X137170000Y-118381000D01*
X137141000Y-119541000D02*
X135119000Y-119541000D01*
X135090000Y-117340000D02*
X133557000Y-117340000D01*
X138544000Y-118061000D02*
X137170000Y-118061000D01*
X135090000Y-117660000D02*
X133602000Y-117660000D01*
X135090000Y-117140000D02*
X133550000Y-117140000D01*
X135090000Y-118901000D02*
X134229000Y-118901000D01*
X135090000Y-117620000D02*
X133594000Y-117620000D01*
X137855000Y-114585225D02*
X137355000Y-114585225D01*
X135090000Y-118261000D02*
X133801000Y-118261000D01*
X138695000Y-117420000D02*
X137170000Y-117420000D01*
X135090000Y-118581000D02*
X133981000Y-118581000D01*
X138354000Y-118461000D02*
X137170000Y-118461000D01*
X135090000Y-117861000D02*
X133650000Y-117861000D01*
X137449000Y-119381000D02*
X134811000Y-119381000D01*
X135090000Y-118181000D02*
X133765000Y-118181000D01*
X138673000Y-117580000D02*
X137170000Y-117580000D01*
X138377000Y-118421000D02*
X137170000Y-118421000D01*
X138709000Y-117220000D02*
X137170000Y-117220000D01*
X135090000Y-117941000D02*
X133675000Y-117941000D01*
X136648000Y-119701000D02*
X135612000Y-119701000D01*
X135090000Y-118501000D02*
X133930000Y-118501000D01*
X138631000Y-117780000D02*
X137170000Y-117780000D01*
X138585000Y-117941000D02*
X137170000Y-117941000D01*
X135090000Y-117300000D02*
X133554000Y-117300000D01*
X137915000Y-119021000D02*
X137170000Y-119021000D01*
X138252000Y-118621000D02*
X137170000Y-118621000D01*
X135090000Y-118781000D02*
X134126000Y-118781000D01*
X135090000Y-117901000D02*
X133662000Y-117901000D01*
X138750000Y-117140000D02*
G75*
G03*
X138750000Y-117140000I-2620000J0D01*
G01*
%TO.C,C12*%
X136245000Y-91515000D02*
X137855000Y-91515000D01*
X134472000Y-93876000D02*
X136010000Y-93876000D01*
X138090000Y-93876000D02*
X139628000Y-93876000D01*
X138090000Y-92795000D02*
X139340000Y-92795000D01*
X138090000Y-93356000D02*
X139551000Y-93356000D01*
X138090000Y-93756000D02*
X139619000Y-93756000D01*
X138090000Y-92955000D02*
X139415000Y-92955000D01*
X134608000Y-93155000D02*
X136010000Y-93155000D01*
X138090000Y-92875000D02*
X139379000Y-92875000D01*
X135731000Y-91755000D02*
X138369000Y-91755000D01*
X135224000Y-92155000D02*
X136010000Y-92155000D01*
X134901000Y-92555000D02*
X136010000Y-92555000D01*
X138090000Y-92835000D02*
X139360000Y-92835000D01*
X138090000Y-93836000D02*
X139626000Y-93836000D01*
X138090000Y-92355000D02*
X139054000Y-92355000D01*
X138090000Y-92155000D02*
X138876000Y-92155000D01*
X138090000Y-92275000D02*
X138987000Y-92275000D01*
X138090000Y-93596000D02*
X139600000Y-93596000D01*
X138090000Y-92755000D02*
X139318000Y-92755000D01*
X135149000Y-92235000D02*
X136010000Y-92235000D01*
X134622000Y-93115000D02*
X136010000Y-93115000D01*
X135265000Y-92115000D02*
X136010000Y-92115000D01*
X138090000Y-92995000D02*
X139432000Y-92995000D01*
X138090000Y-93636000D02*
X139606000Y-93636000D01*
X138090000Y-92715000D02*
X139297000Y-92715000D01*
X134985000Y-92435000D02*
X136010000Y-92435000D01*
X134514000Y-93516000D02*
X136010000Y-93516000D01*
X138090000Y-93676000D02*
X139611000Y-93676000D01*
X134955000Y-92475000D02*
X136010000Y-92475000D01*
X138090000Y-92595000D02*
X139225000Y-92595000D01*
X134595000Y-93195000D02*
X136010000Y-93195000D01*
X134652000Y-93035000D02*
X136010000Y-93035000D01*
X138090000Y-93476000D02*
X139578000Y-93476000D01*
X134539000Y-93396000D02*
X136010000Y-93396000D01*
X134582000Y-93235000D02*
X136010000Y-93235000D01*
X135325000Y-96550775D02*
X135825000Y-96550775D01*
X138090000Y-92115000D02*
X138835000Y-92115000D01*
X134489000Y-93676000D02*
X136010000Y-93676000D01*
X138090000Y-92475000D02*
X139145000Y-92475000D01*
X138090000Y-93035000D02*
X139448000Y-93035000D01*
X138090000Y-93716000D02*
X139615000Y-93716000D01*
X138090000Y-93436000D02*
X139570000Y-93436000D01*
X138090000Y-93075000D02*
X139464000Y-93075000D01*
X134740000Y-92835000D02*
X136010000Y-92835000D01*
X138090000Y-92075000D02*
X138793000Y-92075000D01*
X134826000Y-92675000D02*
X136010000Y-92675000D01*
X134875000Y-92595000D02*
X136010000Y-92595000D01*
X138090000Y-93556000D02*
X139593000Y-93556000D01*
X135607000Y-91835000D02*
X138493000Y-91835000D01*
X138090000Y-92195000D02*
X138914000Y-92195000D01*
X138090000Y-92515000D02*
X139172000Y-92515000D01*
X134522000Y-93476000D02*
X136010000Y-93476000D01*
X135575000Y-96800775D02*
X135575000Y-96300775D01*
X138090000Y-93275000D02*
X139530000Y-93275000D01*
X138090000Y-92395000D02*
X139085000Y-92395000D01*
X134471000Y-93916000D02*
X136010000Y-93916000D01*
X135872000Y-91675000D02*
X138228000Y-91675000D01*
X134470000Y-93956000D02*
X136010000Y-93956000D01*
X135667000Y-91795000D02*
X138433000Y-91795000D01*
X134507000Y-93556000D02*
X136010000Y-93556000D01*
X134850000Y-92635000D02*
X136010000Y-92635000D01*
X138090000Y-91995000D02*
X138703000Y-91995000D01*
X138090000Y-92315000D02*
X139021000Y-92315000D01*
X135186000Y-92195000D02*
X136010000Y-92195000D01*
X138090000Y-93796000D02*
X139623000Y-93796000D01*
X135113000Y-92275000D02*
X136010000Y-92275000D01*
X138090000Y-93996000D02*
X139630000Y-93996000D01*
X135550000Y-91875000D02*
X138550000Y-91875000D01*
X138090000Y-93115000D02*
X139478000Y-93115000D01*
X134500000Y-93596000D02*
X136010000Y-93596000D01*
X135307000Y-92075000D02*
X136010000Y-92075000D01*
X135079000Y-92315000D02*
X136010000Y-92315000D01*
X138090000Y-92635000D02*
X139250000Y-92635000D01*
X134782000Y-92755000D02*
X136010000Y-92755000D01*
X136135000Y-91555000D02*
X137965000Y-91555000D01*
X134530000Y-93436000D02*
X136010000Y-93436000D01*
X138090000Y-92035000D02*
X138749000Y-92035000D01*
X138090000Y-92915000D02*
X139398000Y-92915000D01*
X138090000Y-93956000D02*
X139630000Y-93956000D01*
X136373000Y-91475000D02*
X137727000Y-91475000D01*
X134549000Y-93356000D02*
X136010000Y-93356000D01*
X135445000Y-91955000D02*
X138655000Y-91955000D01*
X134803000Y-92715000D02*
X136010000Y-92715000D01*
X138090000Y-93235000D02*
X139518000Y-93235000D01*
X134721000Y-92875000D02*
X136010000Y-92875000D01*
X134485000Y-93716000D02*
X136010000Y-93716000D01*
X134494000Y-93636000D02*
X136010000Y-93636000D01*
X135952000Y-91635000D02*
X138148000Y-91635000D01*
X135799000Y-91715000D02*
X138301000Y-91715000D01*
X138090000Y-93195000D02*
X139505000Y-93195000D01*
X138090000Y-93396000D02*
X139561000Y-93396000D01*
X135351000Y-92035000D02*
X136010000Y-92035000D01*
X134570000Y-93275000D02*
X136010000Y-93275000D01*
X138090000Y-93516000D02*
X139586000Y-93516000D01*
X136532000Y-91435000D02*
X137568000Y-91435000D01*
X134636000Y-93075000D02*
X136010000Y-93075000D01*
X134685000Y-92955000D02*
X136010000Y-92955000D01*
X135046000Y-92355000D02*
X136010000Y-92355000D01*
X135397000Y-91995000D02*
X136010000Y-91995000D01*
X134702000Y-92915000D02*
X136010000Y-92915000D01*
X138090000Y-93155000D02*
X139492000Y-93155000D01*
X138090000Y-93916000D02*
X139629000Y-93916000D01*
X138090000Y-93316000D02*
X139541000Y-93316000D01*
X134481000Y-93756000D02*
X136010000Y-93756000D01*
X138090000Y-92235000D02*
X138951000Y-92235000D01*
X134474000Y-93836000D02*
X136010000Y-93836000D01*
X138090000Y-92435000D02*
X139115000Y-92435000D01*
X134760000Y-92795000D02*
X136010000Y-92795000D01*
X135496000Y-91915000D02*
X138604000Y-91915000D01*
X138090000Y-92675000D02*
X139274000Y-92675000D01*
X136766000Y-91395000D02*
X137334000Y-91395000D01*
X134470000Y-93996000D02*
X136010000Y-93996000D01*
X134477000Y-93796000D02*
X136010000Y-93796000D01*
X134559000Y-93316000D02*
X136010000Y-93316000D01*
X135015000Y-92395000D02*
X136010000Y-92395000D01*
X134928000Y-92515000D02*
X136010000Y-92515000D01*
X136039000Y-91595000D02*
X138061000Y-91595000D01*
X134668000Y-92995000D02*
X136010000Y-92995000D01*
X138090000Y-92555000D02*
X139199000Y-92555000D01*
X139670000Y-93996000D02*
G75*
G03*
X139670000Y-93996000I-2620000J0D01*
G01*
%TO.C,JP11*%
X115400000Y-117820000D02*
X114070000Y-117820000D01*
X115400000Y-115220000D02*
X112740000Y-115220000D01*
X115400000Y-116490000D02*
X115400000Y-117820000D01*
X115400000Y-115220000D02*
X115400000Y-110080000D01*
X115400000Y-110080000D02*
X112740000Y-110080000D01*
X112740000Y-115220000D02*
X112740000Y-110080000D01*
%TO.C,C14*%
X144296000Y-93973000D02*
X145120000Y-93973000D01*
X144296000Y-95294000D02*
X145792000Y-95294000D01*
X141319000Y-94053000D02*
X142216000Y-94053000D01*
X144296000Y-95053000D02*
X145736000Y-95053000D01*
X142245000Y-93373000D02*
X144267000Y-93373000D01*
X141781000Y-98578775D02*
X141781000Y-98078775D01*
X141081000Y-94373000D02*
X142216000Y-94373000D01*
X144296000Y-95174000D02*
X145767000Y-95174000D01*
X141756000Y-93653000D02*
X144756000Y-93653000D01*
X144296000Y-93893000D02*
X145041000Y-93893000D01*
X144296000Y-94293000D02*
X145378000Y-94293000D01*
X144296000Y-94813000D02*
X145654000Y-94813000D01*
X144296000Y-93773000D02*
X144909000Y-93773000D01*
X142972000Y-93173000D02*
X143540000Y-93173000D01*
X140695000Y-95454000D02*
X142216000Y-95454000D01*
X141557000Y-93813000D02*
X142216000Y-93813000D01*
X144296000Y-95454000D02*
X145817000Y-95454000D01*
X141252000Y-94133000D02*
X142216000Y-94133000D01*
X140988000Y-94533000D02*
X142216000Y-94533000D01*
X144296000Y-94533000D02*
X145524000Y-94533000D01*
X144296000Y-94013000D02*
X145157000Y-94013000D01*
X144296000Y-94253000D02*
X145351000Y-94253000D01*
X144296000Y-95013000D02*
X145724000Y-95013000D01*
X144296000Y-95334000D02*
X145799000Y-95334000D01*
X140736000Y-95214000D02*
X142216000Y-95214000D01*
X144296000Y-95774000D02*
X145836000Y-95774000D01*
X144296000Y-94773000D02*
X145638000Y-94773000D01*
X144296000Y-94133000D02*
X145260000Y-94133000D01*
X140683000Y-95574000D02*
X142216000Y-95574000D01*
X140788000Y-95013000D02*
X142216000Y-95013000D01*
X141032000Y-94453000D02*
X142216000Y-94453000D01*
X144296000Y-95414000D02*
X145812000Y-95414000D01*
X144296000Y-94333000D02*
X145405000Y-94333000D01*
X142158000Y-93413000D02*
X144354000Y-93413000D01*
X140801000Y-94973000D02*
X142216000Y-94973000D01*
X144296000Y-95734000D02*
X145836000Y-95734000D01*
X144296000Y-94613000D02*
X145566000Y-94613000D01*
X144296000Y-95574000D02*
X145829000Y-95574000D01*
X140891000Y-94733000D02*
X142216000Y-94733000D01*
X140680000Y-95614000D02*
X142216000Y-95614000D01*
X141161000Y-94253000D02*
X142216000Y-94253000D01*
X140814000Y-94933000D02*
X142216000Y-94933000D01*
X144296000Y-94053000D02*
X145193000Y-94053000D01*
X141603000Y-93773000D02*
X142216000Y-93773000D01*
X141134000Y-94293000D02*
X142216000Y-94293000D01*
X142005000Y-93493000D02*
X144507000Y-93493000D01*
X144296000Y-95694000D02*
X145835000Y-95694000D01*
X141513000Y-93853000D02*
X142216000Y-93853000D01*
X140858000Y-94813000D02*
X142216000Y-94813000D01*
X144296000Y-94853000D02*
X145670000Y-94853000D01*
X141813000Y-93613000D02*
X144699000Y-93613000D01*
X142341000Y-93333000D02*
X144171000Y-93333000D01*
X141355000Y-94013000D02*
X142216000Y-94013000D01*
X144296000Y-94173000D02*
X145291000Y-94173000D01*
X144296000Y-95094000D02*
X145747000Y-95094000D01*
X140828000Y-94893000D02*
X142216000Y-94893000D01*
X140946000Y-94613000D02*
X142216000Y-94613000D01*
X144296000Y-95654000D02*
X145834000Y-95654000D01*
X140677000Y-95694000D02*
X142216000Y-95694000D01*
X140765000Y-95094000D02*
X142216000Y-95094000D01*
X144296000Y-95254000D02*
X145784000Y-95254000D01*
X140676000Y-95734000D02*
X142216000Y-95734000D01*
X141056000Y-94413000D02*
X142216000Y-94413000D01*
X141009000Y-94493000D02*
X142216000Y-94493000D01*
X140687000Y-95534000D02*
X142216000Y-95534000D01*
X140706000Y-95374000D02*
X142216000Y-95374000D01*
X142078000Y-93453000D02*
X144434000Y-93453000D01*
X141285000Y-94093000D02*
X142216000Y-94093000D01*
X144296000Y-94493000D02*
X145503000Y-94493000D01*
X141221000Y-94173000D02*
X142216000Y-94173000D01*
X144296000Y-94453000D02*
X145480000Y-94453000D01*
X144296000Y-94693000D02*
X145604000Y-94693000D01*
X140966000Y-94573000D02*
X142216000Y-94573000D01*
X144296000Y-95214000D02*
X145776000Y-95214000D01*
X144296000Y-94213000D02*
X145321000Y-94213000D01*
X141702000Y-93693000D02*
X144810000Y-93693000D01*
X144296000Y-94933000D02*
X145698000Y-94933000D01*
X140745000Y-95174000D02*
X142216000Y-95174000D01*
X140927000Y-94653000D02*
X142216000Y-94653000D01*
X144296000Y-93853000D02*
X144999000Y-93853000D01*
X141531000Y-98328775D02*
X142031000Y-98328775D01*
X140678000Y-95654000D02*
X142216000Y-95654000D01*
X140700000Y-95414000D02*
X142216000Y-95414000D01*
X144296000Y-94413000D02*
X145456000Y-94413000D01*
X144296000Y-95614000D02*
X145832000Y-95614000D01*
X141392000Y-93973000D02*
X142216000Y-93973000D01*
X140691000Y-95494000D02*
X142216000Y-95494000D01*
X144296000Y-94893000D02*
X145684000Y-94893000D01*
X144296000Y-94653000D02*
X145585000Y-94653000D01*
X140713000Y-95334000D02*
X142216000Y-95334000D01*
X144296000Y-95494000D02*
X145821000Y-95494000D01*
X140755000Y-95134000D02*
X142216000Y-95134000D01*
X141471000Y-93893000D02*
X142216000Y-93893000D01*
X140908000Y-94693000D02*
X142216000Y-94693000D01*
X140776000Y-95053000D02*
X142216000Y-95053000D01*
X142738000Y-93213000D02*
X143774000Y-93213000D01*
X140728000Y-95254000D02*
X142216000Y-95254000D01*
X141107000Y-94333000D02*
X142216000Y-94333000D01*
X144296000Y-95374000D02*
X145806000Y-95374000D01*
X144296000Y-93813000D02*
X144955000Y-93813000D01*
X142451000Y-93293000D02*
X144061000Y-93293000D01*
X144296000Y-95134000D02*
X145757000Y-95134000D01*
X141651000Y-93733000D02*
X144861000Y-93733000D01*
X141430000Y-93933000D02*
X142216000Y-93933000D01*
X144296000Y-94733000D02*
X145621000Y-94733000D01*
X141873000Y-93573000D02*
X144639000Y-93573000D01*
X140874000Y-94773000D02*
X142216000Y-94773000D01*
X141191000Y-94213000D02*
X142216000Y-94213000D01*
X140842000Y-94853000D02*
X142216000Y-94853000D01*
X144296000Y-95534000D02*
X145825000Y-95534000D01*
X142579000Y-93253000D02*
X143933000Y-93253000D01*
X140720000Y-95294000D02*
X142216000Y-95294000D01*
X144296000Y-94973000D02*
X145711000Y-94973000D01*
X144296000Y-93933000D02*
X145082000Y-93933000D01*
X141937000Y-93533000D02*
X144575000Y-93533000D01*
X144296000Y-94093000D02*
X145227000Y-94093000D01*
X144296000Y-94573000D02*
X145546000Y-94573000D01*
X140676000Y-95774000D02*
X142216000Y-95774000D01*
X144296000Y-94373000D02*
X145431000Y-94373000D01*
X145876000Y-95774000D02*
G75*
G03*
X145876000Y-95774000I-2620000J0D01*
G01*
%TO.C,J3*%
X153500000Y-81890000D02*
X152450000Y-81890000D01*
X152450000Y-80840000D02*
X152450000Y-81890000D01*
X167350000Y-72490000D02*
X167350000Y-81690000D01*
X152650000Y-72490000D02*
X154550000Y-72490000D01*
X167350000Y-81690000D02*
X152650000Y-81690000D01*
X152650000Y-75190000D02*
X152650000Y-72490000D01*
X158550000Y-72490000D02*
X167350000Y-72490000D01*
X152650000Y-81690000D02*
X152650000Y-79090000D01*
%TO.C,R1*%
X87908000Y-89122000D02*
X88238000Y-89122000D01*
X88238000Y-82582000D02*
X87908000Y-82582000D01*
X85498000Y-82582000D02*
X85828000Y-82582000D01*
X85498000Y-89122000D02*
X85498000Y-82582000D01*
X85828000Y-89122000D02*
X85498000Y-89122000D01*
X88238000Y-89122000D02*
X88238000Y-82582000D01*
%TO.C,JP8*%
X94950000Y-68590000D02*
X92290000Y-68590000D01*
X94950000Y-71190000D02*
X92290000Y-71190000D01*
X94950000Y-71190000D02*
X94950000Y-68590000D01*
X94950000Y-72460000D02*
X94950000Y-73790000D01*
X92290000Y-71190000D02*
X92290000Y-68590000D01*
X94950000Y-73790000D02*
X93620000Y-73790000D01*
%TO.C,C4*%
X92195000Y-94320000D02*
X92195000Y-93496000D01*
X92715000Y-94703000D02*
X92715000Y-93496000D01*
X92115000Y-94241000D02*
X92115000Y-93496000D01*
X92955000Y-94821000D02*
X92955000Y-93496000D01*
X91435000Y-92974000D02*
X91435000Y-91938000D01*
X92875000Y-91416000D02*
X92875000Y-90127000D01*
X93836000Y-95032000D02*
X93836000Y-93496000D01*
X91395000Y-92740000D02*
X91395000Y-92172000D01*
X91995000Y-94109000D02*
X91995000Y-93496000D01*
X93556000Y-94999000D02*
X93556000Y-93496000D01*
X93516000Y-94992000D02*
X93516000Y-93496000D01*
X92595000Y-91416000D02*
X92595000Y-90281000D01*
X92555000Y-91416000D02*
X92555000Y-90307000D01*
X93516000Y-91416000D02*
X93516000Y-89920000D01*
X91755000Y-93775000D02*
X91755000Y-91137000D01*
X93716000Y-91416000D02*
X93716000Y-89891000D01*
X91595000Y-93467000D02*
X91595000Y-91445000D01*
X92435000Y-91416000D02*
X92435000Y-90391000D01*
X92915000Y-94804000D02*
X92915000Y-93496000D01*
X91795000Y-93839000D02*
X91795000Y-91073000D01*
X93075000Y-94870000D02*
X93075000Y-93496000D01*
X92835000Y-91416000D02*
X92835000Y-90146000D01*
X93195000Y-91416000D02*
X93195000Y-90001000D01*
X91675000Y-93634000D02*
X91675000Y-91278000D01*
X92755000Y-91416000D02*
X92755000Y-90188000D01*
X92435000Y-94521000D02*
X92435000Y-93496000D01*
X93676000Y-95017000D02*
X93676000Y-93496000D01*
X92475000Y-94551000D02*
X92475000Y-93496000D01*
X91715000Y-93707000D02*
X91715000Y-91205000D01*
X93876000Y-91416000D02*
X93876000Y-89878000D01*
X92155000Y-94282000D02*
X92155000Y-93496000D01*
X91475000Y-93133000D02*
X91475000Y-91779000D01*
X92995000Y-94838000D02*
X92995000Y-93496000D01*
X93476000Y-91416000D02*
X93476000Y-89928000D01*
X91555000Y-93371000D02*
X91555000Y-91541000D01*
X93235000Y-94924000D02*
X93235000Y-93496000D01*
X91955000Y-94061000D02*
X91955000Y-90851000D01*
X91875000Y-93956000D02*
X91875000Y-90956000D01*
X92515000Y-94578000D02*
X92515000Y-93496000D01*
X92515000Y-91416000D02*
X92515000Y-90334000D01*
X96800775Y-93931000D02*
X96300775Y-93931000D01*
X93796000Y-95029000D02*
X93796000Y-93496000D01*
X93596000Y-91416000D02*
X93596000Y-89906000D01*
X93396000Y-91416000D02*
X93396000Y-89945000D01*
X93115000Y-91416000D02*
X93115000Y-90028000D01*
X92275000Y-91416000D02*
X92275000Y-90519000D01*
X93956000Y-95036000D02*
X93956000Y-93496000D01*
X93075000Y-91416000D02*
X93075000Y-90042000D01*
X93636000Y-91416000D02*
X93636000Y-89900000D01*
X92875000Y-94785000D02*
X92875000Y-93496000D01*
X93836000Y-91416000D02*
X93836000Y-89880000D01*
X92555000Y-94605000D02*
X92555000Y-93496000D01*
X92675000Y-91416000D02*
X92675000Y-90232000D01*
X93356000Y-91416000D02*
X93356000Y-89955000D01*
X92835000Y-94766000D02*
X92835000Y-93496000D01*
X92315000Y-91416000D02*
X92315000Y-90485000D01*
X92275000Y-94393000D02*
X92275000Y-93496000D01*
X92075000Y-91416000D02*
X92075000Y-90713000D01*
X91515000Y-93261000D02*
X91515000Y-91651000D01*
X92355000Y-94460000D02*
X92355000Y-93496000D01*
X93916000Y-91416000D02*
X93916000Y-89877000D01*
X93275000Y-91416000D02*
X93275000Y-89976000D01*
X93316000Y-94947000D02*
X93316000Y-93496000D01*
X93756000Y-95025000D02*
X93756000Y-93496000D01*
X93716000Y-95021000D02*
X93716000Y-93496000D01*
X92795000Y-94746000D02*
X92795000Y-93496000D01*
X91635000Y-93554000D02*
X91635000Y-91358000D01*
X92635000Y-91416000D02*
X92635000Y-90256000D01*
X93756000Y-91416000D02*
X93756000Y-89887000D01*
X93996000Y-91416000D02*
X93996000Y-89876000D01*
X93556000Y-91416000D02*
X93556000Y-89913000D01*
X93195000Y-94911000D02*
X93195000Y-93496000D01*
X93396000Y-94967000D02*
X93396000Y-93496000D01*
X93436000Y-94976000D02*
X93436000Y-93496000D01*
X93476000Y-94984000D02*
X93476000Y-93496000D01*
X93876000Y-95034000D02*
X93876000Y-93496000D01*
X92675000Y-94680000D02*
X92675000Y-93496000D01*
X92955000Y-91416000D02*
X92955000Y-90091000D01*
X92355000Y-91416000D02*
X92355000Y-90452000D01*
X92795000Y-91416000D02*
X92795000Y-90166000D01*
X92315000Y-94427000D02*
X92315000Y-93496000D01*
X92995000Y-91416000D02*
X92995000Y-90074000D01*
X93676000Y-91416000D02*
X93676000Y-89895000D01*
X93596000Y-95006000D02*
X93596000Y-93496000D01*
X93436000Y-91416000D02*
X93436000Y-89936000D01*
X93115000Y-94884000D02*
X93115000Y-93496000D01*
X92635000Y-94656000D02*
X92635000Y-93496000D01*
X93155000Y-91416000D02*
X93155000Y-90014000D01*
X92915000Y-91416000D02*
X92915000Y-90108000D01*
X92035000Y-91416000D02*
X92035000Y-90757000D01*
X96550775Y-94181000D02*
X96550775Y-93681000D01*
X92075000Y-94199000D02*
X92075000Y-93496000D01*
X93996000Y-95036000D02*
X93996000Y-93496000D01*
X92595000Y-94631000D02*
X92595000Y-93496000D01*
X93316000Y-91416000D02*
X93316000Y-89965000D01*
X93155000Y-94898000D02*
X93155000Y-93496000D01*
X92715000Y-91416000D02*
X92715000Y-90209000D01*
X92395000Y-94491000D02*
X92395000Y-93496000D01*
X92395000Y-91416000D02*
X92395000Y-90421000D01*
X93035000Y-94854000D02*
X93035000Y-93496000D01*
X93796000Y-91416000D02*
X93796000Y-89883000D01*
X91915000Y-94010000D02*
X91915000Y-90902000D01*
X91835000Y-93899000D02*
X91835000Y-91013000D01*
X92235000Y-91416000D02*
X92235000Y-90555000D01*
X92195000Y-91416000D02*
X92195000Y-90592000D01*
X93275000Y-94936000D02*
X93275000Y-93496000D01*
X91995000Y-91416000D02*
X91995000Y-90803000D01*
X92475000Y-91416000D02*
X92475000Y-90361000D01*
X93235000Y-91416000D02*
X93235000Y-89988000D01*
X93035000Y-91416000D02*
X93035000Y-90058000D01*
X92235000Y-94357000D02*
X92235000Y-93496000D01*
X92035000Y-94155000D02*
X92035000Y-93496000D01*
X93956000Y-91416000D02*
X93956000Y-89876000D01*
X93356000Y-94957000D02*
X93356000Y-93496000D01*
X93636000Y-95012000D02*
X93636000Y-93496000D01*
X93916000Y-95035000D02*
X93916000Y-93496000D01*
X92155000Y-91416000D02*
X92155000Y-90630000D01*
X92115000Y-91416000D02*
X92115000Y-90671000D01*
X92755000Y-94724000D02*
X92755000Y-93496000D01*
X96616000Y-92456000D02*
G75*
G03*
X96616000Y-92456000I-2620000J0D01*
G01*
%TO.C,R5*%
X97930000Y-80660000D02*
X97930000Y-74120000D01*
X100340000Y-80660000D02*
X100670000Y-80660000D01*
X100670000Y-80660000D02*
X100670000Y-74120000D01*
X100670000Y-74120000D02*
X100340000Y-74120000D01*
X98260000Y-80660000D02*
X97930000Y-80660000D01*
X97930000Y-74120000D02*
X98260000Y-74120000D01*
%TO.C,R2*%
X87920000Y-79330000D02*
X88250000Y-79330000D01*
X85840000Y-79330000D02*
X85510000Y-79330000D01*
X85510000Y-79330000D02*
X85510000Y-72790000D01*
X85510000Y-72790000D02*
X85840000Y-72790000D01*
X88250000Y-79330000D02*
X88250000Y-72790000D01*
X88250000Y-72790000D02*
X87920000Y-72790000D01*
%TO.C,JP5*%
X91754000Y-87630000D02*
X91754000Y-88960000D01*
X91754000Y-86360000D02*
X91754000Y-81220000D01*
X91754000Y-88960000D02*
X90424000Y-88960000D01*
X89094000Y-86360000D02*
X89094000Y-81220000D01*
X91754000Y-86360000D02*
X89094000Y-86360000D01*
X91754000Y-81220000D02*
X89094000Y-81220000D01*
%TD*%
M02*
