%TF.GenerationSoftware,KiCad,Pcbnew,(6.0.2)*%
%TF.CreationDate,2022-07-06T08:44:01-05:00*%
%TF.ProjectId,WiFiModem,57694669-4d6f-4646-956d-2e6b69636164,rev?*%
%TF.SameCoordinates,Original*%
%TF.FileFunction,Soldermask,Bot*%
%TF.FilePolarity,Negative*%
%FSLAX46Y46*%
G04 Gerber Fmt 4.6, Leading zero omitted, Abs format (unit mm)*
G04 Created by KiCad (PCBNEW (6.0.2)) date 2022-07-06 08:44:01*
%MOMM*%
%LPD*%
G01*
G04 APERTURE LIST*
G04 Aperture macros list*
%AMRoundRect*
0 Rectangle with rounded corners*
0 $1 Rounding radius*
0 $2 $3 $4 $5 $6 $7 $8 $9 X,Y pos of 4 corners*
0 Add a 4 corners polygon primitive as box body*
4,1,4,$2,$3,$4,$5,$6,$7,$8,$9,$2,$3,0*
0 Add four circle primitives for the rounded corners*
1,1,$1+$1,$2,$3*
1,1,$1+$1,$4,$5*
1,1,$1+$1,$6,$7*
1,1,$1+$1,$8,$9*
0 Add four rect primitives between the rounded corners*
20,1,$1+$1,$2,$3,$4,$5,0*
20,1,$1+$1,$4,$5,$6,$7,0*
20,1,$1+$1,$6,$7,$8,$9,0*
20,1,$1+$1,$8,$9,$2,$3,0*%
G04 Aperture macros list end*
%ADD10R,1.700000X1.700000*%
%ADD11O,1.700000X1.700000*%
%ADD12C,4.000000*%
%ADD13R,1.600000X1.600000*%
%ADD14C,1.600000*%
%ADD15O,1.600000X1.600000*%
%ADD16O,3.500000X3.500000*%
%ADD17R,1.905000X2.000000*%
%ADD18O,1.905000X2.000000*%
%ADD19C,2.000000*%
%ADD20R,3.500000X3.500000*%
%ADD21RoundRect,0.750000X0.750000X1.000000X-0.750000X1.000000X-0.750000X-1.000000X0.750000X-1.000000X0*%
%ADD22RoundRect,0.875000X0.875000X0.875000X-0.875000X0.875000X-0.875000X-0.875000X0.875000X-0.875000X0*%
G04 APERTURE END LIST*
D10*
%TO.C,JP7*%
X114145000Y-91660000D03*
D11*
X111605000Y-91660000D03*
X109065000Y-91660000D03*
%TD*%
D10*
%TO.C,JP3*%
X122050000Y-116840000D03*
D11*
X122050000Y-114300000D03*
X122050000Y-111760000D03*
%TD*%
D10*
%TO.C,JP2*%
X135950000Y-116730000D03*
D11*
X135950000Y-114190000D03*
X135950000Y-111650000D03*
%TD*%
D12*
%TO.C,J1*%
X153970000Y-97345000D03*
X153970000Y-122345000D03*
D13*
X153670000Y-104305000D03*
D14*
X153670000Y-107075000D03*
X153670000Y-109845000D03*
X153670000Y-112615000D03*
X153670000Y-115385000D03*
X156510000Y-105690000D03*
X156510000Y-108460000D03*
X156510000Y-111230000D03*
X156510000Y-114000000D03*
%TD*%
D13*
%TO.C,U3*%
X100340000Y-96002000D03*
D15*
X100340000Y-98542000D03*
X100340000Y-101082000D03*
X100340000Y-103622000D03*
X100340000Y-106162000D03*
X100340000Y-108702000D03*
X100340000Y-111242000D03*
X100340000Y-113782000D03*
X107960000Y-113782000D03*
X107960000Y-111242000D03*
X107960000Y-108702000D03*
X107960000Y-106162000D03*
X107960000Y-103622000D03*
X107960000Y-101082000D03*
X107960000Y-98542000D03*
X107960000Y-96002000D03*
%TD*%
D16*
%TO.C,U2*%
X145542000Y-74104000D03*
D17*
X143002000Y-90764000D03*
D18*
X145542000Y-90764000D03*
X148082000Y-90764000D03*
%TD*%
D13*
%TO.C,C3*%
X93319600Y-116281200D03*
D14*
X93319600Y-114281200D03*
%TD*%
D13*
%TO.C,C2*%
X93014800Y-96215200D03*
D14*
X93014800Y-98215200D03*
%TD*%
D13*
%TO.C,C1*%
X153416000Y-73914000D03*
D14*
X155416000Y-73914000D03*
%TD*%
D19*
%TO.C,SW1*%
X128270000Y-74068800D03*
X128270000Y-80568800D03*
X123770000Y-74068800D03*
X123770000Y-80568800D03*
%TD*%
D14*
%TO.C,R6*%
X92354400Y-80416400D03*
D15*
X92354400Y-72796400D03*
%TD*%
D14*
%TO.C,R8*%
X119430800Y-84480400D03*
D15*
X119430800Y-76860400D03*
%TD*%
D14*
%TO.C,R7*%
X116078000Y-84455000D03*
D15*
X116078000Y-76835000D03*
%TD*%
D10*
%TO.C,JP1*%
X131560000Y-116860000D03*
D11*
X131560000Y-114320000D03*
X131560000Y-111780000D03*
%TD*%
D14*
%TO.C,R3*%
X111900000Y-109740000D03*
D15*
X111900000Y-102120000D03*
%TD*%
D12*
%TO.C,J2*%
X81130000Y-75620000D03*
X81130000Y-122720000D03*
D13*
X82550000Y-82550000D03*
D14*
X82550000Y-85320000D03*
X82550000Y-88090000D03*
X82550000Y-90860000D03*
X82550000Y-93630000D03*
X82550000Y-96400000D03*
X82550000Y-99170000D03*
X82550000Y-101940000D03*
X82550000Y-104710000D03*
X82550000Y-107480000D03*
X82550000Y-110250000D03*
X82550000Y-113020000D03*
X82550000Y-115790000D03*
X79710000Y-83935000D03*
X79710000Y-86705000D03*
X79710000Y-89475000D03*
X79710000Y-92245000D03*
X79710000Y-95015000D03*
X79710000Y-97785000D03*
X79710000Y-100555000D03*
X79710000Y-103325000D03*
X79710000Y-106095000D03*
X79710000Y-108865000D03*
X79710000Y-111635000D03*
X79710000Y-114405000D03*
%TD*%
%TO.C,C9*%
X87466800Y-88290400D03*
X92466800Y-88290400D03*
%TD*%
D10*
%TO.C,JP6*%
X124300000Y-101740000D03*
D11*
X124300000Y-99200000D03*
X124300000Y-96660000D03*
%TD*%
D10*
%TO.C,J4*%
X124445000Y-90678000D03*
D11*
X121905000Y-90678000D03*
X119365000Y-90678000D03*
%TD*%
D13*
%TO.C,C6*%
X112903000Y-96072888D03*
D14*
X112903000Y-98072888D03*
%TD*%
%TO.C,R4*%
X115062000Y-102108000D03*
D15*
X115062000Y-109728000D03*
%TD*%
D19*
%TO.C,SW2*%
X131912800Y-80516800D03*
X131912800Y-74016800D03*
X136412800Y-80516800D03*
X136412800Y-74016800D03*
%TD*%
D13*
%TO.C,C5*%
X142060000Y-95384888D03*
D14*
X142060000Y-97384888D03*
%TD*%
D10*
%TO.C,JP4*%
X126740000Y-116860000D03*
D11*
X126740000Y-114320000D03*
X126740000Y-111780000D03*
%TD*%
D13*
%TO.C,C7*%
X93014800Y-102209600D03*
D14*
X93014800Y-104209600D03*
%TD*%
D16*
%TO.C,U4*%
X133450000Y-102490000D03*
D17*
X135990000Y-85830000D03*
D18*
X133450000Y-85830000D03*
X130910000Y-85830000D03*
%TD*%
D13*
%TO.C,C8*%
X142200000Y-102830000D03*
D14*
X142200000Y-104830000D03*
%TD*%
D20*
%TO.C,J3*%
X153670000Y-83820000D03*
D21*
X159670000Y-83820000D03*
D22*
X156670000Y-79120000D03*
%TD*%
D14*
%TO.C,R1*%
X104590000Y-91750000D03*
D15*
X96970000Y-91750000D03*
%TD*%
D13*
%TO.C,C4*%
X92964000Y-108305600D03*
D14*
X92964000Y-110305600D03*
%TD*%
%TO.C,R5*%
X88849200Y-80365600D03*
D15*
X88849200Y-72745600D03*
%TD*%
D14*
%TO.C,R2*%
X94730000Y-91820000D03*
D15*
X87110000Y-91820000D03*
%TD*%
D10*
%TO.C,JP5*%
X119507000Y-101752400D03*
D11*
X119507000Y-99212400D03*
X119507000Y-96672400D03*
%TD*%
M02*
