%TF.GenerationSoftware,KiCad,Pcbnew,(6.0.2)*%
%TF.CreationDate,2022-08-08T17:12:05-05:00*%
%TF.ProjectId,WiFiModem,57694669-4d6f-4646-956d-2e6b69636164,rev?*%
%TF.SameCoordinates,Original*%
%TF.FileFunction,Legend,Bot*%
%TF.FilePolarity,Positive*%
%FSLAX46Y46*%
G04 Gerber Fmt 4.6, Leading zero omitted, Abs format (unit mm)*
G04 Created by KiCad (PCBNEW (6.0.2)) date 2022-08-08 17:12:05*
%MOMM*%
%LPD*%
G01*
G04 APERTURE LIST*
%ADD10C,0.150000*%
G04 APERTURE END LIST*
D10*
X159547619Y-112646190D02*
X160547619Y-112646190D01*
X159833333Y-112312857D01*
X160547619Y-111979523D01*
X159547619Y-111979523D01*
X159833333Y-111550952D02*
X159833333Y-111074761D01*
X159547619Y-111646190D02*
X160547619Y-111312857D01*
X159547619Y-110979523D01*
X159547619Y-110170000D02*
X159547619Y-110646190D01*
X160547619Y-110646190D01*
X160071428Y-109836666D02*
X160071428Y-109503333D01*
X159547619Y-109360476D02*
X159547619Y-109836666D01*
X160547619Y-109836666D01*
X160547619Y-109360476D01*
X159547619Y-108170000D02*
X160547619Y-108170000D01*
X160547619Y-107931904D01*
X160500000Y-107789047D01*
X160404761Y-107693809D01*
X160309523Y-107646190D01*
X160119047Y-107598571D01*
X159976190Y-107598571D01*
X159785714Y-107646190D01*
X159690476Y-107693809D01*
X159595238Y-107789047D01*
X159547619Y-107931904D01*
X159547619Y-108170000D01*
X160071428Y-106836666D02*
X160023809Y-106693809D01*
X159976190Y-106646190D01*
X159880952Y-106598571D01*
X159738095Y-106598571D01*
X159642857Y-106646190D01*
X159595238Y-106693809D01*
X159547619Y-106789047D01*
X159547619Y-107170000D01*
X160547619Y-107170000D01*
X160547619Y-106836666D01*
X160500000Y-106741428D01*
X160452380Y-106693809D01*
X160357142Y-106646190D01*
X160261904Y-106646190D01*
X160166666Y-106693809D01*
X160119047Y-106741428D01*
X160071428Y-106836666D01*
X160071428Y-107170000D01*
X159547619Y-106122380D02*
X159547619Y-105931904D01*
X159595238Y-105836666D01*
X159642857Y-105789047D01*
X159785714Y-105693809D01*
X159976190Y-105646190D01*
X160357142Y-105646190D01*
X160452380Y-105693809D01*
X160500000Y-105741428D01*
X160547619Y-105836666D01*
X160547619Y-106027142D01*
X160500000Y-106122380D01*
X160452380Y-106170000D01*
X160357142Y-106217619D01*
X160119047Y-106217619D01*
X160023809Y-106170000D01*
X159976190Y-106122380D01*
X159928571Y-106027142D01*
X159928571Y-105836666D01*
X159976190Y-105741428D01*
X160023809Y-105693809D01*
X160119047Y-105646190D01*
X76102380Y-93457619D02*
X75102380Y-93457619D01*
X75816666Y-93790952D01*
X75102380Y-94124285D01*
X76102380Y-94124285D01*
X75816666Y-94552857D02*
X75816666Y-95029047D01*
X76102380Y-94457619D02*
X75102380Y-94790952D01*
X76102380Y-95124285D01*
X76102380Y-95933809D02*
X76102380Y-95457619D01*
X75102380Y-95457619D01*
X75578571Y-96267142D02*
X75578571Y-96600476D01*
X76102380Y-96743333D02*
X76102380Y-96267142D01*
X75102380Y-96267142D01*
X75102380Y-96743333D01*
X76102380Y-97933809D02*
X75102380Y-97933809D01*
X75102380Y-98171904D01*
X75150000Y-98314761D01*
X75245238Y-98410000D01*
X75340476Y-98457619D01*
X75530952Y-98505238D01*
X75673809Y-98505238D01*
X75864285Y-98457619D01*
X75959523Y-98410000D01*
X76054761Y-98314761D01*
X76102380Y-98171904D01*
X76102380Y-97933809D01*
X75578571Y-99267142D02*
X75626190Y-99410000D01*
X75673809Y-99457619D01*
X75769047Y-99505238D01*
X75911904Y-99505238D01*
X76007142Y-99457619D01*
X76054761Y-99410000D01*
X76102380Y-99314761D01*
X76102380Y-98933809D01*
X75102380Y-98933809D01*
X75102380Y-99267142D01*
X75150000Y-99362380D01*
X75197619Y-99410000D01*
X75292857Y-99457619D01*
X75388095Y-99457619D01*
X75483333Y-99410000D01*
X75530952Y-99362380D01*
X75578571Y-99267142D01*
X75578571Y-98933809D01*
X75197619Y-99886190D02*
X75150000Y-99933809D01*
X75102380Y-100029047D01*
X75102380Y-100267142D01*
X75150000Y-100362380D01*
X75197619Y-100410000D01*
X75292857Y-100457619D01*
X75388095Y-100457619D01*
X75530952Y-100410000D01*
X76102380Y-99838571D01*
X76102380Y-100457619D01*
X75102380Y-101362380D02*
X75102380Y-100886190D01*
X75578571Y-100838571D01*
X75530952Y-100886190D01*
X75483333Y-100981428D01*
X75483333Y-101219523D01*
X75530952Y-101314761D01*
X75578571Y-101362380D01*
X75673809Y-101410000D01*
X75911904Y-101410000D01*
X76007142Y-101362380D01*
X76054761Y-101314761D01*
X76102380Y-101219523D01*
X76102380Y-100981428D01*
X76054761Y-100886190D01*
X76007142Y-100838571D01*
M02*
