%TF.GenerationSoftware,KiCad,Pcbnew,(6.0.2)*%
%TF.CreationDate,2022-07-06T08:44:01-05:00*%
%TF.ProjectId,WiFiModem,57694669-4d6f-4646-956d-2e6b69636164,rev?*%
%TF.SameCoordinates,Original*%
%TF.FileFunction,Legend,Top*%
%TF.FilePolarity,Positive*%
%FSLAX46Y46*%
G04 Gerber Fmt 4.6, Leading zero omitted, Abs format (unit mm)*
G04 Created by KiCad (PCBNEW (6.0.2)) date 2022-07-06 08:44:01*
%MOMM*%
%LPD*%
G01*
G04 APERTURE LIST*
%ADD10C,0.150000*%
%ADD11C,0.120000*%
G04 APERTURE END LIST*
D10*
X121532380Y-109632380D02*
X121199047Y-109156190D01*
X120960952Y-109632380D02*
X120960952Y-108632380D01*
X121341904Y-108632380D01*
X121437142Y-108680000D01*
X121484761Y-108727619D01*
X121532380Y-108822857D01*
X121532380Y-108965714D01*
X121484761Y-109060952D01*
X121437142Y-109108571D01*
X121341904Y-109156190D01*
X120960952Y-109156190D01*
X121818095Y-108632380D02*
X122389523Y-108632380D01*
X122103809Y-109632380D02*
X122103809Y-108632380D01*
X122675238Y-109584761D02*
X122818095Y-109632380D01*
X123056190Y-109632380D01*
X123151428Y-109584761D01*
X123199047Y-109537142D01*
X123246666Y-109441904D01*
X123246666Y-109346666D01*
X123199047Y-109251428D01*
X123151428Y-109203809D01*
X123056190Y-109156190D01*
X122865714Y-109108571D01*
X122770476Y-109060952D01*
X122722857Y-109013333D01*
X122675238Y-108918095D01*
X122675238Y-108822857D01*
X122722857Y-108727619D01*
X122770476Y-108680000D01*
X122865714Y-108632380D01*
X123103809Y-108632380D01*
X123246666Y-108680000D01*
X132483809Y-70950000D02*
X132388571Y-70902380D01*
X132245714Y-70902380D01*
X132102857Y-70950000D01*
X132007619Y-71045238D01*
X131960000Y-71140476D01*
X131912380Y-71330952D01*
X131912380Y-71473809D01*
X131960000Y-71664285D01*
X132007619Y-71759523D01*
X132102857Y-71854761D01*
X132245714Y-71902380D01*
X132340952Y-71902380D01*
X132483809Y-71854761D01*
X132531428Y-71807142D01*
X132531428Y-71473809D01*
X132340952Y-71473809D01*
X132960000Y-71902380D02*
X132960000Y-70902380D01*
X133340952Y-70902380D01*
X133436190Y-70950000D01*
X133483809Y-70997619D01*
X133531428Y-71092857D01*
X133531428Y-71235714D01*
X133483809Y-71330952D01*
X133436190Y-71378571D01*
X133340952Y-71426190D01*
X132960000Y-71426190D01*
X133960000Y-71902380D02*
X133960000Y-70902380D01*
X134626666Y-70902380D02*
X134817142Y-70902380D01*
X134912380Y-70950000D01*
X135007619Y-71045238D01*
X135055238Y-71235714D01*
X135055238Y-71569047D01*
X135007619Y-71759523D01*
X134912380Y-71854761D01*
X134817142Y-71902380D01*
X134626666Y-71902380D01*
X134531428Y-71854761D01*
X134436190Y-71759523D01*
X134388571Y-71569047D01*
X134388571Y-71235714D01*
X134436190Y-71045238D01*
X134531428Y-70950000D01*
X134626666Y-70902380D01*
X135674285Y-70902380D02*
X135769523Y-70902380D01*
X135864761Y-70950000D01*
X135912380Y-70997619D01*
X135960000Y-71092857D01*
X136007619Y-71283333D01*
X136007619Y-71521428D01*
X135960000Y-71711904D01*
X135912380Y-71807142D01*
X135864761Y-71854761D01*
X135769523Y-71902380D01*
X135674285Y-71902380D01*
X135579047Y-71854761D01*
X135531428Y-71807142D01*
X135483809Y-71711904D01*
X135436190Y-71521428D01*
X135436190Y-71283333D01*
X135483809Y-71092857D01*
X135531428Y-70997619D01*
X135579047Y-70950000D01*
X135674285Y-70902380D01*
X129433809Y-94772380D02*
X128957619Y-94772380D01*
X128957619Y-93772380D01*
X129767142Y-94772380D02*
X129767142Y-93772380D01*
X130100476Y-94486666D01*
X130433809Y-93772380D01*
X130433809Y-94772380D01*
X131433809Y-94772380D02*
X130862380Y-94772380D01*
X131148095Y-94772380D02*
X131148095Y-93772380D01*
X131052857Y-93915238D01*
X130957619Y-94010476D01*
X130862380Y-94058095D01*
X132386190Y-94772380D02*
X131814761Y-94772380D01*
X132100476Y-94772380D02*
X132100476Y-93772380D01*
X132005238Y-93915238D01*
X131910000Y-94010476D01*
X131814761Y-94058095D01*
X133338571Y-94772380D02*
X132767142Y-94772380D01*
X133052857Y-94772380D02*
X133052857Y-93772380D01*
X132957619Y-93915238D01*
X132862380Y-94010476D01*
X132767142Y-94058095D01*
X133671904Y-93772380D02*
X134338571Y-93772380D01*
X133910000Y-94772380D01*
X134719523Y-94391428D02*
X135481428Y-94391428D01*
X135862380Y-93772380D02*
X136481428Y-93772380D01*
X136148095Y-94153333D01*
X136290952Y-94153333D01*
X136386190Y-94200952D01*
X136433809Y-94248571D01*
X136481428Y-94343809D01*
X136481428Y-94581904D01*
X136433809Y-94677142D01*
X136386190Y-94724761D01*
X136290952Y-94772380D01*
X136005238Y-94772380D01*
X135910000Y-94724761D01*
X135862380Y-94677142D01*
X136910000Y-94677142D02*
X136957619Y-94724761D01*
X136910000Y-94772380D01*
X136862380Y-94724761D01*
X136910000Y-94677142D01*
X136910000Y-94772380D01*
X137290952Y-93772380D02*
X137910000Y-93772380D01*
X137576666Y-94153333D01*
X137719523Y-94153333D01*
X137814761Y-94200952D01*
X137862380Y-94248571D01*
X137910000Y-94343809D01*
X137910000Y-94581904D01*
X137862380Y-94677142D01*
X137814761Y-94724761D01*
X137719523Y-94772380D01*
X137433809Y-94772380D01*
X137338571Y-94724761D01*
X137290952Y-94677142D01*
X118814285Y-94482380D02*
X118814285Y-93482380D01*
X119195238Y-93482380D01*
X119290476Y-93530000D01*
X119338095Y-93577619D01*
X119385714Y-93672857D01*
X119385714Y-93815714D01*
X119338095Y-93910952D01*
X119290476Y-93958571D01*
X119195238Y-94006190D01*
X118814285Y-94006190D01*
X120385714Y-94482380D02*
X120052380Y-94006190D01*
X119814285Y-94482380D02*
X119814285Y-93482380D01*
X120195238Y-93482380D01*
X120290476Y-93530000D01*
X120338095Y-93577619D01*
X120385714Y-93672857D01*
X120385714Y-93815714D01*
X120338095Y-93910952D01*
X120290476Y-93958571D01*
X120195238Y-94006190D01*
X119814285Y-94006190D01*
X121004761Y-93482380D02*
X121195238Y-93482380D01*
X121290476Y-93530000D01*
X121385714Y-93625238D01*
X121433333Y-93815714D01*
X121433333Y-94149047D01*
X121385714Y-94339523D01*
X121290476Y-94434761D01*
X121195238Y-94482380D01*
X121004761Y-94482380D01*
X120909523Y-94434761D01*
X120814285Y-94339523D01*
X120766666Y-94149047D01*
X120766666Y-93815714D01*
X120814285Y-93625238D01*
X120909523Y-93530000D01*
X121004761Y-93482380D01*
X122385714Y-93530000D02*
X122290476Y-93482380D01*
X122147619Y-93482380D01*
X122004761Y-93530000D01*
X121909523Y-93625238D01*
X121861904Y-93720476D01*
X121814285Y-93910952D01*
X121814285Y-94053809D01*
X121861904Y-94244285D01*
X121909523Y-94339523D01*
X122004761Y-94434761D01*
X122147619Y-94482380D01*
X122242857Y-94482380D01*
X122385714Y-94434761D01*
X122433333Y-94387142D01*
X122433333Y-94053809D01*
X122242857Y-94053809D01*
X123433333Y-94482380D02*
X123100000Y-94006190D01*
X122861904Y-94482380D02*
X122861904Y-93482380D01*
X123242857Y-93482380D01*
X123338095Y-93530000D01*
X123385714Y-93577619D01*
X123433333Y-93672857D01*
X123433333Y-93815714D01*
X123385714Y-93910952D01*
X123338095Y-93958571D01*
X123242857Y-94006190D01*
X122861904Y-94006190D01*
X123814285Y-94196666D02*
X124290476Y-94196666D01*
X123719047Y-94482380D02*
X124052380Y-93482380D01*
X124385714Y-94482380D01*
X124719047Y-94482380D02*
X124719047Y-93482380D01*
X125052380Y-94196666D01*
X125385714Y-93482380D01*
X125385714Y-94482380D01*
X131403333Y-109702380D02*
X131070000Y-109226190D01*
X130831904Y-109702380D02*
X130831904Y-108702380D01*
X131212857Y-108702380D01*
X131308095Y-108750000D01*
X131355714Y-108797619D01*
X131403333Y-108892857D01*
X131403333Y-109035714D01*
X131355714Y-109130952D01*
X131308095Y-109178571D01*
X131212857Y-109226190D01*
X130831904Y-109226190D01*
X131736666Y-108702380D02*
X132403333Y-109702380D01*
X132403333Y-108702380D02*
X131736666Y-109702380D01*
X91281428Y-119692380D02*
X91519523Y-120692380D01*
X91710000Y-119978095D01*
X91900476Y-120692380D01*
X92138571Y-119692380D01*
X92519523Y-120692380D02*
X92519523Y-119692380D01*
X93329047Y-120168571D02*
X92995714Y-120168571D01*
X92995714Y-120692380D02*
X92995714Y-119692380D01*
X93471904Y-119692380D01*
X93852857Y-120692380D02*
X93852857Y-119692380D01*
X95090952Y-120692380D02*
X95090952Y-119692380D01*
X95424285Y-120406666D01*
X95757619Y-119692380D01*
X95757619Y-120692380D01*
X96424285Y-119692380D02*
X96614761Y-119692380D01*
X96710000Y-119740000D01*
X96805238Y-119835238D01*
X96852857Y-120025714D01*
X96852857Y-120359047D01*
X96805238Y-120549523D01*
X96710000Y-120644761D01*
X96614761Y-120692380D01*
X96424285Y-120692380D01*
X96329047Y-120644761D01*
X96233809Y-120549523D01*
X96186190Y-120359047D01*
X96186190Y-120025714D01*
X96233809Y-119835238D01*
X96329047Y-119740000D01*
X96424285Y-119692380D01*
X97281428Y-120692380D02*
X97281428Y-119692380D01*
X97519523Y-119692380D01*
X97662380Y-119740000D01*
X97757619Y-119835238D01*
X97805238Y-119930476D01*
X97852857Y-120120952D01*
X97852857Y-120263809D01*
X97805238Y-120454285D01*
X97757619Y-120549523D01*
X97662380Y-120644761D01*
X97519523Y-120692380D01*
X97281428Y-120692380D01*
X98281428Y-120168571D02*
X98614761Y-120168571D01*
X98757619Y-120692380D02*
X98281428Y-120692380D01*
X98281428Y-119692380D01*
X98757619Y-119692380D01*
X99186190Y-120692380D02*
X99186190Y-119692380D01*
X99519523Y-120406666D01*
X99852857Y-119692380D01*
X99852857Y-120692380D01*
X101424285Y-120168571D02*
X101567142Y-120216190D01*
X101614761Y-120263809D01*
X101662380Y-120359047D01*
X101662380Y-120501904D01*
X101614761Y-120597142D01*
X101567142Y-120644761D01*
X101471904Y-120692380D01*
X101090952Y-120692380D01*
X101090952Y-119692380D01*
X101424285Y-119692380D01*
X101519523Y-119740000D01*
X101567142Y-119787619D01*
X101614761Y-119882857D01*
X101614761Y-119978095D01*
X101567142Y-120073333D01*
X101519523Y-120120952D01*
X101424285Y-120168571D01*
X101090952Y-120168571D01*
X102281428Y-120216190D02*
X102281428Y-120692380D01*
X101948095Y-119692380D02*
X102281428Y-120216190D01*
X102614761Y-119692380D01*
X103710000Y-120692380D02*
X103710000Y-119692380D01*
X103948095Y-119692380D01*
X104090952Y-119740000D01*
X104186190Y-119835238D01*
X104233809Y-119930476D01*
X104281428Y-120120952D01*
X104281428Y-120263809D01*
X104233809Y-120454285D01*
X104186190Y-120549523D01*
X104090952Y-120644761D01*
X103948095Y-120692380D01*
X103710000Y-120692380D01*
X104662380Y-120406666D02*
X105138571Y-120406666D01*
X104567142Y-120692380D02*
X104900476Y-119692380D01*
X105233809Y-120692380D01*
X105567142Y-120692380D02*
X105567142Y-119692380D01*
X106138571Y-120692380D01*
X106138571Y-119692380D01*
X106614761Y-120692380D02*
X106614761Y-119692380D01*
X107090952Y-120168571D02*
X107424285Y-120168571D01*
X107567142Y-120692380D02*
X107090952Y-120692380D01*
X107090952Y-119692380D01*
X107567142Y-119692380D01*
X108471904Y-120692380D02*
X107995714Y-120692380D01*
X107995714Y-119692380D01*
X109567142Y-120692380D02*
X109567142Y-119692380D01*
X109900476Y-120406666D01*
X110233809Y-119692380D01*
X110233809Y-120692380D01*
X110662380Y-120406666D02*
X111138571Y-120406666D01*
X110567142Y-120692380D02*
X110900476Y-119692380D01*
X111233809Y-120692380D01*
X112138571Y-120692380D02*
X111805238Y-120216190D01*
X111567142Y-120692380D02*
X111567142Y-119692380D01*
X111948095Y-119692380D01*
X112043333Y-119740000D01*
X112090952Y-119787619D01*
X112138571Y-119882857D01*
X112138571Y-120025714D01*
X112090952Y-120120952D01*
X112043333Y-120168571D01*
X111948095Y-120216190D01*
X111567142Y-120216190D01*
X112567142Y-120692380D02*
X112567142Y-119692380D01*
X113138571Y-120692380D02*
X112710000Y-120120952D01*
X113138571Y-119692380D02*
X112567142Y-120263809D01*
X113519523Y-120644761D02*
X113662380Y-120692380D01*
X113900476Y-120692380D01*
X113995714Y-120644761D01*
X114043333Y-120597142D01*
X114090952Y-120501904D01*
X114090952Y-120406666D01*
X114043333Y-120311428D01*
X113995714Y-120263809D01*
X113900476Y-120216190D01*
X113710000Y-120168571D01*
X113614761Y-120120952D01*
X113567142Y-120073333D01*
X113519523Y-119978095D01*
X113519523Y-119882857D01*
X113567142Y-119787619D01*
X113614761Y-119740000D01*
X113710000Y-119692380D01*
X113948095Y-119692380D01*
X114090952Y-119740000D01*
X98805238Y-121302380D02*
X99138571Y-122302380D01*
X99471904Y-121302380D01*
X99805238Y-121778571D02*
X100138571Y-121778571D01*
X100281428Y-122302380D02*
X99805238Y-122302380D01*
X99805238Y-121302380D01*
X100281428Y-121302380D01*
X101281428Y-122302380D02*
X100948095Y-121826190D01*
X100710000Y-122302380D02*
X100710000Y-121302380D01*
X101090952Y-121302380D01*
X101186190Y-121350000D01*
X101233809Y-121397619D01*
X101281428Y-121492857D01*
X101281428Y-121635714D01*
X101233809Y-121730952D01*
X101186190Y-121778571D01*
X101090952Y-121826190D01*
X100710000Y-121826190D01*
X101662380Y-122254761D02*
X101805238Y-122302380D01*
X102043333Y-122302380D01*
X102138571Y-122254761D01*
X102186190Y-122207142D01*
X102233809Y-122111904D01*
X102233809Y-122016666D01*
X102186190Y-121921428D01*
X102138571Y-121873809D01*
X102043333Y-121826190D01*
X101852857Y-121778571D01*
X101757619Y-121730952D01*
X101710000Y-121683333D01*
X101662380Y-121588095D01*
X101662380Y-121492857D01*
X101710000Y-121397619D01*
X101757619Y-121350000D01*
X101852857Y-121302380D01*
X102090952Y-121302380D01*
X102233809Y-121350000D01*
X102662380Y-122302380D02*
X102662380Y-121302380D01*
X103329047Y-121302380D02*
X103519523Y-121302380D01*
X103614761Y-121350000D01*
X103710000Y-121445238D01*
X103757619Y-121635714D01*
X103757619Y-121969047D01*
X103710000Y-122159523D01*
X103614761Y-122254761D01*
X103519523Y-122302380D01*
X103329047Y-122302380D01*
X103233809Y-122254761D01*
X103138571Y-122159523D01*
X103090952Y-121969047D01*
X103090952Y-121635714D01*
X103138571Y-121445238D01*
X103233809Y-121350000D01*
X103329047Y-121302380D01*
X104186190Y-122302380D02*
X104186190Y-121302380D01*
X104757619Y-122302380D01*
X104757619Y-121302380D01*
X106519523Y-122302380D02*
X105948095Y-122302380D01*
X106233809Y-122302380D02*
X106233809Y-121302380D01*
X106138571Y-121445238D01*
X106043333Y-121540476D01*
X105948095Y-121588095D01*
X97876666Y-123817142D02*
X97829047Y-123864761D01*
X97686190Y-123912380D01*
X97590952Y-123912380D01*
X97448095Y-123864761D01*
X97352857Y-123769523D01*
X97305238Y-123674285D01*
X97257619Y-123483809D01*
X97257619Y-123340952D01*
X97305238Y-123150476D01*
X97352857Y-123055238D01*
X97448095Y-122960000D01*
X97590952Y-122912380D01*
X97686190Y-122912380D01*
X97829047Y-122960000D01*
X97876666Y-123007619D01*
X98876666Y-123817142D02*
X98829047Y-123864761D01*
X98686190Y-123912380D01*
X98590952Y-123912380D01*
X98448095Y-123864761D01*
X98352857Y-123769523D01*
X98305238Y-123674285D01*
X98257619Y-123483809D01*
X98257619Y-123340952D01*
X98305238Y-123150476D01*
X98352857Y-123055238D01*
X98448095Y-122960000D01*
X98590952Y-122912380D01*
X98686190Y-122912380D01*
X98829047Y-122960000D01*
X98876666Y-123007619D01*
X99305238Y-123531428D02*
X100067142Y-123531428D01*
X100876666Y-123388571D02*
X101019523Y-123436190D01*
X101067142Y-123483809D01*
X101114761Y-123579047D01*
X101114761Y-123721904D01*
X101067142Y-123817142D01*
X101019523Y-123864761D01*
X100924285Y-123912380D01*
X100543333Y-123912380D01*
X100543333Y-122912380D01*
X100876666Y-122912380D01*
X100971904Y-122960000D01*
X101019523Y-123007619D01*
X101067142Y-123102857D01*
X101067142Y-123198095D01*
X101019523Y-123293333D01*
X100971904Y-123340952D01*
X100876666Y-123388571D01*
X100543333Y-123388571D01*
X101733809Y-123436190D02*
X101733809Y-123912380D01*
X101400476Y-122912380D02*
X101733809Y-123436190D01*
X102067142Y-122912380D01*
X102400476Y-123531428D02*
X103162380Y-123531428D01*
X103590952Y-123864761D02*
X103733809Y-123912380D01*
X103971904Y-123912380D01*
X104067142Y-123864761D01*
X104114761Y-123817142D01*
X104162380Y-123721904D01*
X104162380Y-123626666D01*
X104114761Y-123531428D01*
X104067142Y-123483809D01*
X103971904Y-123436190D01*
X103781428Y-123388571D01*
X103686190Y-123340952D01*
X103638571Y-123293333D01*
X103590952Y-123198095D01*
X103590952Y-123102857D01*
X103638571Y-123007619D01*
X103686190Y-122960000D01*
X103781428Y-122912380D01*
X104019523Y-122912380D01*
X104162380Y-122960000D01*
X104543333Y-123626666D02*
X105019523Y-123626666D01*
X104448095Y-123912380D02*
X104781428Y-122912380D01*
X105114761Y-123912380D01*
X106638571Y-123245714D02*
X106638571Y-123912380D01*
X106400476Y-122864761D02*
X106162380Y-123579047D01*
X106781428Y-123579047D01*
X107162380Y-123817142D02*
X107210000Y-123864761D01*
X107162380Y-123912380D01*
X107114761Y-123864761D01*
X107162380Y-123817142D01*
X107162380Y-123912380D01*
X107829047Y-122912380D02*
X107924285Y-122912380D01*
X108019523Y-122960000D01*
X108067142Y-123007619D01*
X108114761Y-123102857D01*
X108162380Y-123293333D01*
X108162380Y-123531428D01*
X108114761Y-123721904D01*
X108067142Y-123817142D01*
X108019523Y-123864761D01*
X107924285Y-123912380D01*
X107829047Y-123912380D01*
X107733809Y-123864761D01*
X107686190Y-123817142D01*
X107638571Y-123721904D01*
X107590952Y-123531428D01*
X107590952Y-123293333D01*
X107638571Y-123102857D01*
X107686190Y-123007619D01*
X107733809Y-122960000D01*
X107829047Y-122912380D01*
X104692380Y-107314666D02*
X103692380Y-107314666D01*
X104406666Y-106981333D01*
X103692380Y-106648000D01*
X104692380Y-106648000D01*
X104406666Y-106219428D02*
X104406666Y-105743238D01*
X104692380Y-106314666D02*
X103692380Y-105981333D01*
X104692380Y-105648000D01*
X103692380Y-105409904D02*
X104692380Y-104743238D01*
X103692380Y-104743238D02*
X104692380Y-105409904D01*
X103787619Y-104409904D02*
X103740000Y-104362285D01*
X103692380Y-104267047D01*
X103692380Y-104028952D01*
X103740000Y-103933714D01*
X103787619Y-103886095D01*
X103882857Y-103838476D01*
X103978095Y-103838476D01*
X104120952Y-103886095D01*
X104692380Y-104457523D01*
X104692380Y-103838476D01*
X103692380Y-103505142D02*
X103692380Y-102886095D01*
X104073333Y-103219428D01*
X104073333Y-103076571D01*
X104120952Y-102981333D01*
X104168571Y-102933714D01*
X104263809Y-102886095D01*
X104501904Y-102886095D01*
X104597142Y-102933714D01*
X104644761Y-102981333D01*
X104692380Y-103076571D01*
X104692380Y-103362285D01*
X104644761Y-103457523D01*
X104597142Y-103505142D01*
X103787619Y-102505142D02*
X103740000Y-102457523D01*
X103692380Y-102362285D01*
X103692380Y-102124190D01*
X103740000Y-102028952D01*
X103787619Y-101981333D01*
X103882857Y-101933714D01*
X103978095Y-101933714D01*
X104120952Y-101981333D01*
X104692380Y-102552761D01*
X104692380Y-101933714D01*
X101075714Y-79648571D02*
X101409047Y-79648571D01*
X101551904Y-80172380D02*
X101075714Y-80172380D01*
X101075714Y-79172380D01*
X101551904Y-79172380D01*
X101932857Y-80124761D02*
X102075714Y-80172380D01*
X102313809Y-80172380D01*
X102409047Y-80124761D01*
X102456666Y-80077142D01*
X102504285Y-79981904D01*
X102504285Y-79886666D01*
X102456666Y-79791428D01*
X102409047Y-79743809D01*
X102313809Y-79696190D01*
X102123333Y-79648571D01*
X102028095Y-79600952D01*
X101980476Y-79553333D01*
X101932857Y-79458095D01*
X101932857Y-79362857D01*
X101980476Y-79267619D01*
X102028095Y-79220000D01*
X102123333Y-79172380D01*
X102361428Y-79172380D01*
X102504285Y-79220000D01*
X102932857Y-80172380D02*
X102932857Y-79172380D01*
X103313809Y-79172380D01*
X103409047Y-79220000D01*
X103456666Y-79267619D01*
X103504285Y-79362857D01*
X103504285Y-79505714D01*
X103456666Y-79600952D01*
X103409047Y-79648571D01*
X103313809Y-79696190D01*
X102932857Y-79696190D01*
X103932857Y-79791428D02*
X104694761Y-79791428D01*
X105694761Y-80172380D02*
X105123333Y-80172380D01*
X105409047Y-80172380D02*
X105409047Y-79172380D01*
X105313809Y-79315238D01*
X105218571Y-79410476D01*
X105123333Y-79458095D01*
X106075714Y-79267619D02*
X106123333Y-79220000D01*
X106218571Y-79172380D01*
X106456666Y-79172380D01*
X106551904Y-79220000D01*
X106599523Y-79267619D01*
X106647142Y-79362857D01*
X106647142Y-79458095D01*
X106599523Y-79600952D01*
X106028095Y-80172380D01*
X106647142Y-80172380D01*
X107075714Y-79648571D02*
X107409047Y-79648571D01*
X107551904Y-80172380D02*
X107075714Y-80172380D01*
X107075714Y-79172380D01*
X107551904Y-79172380D01*
X121523333Y-88742380D02*
X121190000Y-88266190D01*
X120951904Y-88742380D02*
X120951904Y-87742380D01*
X121332857Y-87742380D01*
X121428095Y-87790000D01*
X121475714Y-87837619D01*
X121523333Y-87932857D01*
X121523333Y-88075714D01*
X121475714Y-88170952D01*
X121428095Y-88218571D01*
X121332857Y-88266190D01*
X120951904Y-88266190D01*
X121856666Y-87742380D02*
X122523333Y-88742380D01*
X122523333Y-87742380D02*
X121856666Y-88742380D01*
X160088571Y-113233809D02*
X160088571Y-113567142D01*
X160612380Y-113567142D02*
X159612380Y-113567142D01*
X159612380Y-113090952D01*
X160088571Y-112710000D02*
X160088571Y-112376666D01*
X160612380Y-112233809D02*
X160612380Y-112710000D01*
X159612380Y-112710000D01*
X159612380Y-112233809D01*
X160612380Y-111805238D02*
X159612380Y-111805238D01*
X160326666Y-111471904D01*
X159612380Y-111138571D01*
X160612380Y-111138571D01*
X160326666Y-110710000D02*
X160326666Y-110233809D01*
X160612380Y-110805238D02*
X159612380Y-110471904D01*
X160612380Y-110138571D01*
X160612380Y-109329047D02*
X160612380Y-109805238D01*
X159612380Y-109805238D01*
X160088571Y-108995714D02*
X160088571Y-108662380D01*
X160612380Y-108519523D02*
X160612380Y-108995714D01*
X159612380Y-108995714D01*
X159612380Y-108519523D01*
X160612380Y-107329047D02*
X159612380Y-107329047D01*
X159612380Y-107090952D01*
X159660000Y-106948095D01*
X159755238Y-106852857D01*
X159850476Y-106805238D01*
X160040952Y-106757619D01*
X160183809Y-106757619D01*
X160374285Y-106805238D01*
X160469523Y-106852857D01*
X160564761Y-106948095D01*
X160612380Y-107090952D01*
X160612380Y-107329047D01*
X160088571Y-105995714D02*
X160136190Y-105852857D01*
X160183809Y-105805238D01*
X160279047Y-105757619D01*
X160421904Y-105757619D01*
X160517142Y-105805238D01*
X160564761Y-105852857D01*
X160612380Y-105948095D01*
X160612380Y-106329047D01*
X159612380Y-106329047D01*
X159612380Y-105995714D01*
X159660000Y-105900476D01*
X159707619Y-105852857D01*
X159802857Y-105805238D01*
X159898095Y-105805238D01*
X159993333Y-105852857D01*
X160040952Y-105900476D01*
X160088571Y-105995714D01*
X160088571Y-106329047D01*
X160612380Y-105281428D02*
X160612380Y-105090952D01*
X160564761Y-104995714D01*
X160517142Y-104948095D01*
X160374285Y-104852857D01*
X160183809Y-104805238D01*
X159802857Y-104805238D01*
X159707619Y-104852857D01*
X159660000Y-104900476D01*
X159612380Y-104995714D01*
X159612380Y-105186190D01*
X159660000Y-105281428D01*
X159707619Y-105329047D01*
X159802857Y-105376666D01*
X160040952Y-105376666D01*
X160136190Y-105329047D01*
X160183809Y-105281428D01*
X160231428Y-105186190D01*
X160231428Y-104995714D01*
X160183809Y-104900476D01*
X160136190Y-104852857D01*
X160040952Y-104805238D01*
X75147619Y-93467619D02*
X76147619Y-93467619D01*
X75433333Y-93800952D01*
X76147619Y-94134285D01*
X75147619Y-94134285D01*
X75433333Y-94562857D02*
X75433333Y-95039047D01*
X75147619Y-94467619D02*
X76147619Y-94800952D01*
X75147619Y-95134285D01*
X75147619Y-95943809D02*
X75147619Y-95467619D01*
X76147619Y-95467619D01*
X75671428Y-96277142D02*
X75671428Y-96610476D01*
X75147619Y-96753333D02*
X75147619Y-96277142D01*
X76147619Y-96277142D01*
X76147619Y-96753333D01*
X75147619Y-97943809D02*
X76147619Y-97943809D01*
X76147619Y-98181904D01*
X76100000Y-98324761D01*
X76004761Y-98420000D01*
X75909523Y-98467619D01*
X75719047Y-98515238D01*
X75576190Y-98515238D01*
X75385714Y-98467619D01*
X75290476Y-98420000D01*
X75195238Y-98324761D01*
X75147619Y-98181904D01*
X75147619Y-97943809D01*
X75671428Y-99277142D02*
X75623809Y-99420000D01*
X75576190Y-99467619D01*
X75480952Y-99515238D01*
X75338095Y-99515238D01*
X75242857Y-99467619D01*
X75195238Y-99420000D01*
X75147619Y-99324761D01*
X75147619Y-98943809D01*
X76147619Y-98943809D01*
X76147619Y-99277142D01*
X76100000Y-99372380D01*
X76052380Y-99420000D01*
X75957142Y-99467619D01*
X75861904Y-99467619D01*
X75766666Y-99420000D01*
X75719047Y-99372380D01*
X75671428Y-99277142D01*
X75671428Y-98943809D01*
X76052380Y-99896190D02*
X76100000Y-99943809D01*
X76147619Y-100039047D01*
X76147619Y-100277142D01*
X76100000Y-100372380D01*
X76052380Y-100420000D01*
X75957142Y-100467619D01*
X75861904Y-100467619D01*
X75719047Y-100420000D01*
X75147619Y-99848571D01*
X75147619Y-100467619D01*
X76147619Y-101372380D02*
X76147619Y-100896190D01*
X75671428Y-100848571D01*
X75719047Y-100896190D01*
X75766666Y-100991428D01*
X75766666Y-101229523D01*
X75719047Y-101324761D01*
X75671428Y-101372380D01*
X75576190Y-101420000D01*
X75338095Y-101420000D01*
X75242857Y-101372380D01*
X75195238Y-101324761D01*
X75147619Y-101229523D01*
X75147619Y-100991428D01*
X75195238Y-100896190D01*
X75242857Y-100848571D01*
X135098095Y-108632380D02*
X135669523Y-108632380D01*
X135383809Y-109632380D02*
X135383809Y-108632380D01*
X135907619Y-108632380D02*
X136574285Y-109632380D01*
X136574285Y-108632380D02*
X135907619Y-109632380D01*
X124837619Y-71992380D02*
X124504285Y-71516190D01*
X124266190Y-71992380D02*
X124266190Y-70992380D01*
X124647142Y-70992380D01*
X124742380Y-71040000D01*
X124790000Y-71087619D01*
X124837619Y-71182857D01*
X124837619Y-71325714D01*
X124790000Y-71420952D01*
X124742380Y-71468571D01*
X124647142Y-71516190D01*
X124266190Y-71516190D01*
X125266190Y-71468571D02*
X125599523Y-71468571D01*
X125742380Y-71992380D02*
X125266190Y-71992380D01*
X125266190Y-70992380D01*
X125742380Y-70992380D01*
X126123333Y-71944761D02*
X126266190Y-71992380D01*
X126504285Y-71992380D01*
X126599523Y-71944761D01*
X126647142Y-71897142D01*
X126694761Y-71801904D01*
X126694761Y-71706666D01*
X126647142Y-71611428D01*
X126599523Y-71563809D01*
X126504285Y-71516190D01*
X126313809Y-71468571D01*
X126218571Y-71420952D01*
X126170952Y-71373333D01*
X126123333Y-71278095D01*
X126123333Y-71182857D01*
X126170952Y-71087619D01*
X126218571Y-71040000D01*
X126313809Y-70992380D01*
X126551904Y-70992380D01*
X126694761Y-71040000D01*
X127123333Y-71468571D02*
X127456666Y-71468571D01*
X127599523Y-71992380D02*
X127123333Y-71992380D01*
X127123333Y-70992380D01*
X127599523Y-70992380D01*
X127885238Y-70992380D02*
X128456666Y-70992380D01*
X128170952Y-71992380D02*
X128170952Y-70992380D01*
X116190952Y-112182380D02*
X116190952Y-111182380D01*
X116762380Y-112182380D01*
X116762380Y-111182380D01*
X117238571Y-111182380D02*
X117238571Y-111991904D01*
X117286190Y-112087142D01*
X117333809Y-112134761D01*
X117429047Y-112182380D01*
X117619523Y-112182380D01*
X117714761Y-112134761D01*
X117762380Y-112087142D01*
X117810000Y-111991904D01*
X117810000Y-111182380D01*
X118762380Y-112182380D02*
X118286190Y-112182380D01*
X118286190Y-111182380D01*
X119571904Y-112182380D02*
X119095714Y-112182380D01*
X119095714Y-111182380D01*
X123938095Y-87740000D02*
X123842857Y-87692380D01*
X123700000Y-87692380D01*
X123557142Y-87740000D01*
X123461904Y-87835238D01*
X123414285Y-87930476D01*
X123366666Y-88120952D01*
X123366666Y-88263809D01*
X123414285Y-88454285D01*
X123461904Y-88549523D01*
X123557142Y-88644761D01*
X123700000Y-88692380D01*
X123795238Y-88692380D01*
X123938095Y-88644761D01*
X123985714Y-88597142D01*
X123985714Y-88263809D01*
X123795238Y-88263809D01*
X124414285Y-88692380D02*
X124414285Y-87692380D01*
X124985714Y-88692380D01*
X124985714Y-87692380D01*
X125461904Y-88692380D02*
X125461904Y-87692380D01*
X125700000Y-87692380D01*
X125842857Y-87740000D01*
X125938095Y-87835238D01*
X125985714Y-87930476D01*
X126033333Y-88120952D01*
X126033333Y-88263809D01*
X125985714Y-88454285D01*
X125938095Y-88549523D01*
X125842857Y-88644761D01*
X125700000Y-88692380D01*
X125461904Y-88692380D01*
X117142380Y-93455714D02*
X116142380Y-93455714D01*
X116142380Y-93074761D01*
X116190000Y-92979523D01*
X116237619Y-92931904D01*
X116332857Y-92884285D01*
X116475714Y-92884285D01*
X116570952Y-92931904D01*
X116618571Y-92979523D01*
X116666190Y-93074761D01*
X116666190Y-93455714D01*
X117142380Y-91884285D02*
X116666190Y-92217619D01*
X117142380Y-92455714D02*
X116142380Y-92455714D01*
X116142380Y-92074761D01*
X116190000Y-91979523D01*
X116237619Y-91931904D01*
X116332857Y-91884285D01*
X116475714Y-91884285D01*
X116570952Y-91931904D01*
X116618571Y-91979523D01*
X116666190Y-92074761D01*
X116666190Y-92455714D01*
X116142380Y-91265238D02*
X116142380Y-91074761D01*
X116190000Y-90979523D01*
X116285238Y-90884285D01*
X116475714Y-90836666D01*
X116809047Y-90836666D01*
X116999523Y-90884285D01*
X117094761Y-90979523D01*
X117142380Y-91074761D01*
X117142380Y-91265238D01*
X117094761Y-91360476D01*
X116999523Y-91455714D01*
X116809047Y-91503333D01*
X116475714Y-91503333D01*
X116285238Y-91455714D01*
X116190000Y-91360476D01*
X116142380Y-91265238D01*
X116190000Y-89884285D02*
X116142380Y-89979523D01*
X116142380Y-90122380D01*
X116190000Y-90265238D01*
X116285238Y-90360476D01*
X116380476Y-90408095D01*
X116570952Y-90455714D01*
X116713809Y-90455714D01*
X116904285Y-90408095D01*
X116999523Y-90360476D01*
X117094761Y-90265238D01*
X117142380Y-90122380D01*
X117142380Y-90027142D01*
X117094761Y-89884285D01*
X117047142Y-89836666D01*
X116713809Y-89836666D01*
X116713809Y-90027142D01*
X116016666Y-116522380D02*
X116588095Y-116522380D01*
X116302380Y-117522380D02*
X116302380Y-116522380D01*
X116921428Y-117522380D02*
X116921428Y-116522380D01*
X116921428Y-116998571D02*
X117492857Y-116998571D01*
X117492857Y-117522380D02*
X117492857Y-116522380D01*
X118540476Y-117522380D02*
X118207142Y-117046190D01*
X117969047Y-117522380D02*
X117969047Y-116522380D01*
X118350000Y-116522380D01*
X118445238Y-116570000D01*
X118492857Y-116617619D01*
X118540476Y-116712857D01*
X118540476Y-116855714D01*
X118492857Y-116950952D01*
X118445238Y-116998571D01*
X118350000Y-117046190D01*
X117969047Y-117046190D01*
X118969047Y-116522380D02*
X118969047Y-117331904D01*
X119016666Y-117427142D01*
X119064285Y-117474761D01*
X119159523Y-117522380D01*
X119350000Y-117522380D01*
X119445238Y-117474761D01*
X119492857Y-117427142D01*
X119540476Y-117331904D01*
X119540476Y-116522380D01*
X126002380Y-109507142D02*
X125954761Y-109554761D01*
X125811904Y-109602380D01*
X125716666Y-109602380D01*
X125573809Y-109554761D01*
X125478571Y-109459523D01*
X125430952Y-109364285D01*
X125383333Y-109173809D01*
X125383333Y-109030952D01*
X125430952Y-108840476D01*
X125478571Y-108745238D01*
X125573809Y-108650000D01*
X125716666Y-108602380D01*
X125811904Y-108602380D01*
X125954761Y-108650000D01*
X126002380Y-108697619D01*
X126288095Y-108602380D02*
X126859523Y-108602380D01*
X126573809Y-109602380D02*
X126573809Y-108602380D01*
X127145238Y-109554761D02*
X127288095Y-109602380D01*
X127526190Y-109602380D01*
X127621428Y-109554761D01*
X127669047Y-109507142D01*
X127716666Y-109411904D01*
X127716666Y-109316666D01*
X127669047Y-109221428D01*
X127621428Y-109173809D01*
X127526190Y-109126190D01*
X127335714Y-109078571D01*
X127240476Y-109030952D01*
X127192857Y-108983333D01*
X127145238Y-108888095D01*
X127145238Y-108792857D01*
X127192857Y-108697619D01*
X127240476Y-108650000D01*
X127335714Y-108602380D01*
X127573809Y-108602380D01*
X127716666Y-108650000D01*
X119053333Y-106102380D02*
X119053333Y-105102380D01*
X119386666Y-105816666D01*
X119720000Y-105102380D01*
X119720000Y-106102380D01*
X120148571Y-105816666D02*
X120624761Y-105816666D01*
X120053333Y-106102380D02*
X120386666Y-105102380D01*
X120720000Y-106102380D01*
X120958095Y-105102380D02*
X121624761Y-106102380D01*
X121624761Y-105102380D02*
X120958095Y-106102380D01*
X121958095Y-105197619D02*
X122005714Y-105150000D01*
X122100952Y-105102380D01*
X122339047Y-105102380D01*
X122434285Y-105150000D01*
X122481904Y-105197619D01*
X122529523Y-105292857D01*
X122529523Y-105388095D01*
X122481904Y-105530952D01*
X121910476Y-106102380D01*
X122529523Y-106102380D01*
X122862857Y-105102380D02*
X123481904Y-105102380D01*
X123148571Y-105483333D01*
X123291428Y-105483333D01*
X123386666Y-105530952D01*
X123434285Y-105578571D01*
X123481904Y-105673809D01*
X123481904Y-105911904D01*
X123434285Y-106007142D01*
X123386666Y-106054761D01*
X123291428Y-106102380D01*
X123005714Y-106102380D01*
X122910476Y-106054761D01*
X122862857Y-106007142D01*
X123862857Y-105197619D02*
X123910476Y-105150000D01*
X124005714Y-105102380D01*
X124243809Y-105102380D01*
X124339047Y-105150000D01*
X124386666Y-105197619D01*
X124434285Y-105292857D01*
X124434285Y-105388095D01*
X124386666Y-105530952D01*
X123815238Y-106102380D01*
X124434285Y-106102380D01*
X143183333Y-82722380D02*
X142707142Y-82722380D01*
X142707142Y-81722380D01*
X143516666Y-82722380D02*
X143516666Y-81722380D01*
X143850000Y-82436666D01*
X144183333Y-81722380D01*
X144183333Y-82722380D01*
X144564285Y-81722380D02*
X145230952Y-81722380D01*
X144802380Y-82722380D01*
X145754761Y-82150952D02*
X145659523Y-82103333D01*
X145611904Y-82055714D01*
X145564285Y-81960476D01*
X145564285Y-81912857D01*
X145611904Y-81817619D01*
X145659523Y-81770000D01*
X145754761Y-81722380D01*
X145945238Y-81722380D01*
X146040476Y-81770000D01*
X146088095Y-81817619D01*
X146135714Y-81912857D01*
X146135714Y-81960476D01*
X146088095Y-82055714D01*
X146040476Y-82103333D01*
X145945238Y-82150952D01*
X145754761Y-82150952D01*
X145659523Y-82198571D01*
X145611904Y-82246190D01*
X145564285Y-82341428D01*
X145564285Y-82531904D01*
X145611904Y-82627142D01*
X145659523Y-82674761D01*
X145754761Y-82722380D01*
X145945238Y-82722380D01*
X146040476Y-82674761D01*
X146088095Y-82627142D01*
X146135714Y-82531904D01*
X146135714Y-82341428D01*
X146088095Y-82246190D01*
X146040476Y-82198571D01*
X145945238Y-82150952D01*
X146754761Y-81722380D02*
X146850000Y-81722380D01*
X146945238Y-81770000D01*
X146992857Y-81817619D01*
X147040476Y-81912857D01*
X147088095Y-82103333D01*
X147088095Y-82341428D01*
X147040476Y-82531904D01*
X146992857Y-82627142D01*
X146945238Y-82674761D01*
X146850000Y-82722380D01*
X146754761Y-82722380D01*
X146659523Y-82674761D01*
X146611904Y-82627142D01*
X146564285Y-82531904D01*
X146516666Y-82341428D01*
X146516666Y-82103333D01*
X146564285Y-81912857D01*
X146611904Y-81817619D01*
X146659523Y-81770000D01*
X146754761Y-81722380D01*
X147992857Y-81722380D02*
X147516666Y-81722380D01*
X147469047Y-82198571D01*
X147516666Y-82150952D01*
X147611904Y-82103333D01*
X147850000Y-82103333D01*
X147945238Y-82150952D01*
X147992857Y-82198571D01*
X148040476Y-82293809D01*
X148040476Y-82531904D01*
X147992857Y-82627142D01*
X147945238Y-82674761D01*
X147850000Y-82722380D01*
X147611904Y-82722380D01*
X147516666Y-82674761D01*
X147469047Y-82627142D01*
X153638666Y-89071380D02*
X154305333Y-89071380D01*
X153876761Y-90071380D01*
X154686285Y-89690428D02*
X155448190Y-89690428D01*
X156448190Y-90071380D02*
X155876761Y-90071380D01*
X156162476Y-90071380D02*
X156162476Y-89071380D01*
X156067238Y-89214238D01*
X155972000Y-89309476D01*
X155876761Y-89357095D01*
X156829142Y-89166619D02*
X156876761Y-89119000D01*
X156972000Y-89071380D01*
X157210095Y-89071380D01*
X157305333Y-89119000D01*
X157352952Y-89166619D01*
X157400571Y-89261857D01*
X157400571Y-89357095D01*
X157352952Y-89499952D01*
X156781523Y-90071380D01*
X157400571Y-90071380D01*
X157686285Y-89071380D02*
X158019619Y-90071380D01*
X158352952Y-89071380D01*
X158686285Y-90071380D02*
X158686285Y-89071380D01*
X158924380Y-89071380D01*
X159067238Y-89119000D01*
X159162476Y-89214238D01*
X159210095Y-89309476D01*
X159257714Y-89499952D01*
X159257714Y-89642809D01*
X159210095Y-89833285D01*
X159162476Y-89928523D01*
X159067238Y-90023761D01*
X158924380Y-90071380D01*
X158686285Y-90071380D01*
X160257714Y-89976142D02*
X160210095Y-90023761D01*
X160067238Y-90071380D01*
X159972000Y-90071380D01*
X159829142Y-90023761D01*
X159733904Y-89928523D01*
X159686285Y-89833285D01*
X159638666Y-89642809D01*
X159638666Y-89499952D01*
X159686285Y-89309476D01*
X159733904Y-89214238D01*
X159829142Y-89119000D01*
X159972000Y-89071380D01*
X160067238Y-89071380D01*
X160210095Y-89119000D01*
X160257714Y-89166619D01*
X155329142Y-91681380D02*
X155329142Y-90681380D01*
X155710095Y-90681380D01*
X155805333Y-90729000D01*
X155852952Y-90776619D01*
X155900571Y-90871857D01*
X155900571Y-91014714D01*
X155852952Y-91109952D01*
X155805333Y-91157571D01*
X155710095Y-91205190D01*
X155329142Y-91205190D01*
X156329142Y-91681380D02*
X156329142Y-90681380D01*
X156805333Y-91681380D02*
X156805333Y-90681380D01*
X157376761Y-91681380D01*
X157376761Y-90681380D01*
X157852952Y-91300428D02*
X158614857Y-91300428D01*
X158233904Y-91681380D02*
X158233904Y-90919476D01*
X98583714Y-96464380D02*
X98012285Y-96464380D01*
X98298000Y-96464380D02*
X98298000Y-95464380D01*
X98202761Y-95607238D01*
X98107523Y-95702476D01*
X98012285Y-95750095D01*
X118438095Y-87762380D02*
X119009523Y-87762380D01*
X118723809Y-88762380D02*
X118723809Y-87762380D01*
X119247619Y-87762380D02*
X119914285Y-88762380D01*
X119914285Y-87762380D02*
X119247619Y-88762380D01*
X107067142Y-92237619D02*
X107114761Y-92285238D01*
X107162380Y-92428095D01*
X107162380Y-92523333D01*
X107114761Y-92666190D01*
X107019523Y-92761428D01*
X106924285Y-92809047D01*
X106733809Y-92856666D01*
X106590952Y-92856666D01*
X106400476Y-92809047D01*
X106305238Y-92761428D01*
X106210000Y-92666190D01*
X106162380Y-92523333D01*
X106162380Y-92428095D01*
X106210000Y-92285238D01*
X106257619Y-92237619D01*
X106162380Y-91951904D02*
X106162380Y-91380476D01*
X107162380Y-91666190D02*
X106162380Y-91666190D01*
X107114761Y-91094761D02*
X107162380Y-90951904D01*
X107162380Y-90713809D01*
X107114761Y-90618571D01*
X107067142Y-90570952D01*
X106971904Y-90523333D01*
X106876666Y-90523333D01*
X106781428Y-90570952D01*
X106733809Y-90618571D01*
X106686190Y-90713809D01*
X106638571Y-90904285D01*
X106590952Y-90999523D01*
X106543333Y-91047142D01*
X106448095Y-91094761D01*
X106352857Y-91094761D01*
X106257619Y-91047142D01*
X106210000Y-90999523D01*
X106162380Y-90904285D01*
X106162380Y-90666190D01*
X106210000Y-90523333D01*
%TO.C,U1*%
X92691095Y-70138380D02*
X92691095Y-70947904D01*
X92738714Y-71043142D01*
X92786333Y-71090761D01*
X92881571Y-71138380D01*
X93072047Y-71138380D01*
X93167285Y-71090761D01*
X93214904Y-71043142D01*
X93262523Y-70947904D01*
X93262523Y-70138380D01*
X94262523Y-71138380D02*
X93691095Y-71138380D01*
X93976809Y-71138380D02*
X93976809Y-70138380D01*
X93881571Y-70281238D01*
X93786333Y-70376476D01*
X93691095Y-70424095D01*
%TO.C,JP7*%
X110706666Y-93392380D02*
X110706666Y-94106666D01*
X110659047Y-94249523D01*
X110563809Y-94344761D01*
X110420952Y-94392380D01*
X110325714Y-94392380D01*
X111182857Y-94392380D02*
X111182857Y-93392380D01*
X111563809Y-93392380D01*
X111659047Y-93440000D01*
X111706666Y-93487619D01*
X111754285Y-93582857D01*
X111754285Y-93725714D01*
X111706666Y-93820952D01*
X111659047Y-93868571D01*
X111563809Y-93916190D01*
X111182857Y-93916190D01*
X112087619Y-93392380D02*
X112754285Y-93392380D01*
X112325714Y-94392380D01*
%TO.C,JP3*%
X121216666Y-118622380D02*
X121216666Y-119336666D01*
X121169047Y-119479523D01*
X121073809Y-119574761D01*
X120930952Y-119622380D01*
X120835714Y-119622380D01*
X121692857Y-119622380D02*
X121692857Y-118622380D01*
X122073809Y-118622380D01*
X122169047Y-118670000D01*
X122216666Y-118717619D01*
X122264285Y-118812857D01*
X122264285Y-118955714D01*
X122216666Y-119050952D01*
X122169047Y-119098571D01*
X122073809Y-119146190D01*
X121692857Y-119146190D01*
X122597619Y-118622380D02*
X123216666Y-118622380D01*
X122883333Y-119003333D01*
X123026190Y-119003333D01*
X123121428Y-119050952D01*
X123169047Y-119098571D01*
X123216666Y-119193809D01*
X123216666Y-119431904D01*
X123169047Y-119527142D01*
X123121428Y-119574761D01*
X123026190Y-119622380D01*
X122740476Y-119622380D01*
X122645238Y-119574761D01*
X122597619Y-119527142D01*
%TO.C,JP2*%
X135116666Y-118512380D02*
X135116666Y-119226666D01*
X135069047Y-119369523D01*
X134973809Y-119464761D01*
X134830952Y-119512380D01*
X134735714Y-119512380D01*
X135592857Y-119512380D02*
X135592857Y-118512380D01*
X135973809Y-118512380D01*
X136069047Y-118560000D01*
X136116666Y-118607619D01*
X136164285Y-118702857D01*
X136164285Y-118845714D01*
X136116666Y-118940952D01*
X136069047Y-118988571D01*
X135973809Y-119036190D01*
X135592857Y-119036190D01*
X136545238Y-118607619D02*
X136592857Y-118560000D01*
X136688095Y-118512380D01*
X136926190Y-118512380D01*
X137021428Y-118560000D01*
X137069047Y-118607619D01*
X137116666Y-118702857D01*
X137116666Y-118798095D01*
X137069047Y-118940952D01*
X136497619Y-119512380D01*
X137116666Y-119512380D01*
%TO.C,J1*%
X149422380Y-110178333D02*
X150136666Y-110178333D01*
X150279523Y-110225952D01*
X150374761Y-110321190D01*
X150422380Y-110464047D01*
X150422380Y-110559285D01*
X150422380Y-109178333D02*
X150422380Y-109749761D01*
X150422380Y-109464047D02*
X149422380Y-109464047D01*
X149565238Y-109559285D01*
X149660476Y-109654523D01*
X149708095Y-109749761D01*
%TO.C,U3*%
X103198095Y-115612380D02*
X103198095Y-116421904D01*
X103245714Y-116517142D01*
X103293333Y-116564761D01*
X103388571Y-116612380D01*
X103579047Y-116612380D01*
X103674285Y-116564761D01*
X103721904Y-116517142D01*
X103769523Y-116421904D01*
X103769523Y-115612380D01*
X104150476Y-115612380D02*
X104769523Y-115612380D01*
X104436190Y-115993333D01*
X104579047Y-115993333D01*
X104674285Y-116040952D01*
X104721904Y-116088571D01*
X104769523Y-116183809D01*
X104769523Y-116421904D01*
X104721904Y-116517142D01*
X104674285Y-116564761D01*
X104579047Y-116612380D01*
X104293333Y-116612380D01*
X104198095Y-116564761D01*
X104150476Y-116517142D01*
%TO.C,U2*%
X144780095Y-92416380D02*
X144780095Y-93225904D01*
X144827714Y-93321142D01*
X144875333Y-93368761D01*
X144970571Y-93416380D01*
X145161047Y-93416380D01*
X145256285Y-93368761D01*
X145303904Y-93321142D01*
X145351523Y-93225904D01*
X145351523Y-92416380D01*
X145780095Y-92511619D02*
X145827714Y-92464000D01*
X145922952Y-92416380D01*
X146161047Y-92416380D01*
X146256285Y-92464000D01*
X146303904Y-92511619D01*
X146351523Y-92606857D01*
X146351523Y-92702095D01*
X146303904Y-92844952D01*
X145732476Y-93416380D01*
X146351523Y-93416380D01*
%TO.C,C3*%
X89926742Y-115447866D02*
X89974361Y-115495485D01*
X90021980Y-115638342D01*
X90021980Y-115733580D01*
X89974361Y-115876438D01*
X89879123Y-115971676D01*
X89783885Y-116019295D01*
X89593409Y-116066914D01*
X89450552Y-116066914D01*
X89260076Y-116019295D01*
X89164838Y-115971676D01*
X89069600Y-115876438D01*
X89021980Y-115733580D01*
X89021980Y-115638342D01*
X89069600Y-115495485D01*
X89117219Y-115447866D01*
X89021980Y-115114533D02*
X89021980Y-114495485D01*
X89402933Y-114828819D01*
X89402933Y-114685961D01*
X89450552Y-114590723D01*
X89498171Y-114543104D01*
X89593409Y-114495485D01*
X89831504Y-114495485D01*
X89926742Y-114543104D01*
X89974361Y-114590723D01*
X90021980Y-114685961D01*
X90021980Y-114971676D01*
X89974361Y-115066914D01*
X89926742Y-115114533D01*
%TO.C,C2*%
X89434942Y-97209979D02*
X89482561Y-97257598D01*
X89530180Y-97400455D01*
X89530180Y-97495693D01*
X89482561Y-97638551D01*
X89387323Y-97733789D01*
X89292085Y-97781408D01*
X89101609Y-97829027D01*
X88958752Y-97829027D01*
X88768276Y-97781408D01*
X88673038Y-97733789D01*
X88577800Y-97638551D01*
X88530180Y-97495693D01*
X88530180Y-97400455D01*
X88577800Y-97257598D01*
X88625419Y-97209979D01*
X88625419Y-96829027D02*
X88577800Y-96781408D01*
X88530180Y-96686170D01*
X88530180Y-96448074D01*
X88577800Y-96352836D01*
X88625419Y-96305217D01*
X88720657Y-96257598D01*
X88815895Y-96257598D01*
X88958752Y-96305217D01*
X89530180Y-96876646D01*
X89530180Y-96257598D01*
%TO.C,C1*%
X158599142Y-73826666D02*
X158646761Y-73874285D01*
X158694380Y-74017142D01*
X158694380Y-74112380D01*
X158646761Y-74255238D01*
X158551523Y-74350476D01*
X158456285Y-74398095D01*
X158265809Y-74445714D01*
X158122952Y-74445714D01*
X157932476Y-74398095D01*
X157837238Y-74350476D01*
X157742000Y-74255238D01*
X157694380Y-74112380D01*
X157694380Y-74017142D01*
X157742000Y-73874285D01*
X157789619Y-73826666D01*
X158694380Y-72874285D02*
X158694380Y-73445714D01*
X158694380Y-73160000D02*
X157694380Y-73160000D01*
X157837238Y-73255238D01*
X157932476Y-73350476D01*
X157980095Y-73445714D01*
%TO.C,SW1*%
X126404761Y-78603333D02*
X126452380Y-78460476D01*
X126452380Y-78222380D01*
X126404761Y-78127142D01*
X126357142Y-78079523D01*
X126261904Y-78031904D01*
X126166666Y-78031904D01*
X126071428Y-78079523D01*
X126023809Y-78127142D01*
X125976190Y-78222380D01*
X125928571Y-78412857D01*
X125880952Y-78508095D01*
X125833333Y-78555714D01*
X125738095Y-78603333D01*
X125642857Y-78603333D01*
X125547619Y-78555714D01*
X125500000Y-78508095D01*
X125452380Y-78412857D01*
X125452380Y-78174761D01*
X125500000Y-78031904D01*
X125452380Y-77698571D02*
X126452380Y-77460476D01*
X125738095Y-77270000D01*
X126452380Y-77079523D01*
X125452380Y-76841428D01*
X126452380Y-75936666D02*
X126452380Y-76508095D01*
X126452380Y-76222380D02*
X125452380Y-76222380D01*
X125595238Y-76317619D01*
X125690476Y-76412857D01*
X125738095Y-76508095D01*
%TO.C,R6*%
X92806780Y-76773066D02*
X92330590Y-77106400D01*
X92806780Y-77344495D02*
X91806780Y-77344495D01*
X91806780Y-76963542D01*
X91854400Y-76868304D01*
X91902019Y-76820685D01*
X91997257Y-76773066D01*
X92140114Y-76773066D01*
X92235352Y-76820685D01*
X92282971Y-76868304D01*
X92330590Y-76963542D01*
X92330590Y-77344495D01*
X91806780Y-75915923D02*
X91806780Y-76106400D01*
X91854400Y-76201638D01*
X91902019Y-76249257D01*
X92044876Y-76344495D01*
X92235352Y-76392114D01*
X92616304Y-76392114D01*
X92711542Y-76344495D01*
X92759161Y-76296876D01*
X92806780Y-76201638D01*
X92806780Y-76011161D01*
X92759161Y-75915923D01*
X92711542Y-75868304D01*
X92616304Y-75820685D01*
X92378209Y-75820685D01*
X92282971Y-75868304D01*
X92235352Y-75915923D01*
X92187733Y-76011161D01*
X92187733Y-76201638D01*
X92235352Y-76296876D01*
X92282971Y-76344495D01*
X92378209Y-76392114D01*
%TO.C,R8*%
X119883180Y-80837066D02*
X119406990Y-81170400D01*
X119883180Y-81408495D02*
X118883180Y-81408495D01*
X118883180Y-81027542D01*
X118930800Y-80932304D01*
X118978419Y-80884685D01*
X119073657Y-80837066D01*
X119216514Y-80837066D01*
X119311752Y-80884685D01*
X119359371Y-80932304D01*
X119406990Y-81027542D01*
X119406990Y-81408495D01*
X119311752Y-80265638D02*
X119264133Y-80360876D01*
X119216514Y-80408495D01*
X119121276Y-80456114D01*
X119073657Y-80456114D01*
X118978419Y-80408495D01*
X118930800Y-80360876D01*
X118883180Y-80265638D01*
X118883180Y-80075161D01*
X118930800Y-79979923D01*
X118978419Y-79932304D01*
X119073657Y-79884685D01*
X119121276Y-79884685D01*
X119216514Y-79932304D01*
X119264133Y-79979923D01*
X119311752Y-80075161D01*
X119311752Y-80265638D01*
X119359371Y-80360876D01*
X119406990Y-80408495D01*
X119502228Y-80456114D01*
X119692704Y-80456114D01*
X119787942Y-80408495D01*
X119835561Y-80360876D01*
X119883180Y-80265638D01*
X119883180Y-80075161D01*
X119835561Y-79979923D01*
X119787942Y-79932304D01*
X119692704Y-79884685D01*
X119502228Y-79884685D01*
X119406990Y-79932304D01*
X119359371Y-79979923D01*
X119311752Y-80075161D01*
%TO.C,R7*%
X116530380Y-80811666D02*
X116054190Y-81145000D01*
X116530380Y-81383095D02*
X115530380Y-81383095D01*
X115530380Y-81002142D01*
X115578000Y-80906904D01*
X115625619Y-80859285D01*
X115720857Y-80811666D01*
X115863714Y-80811666D01*
X115958952Y-80859285D01*
X116006571Y-80906904D01*
X116054190Y-81002142D01*
X116054190Y-81383095D01*
X115530380Y-80478333D02*
X115530380Y-79811666D01*
X116530380Y-80240238D01*
%TO.C,JP1*%
X130726666Y-118642380D02*
X130726666Y-119356666D01*
X130679047Y-119499523D01*
X130583809Y-119594761D01*
X130440952Y-119642380D01*
X130345714Y-119642380D01*
X131202857Y-119642380D02*
X131202857Y-118642380D01*
X131583809Y-118642380D01*
X131679047Y-118690000D01*
X131726666Y-118737619D01*
X131774285Y-118832857D01*
X131774285Y-118975714D01*
X131726666Y-119070952D01*
X131679047Y-119118571D01*
X131583809Y-119166190D01*
X131202857Y-119166190D01*
X132726666Y-119642380D02*
X132155238Y-119642380D01*
X132440952Y-119642380D02*
X132440952Y-118642380D01*
X132345714Y-118785238D01*
X132250476Y-118880476D01*
X132155238Y-118928095D01*
%TO.C,R3*%
X112352380Y-106096666D02*
X111876190Y-106430000D01*
X112352380Y-106668095D02*
X111352380Y-106668095D01*
X111352380Y-106287142D01*
X111400000Y-106191904D01*
X111447619Y-106144285D01*
X111542857Y-106096666D01*
X111685714Y-106096666D01*
X111780952Y-106144285D01*
X111828571Y-106191904D01*
X111876190Y-106287142D01*
X111876190Y-106668095D01*
X111352380Y-105763333D02*
X111352380Y-105144285D01*
X111733333Y-105477619D01*
X111733333Y-105334761D01*
X111780952Y-105239523D01*
X111828571Y-105191904D01*
X111923809Y-105144285D01*
X112161904Y-105144285D01*
X112257142Y-105191904D01*
X112304761Y-105239523D01*
X112352380Y-105334761D01*
X112352380Y-105620476D01*
X112304761Y-105715714D01*
X112257142Y-105763333D01*
%TO.C,J2*%
X84802380Y-99503333D02*
X85516666Y-99503333D01*
X85659523Y-99550952D01*
X85754761Y-99646190D01*
X85802380Y-99789047D01*
X85802380Y-99884285D01*
X84897619Y-99074761D02*
X84850000Y-99027142D01*
X84802380Y-98931904D01*
X84802380Y-98693809D01*
X84850000Y-98598571D01*
X84897619Y-98550952D01*
X84992857Y-98503333D01*
X85088095Y-98503333D01*
X85230952Y-98550952D01*
X85802380Y-99122380D01*
X85802380Y-98503333D01*
%TO.C,C9*%
X89800133Y-88698342D02*
X89752514Y-88745961D01*
X89609657Y-88793580D01*
X89514419Y-88793580D01*
X89371561Y-88745961D01*
X89276323Y-88650723D01*
X89228704Y-88555485D01*
X89181085Y-88365009D01*
X89181085Y-88222152D01*
X89228704Y-88031676D01*
X89276323Y-87936438D01*
X89371561Y-87841200D01*
X89514419Y-87793580D01*
X89609657Y-87793580D01*
X89752514Y-87841200D01*
X89800133Y-87888819D01*
X90276323Y-88793580D02*
X90466800Y-88793580D01*
X90562038Y-88745961D01*
X90609657Y-88698342D01*
X90704895Y-88555485D01*
X90752514Y-88365009D01*
X90752514Y-87984057D01*
X90704895Y-87888819D01*
X90657276Y-87841200D01*
X90562038Y-87793580D01*
X90371561Y-87793580D01*
X90276323Y-87841200D01*
X90228704Y-87888819D01*
X90181085Y-87984057D01*
X90181085Y-88222152D01*
X90228704Y-88317390D01*
X90276323Y-88365009D01*
X90371561Y-88412628D01*
X90562038Y-88412628D01*
X90657276Y-88365009D01*
X90704895Y-88317390D01*
X90752514Y-88222152D01*
%TO.C,JP6*%
X123466666Y-103522380D02*
X123466666Y-104236666D01*
X123419047Y-104379523D01*
X123323809Y-104474761D01*
X123180952Y-104522380D01*
X123085714Y-104522380D01*
X123942857Y-104522380D02*
X123942857Y-103522380D01*
X124323809Y-103522380D01*
X124419047Y-103570000D01*
X124466666Y-103617619D01*
X124514285Y-103712857D01*
X124514285Y-103855714D01*
X124466666Y-103950952D01*
X124419047Y-103998571D01*
X124323809Y-104046190D01*
X123942857Y-104046190D01*
X125371428Y-103522380D02*
X125180952Y-103522380D01*
X125085714Y-103570000D01*
X125038095Y-103617619D01*
X124942857Y-103760476D01*
X124895238Y-103950952D01*
X124895238Y-104331904D01*
X124942857Y-104427142D01*
X124990476Y-104474761D01*
X125085714Y-104522380D01*
X125276190Y-104522380D01*
X125371428Y-104474761D01*
X125419047Y-104427142D01*
X125466666Y-104331904D01*
X125466666Y-104093809D01*
X125419047Y-103998571D01*
X125371428Y-103950952D01*
X125276190Y-103903333D01*
X125085714Y-103903333D01*
X124990476Y-103950952D01*
X124942857Y-103998571D01*
X124895238Y-104093809D01*
%TO.C,J4*%
X126227380Y-91011333D02*
X126941666Y-91011333D01*
X127084523Y-91058952D01*
X127179761Y-91154190D01*
X127227380Y-91297047D01*
X127227380Y-91392285D01*
X126560714Y-90106571D02*
X127227380Y-90106571D01*
X126179761Y-90344666D02*
X126894047Y-90582761D01*
X126894047Y-89963714D01*
%TO.C,C6*%
X117010142Y-97239554D02*
X117057761Y-97287173D01*
X117105380Y-97430030D01*
X117105380Y-97525268D01*
X117057761Y-97668126D01*
X116962523Y-97763364D01*
X116867285Y-97810983D01*
X116676809Y-97858602D01*
X116533952Y-97858602D01*
X116343476Y-97810983D01*
X116248238Y-97763364D01*
X116153000Y-97668126D01*
X116105380Y-97525268D01*
X116105380Y-97430030D01*
X116153000Y-97287173D01*
X116200619Y-97239554D01*
X116105380Y-96382411D02*
X116105380Y-96572888D01*
X116153000Y-96668126D01*
X116200619Y-96715745D01*
X116343476Y-96810983D01*
X116533952Y-96858602D01*
X116914904Y-96858602D01*
X117010142Y-96810983D01*
X117057761Y-96763364D01*
X117105380Y-96668126D01*
X117105380Y-96477649D01*
X117057761Y-96382411D01*
X117010142Y-96334792D01*
X116914904Y-96287173D01*
X116676809Y-96287173D01*
X116581571Y-96334792D01*
X116533952Y-96382411D01*
X116486333Y-96477649D01*
X116486333Y-96668126D01*
X116533952Y-96763364D01*
X116581571Y-96810983D01*
X116676809Y-96858602D01*
%TO.C,R4*%
X115514380Y-105957666D02*
X115038190Y-106291000D01*
X115514380Y-106529095D02*
X114514380Y-106529095D01*
X114514380Y-106148142D01*
X114562000Y-106052904D01*
X114609619Y-106005285D01*
X114704857Y-105957666D01*
X114847714Y-105957666D01*
X114942952Y-106005285D01*
X114990571Y-106052904D01*
X115038190Y-106148142D01*
X115038190Y-106529095D01*
X114847714Y-105100523D02*
X115514380Y-105100523D01*
X114466761Y-105338619D02*
X115181047Y-105576714D01*
X115181047Y-104957666D01*
%TO.C,SW2*%
X134544761Y-78583333D02*
X134592380Y-78440476D01*
X134592380Y-78202380D01*
X134544761Y-78107142D01*
X134497142Y-78059523D01*
X134401904Y-78011904D01*
X134306666Y-78011904D01*
X134211428Y-78059523D01*
X134163809Y-78107142D01*
X134116190Y-78202380D01*
X134068571Y-78392857D01*
X134020952Y-78488095D01*
X133973333Y-78535714D01*
X133878095Y-78583333D01*
X133782857Y-78583333D01*
X133687619Y-78535714D01*
X133640000Y-78488095D01*
X133592380Y-78392857D01*
X133592380Y-78154761D01*
X133640000Y-78011904D01*
X133592380Y-77678571D02*
X134592380Y-77440476D01*
X133878095Y-77250000D01*
X134592380Y-77059523D01*
X133592380Y-76821428D01*
X133687619Y-76488095D02*
X133640000Y-76440476D01*
X133592380Y-76345238D01*
X133592380Y-76107142D01*
X133640000Y-76011904D01*
X133687619Y-75964285D01*
X133782857Y-75916666D01*
X133878095Y-75916666D01*
X134020952Y-75964285D01*
X134592380Y-76535714D01*
X134592380Y-75916666D01*
%TO.C,C5*%
X142043333Y-100377142D02*
X141995714Y-100424761D01*
X141852857Y-100472380D01*
X141757619Y-100472380D01*
X141614761Y-100424761D01*
X141519523Y-100329523D01*
X141471904Y-100234285D01*
X141424285Y-100043809D01*
X141424285Y-99900952D01*
X141471904Y-99710476D01*
X141519523Y-99615238D01*
X141614761Y-99520000D01*
X141757619Y-99472380D01*
X141852857Y-99472380D01*
X141995714Y-99520000D01*
X142043333Y-99567619D01*
X142948095Y-99472380D02*
X142471904Y-99472380D01*
X142424285Y-99948571D01*
X142471904Y-99900952D01*
X142567142Y-99853333D01*
X142805238Y-99853333D01*
X142900476Y-99900952D01*
X142948095Y-99948571D01*
X142995714Y-100043809D01*
X142995714Y-100281904D01*
X142948095Y-100377142D01*
X142900476Y-100424761D01*
X142805238Y-100472380D01*
X142567142Y-100472380D01*
X142471904Y-100424761D01*
X142424285Y-100377142D01*
%TO.C,JP4*%
X125906666Y-118642380D02*
X125906666Y-119356666D01*
X125859047Y-119499523D01*
X125763809Y-119594761D01*
X125620952Y-119642380D01*
X125525714Y-119642380D01*
X126382857Y-119642380D02*
X126382857Y-118642380D01*
X126763809Y-118642380D01*
X126859047Y-118690000D01*
X126906666Y-118737619D01*
X126954285Y-118832857D01*
X126954285Y-118975714D01*
X126906666Y-119070952D01*
X126859047Y-119118571D01*
X126763809Y-119166190D01*
X126382857Y-119166190D01*
X127811428Y-118975714D02*
X127811428Y-119642380D01*
X127573333Y-118594761D02*
X127335238Y-119309047D01*
X127954285Y-119309047D01*
%TO.C,C7*%
X89180942Y-103138266D02*
X89228561Y-103185885D01*
X89276180Y-103328742D01*
X89276180Y-103423980D01*
X89228561Y-103566838D01*
X89133323Y-103662076D01*
X89038085Y-103709695D01*
X88847609Y-103757314D01*
X88704752Y-103757314D01*
X88514276Y-103709695D01*
X88419038Y-103662076D01*
X88323800Y-103566838D01*
X88276180Y-103423980D01*
X88276180Y-103328742D01*
X88323800Y-103185885D01*
X88371419Y-103138266D01*
X88276180Y-102804933D02*
X88276180Y-102138266D01*
X89276180Y-102566838D01*
%TO.C,U4*%
X132688095Y-105862380D02*
X132688095Y-106671904D01*
X132735714Y-106767142D01*
X132783333Y-106814761D01*
X132878571Y-106862380D01*
X133069047Y-106862380D01*
X133164285Y-106814761D01*
X133211904Y-106767142D01*
X133259523Y-106671904D01*
X133259523Y-105862380D01*
X134164285Y-106195714D02*
X134164285Y-106862380D01*
X133926190Y-105814761D02*
X133688095Y-106529047D01*
X134307142Y-106529047D01*
%TO.C,C8*%
X142133333Y-107842254D02*
X142085714Y-107889873D01*
X141942857Y-107937492D01*
X141847619Y-107937492D01*
X141704761Y-107889873D01*
X141609523Y-107794635D01*
X141561904Y-107699397D01*
X141514285Y-107508921D01*
X141514285Y-107366064D01*
X141561904Y-107175588D01*
X141609523Y-107080350D01*
X141704761Y-106985112D01*
X141847619Y-106937492D01*
X141942857Y-106937492D01*
X142085714Y-106985112D01*
X142133333Y-107032731D01*
X142704761Y-107366064D02*
X142609523Y-107318445D01*
X142561904Y-107270826D01*
X142514285Y-107175588D01*
X142514285Y-107127969D01*
X142561904Y-107032731D01*
X142609523Y-106985112D01*
X142704761Y-106937492D01*
X142895238Y-106937492D01*
X142990476Y-106985112D01*
X143038095Y-107032731D01*
X143085714Y-107127969D01*
X143085714Y-107175588D01*
X143038095Y-107270826D01*
X142990476Y-107318445D01*
X142895238Y-107366064D01*
X142704761Y-107366064D01*
X142609523Y-107413683D01*
X142561904Y-107461302D01*
X142514285Y-107556540D01*
X142514285Y-107747016D01*
X142561904Y-107842254D01*
X142609523Y-107889873D01*
X142704761Y-107937492D01*
X142895238Y-107937492D01*
X142990476Y-107889873D01*
X143038095Y-107842254D01*
X143085714Y-107747016D01*
X143085714Y-107556540D01*
X143038095Y-107461302D01*
X142990476Y-107413683D01*
X142895238Y-107366064D01*
%TO.C,J3*%
X159942666Y-77652380D02*
X159942666Y-78366666D01*
X159895047Y-78509523D01*
X159799809Y-78604761D01*
X159656952Y-78652380D01*
X159561714Y-78652380D01*
X160323619Y-77652380D02*
X160942666Y-77652380D01*
X160609333Y-78033333D01*
X160752190Y-78033333D01*
X160847428Y-78080952D01*
X160895047Y-78128571D01*
X160942666Y-78223809D01*
X160942666Y-78461904D01*
X160895047Y-78557142D01*
X160847428Y-78604761D01*
X160752190Y-78652380D01*
X160466476Y-78652380D01*
X160371238Y-78604761D01*
X160323619Y-78557142D01*
%TO.C,R1*%
X100613333Y-92245180D02*
X100280000Y-91768990D01*
X100041904Y-92245180D02*
X100041904Y-91245180D01*
X100422857Y-91245180D01*
X100518095Y-91292800D01*
X100565714Y-91340419D01*
X100613333Y-91435657D01*
X100613333Y-91578514D01*
X100565714Y-91673752D01*
X100518095Y-91721371D01*
X100422857Y-91768990D01*
X100041904Y-91768990D01*
X101565714Y-92245180D02*
X100994285Y-92245180D01*
X101280000Y-92245180D02*
X101280000Y-91245180D01*
X101184761Y-91388038D01*
X101089523Y-91483276D01*
X100994285Y-91530895D01*
%TO.C,C4*%
X89511142Y-109046378D02*
X89558761Y-109093997D01*
X89606380Y-109236854D01*
X89606380Y-109332092D01*
X89558761Y-109474950D01*
X89463523Y-109570188D01*
X89368285Y-109617807D01*
X89177809Y-109665426D01*
X89034952Y-109665426D01*
X88844476Y-109617807D01*
X88749238Y-109570188D01*
X88654000Y-109474950D01*
X88606380Y-109332092D01*
X88606380Y-109236854D01*
X88654000Y-109093997D01*
X88701619Y-109046378D01*
X88939714Y-108189235D02*
X89606380Y-108189235D01*
X88558761Y-108427331D02*
X89273047Y-108665426D01*
X89273047Y-108046378D01*
%TO.C,R5*%
X89250780Y-76722266D02*
X88774590Y-77055600D01*
X89250780Y-77293695D02*
X88250780Y-77293695D01*
X88250780Y-76912742D01*
X88298400Y-76817504D01*
X88346019Y-76769885D01*
X88441257Y-76722266D01*
X88584114Y-76722266D01*
X88679352Y-76769885D01*
X88726971Y-76817504D01*
X88774590Y-76912742D01*
X88774590Y-77293695D01*
X88250780Y-75817504D02*
X88250780Y-76293695D01*
X88726971Y-76341314D01*
X88679352Y-76293695D01*
X88631733Y-76198457D01*
X88631733Y-75960361D01*
X88679352Y-75865123D01*
X88726971Y-75817504D01*
X88822209Y-75769885D01*
X89060304Y-75769885D01*
X89155542Y-75817504D01*
X89203161Y-75865123D01*
X89250780Y-75960361D01*
X89250780Y-76198457D01*
X89203161Y-76293695D01*
X89155542Y-76341314D01*
%TO.C,R2*%
X90772133Y-92335180D02*
X90438800Y-91858990D01*
X90200704Y-92335180D02*
X90200704Y-91335180D01*
X90581657Y-91335180D01*
X90676895Y-91382800D01*
X90724514Y-91430419D01*
X90772133Y-91525657D01*
X90772133Y-91668514D01*
X90724514Y-91763752D01*
X90676895Y-91811371D01*
X90581657Y-91858990D01*
X90200704Y-91858990D01*
X91153085Y-91430419D02*
X91200704Y-91382800D01*
X91295942Y-91335180D01*
X91534038Y-91335180D01*
X91629276Y-91382800D01*
X91676895Y-91430419D01*
X91724514Y-91525657D01*
X91724514Y-91620895D01*
X91676895Y-91763752D01*
X91105466Y-92335180D01*
X91724514Y-92335180D01*
%TO.C,JP5*%
X118673666Y-103534780D02*
X118673666Y-104249066D01*
X118626047Y-104391923D01*
X118530809Y-104487161D01*
X118387952Y-104534780D01*
X118292714Y-104534780D01*
X119149857Y-104534780D02*
X119149857Y-103534780D01*
X119530809Y-103534780D01*
X119626047Y-103582400D01*
X119673666Y-103630019D01*
X119721285Y-103725257D01*
X119721285Y-103868114D01*
X119673666Y-103963352D01*
X119626047Y-104010971D01*
X119530809Y-104058590D01*
X119149857Y-104058590D01*
X120626047Y-103534780D02*
X120149857Y-103534780D01*
X120102238Y-104010971D01*
X120149857Y-103963352D01*
X120245095Y-103915733D01*
X120483190Y-103915733D01*
X120578428Y-103963352D01*
X120626047Y-104010971D01*
X120673666Y-104106209D01*
X120673666Y-104344304D01*
X120626047Y-104439542D01*
X120578428Y-104487161D01*
X120483190Y-104534780D01*
X120245095Y-104534780D01*
X120149857Y-104487161D01*
X120102238Y-104439542D01*
D11*
%TO.C,U1*%
X112133000Y-63826000D02*
X112133000Y-71446000D01*
X112133000Y-88066000D02*
X110013000Y-88066000D01*
X95893000Y-71446000D02*
X95893000Y-63826000D01*
X112133000Y-87446000D02*
X112133000Y-88066000D01*
X98013000Y-88066000D02*
X95893000Y-88066000D01*
X95893000Y-63826000D02*
X112133000Y-63826000D01*
X95893000Y-88066000D02*
X95893000Y-87446000D01*
X95893000Y-71446000D02*
X95283000Y-71446000D01*
%TO.C,JP7*%
X107735000Y-90330000D02*
X107735000Y-92990000D01*
X112875000Y-90330000D02*
X107735000Y-90330000D01*
X114145000Y-90330000D02*
X115475000Y-90330000D01*
X112875000Y-90330000D02*
X112875000Y-92990000D01*
X112875000Y-92990000D02*
X107735000Y-92990000D01*
X115475000Y-90330000D02*
X115475000Y-91660000D01*
%TO.C,JP3*%
X123380000Y-115570000D02*
X120720000Y-115570000D01*
X123380000Y-115570000D02*
X123380000Y-110430000D01*
X123380000Y-116840000D02*
X123380000Y-118170000D01*
X120720000Y-115570000D02*
X120720000Y-110430000D01*
X123380000Y-110430000D02*
X120720000Y-110430000D01*
X123380000Y-118170000D02*
X122050000Y-118170000D01*
%TO.C,JP2*%
X134620000Y-115460000D02*
X134620000Y-110320000D01*
X137280000Y-110320000D02*
X134620000Y-110320000D01*
X137280000Y-118060000D02*
X135950000Y-118060000D01*
X137280000Y-115460000D02*
X137280000Y-110320000D01*
X137280000Y-116730000D02*
X137280000Y-118060000D01*
X137280000Y-115460000D02*
X134620000Y-115460000D01*
%TO.C,J1*%
X150015662Y-104555000D02*
X150015662Y-104055000D01*
X150448675Y-104305000D02*
X150015662Y-104555000D01*
X150015662Y-104055000D02*
X150448675Y-104305000D01*
X161390000Y-125330000D02*
X150910000Y-125330000D01*
X150910000Y-94360000D02*
X161390000Y-94360000D01*
X150910000Y-125330000D02*
X150910000Y-94360000D01*
%TO.C,U3*%
X106800000Y-94672000D02*
X105150000Y-94672000D01*
X106800000Y-115112000D02*
X106800000Y-94672000D01*
X99010000Y-94612000D02*
X99010000Y-115172000D01*
X109290000Y-115172000D02*
X109290000Y-94612000D01*
X99010000Y-115172000D02*
X109290000Y-115172000D01*
X103150000Y-94672000D02*
X101500000Y-94672000D01*
X101500000Y-115112000D02*
X106800000Y-115112000D01*
X109290000Y-94612000D02*
X99010000Y-94612000D01*
X101500000Y-94672000D02*
X101500000Y-115112000D01*
X103150000Y-94672000D02*
G75*
G03*
X105150000Y-94672000I1000000J0D01*
G01*
%TO.C,U2*%
X148082000Y-87074000D02*
X148082000Y-89614000D01*
X140422000Y-71184000D02*
X150662000Y-71184000D01*
X140422000Y-71184000D02*
X140422000Y-87074000D01*
X145542000Y-87074000D02*
X145542000Y-89614000D01*
X143002000Y-87074000D02*
X143002000Y-89614000D01*
X150662000Y-71184000D02*
X150662000Y-87074000D01*
X140422000Y-87074000D02*
X150662000Y-87074000D01*
%TO.C,C3*%
X94359600Y-113880200D02*
X95494600Y-113880200D01*
X90808600Y-114681200D02*
X92279600Y-114681200D01*
X91876600Y-113120200D02*
X94762600Y-113120200D01*
X90783600Y-114801200D02*
X92279600Y-114801200D01*
X94359600Y-114200200D02*
X95667600Y-114200200D01*
X94359600Y-113720200D02*
X95384600Y-113720200D01*
X94359600Y-113640200D02*
X95323600Y-113640200D01*
X94359600Y-115281200D02*
X95899600Y-115281200D01*
X94359600Y-113840200D02*
X95468600Y-113840200D01*
X94359600Y-114841200D02*
X95862600Y-114841200D01*
X92801600Y-112720200D02*
X93837600Y-112720200D01*
X90758600Y-114961200D02*
X92279600Y-114961200D01*
X94359600Y-115041200D02*
X95888600Y-115041200D01*
X90776600Y-114841200D02*
X92279600Y-114841200D01*
X91095600Y-113960200D02*
X92279600Y-113960200D01*
X92404600Y-112840200D02*
X94234600Y-112840200D01*
X90905600Y-114360200D02*
X92279600Y-114360200D01*
X94359600Y-114080200D02*
X95609600Y-114080200D01*
X94359600Y-114881200D02*
X95869600Y-114881200D01*
X90828600Y-114601200D02*
X92279600Y-114601200D01*
X91029600Y-114080200D02*
X92279600Y-114080200D01*
X91348600Y-113600200D02*
X92279600Y-113600200D01*
X94359600Y-114601200D02*
X95810600Y-114601200D01*
X94359600Y-114280200D02*
X95701600Y-114280200D01*
X94359600Y-113920200D02*
X95519600Y-113920200D01*
X90937600Y-114280200D02*
X92279600Y-114280200D01*
X91051600Y-114040200D02*
X92279600Y-114040200D01*
X94359600Y-114560200D02*
X95799600Y-114560200D01*
X91382600Y-113560200D02*
X92279600Y-113560200D01*
X90750600Y-115041200D02*
X92279600Y-115041200D01*
X90754600Y-115001200D02*
X92279600Y-115001200D01*
X90891600Y-114400200D02*
X92279600Y-114400200D01*
X94359600Y-113600200D02*
X95290600Y-113600200D01*
X94359600Y-113760200D02*
X95414600Y-113760200D01*
X91119600Y-113920200D02*
X92279600Y-113920200D01*
X94359600Y-115241200D02*
X95899600Y-115241200D01*
X94359600Y-114961200D02*
X95880600Y-114961200D01*
X90791600Y-114761200D02*
X92279600Y-114761200D01*
X92141600Y-112960200D02*
X94497600Y-112960200D01*
X91284600Y-113680200D02*
X92279600Y-113680200D01*
X92642600Y-112760200D02*
X93996600Y-112760200D01*
X92068600Y-113000200D02*
X94570600Y-113000200D01*
X90746600Y-115081200D02*
X92279600Y-115081200D01*
X90741600Y-115161200D02*
X92279600Y-115161200D01*
X91455600Y-113480200D02*
X92279600Y-113480200D01*
X94359600Y-113360200D02*
X95062600Y-113360200D01*
X91844600Y-118085975D02*
X91844600Y-117585975D01*
X91714600Y-113240200D02*
X94924600Y-113240200D01*
X91576600Y-113360200D02*
X92279600Y-113360200D01*
X94359600Y-113960200D02*
X95543600Y-113960200D01*
X91620600Y-113320200D02*
X92279600Y-113320200D01*
X94359600Y-114400200D02*
X95747600Y-114400200D01*
X90799600Y-114721200D02*
X92279600Y-114721200D01*
X91009600Y-114120200D02*
X92279600Y-114120200D01*
X94359600Y-114320200D02*
X95717600Y-114320200D01*
X91418600Y-113520200D02*
X92279600Y-113520200D01*
X94359600Y-115201200D02*
X95898600Y-115201200D01*
X94359600Y-115161200D02*
X95897600Y-115161200D01*
X90743600Y-115121200D02*
X92279600Y-115121200D01*
X90877600Y-114440200D02*
X92279600Y-114440200D01*
X90921600Y-114320200D02*
X92279600Y-114320200D01*
X94359600Y-113800200D02*
X95441600Y-113800200D01*
X94359600Y-114120200D02*
X95629600Y-114120200D01*
X90971600Y-114200200D02*
X92279600Y-114200200D01*
X90740600Y-115201200D02*
X92279600Y-115201200D01*
X94359600Y-114801200D02*
X95855600Y-114801200D01*
X92308600Y-112880200D02*
X94330600Y-112880200D01*
X94359600Y-114440200D02*
X95761600Y-114440200D01*
X91594600Y-117835975D02*
X92094600Y-117835975D01*
X90769600Y-114881200D02*
X92279600Y-114881200D01*
X94359600Y-113480200D02*
X95183600Y-113480200D01*
X94359600Y-114921200D02*
X95875600Y-114921200D01*
X94359600Y-114360200D02*
X95733600Y-114360200D01*
X90839600Y-114560200D02*
X92279600Y-114560200D01*
X91534600Y-113400200D02*
X92279600Y-113400200D01*
X91224600Y-113760200D02*
X92279600Y-113760200D01*
X94359600Y-113680200D02*
X95354600Y-113680200D01*
X91254600Y-113720200D02*
X92279600Y-113720200D01*
X94359600Y-114761200D02*
X95847600Y-114761200D01*
X91315600Y-113640200D02*
X92279600Y-113640200D01*
X94359600Y-113400200D02*
X95104600Y-113400200D01*
X94359600Y-113280200D02*
X94972600Y-113280200D01*
X94359600Y-114040200D02*
X95587600Y-114040200D01*
X91072600Y-114000200D02*
X92279600Y-114000200D01*
X94359600Y-114681200D02*
X95830600Y-114681200D01*
X94359600Y-114240200D02*
X95684600Y-114240200D01*
X94359600Y-113520200D02*
X95220600Y-113520200D01*
X93035600Y-112680200D02*
X93603600Y-112680200D01*
X90763600Y-114921200D02*
X92279600Y-114921200D01*
X94359600Y-114480200D02*
X95774600Y-114480200D01*
X92221600Y-112920200D02*
X94417600Y-112920200D01*
X90990600Y-114160200D02*
X92279600Y-114160200D01*
X91666600Y-113280200D02*
X92279600Y-113280200D01*
X94359600Y-114000200D02*
X95566600Y-114000200D01*
X90818600Y-114641200D02*
X92279600Y-114641200D01*
X92514600Y-112800200D02*
X94124600Y-112800200D01*
X94359600Y-115121200D02*
X95895600Y-115121200D01*
X91819600Y-113160200D02*
X94819600Y-113160200D01*
X90851600Y-114520200D02*
X92279600Y-114520200D01*
X90739600Y-115281200D02*
X92279600Y-115281200D01*
X90739600Y-115241200D02*
X92279600Y-115241200D01*
X94359600Y-114721200D02*
X95839600Y-114721200D01*
X94359600Y-114520200D02*
X95787600Y-114520200D01*
X94359600Y-115001200D02*
X95884600Y-115001200D01*
X90954600Y-114240200D02*
X92279600Y-114240200D01*
X94359600Y-114641200D02*
X95820600Y-114641200D01*
X91765600Y-113200200D02*
X94873600Y-113200200D01*
X94359600Y-114160200D02*
X95648600Y-114160200D01*
X94359600Y-115081200D02*
X95892600Y-115081200D01*
X90864600Y-114480200D02*
X92279600Y-114480200D01*
X94359600Y-113560200D02*
X95256600Y-113560200D01*
X91936600Y-113080200D02*
X94702600Y-113080200D01*
X91493600Y-113440200D02*
X92279600Y-113440200D01*
X94359600Y-113440200D02*
X95145600Y-113440200D01*
X92000600Y-113040200D02*
X94638600Y-113040200D01*
X91170600Y-113840200D02*
X92279600Y-113840200D01*
X94359600Y-113320200D02*
X95018600Y-113320200D01*
X91197600Y-113800200D02*
X92279600Y-113800200D01*
X91144600Y-113880200D02*
X92279600Y-113880200D01*
X95939600Y-115281200D02*
G75*
G03*
X95939600Y-115281200I-2620000J0D01*
G01*
%TO.C,C2*%
X91974800Y-97495200D02*
X90449800Y-97495200D01*
X95534800Y-97775200D02*
X94054800Y-97775200D01*
X94799800Y-99096200D02*
X94054800Y-99096200D01*
X95396800Y-98216200D02*
X94054800Y-98216200D01*
X95324800Y-98376200D02*
X94054800Y-98376200D01*
X95214800Y-98576200D02*
X94054800Y-98576200D01*
X94739800Y-94660425D02*
X94239800Y-94660425D01*
X95189800Y-98616200D02*
X94054800Y-98616200D01*
X91974800Y-98016200D02*
X90559800Y-98016200D01*
X95049800Y-98816200D02*
X94054800Y-98816200D01*
X95469800Y-98016200D02*
X94054800Y-98016200D01*
X95379800Y-98256200D02*
X94054800Y-98256200D01*
X95542800Y-97735200D02*
X94054800Y-97735200D01*
X91974800Y-98536200D02*
X90790800Y-98536200D01*
X91974800Y-98096200D02*
X90586800Y-98096200D01*
X91974800Y-97295200D02*
X90435800Y-97295200D01*
X91974800Y-98776200D02*
X90949800Y-98776200D01*
X91974800Y-98696200D02*
X90892800Y-98696200D01*
X91974800Y-98456200D02*
X90746800Y-98456200D01*
X91974800Y-98816200D02*
X90979800Y-98816200D01*
X95505800Y-97895200D02*
X94054800Y-97895200D01*
X95362800Y-98296200D02*
X94054800Y-98296200D01*
X94457800Y-99376200D02*
X91571800Y-99376200D01*
X95482800Y-97976200D02*
X94054800Y-97976200D01*
X91974800Y-97775200D02*
X90494800Y-97775200D01*
X95557800Y-97655200D02*
X94054800Y-97655200D01*
X94265800Y-99496200D02*
X91763800Y-99496200D01*
X95238800Y-98536200D02*
X94054800Y-98536200D01*
X94985800Y-98896200D02*
X94054800Y-98896200D01*
X95525800Y-97815200D02*
X94054800Y-97815200D01*
X91974800Y-98936200D02*
X91077800Y-98936200D01*
X91974800Y-97255200D02*
X90434800Y-97255200D01*
X91974800Y-97455200D02*
X90445800Y-97455200D01*
X94192800Y-99536200D02*
X91836800Y-99536200D01*
X91974800Y-97335200D02*
X90436800Y-97335200D01*
X91974800Y-98496200D02*
X90767800Y-98496200D01*
X93691800Y-99736200D02*
X92337800Y-99736200D01*
X93929800Y-99656200D02*
X92099800Y-99656200D01*
X91974800Y-97615200D02*
X90464800Y-97615200D01*
X94915800Y-98976200D02*
X94054800Y-98976200D01*
X91974800Y-97855200D02*
X90513800Y-97855200D01*
X91974800Y-99056200D02*
X91188800Y-99056200D01*
X91974800Y-97695200D02*
X90478800Y-97695200D01*
X91974800Y-97575200D02*
X90458800Y-97575200D01*
X94951800Y-98936200D02*
X94054800Y-98936200D01*
X91974800Y-98616200D02*
X90839800Y-98616200D01*
X91974800Y-98736200D02*
X90919800Y-98736200D01*
X91974800Y-98336200D02*
X90685800Y-98336200D01*
X91974800Y-99216200D02*
X91361800Y-99216200D01*
X91974800Y-99136200D02*
X91271800Y-99136200D01*
X95136800Y-98696200D02*
X94054800Y-98696200D01*
X93298800Y-99816200D02*
X92730800Y-99816200D01*
X94489800Y-94410425D02*
X94489800Y-94910425D01*
X95564800Y-97615200D02*
X94054800Y-97615200D01*
X95494800Y-97936200D02*
X94054800Y-97936200D01*
X95456800Y-98056200D02*
X94054800Y-98056200D01*
X94619800Y-99256200D02*
X91409800Y-99256200D01*
X95570800Y-97575200D02*
X94054800Y-97575200D01*
X95079800Y-98776200D02*
X94054800Y-98776200D01*
X95343800Y-98336200D02*
X94054800Y-98336200D01*
X95594800Y-97215200D02*
X94054800Y-97215200D01*
X91974800Y-98376200D02*
X90704800Y-98376200D01*
X95590800Y-97375200D02*
X94054800Y-97375200D01*
X91974800Y-97375200D02*
X90438800Y-97375200D01*
X94667800Y-99216200D02*
X94054800Y-99216200D01*
X95304800Y-98416200D02*
X94054800Y-98416200D01*
X95515800Y-97855200D02*
X94054800Y-97855200D01*
X95594800Y-97255200D02*
X94054800Y-97255200D01*
X91974800Y-97936200D02*
X90534800Y-97936200D01*
X93532800Y-99776200D02*
X92496800Y-99776200D01*
X95018800Y-98856200D02*
X94054800Y-98856200D01*
X94333800Y-99456200D02*
X91695800Y-99456200D01*
X95587800Y-97415200D02*
X94054800Y-97415200D01*
X91974800Y-98416200D02*
X90724800Y-98416200D01*
X95163800Y-98656200D02*
X94054800Y-98656200D01*
X93819800Y-99696200D02*
X92209800Y-99696200D01*
X91974800Y-97735200D02*
X90486800Y-97735200D01*
X91974800Y-98656200D02*
X90865800Y-98656200D01*
X91974800Y-98976200D02*
X91113800Y-98976200D01*
X91974800Y-97895200D02*
X90523800Y-97895200D01*
X95261800Y-98496200D02*
X94054800Y-98496200D01*
X91974800Y-97976200D02*
X90546800Y-97976200D01*
X91974800Y-98856200D02*
X91010800Y-98856200D01*
X95579800Y-97495200D02*
X94054800Y-97495200D01*
X91974800Y-98576200D02*
X90814800Y-98576200D01*
X91974800Y-98216200D02*
X90632800Y-98216200D01*
X94840800Y-99056200D02*
X94054800Y-99056200D01*
X94025800Y-99616200D02*
X92003800Y-99616200D01*
X94397800Y-99416200D02*
X91631800Y-99416200D01*
X95583800Y-97455200D02*
X94054800Y-97455200D01*
X91974800Y-98256200D02*
X90649800Y-98256200D01*
X95550800Y-97695200D02*
X94054800Y-97695200D01*
X95592800Y-97335200D02*
X94054800Y-97335200D01*
X95575800Y-97535200D02*
X94054800Y-97535200D01*
X94878800Y-99016200D02*
X94054800Y-99016200D01*
X94514800Y-99336200D02*
X91514800Y-99336200D01*
X91974800Y-97415200D02*
X90441800Y-97415200D01*
X91974800Y-98896200D02*
X91043800Y-98896200D01*
X91974800Y-98056200D02*
X90572800Y-98056200D01*
X95412800Y-98176200D02*
X94054800Y-98176200D01*
X91974800Y-97655200D02*
X90471800Y-97655200D01*
X94757800Y-99136200D02*
X94054800Y-99136200D01*
X91974800Y-98136200D02*
X90600800Y-98136200D01*
X95593800Y-97295200D02*
X94054800Y-97295200D01*
X91974800Y-99096200D02*
X91229800Y-99096200D01*
X95428800Y-98136200D02*
X94054800Y-98136200D01*
X91974800Y-97215200D02*
X90434800Y-97215200D01*
X91974800Y-99176200D02*
X91315800Y-99176200D01*
X94713800Y-99176200D02*
X94054800Y-99176200D01*
X91974800Y-99016200D02*
X91150800Y-99016200D01*
X91974800Y-98176200D02*
X90616800Y-98176200D01*
X91974800Y-97815200D02*
X90503800Y-97815200D01*
X95282800Y-98456200D02*
X94054800Y-98456200D01*
X94112800Y-99576200D02*
X91916800Y-99576200D01*
X91974800Y-98296200D02*
X90666800Y-98296200D01*
X94568800Y-99296200D02*
X91460800Y-99296200D01*
X95442800Y-98096200D02*
X94054800Y-98096200D01*
X95109800Y-98736200D02*
X94054800Y-98736200D01*
X91974800Y-97535200D02*
X90453800Y-97535200D01*
X95634800Y-97215200D02*
G75*
G03*
X95634800Y-97215200I-2620000J0D01*
G01*
%TO.C,C1*%
X155337000Y-71500000D02*
X155337000Y-72874000D01*
X156337000Y-74954000D02*
X156337000Y-75657000D01*
X151861225Y-72189000D02*
X151861225Y-72689000D01*
X154456000Y-71334000D02*
X154456000Y-72874000D01*
X154656000Y-74954000D02*
X154656000Y-76483000D01*
X154696000Y-71349000D02*
X154696000Y-72874000D01*
X155617000Y-71624000D02*
X155617000Y-72874000D01*
X156777000Y-72816000D02*
X156777000Y-75012000D01*
X155897000Y-74954000D02*
X155897000Y-76036000D01*
X155016000Y-71403000D02*
X155016000Y-72874000D01*
X155497000Y-71566000D02*
X155497000Y-72874000D01*
X156657000Y-72595000D02*
X156657000Y-75233000D01*
X154736000Y-71353000D02*
X154736000Y-72874000D01*
X156737000Y-72736000D02*
X156737000Y-75092000D01*
X155016000Y-74954000D02*
X155016000Y-76425000D01*
X155056000Y-74954000D02*
X155056000Y-76415000D01*
X155857000Y-71765000D02*
X155857000Y-72874000D01*
X155817000Y-71739000D02*
X155817000Y-72874000D01*
X156857000Y-72999000D02*
X156857000Y-74829000D01*
X155657000Y-74954000D02*
X155657000Y-76182000D01*
X156537000Y-72414000D02*
X156537000Y-75414000D01*
X156137000Y-71977000D02*
X156137000Y-72874000D01*
X155377000Y-74954000D02*
X155377000Y-76312000D01*
X155737000Y-74954000D02*
X155737000Y-76138000D01*
X155537000Y-71585000D02*
X155537000Y-72874000D01*
X156377000Y-72215000D02*
X156377000Y-72874000D01*
X155137000Y-74954000D02*
X155137000Y-76394000D01*
X156577000Y-72471000D02*
X156577000Y-75357000D01*
X156417000Y-74954000D02*
X156417000Y-75567000D01*
X156297000Y-72129000D02*
X156297000Y-72874000D01*
X155417000Y-71532000D02*
X155417000Y-72874000D01*
X154536000Y-71336000D02*
X154536000Y-72874000D01*
X154616000Y-71341000D02*
X154616000Y-72874000D01*
X156497000Y-72360000D02*
X156497000Y-75468000D01*
X155937000Y-74954000D02*
X155937000Y-76009000D01*
X156257000Y-72088000D02*
X156257000Y-72874000D01*
X154736000Y-74954000D02*
X154736000Y-76475000D01*
X156417000Y-72261000D02*
X156417000Y-72874000D01*
X154976000Y-74954000D02*
X154976000Y-76434000D01*
X156137000Y-74954000D02*
X156137000Y-75851000D01*
X155697000Y-74954000D02*
X155697000Y-76161000D01*
X155937000Y-71819000D02*
X155937000Y-72874000D01*
X155217000Y-71459000D02*
X155217000Y-72874000D01*
X156897000Y-73109000D02*
X156897000Y-74719000D01*
X155177000Y-71446000D02*
X155177000Y-72874000D01*
X154776000Y-71358000D02*
X154776000Y-72874000D01*
X155137000Y-71434000D02*
X155137000Y-72874000D01*
X154856000Y-74954000D02*
X154856000Y-76457000D01*
X155417000Y-74954000D02*
X155417000Y-76296000D01*
X155737000Y-71690000D02*
X155737000Y-72874000D01*
X155337000Y-74954000D02*
X155337000Y-76328000D01*
X156257000Y-74954000D02*
X156257000Y-75740000D01*
X154936000Y-74954000D02*
X154936000Y-76442000D01*
X156977000Y-73396000D02*
X156977000Y-74432000D01*
X154456000Y-74954000D02*
X154456000Y-76494000D01*
X155977000Y-74954000D02*
X155977000Y-75979000D01*
X155457000Y-71549000D02*
X155457000Y-72874000D01*
X155537000Y-74954000D02*
X155537000Y-76243000D01*
X155977000Y-71849000D02*
X155977000Y-72874000D01*
X155697000Y-71667000D02*
X155697000Y-72874000D01*
X156177000Y-74954000D02*
X156177000Y-75815000D01*
X154976000Y-71394000D02*
X154976000Y-72874000D01*
X154656000Y-71345000D02*
X154656000Y-72874000D01*
X154856000Y-71371000D02*
X154856000Y-72874000D01*
X155377000Y-71516000D02*
X155377000Y-72874000D01*
X154696000Y-74954000D02*
X154696000Y-76479000D01*
X155217000Y-74954000D02*
X155217000Y-76369000D01*
X155297000Y-71486000D02*
X155297000Y-72874000D01*
X154776000Y-74954000D02*
X154776000Y-76470000D01*
X155657000Y-71646000D02*
X155657000Y-72874000D01*
X156297000Y-74954000D02*
X156297000Y-75699000D01*
X155897000Y-71792000D02*
X155897000Y-72874000D01*
X156217000Y-72050000D02*
X156217000Y-72874000D01*
X155177000Y-74954000D02*
X155177000Y-76382000D01*
X154576000Y-74954000D02*
X154576000Y-76490000D01*
X155497000Y-74954000D02*
X155497000Y-76262000D01*
X155817000Y-74954000D02*
X155817000Y-76089000D01*
X154896000Y-74954000D02*
X154896000Y-76450000D01*
X155577000Y-74954000D02*
X155577000Y-76224000D01*
X155257000Y-71472000D02*
X155257000Y-72874000D01*
X156097000Y-71943000D02*
X156097000Y-72874000D01*
X156617000Y-72531000D02*
X156617000Y-75297000D01*
X155056000Y-71413000D02*
X155056000Y-72874000D01*
X156017000Y-71879000D02*
X156017000Y-72874000D01*
X156337000Y-72171000D02*
X156337000Y-72874000D01*
X156377000Y-74954000D02*
X156377000Y-75613000D01*
X155617000Y-74954000D02*
X155617000Y-76204000D01*
X155457000Y-74954000D02*
X155457000Y-76279000D01*
X154416000Y-71334000D02*
X154416000Y-72874000D01*
X155777000Y-71714000D02*
X155777000Y-72874000D01*
X155096000Y-71423000D02*
X155096000Y-72874000D01*
X156697000Y-72663000D02*
X156697000Y-75165000D01*
X156097000Y-74954000D02*
X156097000Y-75885000D01*
X157017000Y-73630000D02*
X157017000Y-74198000D01*
X154616000Y-74954000D02*
X154616000Y-76487000D01*
X154896000Y-71378000D02*
X154896000Y-72874000D01*
X154816000Y-71364000D02*
X154816000Y-72874000D01*
X156217000Y-74954000D02*
X156217000Y-75778000D01*
X156177000Y-72013000D02*
X156177000Y-72874000D01*
X155096000Y-74954000D02*
X155096000Y-76405000D01*
X156057000Y-71910000D02*
X156057000Y-72874000D01*
X156457000Y-72309000D02*
X156457000Y-75519000D01*
X154816000Y-74954000D02*
X154816000Y-76464000D01*
X156017000Y-74954000D02*
X156017000Y-75949000D01*
X155297000Y-74954000D02*
X155297000Y-76342000D01*
X156817000Y-72903000D02*
X156817000Y-74925000D01*
X154936000Y-71386000D02*
X154936000Y-72874000D01*
X155257000Y-74954000D02*
X155257000Y-76356000D01*
X154576000Y-71338000D02*
X154576000Y-72874000D01*
X155857000Y-74954000D02*
X155857000Y-76063000D01*
X155777000Y-74954000D02*
X155777000Y-76114000D01*
X154536000Y-74954000D02*
X154536000Y-76492000D01*
X151611225Y-72439000D02*
X152111225Y-72439000D01*
X154496000Y-71335000D02*
X154496000Y-72874000D01*
X154496000Y-74954000D02*
X154496000Y-76493000D01*
X154416000Y-74954000D02*
X154416000Y-76494000D01*
X155577000Y-71604000D02*
X155577000Y-72874000D01*
X156937000Y-73237000D02*
X156937000Y-74591000D01*
X156057000Y-74954000D02*
X156057000Y-75918000D01*
X157036000Y-73914000D02*
G75*
G03*
X157036000Y-73914000I-2620000J0D01*
G01*
%TO.C,SW1*%
X122770000Y-75068800D02*
X122770000Y-79568800D01*
X126770000Y-73818800D02*
X125270000Y-73818800D01*
X129270000Y-79568800D02*
X129270000Y-75068800D01*
X125270000Y-80818800D02*
X126770000Y-80818800D01*
%TO.C,R6*%
X93394400Y-79876400D02*
X93724400Y-79876400D01*
X90984400Y-73336400D02*
X91314400Y-73336400D01*
X91314400Y-79876400D02*
X90984400Y-79876400D01*
X90984400Y-79876400D02*
X90984400Y-73336400D01*
X93724400Y-73336400D02*
X93394400Y-73336400D01*
X93724400Y-79876400D02*
X93724400Y-73336400D01*
%TO.C,R8*%
X118390800Y-83940400D02*
X118060800Y-83940400D01*
X118060800Y-77400400D02*
X118390800Y-77400400D01*
X118060800Y-83940400D02*
X118060800Y-77400400D01*
X120470800Y-83940400D02*
X120800800Y-83940400D01*
X120800800Y-83940400D02*
X120800800Y-77400400D01*
X120800800Y-77400400D02*
X120470800Y-77400400D01*
%TO.C,R7*%
X114708000Y-83915000D02*
X114708000Y-77375000D01*
X117448000Y-83915000D02*
X117448000Y-77375000D01*
X117118000Y-83915000D02*
X117448000Y-83915000D01*
X115038000Y-83915000D02*
X114708000Y-83915000D01*
X117448000Y-77375000D02*
X117118000Y-77375000D01*
X114708000Y-77375000D02*
X115038000Y-77375000D01*
%TO.C,JP1*%
X132890000Y-115590000D02*
X132890000Y-110450000D01*
X132890000Y-118190000D02*
X131560000Y-118190000D01*
X132890000Y-115590000D02*
X130230000Y-115590000D01*
X132890000Y-116860000D02*
X132890000Y-118190000D01*
X130230000Y-115590000D02*
X130230000Y-110450000D01*
X132890000Y-110450000D02*
X130230000Y-110450000D01*
%TO.C,R3*%
X110860000Y-109200000D02*
X110530000Y-109200000D01*
X113270000Y-102660000D02*
X112940000Y-102660000D01*
X110530000Y-109200000D02*
X110530000Y-102660000D01*
X112940000Y-109200000D02*
X113270000Y-109200000D01*
X110530000Y-102660000D02*
X110860000Y-102660000D01*
X113270000Y-109200000D02*
X113270000Y-102660000D01*
%TO.C,J2*%
X84410000Y-72560000D02*
X84410000Y-125780000D01*
X84410000Y-125780000D02*
X72070000Y-125780000D01*
X85304338Y-82800000D02*
X84871325Y-82550000D01*
X85304338Y-82300000D02*
X85304338Y-82800000D01*
X72070000Y-72560000D02*
X84410000Y-72560000D01*
X84871325Y-82550000D02*
X85304338Y-82300000D01*
%TO.C,C9*%
X87346800Y-86920400D02*
X92586800Y-86920400D01*
X87346800Y-89345400D02*
X87346800Y-89660400D01*
X87346800Y-89660400D02*
X92586800Y-89660400D01*
X87346800Y-86920400D02*
X87346800Y-87235400D01*
X92586800Y-86920400D02*
X92586800Y-87235400D01*
X92586800Y-89345400D02*
X92586800Y-89660400D01*
%TO.C,JP6*%
X125630000Y-101740000D02*
X125630000Y-103070000D01*
X125630000Y-95330000D02*
X122970000Y-95330000D01*
X125630000Y-103070000D02*
X124300000Y-103070000D01*
X125630000Y-100470000D02*
X125630000Y-95330000D01*
X125630000Y-100470000D02*
X122970000Y-100470000D01*
X122970000Y-100470000D02*
X122970000Y-95330000D01*
%TO.C,J4*%
X124445000Y-89348000D02*
X125775000Y-89348000D01*
X125775000Y-89348000D02*
X125775000Y-90678000D01*
X123175000Y-92008000D02*
X118035000Y-92008000D01*
X118035000Y-89348000D02*
X118035000Y-92008000D01*
X123175000Y-89348000D02*
X123175000Y-92008000D01*
X123175000Y-89348000D02*
X118035000Y-89348000D01*
%TO.C,C6*%
X115127000Y-98393888D02*
X113943000Y-98393888D01*
X111863000Y-97953888D02*
X110475000Y-97953888D01*
X111863000Y-98513888D02*
X110754000Y-98513888D01*
X111863000Y-97192888D02*
X110325000Y-97192888D01*
X114403000Y-99193888D02*
X111403000Y-99193888D01*
X115479000Y-97232888D02*
X113943000Y-97232888D01*
X113580000Y-99593888D02*
X112226000Y-99593888D01*
X115414000Y-97672888D02*
X113943000Y-97672888D01*
X111863000Y-98873888D02*
X111039000Y-98873888D01*
X114286000Y-99273888D02*
X111520000Y-99273888D01*
X114154000Y-99353888D02*
X111652000Y-99353888D01*
X114222000Y-99313888D02*
X111584000Y-99313888D01*
X111863000Y-98553888D02*
X110781000Y-98553888D01*
X115317000Y-97993888D02*
X113943000Y-97993888D01*
X115025000Y-98553888D02*
X113943000Y-98553888D01*
X111863000Y-98833888D02*
X111002000Y-98833888D01*
X111863000Y-99033888D02*
X111204000Y-99033888D01*
X115301000Y-98033888D02*
X113943000Y-98033888D01*
X115453000Y-97472888D02*
X113943000Y-97472888D01*
X115371000Y-97833888D02*
X113943000Y-97833888D01*
X111863000Y-98993888D02*
X111160000Y-98993888D01*
X113187000Y-99673888D02*
X112619000Y-99673888D01*
X111863000Y-97272888D02*
X110330000Y-97272888D01*
X115431000Y-97592888D02*
X113943000Y-97592888D01*
X115404000Y-97712888D02*
X113943000Y-97712888D01*
X115483000Y-97072888D02*
X113943000Y-97072888D01*
X111863000Y-97752888D02*
X110412000Y-97752888D01*
X111863000Y-97112888D02*
X110323000Y-97112888D01*
X114907000Y-98713888D02*
X113943000Y-98713888D01*
X115358000Y-97873888D02*
X113943000Y-97873888D01*
X115213000Y-98233888D02*
X113943000Y-98233888D01*
X111863000Y-97312888D02*
X110334000Y-97312888D01*
X115476000Y-97272888D02*
X113943000Y-97272888D01*
X115232000Y-98193888D02*
X113943000Y-98193888D01*
X111863000Y-97632888D02*
X110383000Y-97632888D01*
X111863000Y-98633888D02*
X110838000Y-98633888D01*
X111863000Y-97392888D02*
X110342000Y-97392888D01*
X113818000Y-99513888D02*
X111988000Y-99513888D01*
X115078000Y-98473888D02*
X113943000Y-98473888D01*
X115459000Y-97432888D02*
X113943000Y-97432888D01*
X111863000Y-97072888D02*
X110323000Y-97072888D01*
X111863000Y-97712888D02*
X110402000Y-97712888D01*
X111863000Y-97512888D02*
X110360000Y-97512888D01*
X111863000Y-97472888D02*
X110353000Y-97472888D01*
X113421000Y-99633888D02*
X112385000Y-99633888D01*
X111863000Y-97833888D02*
X110435000Y-97833888D01*
X115423000Y-97632888D02*
X113943000Y-97632888D01*
X114001000Y-99433888D02*
X111805000Y-99433888D01*
X111863000Y-98793888D02*
X110966000Y-98793888D01*
X115052000Y-98513888D02*
X113943000Y-98513888D01*
X111863000Y-97552888D02*
X110367000Y-97552888D01*
X115193000Y-98273888D02*
X113943000Y-98273888D01*
X111863000Y-98033888D02*
X110505000Y-98033888D01*
X111863000Y-98913888D02*
X111077000Y-98913888D01*
X111863000Y-97873888D02*
X110448000Y-97873888D01*
X114508000Y-99113888D02*
X111298000Y-99113888D01*
X111863000Y-98593888D02*
X110808000Y-98593888D01*
X115446000Y-97512888D02*
X113943000Y-97512888D01*
X111863000Y-97232888D02*
X110327000Y-97232888D01*
X111863000Y-97993888D02*
X110489000Y-97993888D01*
X111863000Y-97793888D02*
X110423000Y-97793888D01*
X115439000Y-97552888D02*
X113943000Y-97552888D01*
X113914000Y-99473888D02*
X111892000Y-99473888D01*
X111863000Y-98753888D02*
X110932000Y-98753888D01*
X111863000Y-98073888D02*
X110521000Y-98073888D01*
X111863000Y-98233888D02*
X110593000Y-98233888D01*
X115345000Y-97913888D02*
X113943000Y-97913888D01*
X114804000Y-98833888D02*
X113943000Y-98833888D01*
X114688000Y-98953888D02*
X113943000Y-98953888D01*
X111863000Y-98953888D02*
X111118000Y-98953888D01*
X114081000Y-99393888D02*
X111725000Y-99393888D01*
X115482000Y-97152888D02*
X113943000Y-97152888D01*
X111863000Y-98193888D02*
X110574000Y-98193888D01*
X111863000Y-97432888D02*
X110347000Y-97432888D01*
X115472000Y-97312888D02*
X113943000Y-97312888D01*
X114457000Y-99153888D02*
X111349000Y-99153888D01*
X111863000Y-98313888D02*
X110635000Y-98313888D01*
X111863000Y-97352888D02*
X110338000Y-97352888D01*
X114968000Y-98633888D02*
X113943000Y-98633888D01*
X111863000Y-97152888D02*
X110324000Y-97152888D01*
X111863000Y-98153888D02*
X110555000Y-98153888D01*
X115268000Y-98113888D02*
X113943000Y-98113888D01*
X115331000Y-97953888D02*
X113943000Y-97953888D01*
X114840000Y-98793888D02*
X113943000Y-98793888D01*
X111863000Y-98473888D02*
X110728000Y-98473888D01*
X111863000Y-98273888D02*
X110613000Y-98273888D01*
X115468000Y-97352888D02*
X113943000Y-97352888D01*
X111863000Y-99073888D02*
X111250000Y-99073888D01*
X111863000Y-97592888D02*
X110375000Y-97592888D01*
X115103000Y-98433888D02*
X113943000Y-98433888D01*
X111863000Y-98713888D02*
X110899000Y-98713888D01*
X115394000Y-97752888D02*
X113943000Y-97752888D01*
X115251000Y-98153888D02*
X113943000Y-98153888D01*
X111863000Y-98433888D02*
X110703000Y-98433888D01*
X114556000Y-99073888D02*
X113943000Y-99073888D01*
X114767000Y-98873888D02*
X113943000Y-98873888D01*
X111863000Y-98393888D02*
X110679000Y-98393888D01*
X114602000Y-99033888D02*
X113943000Y-99033888D01*
X115383000Y-97793888D02*
X113943000Y-97793888D01*
X115285000Y-98073888D02*
X113943000Y-98073888D01*
X111863000Y-97913888D02*
X110461000Y-97913888D01*
X115150000Y-98353888D02*
X113943000Y-98353888D01*
X114874000Y-98753888D02*
X113943000Y-98753888D01*
X114729000Y-98913888D02*
X113943000Y-98913888D01*
X114346000Y-99233888D02*
X111460000Y-99233888D01*
X115171000Y-98313888D02*
X113943000Y-98313888D01*
X111863000Y-97672888D02*
X110392000Y-97672888D01*
X114628000Y-94518113D02*
X114128000Y-94518113D01*
X114646000Y-98993888D02*
X113943000Y-98993888D01*
X115464000Y-97392888D02*
X113943000Y-97392888D01*
X115481000Y-97192888D02*
X113943000Y-97192888D01*
X115483000Y-97112888D02*
X113943000Y-97112888D01*
X114938000Y-98673888D02*
X113943000Y-98673888D01*
X113708000Y-99553888D02*
X112098000Y-99553888D01*
X114378000Y-94268113D02*
X114378000Y-94768113D01*
X114998000Y-98593888D02*
X113943000Y-98593888D01*
X111863000Y-98353888D02*
X110656000Y-98353888D01*
X111863000Y-98113888D02*
X110538000Y-98113888D01*
X111863000Y-98673888D02*
X110868000Y-98673888D01*
X115523000Y-97072888D02*
G75*
G03*
X115523000Y-97072888I-2620000J0D01*
G01*
%TO.C,R4*%
X116432000Y-109188000D02*
X116102000Y-109188000D01*
X114022000Y-102648000D02*
X113692000Y-102648000D01*
X116102000Y-102648000D02*
X116432000Y-102648000D01*
X113692000Y-102648000D02*
X113692000Y-109188000D01*
X113692000Y-109188000D02*
X114022000Y-109188000D01*
X116432000Y-102648000D02*
X116432000Y-109188000D01*
%TO.C,SW2*%
X130912800Y-75016800D02*
X130912800Y-79516800D01*
X134912800Y-73766800D02*
X133412800Y-73766800D01*
X137412800Y-79516800D02*
X137412800Y-75016800D01*
X133412800Y-80766800D02*
X134912800Y-80766800D01*
%TO.C,C5*%
X144610000Y-96784888D02*
X143100000Y-96784888D01*
X141020000Y-97185888D02*
X139605000Y-97185888D01*
X144209000Y-97825888D02*
X143100000Y-97825888D01*
X144095000Y-97985888D02*
X143100000Y-97985888D01*
X141020000Y-96784888D02*
X139510000Y-96784888D01*
X144031000Y-98065888D02*
X143100000Y-98065888D01*
X141020000Y-98385888D02*
X140407000Y-98385888D01*
X141020000Y-96544888D02*
X139484000Y-96544888D01*
X144603000Y-96824888D02*
X143100000Y-96824888D01*
X144625000Y-96664888D02*
X143100000Y-96664888D01*
X144350000Y-97585888D02*
X143100000Y-97585888D01*
X143785000Y-93830113D02*
X143285000Y-93830113D01*
X143886000Y-98225888D02*
X143100000Y-98225888D01*
X144633000Y-96584888D02*
X143100000Y-96584888D01*
X144502000Y-97225888D02*
X143100000Y-97225888D01*
X143311000Y-98665888D02*
X140809000Y-98665888D01*
X143238000Y-98705888D02*
X140882000Y-98705888D01*
X144458000Y-97345888D02*
X143100000Y-97345888D01*
X144370000Y-97545888D02*
X143100000Y-97545888D01*
X141020000Y-96984888D02*
X139549000Y-96984888D01*
X144540000Y-97105888D02*
X143100000Y-97105888D01*
X141020000Y-97785888D02*
X139885000Y-97785888D01*
X144636000Y-96544888D02*
X143100000Y-96544888D01*
X144561000Y-97024888D02*
X143100000Y-97024888D01*
X142975000Y-98825888D02*
X141145000Y-98825888D01*
X143158000Y-98745888D02*
X140962000Y-98745888D01*
X141020000Y-98305888D02*
X140317000Y-98305888D01*
X141020000Y-97585888D02*
X139770000Y-97585888D01*
X141020000Y-98105888D02*
X140123000Y-98105888D01*
X141020000Y-98145888D02*
X140159000Y-98145888D01*
X143759000Y-98345888D02*
X143100000Y-98345888D01*
X144580000Y-96944888D02*
X143100000Y-96944888D01*
X141020000Y-97705888D02*
X139836000Y-97705888D01*
X143961000Y-98145888D02*
X143100000Y-98145888D01*
X142737000Y-98905888D02*
X141383000Y-98905888D01*
X141020000Y-96424888D02*
X139480000Y-96424888D01*
X143924000Y-98185888D02*
X143100000Y-98185888D01*
X144064000Y-98025888D02*
X143100000Y-98025888D01*
X144616000Y-96744888D02*
X143100000Y-96744888D01*
X143071000Y-98785888D02*
X141049000Y-98785888D01*
X143614000Y-98465888D02*
X140506000Y-98465888D01*
X143713000Y-98385888D02*
X143100000Y-98385888D01*
X144640000Y-96384888D02*
X143100000Y-96384888D01*
X143379000Y-98625888D02*
X140741000Y-98625888D01*
X141020000Y-97345888D02*
X139662000Y-97345888D01*
X141020000Y-97905888D02*
X139965000Y-97905888D01*
X141020000Y-96584888D02*
X139487000Y-96584888D01*
X141020000Y-98185888D02*
X140196000Y-98185888D01*
X144425000Y-97425888D02*
X143100000Y-97425888D01*
X144182000Y-97865888D02*
X143100000Y-97865888D01*
X141020000Y-96824888D02*
X139517000Y-96824888D01*
X141020000Y-97425888D02*
X139695000Y-97425888D01*
X144155000Y-97905888D02*
X143100000Y-97905888D01*
X143845000Y-98265888D02*
X143100000Y-98265888D01*
X141020000Y-97145888D02*
X139592000Y-97145888D01*
X141020000Y-97105888D02*
X139580000Y-97105888D01*
X143665000Y-98425888D02*
X140455000Y-98425888D01*
X144515000Y-97185888D02*
X143100000Y-97185888D01*
X141020000Y-97865888D02*
X139938000Y-97865888D01*
X142344000Y-98985888D02*
X141776000Y-98985888D01*
X141020000Y-98025888D02*
X140056000Y-98025888D01*
X144408000Y-97465888D02*
X143100000Y-97465888D01*
X141020000Y-97385888D02*
X139678000Y-97385888D01*
X144588000Y-96904888D02*
X143100000Y-96904888D01*
X144528000Y-97145888D02*
X143100000Y-97145888D01*
X144474000Y-97305888D02*
X143100000Y-97305888D01*
X141020000Y-97265888D02*
X139632000Y-97265888D01*
X144551000Y-97064888D02*
X143100000Y-97064888D01*
X144571000Y-96984888D02*
X143100000Y-96984888D01*
X141020000Y-97745888D02*
X139860000Y-97745888D01*
X141020000Y-97024888D02*
X139559000Y-97024888D01*
X141020000Y-97625888D02*
X139792000Y-97625888D01*
X141020000Y-97465888D02*
X139712000Y-97465888D01*
X141020000Y-96904888D02*
X139532000Y-96904888D01*
X141020000Y-97825888D02*
X139911000Y-97825888D01*
X144640000Y-96424888D02*
X143100000Y-96424888D01*
X141020000Y-96744888D02*
X139504000Y-96744888D01*
X141020000Y-97545888D02*
X139750000Y-97545888D01*
X141020000Y-96384888D02*
X139480000Y-96384888D01*
X144260000Y-97745888D02*
X143100000Y-97745888D01*
X141020000Y-97665888D02*
X139813000Y-97665888D01*
X144638000Y-96504888D02*
X143100000Y-96504888D01*
X141020000Y-98225888D02*
X140234000Y-98225888D01*
X143443000Y-98585888D02*
X140677000Y-98585888D01*
X144125000Y-97945888D02*
X143100000Y-97945888D01*
X142865000Y-98865888D02*
X141255000Y-98865888D01*
X144328000Y-97625888D02*
X143100000Y-97625888D01*
X143803000Y-98305888D02*
X143100000Y-98305888D01*
X144307000Y-97665888D02*
X143100000Y-97665888D01*
X141020000Y-96944888D02*
X139540000Y-96944888D01*
X143535000Y-93580113D02*
X143535000Y-94080113D01*
X141020000Y-98065888D02*
X140089000Y-98065888D01*
X141020000Y-98345888D02*
X140361000Y-98345888D01*
X141020000Y-96464888D02*
X139481000Y-96464888D01*
X141020000Y-97305888D02*
X139646000Y-97305888D01*
X144284000Y-97705888D02*
X143100000Y-97705888D01*
X144235000Y-97785888D02*
X143100000Y-97785888D01*
X144629000Y-96624888D02*
X143100000Y-96624888D01*
X144389000Y-97505888D02*
X143100000Y-97505888D01*
X144596000Y-96864888D02*
X143100000Y-96864888D01*
X141020000Y-96664888D02*
X139495000Y-96664888D01*
X141020000Y-96864888D02*
X139524000Y-96864888D01*
X143560000Y-98505888D02*
X140560000Y-98505888D01*
X144442000Y-97385888D02*
X143100000Y-97385888D01*
X142578000Y-98945888D02*
X141542000Y-98945888D01*
X144488000Y-97265888D02*
X143100000Y-97265888D01*
X141020000Y-98265888D02*
X140275000Y-98265888D01*
X141020000Y-97064888D02*
X139569000Y-97064888D01*
X144621000Y-96704888D02*
X143100000Y-96704888D01*
X143997000Y-98105888D02*
X143100000Y-98105888D01*
X141020000Y-96504888D02*
X139482000Y-96504888D01*
X141020000Y-97225888D02*
X139618000Y-97225888D01*
X141020000Y-97505888D02*
X139731000Y-97505888D01*
X141020000Y-96704888D02*
X139499000Y-96704888D01*
X141020000Y-96624888D02*
X139491000Y-96624888D01*
X144639000Y-96464888D02*
X143100000Y-96464888D01*
X143503000Y-98545888D02*
X140617000Y-98545888D01*
X141020000Y-97945888D02*
X139995000Y-97945888D01*
X141020000Y-97985888D02*
X140025000Y-97985888D01*
X144680000Y-96384888D02*
G75*
G03*
X144680000Y-96384888I-2620000J0D01*
G01*
%TO.C,JP4*%
X128070000Y-118190000D02*
X126740000Y-118190000D01*
X125410000Y-115590000D02*
X125410000Y-110450000D01*
X128070000Y-116860000D02*
X128070000Y-118190000D01*
X128070000Y-115590000D02*
X125410000Y-115590000D01*
X128070000Y-115590000D02*
X128070000Y-110450000D01*
X128070000Y-110450000D02*
X125410000Y-110450000D01*
%TO.C,C7*%
X95456800Y-104050600D02*
X94054800Y-104050600D01*
X95412800Y-104170600D02*
X94054800Y-104170600D01*
X95238800Y-104530600D02*
X94054800Y-104530600D01*
X94951800Y-104930600D02*
X94054800Y-104930600D01*
X94112800Y-105570600D02*
X91916800Y-105570600D01*
X91974800Y-103249600D02*
X90434800Y-103249600D01*
X94985800Y-104890600D02*
X94054800Y-104890600D01*
X91974800Y-105090600D02*
X91229800Y-105090600D01*
X95494800Y-103930600D02*
X94054800Y-103930600D01*
X93298800Y-105810600D02*
X92730800Y-105810600D01*
X91974800Y-104970600D02*
X91113800Y-104970600D01*
X95282800Y-104450600D02*
X94054800Y-104450600D01*
X95564800Y-103609600D02*
X94054800Y-103609600D01*
X91974800Y-104410600D02*
X90724800Y-104410600D01*
X94915800Y-104970600D02*
X94054800Y-104970600D01*
X95579800Y-103489600D02*
X94054800Y-103489600D01*
X94397800Y-105410600D02*
X91631800Y-105410600D01*
X91974800Y-105130600D02*
X91271800Y-105130600D01*
X91974800Y-105010600D02*
X91150800Y-105010600D01*
X91974800Y-103809600D02*
X90503800Y-103809600D01*
X91974800Y-103369600D02*
X90438800Y-103369600D01*
X91974800Y-105210600D02*
X91361800Y-105210600D01*
X91974800Y-103970600D02*
X90546800Y-103970600D01*
X91974800Y-103489600D02*
X90449800Y-103489600D01*
X91974800Y-104930600D02*
X91077800Y-104930600D01*
X91974800Y-105170600D02*
X91315800Y-105170600D01*
X95534800Y-103769600D02*
X94054800Y-103769600D01*
X95304800Y-104410600D02*
X94054800Y-104410600D01*
X94619800Y-105250600D02*
X91409800Y-105250600D01*
X91974800Y-104370600D02*
X90704800Y-104370600D01*
X91974800Y-104730600D02*
X90919800Y-104730600D01*
X95525800Y-103809600D02*
X94054800Y-103809600D01*
X94840800Y-105050600D02*
X94054800Y-105050600D01*
X94333800Y-105450600D02*
X91695800Y-105450600D01*
X95018800Y-104850600D02*
X94054800Y-104850600D01*
X94713800Y-105170600D02*
X94054800Y-105170600D01*
X91974800Y-104330600D02*
X90685800Y-104330600D01*
X95189800Y-104610600D02*
X94054800Y-104610600D01*
X91974800Y-103729600D02*
X90486800Y-103729600D01*
X91974800Y-103409600D02*
X90441800Y-103409600D01*
X91974800Y-103449600D02*
X90445800Y-103449600D01*
X91974800Y-104210600D02*
X90632800Y-104210600D01*
X91974800Y-104770600D02*
X90949800Y-104770600D01*
X91974800Y-105050600D02*
X91188800Y-105050600D01*
X95136800Y-104690600D02*
X94054800Y-104690600D01*
X91974800Y-104170600D02*
X90616800Y-104170600D01*
X91974800Y-104090600D02*
X90586800Y-104090600D01*
X95343800Y-104330600D02*
X94054800Y-104330600D01*
X95550800Y-103689600D02*
X94054800Y-103689600D01*
X91974800Y-103329600D02*
X90436800Y-103329600D01*
X91974800Y-104250600D02*
X90649800Y-104250600D01*
X95261800Y-104490600D02*
X94054800Y-104490600D01*
X95428800Y-104130600D02*
X94054800Y-104130600D01*
X95049800Y-104810600D02*
X94054800Y-104810600D01*
X95482800Y-103970600D02*
X94054800Y-103970600D01*
X94192800Y-105530600D02*
X91836800Y-105530600D01*
X91974800Y-104890600D02*
X91043800Y-104890600D01*
X91974800Y-104610600D02*
X90839800Y-104610600D01*
X91974800Y-103609600D02*
X90464800Y-103609600D01*
X91974800Y-103569600D02*
X90458800Y-103569600D01*
X91974800Y-104050600D02*
X90572800Y-104050600D01*
X91974800Y-104130600D02*
X90600800Y-104130600D01*
X91974800Y-104490600D02*
X90767800Y-104490600D01*
X91974800Y-103289600D02*
X90435800Y-103289600D01*
X95442800Y-104090600D02*
X94054800Y-104090600D01*
X95593800Y-103289600D02*
X94054800Y-103289600D01*
X94667800Y-105210600D02*
X94054800Y-105210600D01*
X91974800Y-104450600D02*
X90746800Y-104450600D01*
X94265800Y-105490600D02*
X91763800Y-105490600D01*
X95515800Y-103849600D02*
X94054800Y-103849600D01*
X95362800Y-104290600D02*
X94054800Y-104290600D01*
X91974800Y-103689600D02*
X90478800Y-103689600D01*
X95379800Y-104250600D02*
X94054800Y-104250600D01*
X94514800Y-105330600D02*
X91514800Y-105330600D01*
X95592800Y-103329600D02*
X94054800Y-103329600D01*
X95557800Y-103649600D02*
X94054800Y-103649600D01*
X95594800Y-103209600D02*
X94054800Y-103209600D01*
X95575800Y-103529600D02*
X94054800Y-103529600D01*
X91974800Y-104290600D02*
X90666800Y-104290600D01*
X95324800Y-104370600D02*
X94054800Y-104370600D01*
X93691800Y-105730600D02*
X92337800Y-105730600D01*
X91974800Y-103649600D02*
X90471800Y-103649600D01*
X94025800Y-105610600D02*
X92003800Y-105610600D01*
X94457800Y-105370600D02*
X91571800Y-105370600D01*
X93532800Y-105770600D02*
X92496800Y-105770600D01*
X91974800Y-103209600D02*
X90434800Y-103209600D01*
X91974800Y-103930600D02*
X90534800Y-103930600D01*
X95587800Y-103409600D02*
X94054800Y-103409600D01*
X94878800Y-105010600D02*
X94054800Y-105010600D01*
X91974800Y-103849600D02*
X90513800Y-103849600D01*
X91974800Y-104810600D02*
X90979800Y-104810600D01*
X95594800Y-103249600D02*
X94054800Y-103249600D01*
X94568800Y-105290600D02*
X91460800Y-105290600D01*
X95163800Y-104650600D02*
X94054800Y-104650600D01*
X95570800Y-103569600D02*
X94054800Y-103569600D01*
X91974800Y-103529600D02*
X90453800Y-103529600D01*
X94799800Y-105090600D02*
X94054800Y-105090600D01*
X95079800Y-104770600D02*
X94054800Y-104770600D01*
X91974800Y-104530600D02*
X90790800Y-104530600D01*
X95396800Y-104210600D02*
X94054800Y-104210600D01*
X95505800Y-103889600D02*
X94054800Y-103889600D01*
X93819800Y-105690600D02*
X92209800Y-105690600D01*
X94489800Y-100404825D02*
X94489800Y-100904825D01*
X94739800Y-100654825D02*
X94239800Y-100654825D01*
X91974800Y-104010600D02*
X90559800Y-104010600D01*
X91974800Y-104850600D02*
X91010800Y-104850600D01*
X95583800Y-103449600D02*
X94054800Y-103449600D01*
X95109800Y-104730600D02*
X94054800Y-104730600D01*
X95590800Y-103369600D02*
X94054800Y-103369600D01*
X95469800Y-104010600D02*
X94054800Y-104010600D01*
X91974800Y-104690600D02*
X90892800Y-104690600D01*
X95542800Y-103729600D02*
X94054800Y-103729600D01*
X91974800Y-104570600D02*
X90814800Y-104570600D01*
X93929800Y-105650600D02*
X92099800Y-105650600D01*
X91974800Y-103769600D02*
X90494800Y-103769600D01*
X94757800Y-105130600D02*
X94054800Y-105130600D01*
X95214800Y-104570600D02*
X94054800Y-104570600D01*
X91974800Y-103889600D02*
X90523800Y-103889600D01*
X91974800Y-104650600D02*
X90865800Y-104650600D01*
X95634800Y-103209600D02*
G75*
G03*
X95634800Y-103209600I-2620000J0D01*
G01*
%TO.C,U4*%
X138570000Y-105410000D02*
X128330000Y-105410000D01*
X135990000Y-89520000D02*
X135990000Y-86980000D01*
X128330000Y-105410000D02*
X128330000Y-89520000D01*
X138570000Y-105410000D02*
X138570000Y-89520000D01*
X138570000Y-89520000D02*
X128330000Y-89520000D01*
X130910000Y-89520000D02*
X130910000Y-86980000D01*
X133450000Y-89520000D02*
X133450000Y-86980000D01*
%TO.C,C8*%
X141160000Y-105631000D02*
X140336000Y-105631000D01*
X144565000Y-104871000D02*
X143240000Y-104871000D01*
X141160000Y-105511000D02*
X140229000Y-105511000D01*
X144720000Y-104390000D02*
X143240000Y-104390000D01*
X141160000Y-105431000D02*
X140165000Y-105431000D01*
X141160000Y-104711000D02*
X139772000Y-104711000D01*
X144750000Y-104230000D02*
X143240000Y-104230000D01*
X141160000Y-105751000D02*
X140457000Y-105751000D01*
X144375000Y-105231000D02*
X143240000Y-105231000D01*
X141160000Y-104791000D02*
X139802000Y-104791000D01*
X142877000Y-106351000D02*
X141523000Y-106351000D01*
X141160000Y-104751000D02*
X139786000Y-104751000D01*
X141160000Y-104510000D02*
X139709000Y-104510000D01*
X144769000Y-104070000D02*
X143240000Y-104070000D01*
X143643000Y-105991000D02*
X140757000Y-105991000D01*
X143754000Y-105911000D02*
X140646000Y-105911000D01*
X141160000Y-105391000D02*
X140135000Y-105391000D01*
X144778000Y-103950000D02*
X143240000Y-103950000D01*
X144064000Y-105631000D02*
X143240000Y-105631000D01*
X144171000Y-105511000D02*
X143240000Y-105511000D01*
X141160000Y-104671000D02*
X139758000Y-104671000D01*
X144349000Y-105271000D02*
X143240000Y-105271000D01*
X144776000Y-103990000D02*
X143240000Y-103990000D01*
X144026000Y-105671000D02*
X143240000Y-105671000D01*
X141160000Y-105711000D02*
X140415000Y-105711000D01*
X143005000Y-106311000D02*
X141395000Y-106311000D01*
X144628000Y-104711000D02*
X143240000Y-104711000D01*
X143675000Y-101025225D02*
X143675000Y-101525225D01*
X144761000Y-104150000D02*
X143240000Y-104150000D01*
X141160000Y-103910000D02*
X139621000Y-103910000D01*
X144265000Y-105391000D02*
X143240000Y-105391000D01*
X141160000Y-105111000D02*
X139953000Y-105111000D01*
X144756000Y-104190000D02*
X143240000Y-104190000D01*
X144204000Y-105471000D02*
X143240000Y-105471000D01*
X141160000Y-104070000D02*
X139631000Y-104070000D01*
X141160000Y-105031000D02*
X139910000Y-105031000D01*
X141160000Y-104831000D02*
X139818000Y-104831000D01*
X141160000Y-104190000D02*
X139644000Y-104190000D01*
X141160000Y-105231000D02*
X140025000Y-105231000D01*
X144510000Y-104991000D02*
X143240000Y-104991000D01*
X144101000Y-105591000D02*
X143240000Y-105591000D01*
X141160000Y-103950000D02*
X139622000Y-103950000D01*
X141160000Y-105671000D02*
X140374000Y-105671000D01*
X143378000Y-106151000D02*
X141022000Y-106151000D01*
X144295000Y-105351000D02*
X143240000Y-105351000D01*
X144598000Y-104791000D02*
X143240000Y-104791000D01*
X144736000Y-104310000D02*
X143240000Y-104310000D01*
X144680000Y-104551000D02*
X143240000Y-104551000D01*
X141160000Y-105551000D02*
X140263000Y-105551000D01*
X143583000Y-106031000D02*
X140817000Y-106031000D01*
X144773000Y-104030000D02*
X143240000Y-104030000D01*
X143899000Y-105791000D02*
X143240000Y-105791000D01*
X144780000Y-103870000D02*
X143240000Y-103870000D01*
X144780000Y-103830000D02*
X143240000Y-103830000D01*
X144137000Y-105551000D02*
X143240000Y-105551000D01*
X144529000Y-104951000D02*
X143240000Y-104951000D01*
X141160000Y-105151000D02*
X139976000Y-105151000D01*
X144668000Y-104591000D02*
X143240000Y-104591000D01*
X144400000Y-105191000D02*
X143240000Y-105191000D01*
X143943000Y-105751000D02*
X143240000Y-105751000D01*
X143700000Y-105951000D02*
X140700000Y-105951000D01*
X141160000Y-104230000D02*
X139650000Y-104230000D01*
X141160000Y-104430000D02*
X139689000Y-104430000D01*
X141160000Y-104470000D02*
X139699000Y-104470000D01*
X144235000Y-105431000D02*
X143240000Y-105431000D01*
X144582000Y-104831000D02*
X143240000Y-104831000D01*
X141160000Y-105351000D02*
X140105000Y-105351000D01*
X144490000Y-105031000D02*
X143240000Y-105031000D01*
X141160000Y-104110000D02*
X139635000Y-104110000D01*
X144642000Y-104671000D02*
X143240000Y-104671000D01*
X141160000Y-105311000D02*
X140078000Y-105311000D01*
X143115000Y-106271000D02*
X141285000Y-106271000D01*
X141160000Y-105791000D02*
X140501000Y-105791000D01*
X143805000Y-105871000D02*
X140595000Y-105871000D01*
X141160000Y-104991000D02*
X139890000Y-104991000D01*
X144691000Y-104510000D02*
X143240000Y-104510000D01*
X144548000Y-104911000D02*
X143240000Y-104911000D01*
X141160000Y-103870000D02*
X139620000Y-103870000D01*
X144711000Y-104430000D02*
X143240000Y-104430000D01*
X141160000Y-104270000D02*
X139657000Y-104270000D01*
X141160000Y-104390000D02*
X139680000Y-104390000D01*
X141160000Y-105831000D02*
X140547000Y-105831000D01*
X144728000Y-104350000D02*
X143240000Y-104350000D01*
X141160000Y-104911000D02*
X139852000Y-104911000D01*
X143298000Y-106191000D02*
X141102000Y-106191000D01*
X141160000Y-104150000D02*
X139639000Y-104150000D01*
X142484000Y-106431000D02*
X141916000Y-106431000D01*
X141160000Y-105071000D02*
X139932000Y-105071000D01*
X143853000Y-105831000D02*
X143240000Y-105831000D01*
X143451000Y-106111000D02*
X140949000Y-106111000D01*
X144468000Y-105071000D02*
X143240000Y-105071000D01*
X143211000Y-106231000D02*
X141189000Y-106231000D01*
X141160000Y-104030000D02*
X139627000Y-104030000D01*
X144614000Y-104751000D02*
X143240000Y-104751000D01*
X141160000Y-104350000D02*
X139672000Y-104350000D01*
X141160000Y-103830000D02*
X139620000Y-103830000D01*
X141160000Y-105591000D02*
X140299000Y-105591000D01*
X141160000Y-104310000D02*
X139664000Y-104310000D01*
X143925000Y-101275225D02*
X143425000Y-101275225D01*
X141160000Y-104951000D02*
X139871000Y-104951000D01*
X144765000Y-104110000D02*
X143240000Y-104110000D01*
X141160000Y-105271000D02*
X140051000Y-105271000D01*
X144424000Y-105151000D02*
X143240000Y-105151000D01*
X141160000Y-104551000D02*
X139720000Y-104551000D01*
X143519000Y-106071000D02*
X140881000Y-106071000D01*
X141160000Y-104871000D02*
X139835000Y-104871000D01*
X144743000Y-104270000D02*
X143240000Y-104270000D01*
X144447000Y-105111000D02*
X143240000Y-105111000D01*
X144779000Y-103910000D02*
X143240000Y-103910000D01*
X141160000Y-104631000D02*
X139745000Y-104631000D01*
X142718000Y-106391000D02*
X141682000Y-106391000D01*
X141160000Y-105191000D02*
X140000000Y-105191000D01*
X144701000Y-104470000D02*
X143240000Y-104470000D01*
X144655000Y-104631000D02*
X143240000Y-104631000D01*
X141160000Y-103990000D02*
X139624000Y-103990000D01*
X143985000Y-105711000D02*
X143240000Y-105711000D01*
X144322000Y-105311000D02*
X143240000Y-105311000D01*
X141160000Y-105471000D02*
X140196000Y-105471000D01*
X141160000Y-104591000D02*
X139732000Y-104591000D01*
X144820000Y-103830000D02*
G75*
G03*
X144820000Y-103830000I-2620000J0D01*
G01*
%TO.C,J3*%
X153620000Y-88620000D02*
X152570000Y-88620000D01*
X152570000Y-87570000D02*
X152570000Y-88620000D01*
X167470000Y-79220000D02*
X167470000Y-88420000D01*
X152770000Y-79220000D02*
X154670000Y-79220000D01*
X167470000Y-88420000D02*
X152770000Y-88420000D01*
X152770000Y-81920000D02*
X152770000Y-79220000D01*
X158670000Y-79220000D02*
X167470000Y-79220000D01*
X152770000Y-88420000D02*
X152770000Y-85820000D01*
%TO.C,R1*%
X104050000Y-90710000D02*
X104050000Y-90380000D01*
X97510000Y-90380000D02*
X97510000Y-90710000D01*
X97510000Y-93120000D02*
X97510000Y-92790000D01*
X104050000Y-93120000D02*
X97510000Y-93120000D01*
X104050000Y-92790000D02*
X104050000Y-93120000D01*
X104050000Y-90380000D02*
X97510000Y-90380000D01*
%TO.C,C4*%
X94828000Y-111106600D02*
X94004000Y-111106600D01*
X95211000Y-110586600D02*
X94004000Y-110586600D01*
X94749000Y-111186600D02*
X94004000Y-111186600D01*
X95329000Y-110346600D02*
X94004000Y-110346600D01*
X93482000Y-111866600D02*
X92446000Y-111866600D01*
X91924000Y-110426600D02*
X90635000Y-110426600D01*
X95540000Y-109465600D02*
X94004000Y-109465600D01*
X93248000Y-111906600D02*
X92680000Y-111906600D01*
X94617000Y-111306600D02*
X94004000Y-111306600D01*
X95507000Y-109745600D02*
X94004000Y-109745600D01*
X95500000Y-109785600D02*
X94004000Y-109785600D01*
X91924000Y-110706600D02*
X90789000Y-110706600D01*
X91924000Y-110746600D02*
X90815000Y-110746600D01*
X91924000Y-109785600D02*
X90428000Y-109785600D01*
X94283000Y-111546600D02*
X91645000Y-111546600D01*
X91924000Y-109585600D02*
X90399000Y-109585600D01*
X93975000Y-111706600D02*
X91953000Y-111706600D01*
X91924000Y-110866600D02*
X90899000Y-110866600D01*
X95312000Y-110386600D02*
X94004000Y-110386600D01*
X94347000Y-111506600D02*
X91581000Y-111506600D01*
X95378000Y-110226600D02*
X94004000Y-110226600D01*
X91924000Y-110466600D02*
X90654000Y-110466600D01*
X91924000Y-110106600D02*
X90509000Y-110106600D01*
X94142000Y-111626600D02*
X91786000Y-111626600D01*
X91924000Y-110546600D02*
X90696000Y-110546600D01*
X95029000Y-110866600D02*
X94004000Y-110866600D01*
X95525000Y-109625600D02*
X94004000Y-109625600D01*
X95059000Y-110826600D02*
X94004000Y-110826600D01*
X94215000Y-111586600D02*
X91713000Y-111586600D01*
X91924000Y-109425600D02*
X90386000Y-109425600D01*
X94790000Y-111146600D02*
X94004000Y-111146600D01*
X93641000Y-111826600D02*
X92287000Y-111826600D01*
X95346000Y-110306600D02*
X94004000Y-110306600D01*
X91924000Y-109825600D02*
X90436000Y-109825600D01*
X93879000Y-111746600D02*
X92049000Y-111746600D01*
X95432000Y-110066600D02*
X94004000Y-110066600D01*
X94569000Y-111346600D02*
X91359000Y-111346600D01*
X94464000Y-111426600D02*
X91464000Y-111426600D01*
X95086000Y-110786600D02*
X94004000Y-110786600D01*
X91924000Y-110786600D02*
X90842000Y-110786600D01*
X94439000Y-106500825D02*
X94439000Y-107000825D01*
X95537000Y-109505600D02*
X94004000Y-109505600D01*
X91924000Y-109705600D02*
X90414000Y-109705600D01*
X91924000Y-109905600D02*
X90453000Y-109905600D01*
X91924000Y-110186600D02*
X90536000Y-110186600D01*
X91924000Y-111026600D02*
X91027000Y-111026600D01*
X95544000Y-109345600D02*
X94004000Y-109345600D01*
X91924000Y-110226600D02*
X90550000Y-110226600D01*
X91924000Y-109665600D02*
X90408000Y-109665600D01*
X95293000Y-110426600D02*
X94004000Y-110426600D01*
X91924000Y-109465600D02*
X90388000Y-109465600D01*
X95113000Y-110746600D02*
X94004000Y-110746600D01*
X91924000Y-110626600D02*
X90740000Y-110626600D01*
X91924000Y-109945600D02*
X90463000Y-109945600D01*
X95274000Y-110466600D02*
X94004000Y-110466600D01*
X91924000Y-110986600D02*
X90993000Y-110986600D01*
X94901000Y-111026600D02*
X94004000Y-111026600D01*
X91924000Y-111226600D02*
X91221000Y-111226600D01*
X93769000Y-111786600D02*
X92159000Y-111786600D01*
X94968000Y-110946600D02*
X94004000Y-110946600D01*
X91924000Y-109385600D02*
X90385000Y-109385600D01*
X91924000Y-110026600D02*
X90484000Y-110026600D01*
X95455000Y-109985600D02*
X94004000Y-109985600D01*
X95533000Y-109545600D02*
X94004000Y-109545600D01*
X95529000Y-109585600D02*
X94004000Y-109585600D01*
X95254000Y-110506600D02*
X94004000Y-110506600D01*
X94062000Y-111666600D02*
X91866000Y-111666600D01*
X91924000Y-110666600D02*
X90764000Y-110666600D01*
X91924000Y-109545600D02*
X90395000Y-109545600D01*
X91924000Y-109305600D02*
X90384000Y-109305600D01*
X91924000Y-109745600D02*
X90421000Y-109745600D01*
X95419000Y-110106600D02*
X94004000Y-110106600D01*
X95475000Y-109905600D02*
X94004000Y-109905600D01*
X95484000Y-109865600D02*
X94004000Y-109865600D01*
X95492000Y-109825600D02*
X94004000Y-109825600D01*
X95542000Y-109425600D02*
X94004000Y-109425600D01*
X95188000Y-110626600D02*
X94004000Y-110626600D01*
X91924000Y-110346600D02*
X90599000Y-110346600D01*
X91924000Y-110946600D02*
X90960000Y-110946600D01*
X91924000Y-110506600D02*
X90674000Y-110506600D01*
X94935000Y-110986600D02*
X94004000Y-110986600D01*
X91924000Y-110306600D02*
X90582000Y-110306600D01*
X91924000Y-109625600D02*
X90403000Y-109625600D01*
X95514000Y-109705600D02*
X94004000Y-109705600D01*
X91924000Y-109865600D02*
X90444000Y-109865600D01*
X95392000Y-110186600D02*
X94004000Y-110186600D01*
X95164000Y-110666600D02*
X94004000Y-110666600D01*
X91924000Y-110146600D02*
X90522000Y-110146600D01*
X91924000Y-110386600D02*
X90616000Y-110386600D01*
X91924000Y-111266600D02*
X91265000Y-111266600D01*
X94689000Y-106750825D02*
X94189000Y-106750825D01*
X94707000Y-111226600D02*
X94004000Y-111226600D01*
X95544000Y-109305600D02*
X94004000Y-109305600D01*
X95139000Y-110706600D02*
X94004000Y-110706600D01*
X91924000Y-109985600D02*
X90473000Y-109985600D01*
X95406000Y-110146600D02*
X94004000Y-110146600D01*
X91924000Y-110586600D02*
X90717000Y-110586600D01*
X94999000Y-110906600D02*
X94004000Y-110906600D01*
X91924000Y-110906600D02*
X90929000Y-110906600D01*
X95362000Y-110266600D02*
X94004000Y-110266600D01*
X91924000Y-109505600D02*
X90391000Y-109505600D01*
X94518000Y-111386600D02*
X91410000Y-111386600D01*
X94407000Y-111466600D02*
X91521000Y-111466600D01*
X91924000Y-111066600D02*
X91063000Y-111066600D01*
X91924000Y-111106600D02*
X91100000Y-111106600D01*
X95444000Y-110026600D02*
X94004000Y-110026600D01*
X91924000Y-111306600D02*
X91311000Y-111306600D01*
X91924000Y-110826600D02*
X90869000Y-110826600D01*
X91924000Y-110066600D02*
X90496000Y-110066600D01*
X91924000Y-110266600D02*
X90566000Y-110266600D01*
X94865000Y-111066600D02*
X94004000Y-111066600D01*
X94663000Y-111266600D02*
X94004000Y-111266600D01*
X91924000Y-109345600D02*
X90384000Y-109345600D01*
X95465000Y-109945600D02*
X94004000Y-109945600D01*
X95520000Y-109665600D02*
X94004000Y-109665600D01*
X95543000Y-109385600D02*
X94004000Y-109385600D01*
X91924000Y-111146600D02*
X91138000Y-111146600D01*
X91924000Y-111186600D02*
X91179000Y-111186600D01*
X95232000Y-110546600D02*
X94004000Y-110546600D01*
X95584000Y-109305600D02*
G75*
G03*
X95584000Y-109305600I-2620000J0D01*
G01*
%TO.C,R5*%
X87479200Y-79825600D02*
X87479200Y-73285600D01*
X89889200Y-79825600D02*
X90219200Y-79825600D01*
X90219200Y-79825600D02*
X90219200Y-73285600D01*
X90219200Y-73285600D02*
X89889200Y-73285600D01*
X87809200Y-79825600D02*
X87479200Y-79825600D01*
X87479200Y-73285600D02*
X87809200Y-73285600D01*
%TO.C,R2*%
X94190000Y-90780000D02*
X94190000Y-90450000D01*
X94190000Y-92860000D02*
X94190000Y-93190000D01*
X94190000Y-93190000D02*
X87650000Y-93190000D01*
X87650000Y-93190000D02*
X87650000Y-92860000D01*
X94190000Y-90450000D02*
X87650000Y-90450000D01*
X87650000Y-90450000D02*
X87650000Y-90780000D01*
%TO.C,JP5*%
X120837000Y-101752400D02*
X120837000Y-103082400D01*
X120837000Y-100482400D02*
X120837000Y-95342400D01*
X120837000Y-103082400D02*
X119507000Y-103082400D01*
X118177000Y-100482400D02*
X118177000Y-95342400D01*
X120837000Y-100482400D02*
X118177000Y-100482400D01*
X120837000Y-95342400D02*
X118177000Y-95342400D01*
%TD*%
M02*
